<?xml version="1.0" encoding="utf-8"?>
<!-- Generator: Adobe Illustrator 24.0.0, SVG Export Plug-In . SVG Version: 6.00 Build 0)  -->
<svg version="1.1" id="Capa_1" xmlns="http://www.w3.org/2000/svg" xmlns:xlink="http://www.w3.org/1999/xlink" x="0px" y="0px"
	 viewBox="0 0 384 384" style="enable-background:new 0 0 384 384;" xml:space="preserve">
<style type="text/css">
	.st0{fill:#F3FF00;}
	.st1{fill:#0A064C;}
</style>
<circle class="st0" cx="192" cy="192" r="151.7"/>
<g>
	<path class="st1" d="M192,357.5c91.3,0,165.5-74.2,165.5-165.5c0-7.6-6.2-13.8-13.8-13.8c-7.6,0-13.8,6.2-13.8,13.8
		c0,76-61.9,137.9-137.9,137.9S54.1,268,54.1,192S116,54.1,192,54.1c37,0,71.8,14.5,97.9,40.7c5.4,5.4,14.1,5.4,19.5,0.1
		c5.4-5.4,5.4-14.1,0.1-19.5c-31.3-31.5-73-48.9-117.4-48.9c-91.3,0-165.5,74.2-165.5,165.5S100.7,357.5,192,357.5z"/>
	<path class="st1" d="M192,261c7.6,0,13.8-6.2,13.8-13.8v-41.4h41.4c7.6,0,13.8-6.2,13.8-13.8s-6.2-13.8-13.8-13.8h-41.4v-41.4
		c0-7.6-6.2-13.8-13.8-13.8s-13.8,6.2-13.8,13.8v41.4h-41.4c-7.6,0-13.8,6.2-13.8,13.8s6.2,13.8,13.8,13.8h41.4v41.4
		C178.2,254.8,184.4,261,192,261z"/>
</g>
</svg>
