<?xml version="1.0" encoding="utf-8"?>
<!-- Generator: Adobe Illustrator 24.0.0, SVG Export Plug-In . SVG Version: 6.00 Build 0)  -->
<svg version="1.1" xmlns="http://www.w3.org/2000/svg" xmlns:xlink="http://www.w3.org/1999/xlink" x="0px" y="0px"
	 viewBox="0 0 528.4 276.9" style="enable-background:new 0 0 528.4 276.9;" xml:space="preserve">
<style type="text/css">
	.st0{fill:#0A22D3;}
	.st1{fill:#4040D4;}
	.st2{fill:#0F0071;}
	.st3{fill:#FFFFFF;}
</style>
<g id="Calque_3">
	<title>brique droite svg</title>
	<polygon class="st0" points="127,0 212.1,4.6 225.7,12 247,8.1 528.4,25.9 516,226.3 423.6,276.9 396.8,276.9 387.9,267.5 
		371.6,274.1 22.1,250.1 2.7,199 47.6,138.4 0,91.6 35.6,50.7 	"/>
	<polygon class="st1" points="528.4,25.9 247,8.1 225.7,12 212.1,4.6 127,0 35.6,50.7 64.3,50.7 71.6,61.9 86.3,52.7 435.9,75.9 
		487.7,48.4 481.2,43 502.8,41 	"/>
	<polygon class="st2" points="423.6,276.9 435.9,75.9 487.7,48.4 481.2,43 502.8,41 528.4,25.9 516,226.3 	"/>
</g>
<g id="Calque_2">
	<path class="st3" d="M118.1,140l36.7,3.2l3.2-35.6l36.7,3.2l-3.2,35.6l36.7,3.2l-3.2,35.6l-36.7-3.2l-3.2,35.6l-36.7-3.2l3.2-35.6
		l-36.7-3.2C114.9,175.6,118.5,135.2,118.1,140z"/>
	<g>
		<path class="st3" d="M315.9,124.1l-0.4,0l-24,10.7l-2.4-13.9l30.2-13.3l15.3,1.2l-10.1,133l-17.4-1.3L315.9,124.1z"/>
	</g>
</g>
</svg>
