<svg id="menu" xmlns="http://www.w3.org/2000/svg" viewBox="0 0 674.54 455.16"><defs><style>.cls-1{opacity:0.14;}.cls-2{fill:#c43244;}.cls-3{fill:#cb446a;}.cls-4{fill:#a22b3e;}.cls-5{fill:#750a0a;}.cls-6{fill:#fff;}.cls-7{fill:#ddd;}.cls-8{fill:#eae8e8;}</style></defs><title>rap jeu titre</title><polygon class="cls-1" points="59.14 442.19 580.54 423 674.54 315 59.14 442.19"/><polygon class="cls-2" points="0.49 293 609.56 207.53 621.35 369.69 12.28 455.16 0.49 293"/><polygon class="cls-3" points="0 293.07 48.18 245.91 662.23 157.79 609.07 207.6 0 293.07"/><polygon class="cls-4" points="621.35 369.69 609.56 207.53 662.23 157.79 673.68 315.2 621.35 369.69"/><path class="cls-5" d="M378.56,659.47l18.41,8.6,10.12,17,7-12.17a14.44,14.44,0,0,1,11.71,4.75c5.35,5.64,19.9,2,19.9,2l12.3,6.26-9.22,1.3L435,689.1l-12.31-6.27-7.82,1.1-4.8,8.67-6.36.89L396,675.39Z" transform="translate(-259.46 -304)"/><polyline class="cls-5" points="443.69 230.81 451.44 253.69 447.7 283.78 455.06 303.52 457.54 337.54 457.51 303.18 450.15 283.44 453.94 254.14 450.79 229.81 460.93 221.2 469.24 220.03 474.3 208.13 466.62 218 459.72 218.17 450.55 221.05 443.69 230.81"/><polyline class="cls-5" points="613.93 267.65 621.95 262.52 625 250.11 641.22 255.83 629.49 257.47 627.62 265.73 614.69 275.86 608.21 277.24 599.27 283.29 607.09 268.61 613.93 267.65"/><polygon class="cls-1" points="459.82 176.98 105.54 264 69.05 195.98 459.82 176.98"/><rect class="cls-2" x="69.73" y="41.95" width="451.45" height="162.26"/><polygon class="cls-3" points="68.93 41.95 106.86 1.93 562.85 0 521.11 41.95 68.93 41.95"/><polygon class="cls-4" points="521.18 204.21 521.18 41.95 562.48 0 562.48 157.51 521.18 204.21"/><polyline class="cls-5" points="398.23 41.95 402.7 65.7 398.35 94.98 402.7 115.56 402.7 149.6 404.51 115.56 400.16 94.98 404.51 66.49 403.49 41.95 411.39 34.83 417.56 34.83 421.9 23.75 415.74 32.45 410.67 31.66 403.79 33.24 398.23 41.95"/><polyline class="cls-5" points="521.18 102.11 527.34 98.15 530.24 86.28 541.83 94.19 533.14 94.19 531.32 102.11 521.3 110.34 516.47 110.81 509.58 115.56 516.11 102.11 521.18 102.11"/><polygon class="cls-5" points="82.17 110.34 84.94 80.74 88.93 60.16 92.91 65.7 95.81 49.87 100.89 41.95 116.47 7.12 106.32 41.95 104.15 45.12 99.07 53.82 94.73 74.4 91.83 72.82 89.29 80.74 82.17 110.34"/><path class="cls-6" d="M426.85,481.08V387.23h43.09A29.1,29.1,0,0,1,482.63,390a31.76,31.76,0,0,1,10,7.47A35,35,0,0,1,499.22,408a31.64,31.64,0,0,1,2.31,11.76,34.42,34.42,0,0,1-1.59,10.45,31.44,31.44,0,0,1-4.62,9.18,32.3,32.3,0,0,1-7.27,7.21l19.83,34.5H479.59l-16.53-28.82H452.62v28.82Zm25.77-51.29h16.26a4.76,4.76,0,0,0,3-1.19,9,9,0,0,0,2.45-3.44,13.35,13.35,0,0,0,1-5.42,11.87,11.87,0,0,0-1.13-5.48,9.22,9.22,0,0,0-2.77-3.37,5.5,5.5,0,0,0-3.24-1.19h-15.6Z" transform="translate(-259.46 -304)"/><path class="cls-6" d="M537.75,387.23h28.81l29.88,93.85H570.27l-4.86-18.38H538.9l-4.85,18.38H507.74Zm23.13,58.29-8.72-33-8.73,33Z" transform="translate(-259.46 -304)"/><path class="cls-6" d="M604.24,481.08V387.23h40.44A29,29,0,0,1,657.37,390a31.8,31.8,0,0,1,10,7.47A34.72,34.72,0,0,1,674,408a31.66,31.66,0,0,1,2.32,11.76,33.62,33.62,0,0,1-14.74,27.83,28.22,28.22,0,0,1-16.19,4.69H630v28.82ZM630,429.79h13.62a5.58,5.58,0,0,0,3-.93,6.85,6.85,0,0,0,2.44-3.17,15,15,0,0,0,1-5.95A13.62,13.62,0,0,0,649,413.6a6.66,6.66,0,0,0-2.78-3,6.89,6.89,0,0,0-3.23-.86H630Z" transform="translate(-259.46 -304)"/><path class="cls-6" d="M450.88,670.16a40.9,40.9,0,0,0,5.31,1.44,26.47,26.47,0,0,0,10.06.16,13.72,13.72,0,0,0,6.31-2.39,8.53,8.53,0,0,0,3.07-4.78,25.86,25.86,0,0,0,.53-7.69q-.27-4.67-1.31-11.25L467.52,599,493,595l7.36,46.75A135.11,135.11,0,0,1,502.09,661a39.27,39.27,0,0,1-2.7,15.55,24.35,24.35,0,0,1-9.87,11.31q-7,4.5-19.72,6.49a39.69,39.69,0,0,1-11.19.28,31.59,31.59,0,0,1-9.82-2.87Z" transform="translate(-259.46 -304)"/><path class="cls-6" d="M585,652.8l3.5,22.2-66.08,10.39-14.58-92.71,64.89-10.21,3.5,22.2-39.44,6.2,2.06,13.06,33.69-5.3,3.24,20.63-33.69,5.3,2.3,14.63Z" transform="translate(-259.46 -304)"/><path class="cls-6" d="M641,667.41q-11.1,1.76-19.64-.65a35,35,0,0,1-14.57-8,42.59,42.59,0,0,1-9.69-13.51,64.68,64.68,0,0,1-5.09-17l-7.49-47.6,25.47-4,7.48,47.57a41,41,0,0,0,2.29,8.59,24.68,24.68,0,0,0,4,7,15.24,15.24,0,0,0,5.84,4.35,14.15,14.15,0,0,0,7.8.71,14.84,14.84,0,0,0,7.41-3.1,14.36,14.36,0,0,0,4.21-6,27.11,27.11,0,0,0,1.63-7.93,41,41,0,0,0-.44-8.75l-7.49-47.57,25.46-4,7.49,47.6a62.25,62.25,0,0,1,.29,18.39,43.21,43.21,0,0,1-5.34,15.81A34.35,34.35,0,0,1,659.18,661,47,47,0,0,1,641,667.41Z" transform="translate(-259.46 -304)"/><polygon class="cls-7" points="189.54 383 198.54 381 190.3 377.68 189.54 383"/><polygon class="cls-8" points="399.54 87 398.54 95 402.54 116 402.54 143 403.54 142 404.54 116 400.54 95 401.54 87 399.54 87"/></svg>