<?xml version="1.0" encoding="utf-8"?>
<!-- Generator: Adobe Illustrator 24.0.0, SVG Export Plug-In . SVG Version: 6.00 Build 0)  -->
<svg version="1.1" id="Calque_1" xmlns="http://www.w3.org/2000/svg" xmlns:xlink="http://www.w3.org/1999/xlink" x="0px" y="0px"
	 viewBox="0 0 528.2 179.2" style="enable-background:new 0 0 528.2 179.2;" xml:space="preserve">
<style type="text/css">
	.st0{fill:#C10000;}
	.st1{fill:#FF0000;}
	.st2{fill:#D30909;}
	.st3{fill:#F20000;}
	.st4{fill:#FFFFFF;}
	.st5{fill:#F7F7ED;}
</style>
<title>bloc question</title>
<g id="Calque_1_1_">
	<g id="Calque_2_1_">
		<polygon class="st0" points="95.3,31.1 402.9,34.8 410.1,37.7 421.1,34.7 524.5,33.8 491.5,56.9 530,80.8 499.3,108.9 
			519.5,136.6 447,160.3 272.3,158.4 268,155 255.5,157.3 5.5,154.7 6.1,143.8 13.1,137.4 5.5,133 10,56.9 		"/>
		<polygon class="st1" points="10,56.9 451.4,60.2 421.1,80.2 436.9,90 436.4,93.2 444.1,92.9 468.1,104.8 429.2,134.7 446.6,160.2 
			272.3,158.4 268,155 255.5,157.3 5.5,154.7 4,144.4 12.5,137.7 6,132.9 		"/>
		<polygon class="st2" points="524.5,33.8 421.1,34.7 410.1,37.7 402.9,34.8 95.3,31.1 10,56.9 451.4,60.2 		"/>
		<polygon class="st3" points="491.5,56.9 530,80.8 468.1,104.8 444.1,92.9 436.4,93.2 436.9,90 421.1,80.2 		"/>
		<polygon class="st3" points="499.3,108.9 519.5,136.6 447,160.3 429.2,134.7 		"/>
	</g>
</g>
<g id="Calque_2-2">
	<polygon class="st4" points="54.1,149.4 54.9,141.4 40.4,148 	"/>
	<polygon class="st4" points="56.1,130.7 57,112.5 44.2,111.2 41.6,137.3 	"/>
	<polygon class="st4" points="78.4,91 67.3,66.2 40.1,65.8 24.2,87.8 35.4,88.9 44.7,76 60.7,75.3 67.2,89.9 57.9,102.8 39.6,100.9 
		44.2,111.2 62.5,113 	"/>
	<polygon class="st5" points="27.9,88.2 41.8,69.5 64.8,69.8 74.3,90.2 62.5,108.5 51.1,107.6 50.4,113.1 49.3,133.8 41.6,137.3 
		44.2,111.2 39.6,100.9 57.9,102.8 67.2,89.9 60.7,75.3 44.7,76 35.4,88.9 	"/>
	<polygon class="st5" points="40.4,148 49.3,144 48.5,148.8 	"/>
</g>
<g>
	<g>
		<path class="st4" d="M104.2,97.9h5.8l8.1,23.4h-5.5l-1.6-5.2h-7.7l-1.6,5.2h-5.5L104.2,97.9z M109.8,112.4l-2.7-9l-2.8,9H109.8z"
			/>
		<path class="st4" d="M120.4,121.4V97.9h15.9v4.8h-10.5v5h8.6v4.5h-8.6v9.2H120.4z"/>
		<path class="st4" d="M139.1,121.4V97.9H155v4.8h-10.5v5h8.6v4.5h-8.6v9.2H139.1z"/>
		<path class="st4" d="M157.9,121.4V97.9h5.4v23.4L157.9,121.4L157.9,121.4z"/>
		<path class="st4" d="M166.5,109.4c0-1.4,0.3-2.8,0.8-4.2c0.5-1.4,1.3-2.6,2.3-3.8c1-1.1,2.3-2,3.7-2.7c1.5-0.7,3.1-1,4.9-1
			c2.2,0,4.1,0.5,5.7,1.4c1.6,0.9,2.8,2.2,3.6,3.7l-4.2,2.9c-0.3-0.8-0.8-1.5-1.4-2c-0.6-0.5-1.2-0.8-1.9-1s-1.4-0.3-2-0.3
			c-1,0-1.9,0.2-2.7,0.6s-1.4,1-1.9,1.6c-0.5,0.7-0.9,1.4-1.1,2.3c-0.3,0.8-0.4,1.7-0.4,2.5c0,0.9,0.1,1.8,0.4,2.7
			c0.3,0.9,0.7,1.6,1.3,2.3s1.2,1.2,1.9,1.6c0.8,0.4,1.6,0.6,2.6,0.6c0.7,0,1.3-0.1,2-0.3c0.7-0.2,1.3-0.6,1.9-1
			c0.6-0.5,1-1.1,1.3-1.9l4.5,2.6c-0.5,1.1-1.3,2.1-2.3,2.9s-2.2,1.4-3.6,1.9c-1.3,0.4-2.6,0.6-4,0.6c-1.7,0-3.2-0.3-4.7-1
			c-1.4-0.7-2.6-1.6-3.7-2.8c-1-1.2-1.8-2.5-2.4-3.9C166.7,112.4,166.5,110.9,166.5,109.4z"/>
		<path class="st4" d="M210.7,97.9v23.4h-5.4v-9.6H196v9.6h-5.4V97.9h5.4v9.1h9.3v-9.1H210.7z"/>
		<path class="st4" d="M231.6,116.6v4.8h-16.5V97.9h16.2v4.8h-10.8v4.6h9.2v4.4h-9.2v5h11.1V116.6z"/>
		<path class="st4" d="M234.9,121.4V97.9h10.5c1.1,0,2.2,0.2,3.1,0.7c0.9,0.5,1.8,1.1,2.4,1.8c0.7,0.7,1.2,1.6,1.6,2.5
			c0.4,0.9,0.6,1.9,0.6,2.9c0,0.9-0.2,1.9-0.5,2.7c-0.3,0.9-0.8,1.7-1.3,2.3s-1.2,1.2-2,1.7l5.1,8.7h-6l-4.5-7.6h-3.7v7.6h-5.3
			V121.4z M240.3,109h5c0.4,0,0.8-0.1,1.1-0.4s0.6-0.6,0.8-1.1s0.3-1,0.3-1.6c0-0.7-0.1-1.2-0.4-1.7c-0.3-0.5-0.6-0.8-1-1.1
			c-0.4-0.3-0.8-0.4-1.2-0.4h-4.8v6.3H240.3z"/>
		<path class="st4" d="M264.7,121.4V97.9h10.5c1.1,0,2.2,0.2,3.1,0.7s1.8,1.1,2.4,1.8c0.7,0.7,1.2,1.6,1.6,2.5s0.6,1.9,0.6,2.9
			c0,0.9-0.2,1.9-0.5,2.7c-0.3,0.9-0.8,1.7-1.3,2.3s-1.2,1.2-2,1.7l5.1,8.7h-6l-4.5-7.6H270v7.6h-5.3V121.4z M270.1,109h5
			c0.4,0,0.8-0.1,1.1-0.4s0.6-0.6,0.8-1.1c0.2-0.5,0.3-1,0.3-1.6c0-0.7-0.1-1.2-0.4-1.7s-0.6-0.8-1-1.1c-0.4-0.3-0.8-0.4-1.2-0.4
			h-4.8v6.3H270.1z"/>
		<path class="st4" d="M303.3,116.6v4.8h-16.5V97.9H303v4.8h-10.8v4.6h9.2v4.4h-9.2v5h11.1V116.6z M296.9,96.4l-3.4-1l1.8-4.3h4.8
			L296.9,96.4z"/>
		<path class="st4" d="M306.6,121.4V97.9h10c1.1,0,2.1,0.2,3.1,0.7c0.9,0.5,1.7,1.1,2.4,1.8c0.7,0.7,1.2,1.6,1.6,2.5
			s0.6,1.9,0.6,2.9c0,1.3-0.3,2.6-0.9,3.8c-0.6,1.2-1.5,2.2-2.6,3s-2.4,1.1-3.9,1.1H312v7.6L306.6,121.4L306.6,121.4z M312,109h4.4
			c0.4,0,0.8-0.1,1.1-0.3c0.3-0.2,0.6-0.6,0.8-1.1c0.2-0.5,0.3-1.1,0.3-1.7c0-0.7-0.1-1.4-0.4-1.8c-0.2-0.5-0.6-0.8-0.9-1
			c-0.4-0.2-0.8-0.3-1.2-0.3H312V109z"/>
		<path class="st4" d="M337.4,121.5c-1.7,0-3.3-0.3-4.7-1c-1.4-0.7-2.6-1.6-3.7-2.7c-1-1.1-1.8-2.4-2.4-3.8
			c-0.5-1.4-0.8-2.9-0.8-4.4c0-1.6,0.3-3,0.9-4.5c0.6-1.4,1.4-2.7,2.4-3.8c1-1.1,2.3-2,3.7-2.6c1.4-0.6,3-1,4.7-1s3.3,0.3,4.7,1
			c1.4,0.7,2.6,1.6,3.7,2.7c1,1.1,1.8,2.4,2.4,3.8c0.5,1.4,0.8,2.9,0.8,4.3c0,1.6-0.3,3-0.9,4.5c-0.6,1.4-1.4,2.7-2.4,3.8
			c-1.1,1.1-2.3,2-3.7,2.6C340.7,121.2,339.1,121.5,337.4,121.5z M331.3,109.6c0,0.9,0.1,1.8,0.4,2.6c0.3,0.8,0.7,1.6,1.2,2.3
			c0.5,0.7,1.2,1.2,1.9,1.6c0.8,0.4,1.7,0.6,2.7,0.6s1.9-0.2,2.7-0.6c0.8-0.4,1.4-1,1.9-1.6c0.5-0.7,0.9-1.5,1.1-2.3
			c0.3-0.8,0.4-1.7,0.4-2.6s-0.1-1.8-0.4-2.6c-0.3-0.8-0.7-1.6-1.2-2.3s-1.2-1.2-1.9-1.6c-0.8-0.4-1.6-0.6-2.6-0.6s-1.9,0.2-2.7,0.6
			c-0.8,0.4-1.4,0.9-1.9,1.6s-0.9,1.4-1.2,2.3C331.4,107.9,331.3,108.7,331.3,109.6z"/>
		<path class="st4" d="M357.7,107.9v13.4h-5.4V97.9h4.3l10.9,13.8V97.9h5.4v23.4h-4.4L357.7,107.9z"/>
		<path class="st4" d="M391.3,104.8c-0.1-0.1-0.3-0.2-0.7-0.5c-0.4-0.3-0.9-0.5-1.5-0.8s-1.2-0.5-1.9-0.7c-0.7-0.2-1.4-0.3-2.1-0.3
			c-0.9,0-1.6,0.2-2.1,0.5s-0.8,0.8-0.8,1.4c0,0.5,0.2,0.9,0.6,1.2c0.4,0.3,0.9,0.6,1.7,0.8c0.7,0.2,1.6,0.5,2.7,0.8
			c1.5,0.4,2.8,0.9,3.9,1.5s1.9,1.3,2.5,2.1c0.6,0.9,0.9,2,0.9,3.5c0,1.3-0.2,2.4-0.7,3.3s-1.1,1.7-2,2.2c-0.8,0.6-1.8,1-2.8,1.2
			c-1,0.3-2.1,0.4-3.3,0.4c-1.1,0-2.3-0.1-3.5-0.4c-1.2-0.2-2.3-0.6-3.4-1s-2.1-0.9-3-1.5l2.3-4.8c0.1,0.1,0.4,0.3,0.9,0.6
			c0.5,0.3,1.1,0.6,1.8,0.9c0.7,0.3,1.5,0.6,2.4,0.9s1.8,0.4,2.6,0.4c1,0,1.7-0.2,2.2-0.5s0.7-0.7,0.7-1.3c0-0.6-0.2-1-0.7-1.4
			s-1.2-0.6-2-0.9s-1.8-0.6-2.9-0.9c-1.4-0.5-2.6-1-3.5-1.5s-1.6-1.2-2.1-2s-0.7-1.8-0.7-2.9c0-1.7,0.4-3.1,1.2-4.2
			c0.8-1.1,1.8-2,3.2-2.6c1.3-0.6,2.8-0.9,4.3-0.9c1.1,0,2.2,0.1,3.2,0.4s2,0.6,2.9,1s1.7,0.8,2.3,1.2L391.3,104.8z"/>
		<path class="st4" d="M414,116.6v4.8h-16.5V97.9h16.2v4.8H403v4.6h9.2v4.4H403v5h11V116.6z"/>
	</g>
</g>
</svg>
