<?xml version="1.0" encoding="utf-8"?>
<!-- Generator: Adobe Illustrator 24.0.0, SVG Export Plug-In . SVG Version: 6.00 Build 0)  -->
<svg version="1.1" id="Calque_3" xmlns="http://www.w3.org/2000/svg" xmlns:xlink="http://www.w3.org/1999/xlink" x="0px" y="0px"
	 viewBox="0 0 528.4 276.9" style="enable-background:new 0 0 528.4 276.9;" xml:space="preserve">
<style type="text/css">
	.st0{fill:#0A22D3;}
	.st1{fill:#4040D4;}
	.st2{fill:#0F0071;}
	.st3{fill:#FFFFFF;}
</style>
<title>brique droite svg</title>
<polygon class="st0" points="492.8,50.7 528.4,91.6 480.8,138.4 525.7,199 506.3,250.1 156.8,274.1 140.5,267.5 131.6,276.9 
	104.8,276.9 12.4,226.3 0,25.9 281.4,8.1 302.7,12 316.3,4.6 401.4,0 "/>
<polygon class="st1" points="25.6,41 47.2,43 40.7,48.4 92.5,75.9 442.1,52.7 456.8,61.9 464.1,50.7 492.8,50.7 401.4,0 316.3,4.6 
	302.7,12 281.4,8.1 0,25.9 "/>
<polygon class="st2" points="12.4,226.3 0,25.9 25.6,41 47.2,43 40.7,48.4 92.5,75.9 104.8,276.9 "/>
<path class="st3" d="M183.6,159.9l36.8-2.3l-2.2-35.7l36.8-2.3l2.3,35.7l36.8-2.3l2.3,35.7l-36.8,2.3l2.3,35.7l-36.8,2.3l-2.3-35.7
	l-36.8,2.3C185.9,195.6,183.3,155.1,183.6,159.9z"/>
<g>
	<path class="st3" d="M376.8,114.5l-0.4,0l-22.2,14.2l-4.5-13.4l27.9-17.7l15.3-1.1l10,133l-17.4,1.3L376.8,114.5z"/>
</g>
</svg>
