<svg id="Calque_19" data-name="Calque 19" xmlns="http://www.w3.org/2000/svg" viewBox="0 0 1920.02 1080"><defs><style>.cls-1{fill:#0029d6;}.cls-2{fill:none;}.cls-3{fill:#1f49cc;}</style></defs><title>fond contact 2</title><rect class="cls-1" width="1920" height="1080"/><polygon class="cls-2" points="150.15 1075.2 0 1068.94 0 1080 467.32 1080 428.92 1059.32 150.15 1075.2"/><path class="cls-2" d="M32.22,77.38,0,81.71v24.18H63.94L95.7,139.41l90-17.64,296.41-15.88V275.27l-210,28.23L203.3,266.44,0,278v27.54l33.54-1.79V473.16L0,477.67V503H288.21L320,536.51l90-17.65L706.37,503V672.36l-210,28.23L427.6,663.54,148.83,679.42,0,673.22v34L25.78,734.4l90-17.65,296.41-15.88V870.25l-210,28.23L133.4,861.43,0,869v29.73H289.53l31.76,33.53,90-17.65L707.7,898.73v169.38L619.48,1080h589.27l-38.41-20.68L891.57,1075.2l-169.37-7.06,17.64-70.57L722.2,916.41V898.76H1031l31.76,33.53,90-17.65,296.41-15.88v169.38L1360.9,1080H1920v-15.54l-9.55-5.14-278.77,15.88-169.38-7.06,17.64-70.57-17.64-81.16V898.76h308.76l31.76,33.53,90-17.65,27.2-1.45V886.41l-7.83-.33,7.83-31.33V770.38l-7.83-36V716.71H1920v-48l-9.55-5.15-278.77,15.88-169.38-7.06,17.64-70.57-17.64-81.16V503h308.76l31.76,33.52,90-17.65,27.2-1.45V467.77l-218.4,12.44-169.38-7,17.64-70.58-17.64-81.16V303.78H1841l31.76,33.52L1920,328V281.66L1757.62,303.5l-68.81-37.06L1410,282.32l-169.37-7.05,17.64-70.58-17.64-81.16V105.89h308.76l31.75,33.52,90-17.64L1920,108.44V72L1701.6,84.43l-169.38-7.05L1549.86,6.8,1548.39,0h-30.68V77.38l-210,28.23-68.81-37L960.18,84.43,790.8,77.38,808.44,6.8,807,0H776.29V77.38l-210,28.23-68.81-37L218.75,84.43,49.37,77.38,67,6.8,65.54,0H32.22Zm1124,792.87-210,28.23-68.81-37.05L598.7,877.31l-169.38-7.06L447,799.68l-17.64-81.16V700.87H738.08l31.76,33.53,90-17.65,296.41-15.88Zm-266-190.83-169.37-7.06,17.64-70.57-17.64-81.16V503h308.76l31.76,33.52,90-17.65L1447.79,503V672.36l-210,28.23L1169,663.54Zm589.26,21.45,31.75,33.53,90-17.65,296.41-15.88V870.25l-210,28.23-68.81-37.05-278.77,15.88-169.38-7.06,17.65-70.57-17.65-81.16V700.87ZM1519,303.78V473.16l-210,28.22-68.81-37.05-278.7,15.88-169.37-7,17.64-70.58-17.64-81.16V303.78h308.76l31.76,33.52,90-17.64ZM499.24,123.53V105.89H808l31.76,33.52,90-17.64,296.41-15.88V275.27l-210,28.23-68.81-37.06L668.62,282.32l-169.38-7.05,17.65-70.58ZM777.61,303.78V473.16l-210,28.22L498.8,464.33,220.07,480.21l-169.38-7,17.65-70.58L50.69,321.42V303.78H359.45l31.76,33.52,90-17.64Z"/><polygon class="cls-3" points="272.13 303.5 482.09 275.27 482.09 105.89 185.68 121.77 95.7 139.41 63.94 105.89 0 105.89 0 278.03 203.32 266.44 272.13 303.5"/><polygon class="cls-3" points="668.62 282.32 947.39 266.44 1016.2 303.5 1226.15 275.27 1226.15 105.89 929.74 121.77 839.76 139.41 808 105.89 499.24 105.89 499.24 123.53 516.88 204.69 499.24 275.27 668.62 282.32"/><polygon class="cls-3" points="1581.18 139.41 1549.43 105.89 1240.66 105.89 1240.66 123.53 1258.31 204.69 1240.66 275.27 1410.04 282.32 1688.81 266.44 1757.62 303.5 1920 281.66 1920 108.44 1671.17 121.77 1581.18 139.41"/><polygon class="cls-3" points="32.22 0 0 0 0 81.71 32.22 77.38 32.22 0"/><polygon class="cls-3" points="49.38 77.38 218.75 84.44 497.52 68.56 566.33 105.61 776.29 77.38 776.29 0 65.54 0 67.02 6.8 49.38 77.38"/><polygon class="cls-3" points="790.8 77.38 960.17 84.44 1238.94 68.56 1307.75 105.61 1517.71 77.38 1517.71 0 806.96 0 808.44 6.8 790.8 77.38"/><polygon class="cls-3" points="1532.22 77.38 1701.6 84.44 1920 71.99 1920 0 1548.39 0 1549.87 6.8 1532.22 77.38"/><polygon class="cls-3" points="1840.98 303.78 1532.22 303.78 1532.22 321.42 1549.87 402.58 1532.22 473.15 1701.6 480.21 1920 467.77 1920 328.03 1872.74 337.3 1840.98 303.78"/><polygon class="cls-3" points="33.54 303.78 0 305.57 0 477.67 33.54 473.15 33.54 303.78"/><polygon class="cls-3" points="391.21 337.3 359.45 303.78 50.69 303.78 50.69 321.42 68.34 402.58 50.69 473.15 220.07 480.21 498.84 464.33 567.65 501.38 777.61 473.15 777.61 303.78 481.19 319.66 391.21 337.3"/><polygon class="cls-3" points="1132.64 337.3 1100.88 303.78 792.12 303.78 792.12 321.42 809.76 402.58 792.12 473.15 961.5 480.21 1240.26 464.33 1309.07 501.38 1519.03 473.15 1519.03 303.78 1222.62 319.66 1132.64 337.3"/><polygon class="cls-3" points="202.21 898.48 412.17 870.25 412.17 700.87 115.76 716.75 25.78 734.4 0 707.19 0 869.03 133.4 861.43 202.21 898.48"/><polygon class="cls-3" points="769.84 734.4 738.08 700.87 429.32 700.87 429.32 718.52 446.96 799.68 429.32 870.25 598.7 877.31 877.47 861.43 946.27 898.48 1156.23 870.25 1156.23 700.87 859.82 716.75 769.84 734.4"/><polygon class="cls-3" points="1170.74 718.52 1188.39 799.68 1170.74 870.25 1340.12 877.31 1618.89 861.43 1687.7 898.48 1897.66 870.25 1897.66 700.87 1601.24 716.75 1511.26 734.4 1479.51 700.87 1170.74 700.87 1170.74 718.52"/><polygon class="cls-3" points="1920 886.41 1920 854.75 1912.17 886.08 1920 886.41"/><polygon class="cls-3" points="1912.17 734.35 1920 770.38 1920 716.71 1912.17 716.71 1912.17 734.35"/><polygon class="cls-3" points="427.6 663.54 496.41 700.59 706.37 672.36 706.37 502.99 409.95 518.87 319.97 536.51 288.21 502.99 0 502.99 0 673.22 148.83 679.42 427.6 663.54"/><polygon class="cls-3" points="1447.79 672.36 1447.79 502.99 1151.38 518.87 1061.4 536.51 1029.64 502.99 720.88 502.99 720.88 520.63 738.52 601.79 720.88 672.36 890.25 679.42 1169.02 663.54 1237.83 700.59 1447.79 672.36"/><polygon class="cls-3" points="1802.82 536.51 1771.06 502.99 1462.3 502.99 1462.3 520.63 1479.94 601.79 1462.3 672.36 1631.68 679.42 1910.44 663.54 1920 668.69 1920 517.41 1892.8 518.87 1802.82 536.51"/><polygon class="cls-3" points="1802.82 932.29 1771.06 898.76 1462.3 898.76 1462.3 916.41 1479.94 997.57 1462.3 1068.14 1631.68 1075.2 1910.44 1059.32 1920 1064.46 1920 913.18 1892.8 914.64 1802.82 932.29"/><polygon class="cls-3" points="707.68 898.76 411.27 914.64 321.29 932.29 289.53 898.76 0 898.76 0 1068.94 150.15 1075.2 428.92 1059.32 467.32 1080 619.48 1080 707.68 1068.14 707.68 898.76"/><polygon class="cls-3" points="1449.11 898.76 1152.7 914.64 1062.72 932.29 1030.96 898.76 722.2 898.76 722.2 916.41 739.84 997.57 722.2 1068.14 891.57 1075.2 1170.34 1059.32 1208.75 1080 1360.9 1080 1449.11 1068.14 1449.11 898.76"/><line class="cls-2" x1="1920" y1="71.99" x2="1920" y2="108.44"/><line class="cls-2" x1="1920" y1="281.66" x2="1920" y2="108.44"/><line class="cls-2" y1="707.19" y2="673.22"/><line class="cls-2" y1="477.67" y2="502.99"/><line class="cls-2" y1="898.76" y2="1068.94"/><line class="cls-2" y1="707.19" y2="869.03"/><line class="cls-2" x1="467.33" y1="1080" x2="619.48" y2="1080"/><line class="cls-2" y1="898.76" y2="869.03"/><line class="cls-2" y1="502.99" y2="673.22"/><line class="cls-2" y1="305.57" y2="477.67"/><line class="cls-2" x1="1920" y1="770.38" x2="1920" y2="716.71"/><line class="cls-2" x1="1920" y1="668.69" x2="1920" y2="517.41"/><line class="cls-2" x1="1920" y1="467.77" x2="1920" y2="328.03"/><line class="cls-2" x1="1920" y1="1064.46" x2="1920" y2="913.19"/><line class="cls-2" x1="1920" y1="886.41" x2="1920" y2="854.75"/><line class="cls-2" x1="1920" y1="886.41" x2="1920" y2="913.19"/><line class="cls-2" x1="806.96" x2="776.29"/><line class="cls-2" x1="1517.71" x2="806.96"/><line class="cls-2" x1="1548.39" x2="1517.71"/><line class="cls-2" y1="305.57" y2="278.03"/><line class="cls-2" y1="278.03" y2="105.89"/><line class="cls-2" x1="776.29" x2="65.54"/><line class="cls-2" x1="65.54" x2="32.22"/><polyline class="cls-2" points="1920 71.99 1920 0 1548.39 0"/><line class="cls-2" y1="81.71" y2="105.89"/><line class="cls-2" x1="1360.9" y1="1080" x2="1208.75" y2="1080"/><polyline class="cls-2" points="467.32 1080 0 1080 0 1068.94"/><line class="cls-2" x1="1920" y1="770.38" x2="1920" y2="854.75"/><line class="cls-2" x1="1920" y1="281.66" x2="1920" y2="328.03"/><line class="cls-2" x1="1920" y1="467.77" x2="1920" y2="517.41"/><line class="cls-2" x1="1920" y1="668.69" x2="1920" y2="716.71"/><line class="cls-2" x1="619.48" y1="1080" x2="1208.75" y2="1080"/><polyline class="cls-2" points="32.22 0 0 0 0 81.71"/><polyline class="cls-2" points="1920 1064.46 1920 1080 1360.9 1080"/></svg>