<?xml version="1.0" encoding="utf-8"?>
<!-- Generator: Adobe Illustrator 24.0.0, SVG Export Plug-In . SVG Version: 6.00 Build 0)  -->
<svg version="1.1" id="Calque_9" xmlns="http://www.w3.org/2000/svg" xmlns:xlink="http://www.w3.org/1999/xlink" x="0px" y="0px"
	 viewBox="0 0 511 302.2" style="enable-background:new 0 0 511 302.2;" xml:space="preserve">
<style type="text/css">
	.st0{fill:#0A22D3;}
	.st1{fill:#4040D4;}
	.st2{fill:#0F0071;}
	.st3{fill:#FFFFFF;}
</style>
<title>jouer fin</title>
<g>
	<polygon class="st0" points="170.7,21.3 256.7,20 270.9,26.4 292.1,21 492.3,19.2 494,221.8 404.6,279.2 377.5,281.1 367.9,272.3 
		352,280.1 81.3,278.5 59.6,230.4 100.6,166.3 49.3,122.4 80.3,76.6 	"/>
	<polygon class="st1" points="492.3,19.2 292.1,21 270.9,26.4 256.7,20 170.7,21.3 80.3,76.6 111.1,76.8 119.3,87.6 133.5,77.2 
		402.7,76 453,44.7 445.9,39.7 467.6,36.2 	"/>
	<polygon class="st2" points="404.6,279.2 402.7,76 453,44.7 445.9,39.7 467.6,36.2 492.3,19.2 494,221.8 	"/>
	<path class="st3" d="M131.3,218.7l-0.2-99.4l66.5-0.1l0.1,27l-31.4,0.1l0,9.6l28.5-0.1l0,25.5l-28.5,0l0,10.4l32.3-0.1l0.1,27
		L131.3,218.7z"/>
	<path class="st3" d="M213,218.5l-0.2-99.4l45-0.1c13,0,23,2.8,29.9,8.6c6.9,5.7,10.3,14,10.4,24.8c0,7.1-1.7,12.9-5.2,17.5
		c-3.4,4.5-8.4,7.4-14,8l26.6,40.4l-40.1,0.1L248,185.6l0.1,32.8L213,218.5z M248,144.7l0,19.4l5.6,0c3.4,0,6-0.8,7.8-2.5
		c1.8-1.6,2.7-4,2.7-7.1c0-3.1-0.9-5.6-2.8-7.3s-4.5-2.5-7.9-2.5L248,144.7z"/>
	<path class="st3" d="M68.3,119.8l0,23.8l4.7-0.6l26.8,23.4l-35,55.1c6-0.5,11.8-2.1,17.3-4.7c6.7-3.1,12.3-8.1,16.3-14.3
		c2.2-3.5,3.7-7.4,4.4-11.5c1-5.8,1.5-11.6,1.4-17.5l-0.1-53.9L68.3,119.8z"/>
</g>
</svg>
