<svg id="Calque_1" data-name="Calque 1" xmlns="http://www.w3.org/2000/svg" viewBox="0 0 1869.96 1139.86"><defs><style>.cls-1,.cls-3{fill:#ff4343;}.cls-2,.cls-3,.cls-4,.cls-5,.cls-6,.cls-7{isolation:isolate;}.cls-3,.cls-4,.cls-5{font-size:341.48px;font-family:PetrichorSublimey, Petrichor Sublimey;}.cls-5{letter-spacing:-0.09em;}.cls-6,.cls-7{font-size:59.11px;font-family:BerlinSansFB-Bold, Berlin Sans FB;font-weight:700;}.cls-6{fill:#fff;}.cls-7{fill:none;stroke:#ff4343;stroke-miterlimit:10;}</style></defs><title>logo kitsune</title><g id="Calque_2" data-name="Calque 2"><path d="M927.93,1301.86,793.41,1301,659,1299.5c-11-.12-23-.27-34.53-1.2s-23.19-2.11-34.81-3.9a309.38,309.38,0,0,1-35-7.32,173,173,0,0,1-35.39-13.58,99.77,99.77,0,0,1-17.53-11.75,67.64,67.64,0,0,1-15.45-18.52,56.94,56.94,0,0,1-5.05-12.31c-.68-2.41-.94-3.85-1.31-5.49s-.7-3.26-1-4.92a123,123,0,0,1-1.89-20.27,115.26,115.26,0,0,1,7.13-40.94,112.27,112.27,0,0,1,9.16-19c1.84-3,3.82-6,6-8.9,1.08-1.46,2.24-2.91,3.47-4.37l1.95-2.22,1.09-1.17,1.58-1.57,2.47-2.44,4.72-2.08C550,1102,585.54,1085,620.12,1067.34s68.69-36.48,100.68-57A482,482,0,0,0,766,978c3.54-2.79,6.65-5.7,9.91-8.54,3-3,5.86-5.55,9.14-9.11,3.16-3.37,6.41-6.65,9.5-10.07L803.67,940a356,356,0,0,0,32.06-43.7c4.69-7.55,8.92-15.26,12.72-22.95,1.86-3.84,3.6-7.69,5.13-11.45.75-1.88,1.5-3.75,2.1-5.5.35-.93.6-1.73.86-2.53l.33-1.08c.08-.28.23-.78.08-.3l5.45-11.27c3.06-4.22,5.5-7.44,8.26-11l8.12-10.3q8.19-10.18,16.68-20,17-19.67,35.35-38.21c24.53-24.66,50.89-48,80.06-68.74A436.08,436.08,0,0,1,1057,664.13a335.42,335.42,0,0,1,51.43-22.73,256.4,256.4,0,0,1,57.39-12.68,220.06,220.06,0,0,1,61.12,2.27l-49.08,28.59,2-6.33,1.89-5.45c1.26-3.58,2.57-7,3.9-10.52,2.67-6.9,5.51-13.64,8.48-20.31,5.92-13.36,12.48-26.35,19.56-39.13a433.24,433.24,0,0,1,50.73-72.15c19.71-22.34,41.76-43,67.13-60.37a436.93,436.93,0,0,1,37.82-23.09c12.56-7,25.21-13.15,37.82-19.18,50.48-23.64,101.47-42,152.73-58.94q38.52-12.44,77.23-23.55c26-7.25,51.55-14.31,78.23-20.7l55.26-13.22-7.3,53.29c-.94,6.83-1.89,12.6-2.92,18.8l-3.23,18.15c-2.26,12-4.64,24-7.3,35.93Q1742,448.5,1732,483.75t-22.49,69.69c-8.42,23-17.63,45.67-28,67.95-20.78,44.41-46.1,87.42-79,124.81a284.81,284.81,0,0,1-56.1,49.11c-20.87,13.61-44.15,23.6-68.16,28.3l-2.59-8.91a196.06,196.06,0,0,0,57.77-36.42c16.94-15.11,31.15-33,43.9-51.69a416.54,416.54,0,0,0,33-59.78,646.42,646.42,0,0,0,25.08-64c7.39-21.75,13.74-43.93,19.39-66.29s10.64-44.94,14.89-67.67,8.09-45.54,11.17-68.44c1.54-11.44,3-22.88,4.27-34.31l1.74-17.1c.51-5.57,1-11.57,1.33-16.54l48,40.07c-24.15,8.37-49.1,17.12-73.46,26.23s-48.87,18.22-73,27.9c-48.27,19.06-95.94,39.47-140.77,62-11.14,5.64-22.09,11.51-32.58,17.48s-20.58,12.24-29.72,18.58a322.33,322.33,0,0,0-51.4,44.78,407.44,407.44,0,0,0-43.38,55.43c-6.52,9.94-12.7,20.17-18.31,30.63-2.81,5.23-5.51,10.51-8,15.79L1262,679.2,1259,686l-15.74,36.66L1210,714.63c-24-5.82-50.45-4.3-77.23,3.38s-53.5,21.11-78.81,37.73-49.57,36.35-72.35,57.85q-17.09,16.13-33.15,33.5-8,8.67-15.68,17.57l-7.53,8.93c-2.38,2.88-5,6.18-6.91,8.59l5.46-11.27c-.49,1.67-.74,2.34-1,3.23l-.87,2.43c-.56,1.53-1.12,3-1.7,4.42-1.13,2.87-2.31,5.54-3.5,8.21-2.47,5.3-5,10.3-7.68,15.3q-8,14.7-17,28.19A423.39,423.39,0,0,1,852,983l-11,11.47c-3.68,3.77-7.51,7.37-11.26,11.05-3.55,3.58-8.11,7.55-12.34,11.29-4.3,3.49-8.61,7.11-13,10.28-17.3,13.12-35,23.94-52.78,34.2-35.61,20.38-71.81,37.91-108.35,54.42s-73.23,31.73-111,46.12l7.18-4.52c.42-.4.11-.12.08-.1l-.36.34-.88.89c-.61.65-1.25,1.35-1.88,2.11a58.82,58.82,0,0,0-3.64,4.84A68.84,68.84,0,0,0,521,1200.91a78.78,78.78,0,0,0,.48,13.21c.09,1.11.27,2.23.45,3.36l.45,2.72a14.62,14.62,0,0,0,1,3.3c2,4.59,7.81,10.31,15.54,15,15.71,9.45,36.41,15.63,57.07,20,10.42,2.21,21.06,4,31.74,5.36s21.11,2.12,32.53,3.2l134,12.5,134,13Z" transform="translate(-477.04 -286.64)"/><circle class="cls-1" cx="1200.43" cy="953.36" r="35.88"/><circle class="cls-1" cx="1203.55" cy="556.99" r="35.88"/><circle class="cls-1" cx="1353.2" cy="429.95" r="35.88"/><circle class="cls-1" cx="1351.87" cy="1080.8" r="35.88"/><circle class="cls-1" cx="2013.22" cy="1390.62" r="35.88" transform="translate(-158.96 2868.45) rotate(-80.78)"/><circle class="cls-1" cx="2020.45" cy="691.93" r="35.88" transform="translate(536.78 2288.82) rotate(-80.78)"/><circle class="cls-1" cx="1752.63" cy="520.52" r="35.88"/><circle class="cls-1" cx="1750.94" cy="997.31" r="35.88"/><circle class="cls-1" cx="1834.08" cy="756.25" r="35.88"/><circle class="cls-1" cx="1834.13" cy="756.2" r="31.06"/><g class="cls-2"><text class="cls-3" transform="translate(556.17 881.12)">K</text><text class="cls-4" transform="translate(772.93 881.12)">-</text><text class="cls-5" transform="translate(906.32 881.12)">T</text><text class="cls-4" transform="translate(1092.57 881.12)">sun</text></g><text class="cls-6" transform="translate(1814.67 774.87)">C</text><text class="cls-7" transform="translate(1814.67 774.87)">C</text></g></svg>