<svg xmlns="http://www.w3.org/2000/svg" xmlns:xlink="http://www.w3.org/1999/xlink" viewBox="0 0 325 918.88"><defs><style>.cls-1{fill:#e29a7a;}.cls-2{fill:#727272;}.cls-3{fill:#32292f;}.cls-4{fill:#9a906b;}.cls-5,.cls-6,.cls-8{fill:#fff;}.cls-5,.cls-8{stroke:#fc3;}.cls-5{stroke-miterlimit:10;stroke-width:2px;}.cls-7{fill:#ffd24d;}.cls-8{stroke-linecap:round;stroke-linejoin:bevel;}.cls-9{fill:#ffd222;}.cls-10{fill:#0f0071;}.cls-11{fill:#0823d3;}.cls-12{fill:#4040d4;}.cls-13{fill:#413fd4;}.cls-14{fill:#4340d7;}.cls-15{fill:#0a22d3;}.cls-16{fill:#494147;opacity:0.47;}.cls-17{fill:#353126;}.cls-18{fill:#604e16;}.cls-19{fill:#db967b;}.cls-20{fill:#787049;}.cls-21{fill:#544314;}.cls-22{fill:#6d5b18;}.cls-23{fill:none;}.cls-24{fill:#837d5a;}.cls-25{fill:#a29873;}.cls-26{fill:#e5e0db;}.cls-27{fill:#9c371e;}.cls-28{fill:#42290a;}.cls-29{fill:#3b3432;}.cls-30{fill:#d8d6d0;}.cls-31{fill:#ce8b76;}.cls-32{fill:#d6907b;}.cls-33{fill:#d8937d;}.cls-34{fill:url(#Dégradé_sans_nom_7);}.cls-35{fill:url(#Dégradé_sans_nom_7-2);}.cls-36{fill:url(#Dégradé_sans_nom_7-3);}.cls-37{fill:url(#Dégradé_sans_nom_7-4);}.cls-38{fill:url(#Dégradé_sans_nom_9);}.cls-39{fill:url(#Dégradé_sans_nom_9-2);}.cls-40{fill:url(#Dégradé_sans_nom_9-3);}.cls-41{fill:url(#Dégradé_sans_nom_9-4);}.cls-42{fill:url(#Dégradé_sans_nom_9-5);}.cls-43{fill:#e4966d;}.cls-44{fill:#5e473a;}.cls-45{fill:url(#Dégradé_sans_nom_48);}.cls-46{fill:url(#Nouvelle_nuance_de_dégradé_1);}.cls-47{fill:#b27b67;}.cls-48{fill:#dbc8cc;}.cls-49{fill:#513b28;}.cls-50{fill:#765835;}.cls-51{fill:#be6457;}.cls-52{fill:#e8bbc2;}.cls-53{fill:#b64d3e;}.cls-54{fill:#a33521;}.cls-55{fill:#933427;}.cls-56{fill:#e8ae7d;}.cls-57{fill:#cd8960;}.cls-58{fill:#9f4e31;}.cls-59{fill:#a85650;}.cls-60{fill:#a35f5d;}.cls-61{fill:#af655e;}.cls-62{fill:#42210e;}.cls-63{fill:#443b36;opacity:0.49;}.cls-64{fill:#4a361c;}.cls-65{fill:#191805;}.cls-66{fill:#dddadb;}.cls-67{fill:#d8a391;}.cls-68{fill:#1f1504;}.cls-69{fill:#e09777;}.cls-70{fill:#dda187;}.cls-71{fill:#d8aa9a;}.cls-72{fill:#dd9c83;}.cls-73{fill:#c98b75;}.cls-74,.cls-75{fill:#2d120a;}.cls-74{opacity:0.76;}.cls-76{fill:url(#Dégradé_sans_nom_82);}.cls-77{fill:#e09b80;}.cls-78{fill:#dd9985;}.cls-79{fill:#e09e85;}.cls-80{fill:#e29b7f;}.cls-81{fill:#e09c85;}.cls-82{fill:url(#Dégradé_sans_nom_30);}.cls-83{fill:url(#Dégradé_sans_nom_31);}.cls-84{fill:#d89479;}.cls-85{fill:#c68771;}.cls-86{fill:#ce9580;}</style><radialGradient id="Dégradé_sans_nom_7" cx="1704.43" cy="437.52" r="11.8" gradientTransform="matrix(1.15, -0.21, 0.03, 0.11, -1799.22, 662.29)" gradientUnits="userSpaceOnUse"><stop offset="0" stop-color="#b57969"/><stop offset="1" stop-color="#db967b"/></radialGradient><radialGradient id="Dégradé_sans_nom_7-2" cx="1702.59" cy="432.44" r="12.01" gradientTransform="matrix(1.04, -0.17, 0.03, 0.09, -1603.98, 595.66)" xlink:href="#Dégradé_sans_nom_7"/><radialGradient id="Dégradé_sans_nom_7-3" cx="1701.43" cy="427.52" r="11.8" gradientTransform="translate(-1503.86 657.78) rotate(-12.08) scale(1 0.11)" xlink:href="#Dégradé_sans_nom_7"/><radialGradient id="Dégradé_sans_nom_7-4" cx="1702.43" cy="444.52" r="11.8" gradientTransform="translate(-1504.21 673.22) rotate(-12.08) scale(1 0.11)" xlink:href="#Dégradé_sans_nom_7"/><radialGradient id="Dégradé_sans_nom_9" cx="1756.81" cy="425.58" r="14.87" gradientTransform="translate(-1421.14 -274.27) rotate(18.2) scale(1 0.17)" xlink:href="#Dégradé_sans_nom_7"/><radialGradient id="Dégradé_sans_nom_9-2" cx="1739.75" cy="427.99" r="15.47" gradientTransform="translate(-1421.86 -266.93) rotate(18.2) scale(1 0.17)" xlink:href="#Dégradé_sans_nom_7"/><radialGradient id="Dégradé_sans_nom_9-3" cx="1737.31" cy="432.44" r="14.16" gradientTransform="translate(-1421.74 -262.45) rotate(18.2) scale(1 0.17)" xlink:href="#Dégradé_sans_nom_7"/><radialGradient id="Dégradé_sans_nom_9-4" cx="1735.19" cy="439.44" r="14.35" gradientTransform="translate(-1421.47 -255.94) rotate(18.2) scale(1 0.17)" xlink:href="#Dégradé_sans_nom_7"/><radialGradient id="Dégradé_sans_nom_9-5" cx="1732.1" cy="444.88" r="12.46" gradientTransform="translate(-1421.33 -250.42) rotate(18.2) scale(1 0.17)" xlink:href="#Dégradé_sans_nom_7"/><linearGradient id="Dégradé_sans_nom_48" x1="1689.74" y1="147.21" x2="1676.27" y2="165.64" gradientUnits="userSpaceOnUse"><stop offset="0" stop-color="#d89479"/><stop offset="1" stop-color="#e29a7a"/></linearGradient><linearGradient id="Nouvelle_nuance_de_dégradé_1" x1="1711.73" y1="166.53" x2="1731.36" y2="146.89" xlink:href="#Dégradé_sans_nom_48"/><linearGradient id="Dégradé_sans_nom_82" x1="1695.96" y1="167.74" x2="1711.97" y2="167.74" gradientUnits="userSpaceOnUse"><stop offset="0" stop-color="#e29a7a"/><stop offset="0.37" stop-color="#dc9679"/><stop offset="1" stop-color="#d89479"/></linearGradient><linearGradient id="Dégradé_sans_nom_30" x1="1711.28" y1="157.91" x2="1714.33" y2="157.91" gradientUnits="userSpaceOnUse"><stop offset="0" stop-color="#a8042f"/><stop offset="0.05" stop-color="#b22b4e"/><stop offset="0.1" stop-color="#bc4f6b"/><stop offset="0.16" stop-color="#c47086"/><stop offset="0.22" stop-color="#cb8c9c"/><stop offset="0.29" stop-color="#d1a2ae"/><stop offset="0.38" stop-color="#d6b3bb"/><stop offset="0.48" stop-color="#d9bfc5"/><stop offset="0.62" stop-color="#dbc6ca"/><stop offset="1" stop-color="#dbc8cc"/></linearGradient><linearGradient id="Dégradé_sans_nom_31" x1="1688.71" y1="157.07" x2="1692.5" y2="157.07" gradientUnits="userSpaceOnUse"><stop offset="0" stop-color="#dbc8cc"/><stop offset="0.39" stop-color="#dbc6cb"/><stop offset="0.53" stop-color="#dabfc5"/><stop offset="0.63" stop-color="#d9b4bc"/><stop offset="0.71" stop-color="#d7a3af"/><stop offset="0.78" stop-color="#d48d9d"/><stop offset="0.85" stop-color="#d17188"/><stop offset="0.9" stop-color="#cd516f"/><stop offset="0.95" stop-color="#c92d52"/><stop offset="1" stop-color="#c40432"/><stop offset="1" stop-color="#c4002f"/></linearGradient></defs><title>mehdi carte en main neutre</title><g id="cou"><path class="cls-1" d="M1730,203l7,24,7,10s-11.17,24.11-24.79,23.86-36.3,4.8-47.65-4.55S1662,235,1662,235l7-12,3-13Z" transform="translate(-1532 -81.26)"/></g><g id="Calque_5" data-name="Calque 5"><polygon class="cls-2" points="148.5 854.24 150.5 834.24 199.5 835.24 188.5 844.24 155.5 858.24 148.5 854.24"/><path class="cls-2" d="M1607,917l-3,13,29,9s7-6,8-6-3-14-3-14Z" transform="translate(-1532 -81.26)"/><path class="cls-3" d="M1664,228a350.58,350.58,0,0,1-74,32s-14,14-24,41-34,70-34,70,70,24,71,31-15,38-14,49,6,36,3,43-5,35-2,44,1,15,1,15,197,11,201,11,10-3,10-3,1-75-5-87-8-62-8-62,40-5,68-21c0,0-26-65-30-81s-15-38-22-41-61-34-61-34-18,42-60,15C1684,250,1665,241,1664,228Z" transform="translate(-1532 -81.26)"/><path class="cls-4" d="M1685,661c0,1-2,66-5,68s-12,32-13,34-8,27-8,29-4,92-4,96,3,22,0,25l-15,15s-12,6-13,6-13-9-14-10-8-2-8-2l-14-18,2-17-8-11,10-15s-6-103-3-107l-12-21-2-19,9-27,7-30-2-18,3-16,3-18-1-21-4,1-2-3-2-14,5.06-14.47S1642,551,1652,556c0,0,127,9,140,8l5.34-.06L1795,580l-4,9v17c0,1-3,4-3,4l4,74s-5,27-11,38l-1,11-13,19s-4,38-4,41-4,12-4,12-5,37-5,41-12,55-13,56,0,17,0,17l-11,6s-14-3-15-3h-17l-16,3-14-10,19-20,3-89,5-17V768l-1-36-4-18,1-32Z" transform="translate(-1532 -81.26)"/><g id="carte"><rect class="cls-5" x="155" y="286.47" width="62" height="85.19" rx="12"/><rect class="cls-6" x="155.88" y="287.45" width="60.6" height="83.27" rx="12"/><path class="cls-7" d="M1699.88,452.64c.14-.09.06-.28-.34-.26l-.3.31Z" transform="translate(-1532 -81.26)"/><path class="cls-7" d="M1697.28,451.73c-.47,0-1.09.18-.87.55.55-.2.62,0,1.19-.3.4,0,.67.21.58.32.15-.05.62.17.85,0a3.15,3.15,0,0,0-.83-.3,4.7,4.7,0,0,0-1,0C1697.08,451.83,1697.24,451.78,1697.28,451.73Z" transform="translate(-1532 -81.26)"/><path class="cls-7" d="M1688.34,418.32l0,.25A1.45,1.45,0,0,0,1688.34,418.32Z" transform="translate(-1532 -81.26)"/><path class="cls-7" d="M1688.52,394.86c0,.18,0,.25.07.26C1688.57,395,1688.55,394.82,1688.52,394.86Z" transform="translate(-1532 -81.26)"/><path class="cls-7" d="M1688.89,390.85l0,.24A.43.43,0,0,0,1688.89,390.85Z" transform="translate(-1532 -81.26)"/><path class="cls-7" d="M1688.34,418.32l.1-.62C1688.34,417.65,1688.36,418,1688.34,418.32Z" transform="translate(-1532 -81.26)"/><path class="cls-7" d="M1692.08,450.16a1.59,1.59,0,0,0,.35.14l-.3-.17Z" transform="translate(-1532 -81.26)"/><path class="cls-7" d="M1688.61,428.67v.19a1,1,0,0,0,.13.16Z" transform="translate(-1532 -81.26)"/><path class="cls-7" d="M1688.66,436.61c0-.18-.27-.24-.39-.31a.61.61,0,0,1,.19.39A.35.35,0,0,0,1688.66,436.61Z" transform="translate(-1532 -81.26)"/><path class="cls-7" d="M1691.48,448.1l.18.14A2.2,2.2,0,0,1,1691.48,448.1Z" transform="translate(-1532 -81.26)"/><path class="cls-7" d="M1688.67,423a.27.27,0,0,0,.1-.08S1688.7,422.94,1688.67,423Z" transform="translate(-1532 -81.26)"/><path class="cls-7" d="M1709.08,453.29v-.05S1709,453.29,1709.08,453.29Z" transform="translate(-1532 -81.26)"/><path class="cls-7" d="M1699.88,451.9l.12,0a.4.4,0,0,0,0-.15Z" transform="translate(-1532 -81.26)"/><path class="cls-7" d="M1689.25,383.52v0C1689.27,383.75,1689.27,383.64,1689.25,383.52Z" transform="translate(-1532 -81.26)"/><path class="cls-7" d="M1743.89,372.84c-.35-.67,1.06.55.48-.38C1744.36,372.6,1743.36,372.13,1743.89,372.84Z" transform="translate(-1532 -81.26)"/><path class="cls-7" d="M1691.93,450a1.86,1.86,0,0,1-.27-.22A1.36,1.36,0,0,0,1691.93,450Z" transform="translate(-1532 -81.26)"/><path class="cls-7" d="M1744.37,372.46h0l-.07-.1Z" transform="translate(-1532 -81.26)"/><path class="cls-7" d="M1695.71,370.75a.38.38,0,0,0-.19-.05S1695.58,370.74,1695.71,370.75Z" transform="translate(-1532 -81.26)"/><path class="cls-7" d="M1688.77,379.32l.09-.28A1.28,1.28,0,0,0,1688.77,379.32Z" transform="translate(-1532 -81.26)"/><path class="cls-7" d="M1701.66,369.51a1.07,1.07,0,0,0,.45,0l-.07,0A.57.57,0,0,1,1701.66,369.51Z" transform="translate(-1532 -81.26)"/><path class="cls-7" d="M1708.46,369.51l-.13-.06-.21,0Z" transform="translate(-1532 -81.26)"/><path class="cls-7" d="M1729.75,453.15a.81.81,0,0,1-.31-.25C1729.54,453.1,1728.54,453.17,1729.75,453.15Z" transform="translate(-1532 -81.26)"/><path class="cls-7" d="M1692.18,450a.29.29,0,0,1-.25,0l.2.13S1692.2,450.08,1692.18,450Z" transform="translate(-1532 -81.26)"/><path class="cls-7" d="M1701.93,367.29l1.08,0C1702.71,367.31,1702.32,367.29,1701.93,367.29Z" transform="translate(-1532 -81.26)"/><path class="cls-7" d="M1749.62,416.73l0,.25A.51.51,0,0,0,1749.62,416.73Z" transform="translate(-1532 -81.26)"/><path class="cls-7" d="M1706.22,367.29a2.18,2.18,0,0,0,.61.2s.09,0,.12-.08Z" transform="translate(-1532 -81.26)"/><path class="cls-7" d="M1729.43,452.9h0Z" transform="translate(-1532 -81.26)"/><path class="cls-7" d="M1722.31,453.57c1,0,.49-.36.71-.58,1.23-.1.57.28,1,.46.77-.09,1.36-.43,1.93-.42,0,.06.16.08,0,.16.81-.29,2.4,0,3.35-.38q.11,0,.12.09a.6.6,0,0,1-.14-.51c.46,0,.85-.23,1,0-.28,0-.31.09-.44.17l.48-.11c.44.35-.66.12-.66.38a14,14,0,0,1,2.77-.3c.15.34-1.69.11-.73.41l-1.12-.13c.86.54-.68,0,.11.54,1.47.1,1.65-.17,3.11-.08.33-.18-.11-.27.22-.46a2.31,2.31,0,0,1,1.8.24,1.42,1.42,0,0,0,1.46.12c.43-.24.53-.69,1.71-.65l-.33.44a1.79,1.79,0,0,0,1.16-.49A2.26,2.26,0,0,1,1741,452c-.21.25-1.1.52-.87.48,1.1-.05.64-.45,1.38-.73l.29.24a13.24,13.24,0,0,0,4.05-3.35c0,.14-.13.45.23.2a18.55,18.55,0,0,0,3.49-6.27l-.16-.9c0-.2.19-.35.21-.13.21-.87-.17-.07-.25-.5s.2-.64.28-.32c-.07-.82-.23-1.76-.29-2.78a11.14,11.14,0,0,1,.1-2.77l.09.28c.12-1.15-.6-1.3-.33-2.37l0,.21c.13-2.5-.14-5.27.3-7.18-.42-.36.19-2.48-.4-2.64a14.86,14.86,0,0,0,.6-3c0-.54-.37-.8-.43-1.47h.31l-.33-.91.37-.48-.08-.62c0,.25-.14.53-.23.49a4.3,4.3,0,0,1,.38-2.4l-.26-2.3c.12.05.16.44.24.74-.31-1.23.33-.22,0-1.35-.07.15-.18-.08-.25-.11a9,9,0,0,0,.11-2.78l.21.18c.06-1.71-.1-3.6-.09-5.52-.1.69-.47.53-.51,0l.33-.23c-.2-.36-.12.59-.37-.16,0-.71.37-.48.48-.07l-.12-.87c.1-.05.15.16.28.21-.21-.36.32-1.5,0-2l.1-.05c0-1.92-.11-2.78-.13-4.35-.28,0-.22-.64-.44-1.1a35.39,35.39,0,0,0,.28-3.81c-.14-1-.23-.28-.4-.72.25-.07.23-1.45.41-.73,0-1.66,0-2.12-.25-4.22-.11.23-.15.48-.24.35,0-.38.11-.87.23-.81l0,.1a14,14,0,0,1,.17-3.84c0-.33.08-.64.11-1s0-.68,0-1a4.32,4.32,0,0,0-.4-1.73l.06.11a12.78,12.78,0,0,0-.89-2c-.29-.93.39.48.28-.26-.31-.5-.6-.93-.82-1.35s-.47-.78-.7-1.14a6.84,6.84,0,0,0-1.72-1.94,5.18,5.18,0,0,0-2.54-2.29c-1.25-.64-2.62-1.05-3.56-1.49l.08.2c-.54,0-.59-.22-1-.33,0,.14.53.24.2.29a25.61,25.61,0,0,0-3.21-.17c-1,0-2-.06-3.06-.11-2-.11-4.12-.27-6.14-.35-1.49,0-.84.92-2.71.49l.53-.33c-3,.4-6.12,0-9.05.32.18-.07.18-.17.47-.17a3.69,3.69,0,0,0-2.3.18c-.46,0-.11-.17-.39-.27-.62-.14-1.55.3-1.88.07-.06,0,.17-.08.28-.1-.4.11-1.88,0-1.49.25-1.1-.14-2.11.12-3,0-.57.3-1.88-.15-2.06.28.07-.45-1.93-.36-2.63-.15.24-.13-.6-.14-.33-.33-.79,0-1.52.09-1.38.32a2.55,2.55,0,0,0-1.14-.14,4.37,4.37,0,0,0-1.12.2,7.06,7.06,0,0,1-1,.22,1.41,1.41,0,0,1-.84-.05,13.52,13.52,0,0,0-3.3,1.78,15.3,15.3,0,0,0-1.38,1.12c-.4.42-.83.8-1.18,1.25-.14-.19.28-.66.74-1.08s.93-.76.74-.94a8.31,8.31,0,0,0-1.06,1.1,10.89,10.89,0,0,0-.79,1.07c-.49.71-.92,1.43-1.51,2.33-.33.45,0-.37,0-.57a22.49,22.49,0,0,0-1.26,2.93,8.59,8.59,0,0,0-.41,2.95s-.08-.22-.1-.42c0,.38-.12.89.09.85l0-.37c.17-.3.3.1.42.55a3.09,3.09,0,0,0,.32,1c-.59-.59-.15,1.77-.89.82,0,.23.13.52.27.47,0,.34-.12.45-.27.1.11,1.27.33.82.32,2-.1,0-.14-.23-.25-.35a4.76,4.76,0,0,1,.3,2.12c-.06-.05-.14.06-.14-.23,0,1.66.52,2.83.33,4.65-.43-.54-.14.62-.51.71l.11,1,.18-.39a18,18,0,0,1,.14,2.35l-.15-.64.07,1.61.14-.91c.19.87.47-.09.37,1.05a8.14,8.14,0,0,1-.23,1.3h0a3.13,3.13,0,0,1,.15,1.49c-.11.17-.41-.13-.49,0,.31.42.09,2,.42,2.54-.08-.18-.27-.19-.31-.13l.25.35c-.08.4-.12.45-.28.39,0,1.19.48-.38.27,1,0-.11,0-.06-.09-.29-.11,1.42.16,2.75,0,4.06-.37.38-.09-1.15-.41-.7.07,1.88.45,3.9.37,5.73l0-.34c.53.25-.26,1.36,0,2.28,0-.23-.3-.3-.24-.24a31.91,31.91,0,0,0,.3,4.46l-.14-.24c-.12.74-.07,1.94-.13,2.74.14.23.11.69.31.41-.77,2.45.42,4.68-.23,6.86,0-.26-.12-.62-.12-.41l.13,1.85c.23-.15.14-.24.32-.63a3,3,0,0,1,.24,1.21c-.15-.83-.37,0-.5.37.07-.06.15.07.22,0-.41,1,.47.17.19,1.49l-.12-.07a7.14,7.14,0,0,1,.18,1.48c-.26.23-.12-.52-.34-.56,0,.75.51,1.48.24,2.16-.07-.32-.08-.77-.15-1.09a3,3,0,0,0-.28,1.37v-.05l-.14,1.27.09-.33c.69.94.12,1.91.58,3.18-.43-1.23-.25-.21-.55-.3-.09.32-.18.81-.27.67.25.59-.2,1,.21,1.9-.1,0,0,.67-.21.56.21.82.14-.22.28-.16a11.8,11.8,0,0,1,.4,2.15,4.8,4.8,0,0,0,1,2.39,11.51,11.51,0,0,0,2.4,2.22c.2.45-.52-.05-.52-.05a4,4,0,0,0,1.47,1.46c-.16,0-.1.13,0,.35.5.33.52,0,1.07.51a1.4,1.4,0,0,1-.7,0,5.42,5.42,0,0,0,1,.44c.33.13.67.24,1,.35.11.23-.51.06-.78,0a12.57,12.57,0,0,0,1.32.5,1.91,1.91,0,0,0,1,.07l-.45-.27c.28.09.06.27-.16.24-.74,0-.88-.5-.87-.59l.48.16c-.21-.72-1.85-.79-2.63-1.51l.58-.08a9.58,9.58,0,0,1-1-.37c-.09-.23,0-.5.36-.22-.38-.63-.58-.3-.84-.9,0-.07,0-.06.07,0l-.55-.42c.15,0,.15-.27.38.07-.62-1-1.45-1.36-1.42-1.93l.07.08c-.94-1.4-.35,0-1.26-1a10,10,0,0,1,.38-1.09l-.34-.05c-.06-.16-.14-.5,0-.48-.36-.57-.1.15-.39-.16,0-.87-.54-2.32,0-2.54-.25-.29-.14.82-.34-.08.49-.27-.13-1,.12-1.84.27.24.13,1,.37.2-.46-.47.1-1.53,0-2.19-.36,0-.15-1.44-.27-2.55a28.89,28.89,0,0,0,.33-3.13l.06,0c-.37-.2-.3-1.27-.37-2,.22,0,.3.17.4.59v-.73a1.72,1.72,0,0,1-.22-.87l.27.18a17,17,0,0,1-.14-3.21c-.25-.07-.71,1-.88-.33.14,0,.37-.09.43.25a1.46,1.46,0,0,1-.06-.63l.24.53c.1-.57-.2-.3-.18-.75.2,0,.14-.34.3-.28s-.08.4,0,.58a3.32,3.32,0,0,1,.3-1.34c-.11,0-.27,0-.29-.38,0-1,.24-.33.34-.9-.14-.23,0-.85-.29-.87,0-.28.14-.34.22-.45-.13-.5,0-2.35-.36-1.78l0,.13v-.08h0c-.29-1.65.17-3.43,0-5.06h.1a21.79,21.79,0,0,0-.28-2.87c0-.29.18-.68.3-.56a4.72,4.72,0,0,1,0-1.9c.17.75.15-.26.12.76a4.68,4.68,0,0,0,0-2.23c.25.36.32-.73.24-1.19l-.18.68a9.68,9.68,0,0,1,0-1.43l.33.25c.4-2-.69-3.58,0-5.09-.24-.52-.17,1.08-.44.61a16.08,16.08,0,0,1,.52-2.15c.19-1.25-.48-1.17-.36-2.48-.11.17-.43.33-.54-.65,0-.91.5-1.12.59-.54,0,.21,0,.32-.07.31.05.3.1.68.23.32l-.12-.12c.12-.45.1-1.71.3-1.41-.11-.69-.2-.3-.26.21.18-1.17,0-1.83.12-3-.06.19-.2.37-.2.18.15-1.77-.22-.78-.28-2,.18-.68.44.24.28-1,.13-.74.32-.16.42.13a7.89,7.89,0,0,1,.19-2.68l.09.58a6.06,6.06,0,0,1,0-.92l-.24.33c0-.34,0-.62.14-.62-.15-.35-.39.27-.61-.43.13-.45-.12-1.38.19-1.53-.11,1.42.32-.16.37,1.05a3.07,3.07,0,0,1,0-.86c0-.05.07.05.09.14.28-1.36-.36-.63-.35-2,.18.18.33-.33.3-.56,0,.57-.3.27-.43-.25.19-.82-.09-.91,0-1.35a2.88,2.88,0,0,0-.11.49c-.19-.19-.09-.61-.05-1.21.14,0,0,.55.1.35a1.36,1.36,0,0,1,.24-1.08,3.94,3.94,0,0,0,.49-1.21c.26-.34.32.08.53-.22.22-1,.68-.84,1.07-1.8-.36.11-.37.19-.11-.55a10.88,10.88,0,0,0-.79,1.56c.06-.38.18-.75.28-1.15a11.83,11.83,0,0,0-.62,1.33c.06-.58.09-.51-.2-.36.65-.49.57-1.41,1.31-2l.44.39c1-.76,1.28-1.87,2.77-2.64l-.51.19c.07-.3.84-.6,1.29-.88,0,.19.37.11.62.13-.09-.14,1.1-.41,1.13-.82l.78.07c1.29-.15,1.4-.82,2.76-.78-.4.22.17.33-.68.52.41,0,.84,0,.84-.11.27.12,1.27-.27,1.69-.08.2-.09.26-.3.77-.28.06,0,0,.1,0,.1s.8-.14.36-.35c1.41.61,3.93-.05,5.16.48,1-.07,2.2-.13,3.11-.14-.06.06,0,.09-.17.07,1.25.19.76-.56,2.19-.36.72.32-.76.17-.31.3.2.65,1.72-.09,2.68.29l-.23,0c.73.23,1.78-.24,3-.2,0,0-.06.06,0,.1a14.74,14.74,0,0,1,3.52-.53c-.36.25-.53.13-.31.39.52,0-.15-.41.88-.48.34.13,1.08.26,1.18.53l-1,0c.49.35,1.25,0,1.76,0l-.06.15c1.49-.05,1.51-.44,3.11-.41l-.17-.12c.87-.39.73.22,1.61-.07l.26.39c.58-.09,2-.38,3-.45a14.55,14.55,0,0,1-2.54.61,7.48,7.48,0,0,0,2.24-.22,1.92,1.92,0,0,1-.75.07,6.75,6.75,0,0,1,2.76-.45c-.21.77,3,.15,3.66.88,1.88,0,3.55,1,5.22,2.21-.26-.92.51.36.79-.18.41.32.55.47.56.53a13.65,13.65,0,0,1,.78,1.39c.07.39-.4-.3-.49-.16.64.87.08.52.37,1.16.11-.25.46.14.7.7l-.21-.89a1.74,1.74,0,0,1,.62,1.28,2.58,2.58,0,0,0,.46,1.33l-.35-.38c.09.17.2.42.32.71s.2.63.3,1a7,7,0,0,0,.27,1,2.8,2.8,0,0,0,.31.77c-.06.14-.22.32-.28,0,0,2,.53,4.57.24,6.16l-.15-.16c0,.39.28.67.13,1.16-.06,0-.15-.16-.16,0a4.49,4.49,0,0,1,.18,1.54l-.17-.44c-.2,2,.41,3.09.51,4.79-.44,0-.58,1.58-.65,2.37l-.06,0a52.48,52.48,0,0,0,.53,6.17c-.47,1.35-.2,4.57-.46,6.74.07-.33.34.06.38.44s.31,1.41-.1,1.33v-.18c-.39.38-.29,1.43-.3,2.24l.53.14c-.77,2.14.28,5.6-.41,6.77.13.51.13,1.15.26,1.66l-.28,0a35.43,35.43,0,0,0,0,3.91l-.2-.36c0,1,.82,1.26.83,2.18l-.42.28c0,1.73-.36,3.49,0,5.21-.06,0-.19-.08-.2-.36,0,.82-.29,3.17.29,2.87-.38,0,0,1.79.13,2.73l-.28-.15a3.93,3.93,0,0,1,.55,1.93c0,.26-.22.23-.15-.12-.14.87.28.7.07,1.69l-.15-.38a2.35,2.35,0,0,0,.15,1.27c.07.57-.43,1.58-.69,1.62a1.27,1.27,0,0,1-.1,1.1c-.12,0-.1-.16-.1-.26a11.47,11.47,0,0,0-.71,1.55,5.88,5.88,0,0,1-.29.62,2.14,2.14,0,0,1-.49.51.2.2,0,0,0-.22,0c.7-.86,1.1-1.67,1.1-1.57-.23-.12-.72.59-.67-.17a4.59,4.59,0,0,1-1.24,2.47.22.22,0,0,1-.14,0l0-.08a2.21,2.21,0,0,0-.36.4,5.26,5.26,0,0,0-.57.42c-.23-.12-.85.54-1.24.72.18.22-.34.49.24.4-.07,0,.06-.07.31-.23a.55.55,0,0,0,.13-.14v0c.23-.19.55-.41.87-.69a1.58,1.58,0,0,1-.9.83,5.22,5.22,0,0,1-.3.71c-.75,0-1.91.3-2.15.11a9.74,9.74,0,0,1-2,.74,7.15,7.15,0,0,0-1.82.61c-.42.07-.48-.15-.64-.23a3.65,3.65,0,0,0,.66-.13c-.84.14-2.48.06-2.67.43-1.06-.17.59-.34-.86-.28l.2-.12c-2.85-.59-4.63.95-7.78.19.22.05.32.07.37.13-3.6-.34-7.41.31-11-.22a3,3,0,0,0-1.73.31l-.22-.3-1,.35c-1.49.25-2.59-.74-4.48-.26l.25.2c-.68,0-2.15.12-2-.11a.48.48,0,0,1-.49.1l0-.15-1.66.27c-1.29-.12.2-.63-1.69-.66-.7.06-2,.46-1.73.56s.72.1.74.26l-.64.08c-.11.47-.61.95,1,1.27l1.09-.28.36.22-.92,0a1.48,1.48,0,0,0,1.22-.11.71.71,0,0,0,.46.25l1.08-.44c.13.18-.48.36.24.46.5-.21-.49-.41.35-.55.52.21.37.39,1,.21.08.12,0,.19-.29.25.55-.15,1.45-.07,1.73-.31.55.26,1.85-.07,1.8.37a4.23,4.23,0,0,1,1.47-.36c-.92.52,1.88,0,1.64.59.68-.47,2.46-.21,3.66-.47a.51.51,0,0,1-.3.09,6.18,6.18,0,0,1,1.31.27c.08-.39,1.14-.48,1.71-.72.83.38-.5.46-.24.82,0-.32,1.44-.32,1.16-.58.64.23.55.11.88.44.11-.49.59-.09,1.11-.39.93.24.24.46,1.25.31C1723.21,453.39,1722.31,453.57,1722.31,453.57Zm23.51-5h0l-.34.4Zm1.32-1.68c-.14.22-.35.46-.55.75-.12,0-.16-.13,0-.3C1746.54,447.5,1746.91,447.15,1747.14,446.92Zm-4.26,1.71c.2-.2.31-.22.38-.2-.1.09-.23.19-.38.34v0A.37.37,0,0,1,1742.88,448.63Z" transform="translate(-1532 -81.26)"/><path class="cls-7" d="M1742.67,449.25a.58.58,0,0,0-.1.08l.19,0,0-.14Z" transform="translate(-1532 -81.26)"/><path class="cls-7" d="M1688.29,418.61v0a.25.25,0,0,1,0,.09S1688.28,418.63,1688.29,418.61Z" transform="translate(-1532 -81.26)"/><polygon class="cls-7" points="217.76 337.73 217.69 337.73 217.75 337.91 217.76 337.73"/><path class="cls-7" d="M1687.33,429.74s0,.07-.07.15S1687.3,429.82,1687.33,429.74Z" transform="translate(-1532 -81.26)"/><path class="cls-7" d="M1687.27,434.55l-.1.68C1687.22,434.94,1687.25,434.72,1687.27,434.55Z" transform="translate(-1532 -81.26)"/><path class="cls-7" d="M1687.13,438.25a.31.31,0,0,0,.12.07h0Z" transform="translate(-1532 -81.26)"/><path class="cls-7" d="M1686.87,379.36c0-.06,0-.11,0-.16C1686.88,378.83,1686.86,379.08,1686.87,379.36Z" transform="translate(-1532 -81.26)"/><path class="cls-7" d="M1687.45,397a5.66,5.66,0,0,1-.13-.56C1687.3,396.71,1687.29,397,1687.45,397Z" transform="translate(-1532 -81.26)"/><polygon class="cls-7" points="169.81 286.03 169.81 286.04 169.93 286.04 169.81 286.03"/><path class="cls-7" d="M1687.33,395.58a2.27,2.27,0,0,0,0,.82A3.75,3.75,0,0,0,1687.33,395.58Z" transform="translate(-1532 -81.26)"/><path class="cls-7" d="M1695.13,451.92l.17.08s0,0,0,0Z" transform="translate(-1532 -81.26)"/><path class="cls-7" d="M1695.34,452l.21,0C1695.46,452,1695.38,452,1695.34,452Z" transform="translate(-1532 -81.26)"/><path class="cls-7" d="M1696,452.1l-.44-.09A.81.81,0,0,0,1696,452.1Z" transform="translate(-1532 -81.26)"/><path class="cls-7" d="M1690.87,449l-.12,0A.13.13,0,0,0,1690.87,449Z" transform="translate(-1532 -81.26)"/><path class="cls-7" d="M1689.81,447.79a4.59,4.59,0,0,0,.85,1.22l.09,0C1690.48,448.9,1690.13,448,1689.81,447.79Z" transform="translate(-1532 -81.26)"/><path class="cls-7" d="M1688.49,441.61a8.07,8.07,0,0,0,.15,1.19c.06-.23.13-.53.29,0C1688.91,441.28,1688.71,443.15,1688.49,441.61Z" transform="translate(-1532 -81.26)"/><path class="cls-7" d="M1688.52,437.82c0,.67.16,0,.22,0C1688.64,437.42,1688.61,437.32,1688.52,437.82Z" transform="translate(-1532 -81.26)"/><path class="cls-7" d="M1688.52,409.89l.25.07C1688.74,409.44,1688.68,410,1688.52,409.89Z" transform="translate(-1532 -81.26)"/><polygon class="cls-7" points="155.2 323.3 155.04 323.8 155.27 324.04 155.2 323.3"/><polygon class="cls-7" points="157.02 320.14 157.06 320.37 156.96 319.51 157.02 320.14"/><path class="cls-7" d="M1707.25,369.76l-.16-.32C1706.74,369.5,1706.67,369.85,1707.25,369.76Z" transform="translate(-1532 -81.26)"/><path class="cls-7" d="M1727.49,369.43a1.44,1.44,0,0,0,1.15.11A11.24,11.24,0,0,0,1727.49,369.43Z" transform="translate(-1532 -81.26)"/><polygon class="cls-7" points="215.23 332.36 215.13 331.95 215.21 332.72 215.23 332.36"/><rect class="cls-8" x="152.5" y="283.24" width="66" height="84"/><rect class="cls-6" x="154" y="284.24" width="63" height="85.5"/><path class="cls-7" d="M1748.33,451c.09.16.29.07.25-.36l-.33-.31Z" transform="translate(-1532 -81.26)"/><path class="cls-7" d="M1749,448.1c-.16-.5-.44-1.09-.75-.76.32.5.19.62.57,1.16,0,.43-.11.75-.23.68.08.15-.08.67.13.9a2.92,2.92,0,0,0,.06-2C1748.8,447.91,1748.89,448.07,1749,448.1Z" transform="translate(-1532 -81.26)"/><path class="cls-7" d="M1749.46,406l0,.27A.7.7,0,0,0,1749.46,406Z" transform="translate(-1532 -81.26)"/><path class="cls-7" d="M1749.65,379.89c0,.2,0,.28.07.29C1749.69,380,1749.67,379.84,1749.65,379.89Z" transform="translate(-1532 -81.26)"/><path class="cls-7" d="M1750,375.43l0,.26A.4.4,0,0,0,1750,375.43Z" transform="translate(-1532 -81.26)"/><path class="cls-7" d="M1749.46,406l.11-.69C1749.46,405.24,1749.49,405.64,1749.46,406Z" transform="translate(-1532 -81.26)"/><path class="cls-7" d="M1748.15,442.29a1.77,1.77,0,0,0,.09.38l0-.35Z" transform="translate(-1532 -81.26)"/><path class="cls-7" d="M1749.73,417.49v.21l.14.18Z" transform="translate(-1532 -81.26)"/><path class="cls-7" d="M1749.78,426.32c0-.2-.27-.27-.39-.35a.66.66,0,0,1,.19.44A.35.35,0,0,0,1749.78,426.32Z" transform="translate(-1532 -81.26)"/><path class="cls-7" d="M1749.29,440.31l0,.25Z" transform="translate(-1532 -81.26)"/><path class="cls-7" d="M1749.79,411.17a.27.27,0,0,0,.1-.08A.14.14,0,0,0,1749.79,411.17Z" transform="translate(-1532 -81.26)"/><path class="cls-7" d="M1738.77,449.68s0,0,0,.05S1738.83,449.68,1738.77,449.68Z" transform="translate(-1532 -81.26)"/><path class="cls-7" d="M1749,451.07l-.14,0a.41.41,0,0,0,0,.16Z" transform="translate(-1532 -81.26)"/><path class="cls-7" d="M1750.37,367.28v0C1750.4,367.53,1750.39,367.41,1750.37,367.28Z" transform="translate(-1532 -81.26)"/><path class="cls-7" d="M1684.84,375.58c.25-.85.32,1.38.6.1C1685.33,375.8,1685,374.52,1684.84,375.58Z" transform="translate(-1532 -81.26)"/><path class="cls-7" d="M1748.19,442.06v-.36A1.86,1.86,0,0,0,1748.19,442.06Z" transform="translate(-1532 -81.26)"/><path class="cls-7" d="M1685.44,375.68h0l0-.13Z" transform="translate(-1532 -81.26)"/><path class="cls-7" d="M1732,364.3a.44.44,0,0,0,.19.12S1732.13,364.36,1732,364.3Z" transform="translate(-1532 -81.26)"/><path class="cls-7" d="M1746,364.7l-.35,0A1.63,1.63,0,0,0,1746,364.7Z" transform="translate(-1532 -81.26)"/><path class="cls-7" d="M1724.72,364.7a1.36,1.36,0,0,0-.51,0l.08,0A.66.66,0,0,1,1724.72,364.7Z" transform="translate(-1532 -81.26)"/><path class="cls-7" d="M1717.16,364.7l.14.05h.24Z" transform="translate(-1532 -81.26)"/><path class="cls-7" d="M1715.78,449.82a1,1,0,0,1,.35.25C1716,449.87,1717.12,449.8,1715.78,449.82Z" transform="translate(-1532 -81.26)"/><path class="cls-7" d="M1748.31,442.29a.26.26,0,0,1-.12-.23v.26A.07.07,0,0,0,1748.31,442.29Z" transform="translate(-1532 -81.26)"/><path class="cls-7" d="M1724.41,366.91l-1.2,0C1723.55,366.9,1724,366.91,1724.41,366.91Z" transform="translate(-1532 -81.26)"/><path class="cls-7" d="M1687.14,426.51l0,.28A.59.59,0,0,0,1687.14,426.51Z" transform="translate(-1532 -81.26)"/><path class="cls-7" d="M1719.65,366.91a2.76,2.76,0,0,0-.68-.19.46.46,0,0,0-.14.07Z" transform="translate(-1532 -81.26)"/><path class="cls-7" d="M1716.13,450.07Z" transform="translate(-1532 -81.26)"/><path class="cls-7" d="M1724.05,449.4c-1.15,0-.54.37-.78.58-1.37.1-.64-.27-1.1-.46-.86.09-1.51.43-2.15.42,0-.06-.17-.08,0-.16-.91.29-2.68,0-3.73.38a.28.28,0,0,1-.14-.09.54.54,0,0,1,.16.51c-.51,0-1,.23-1.14,0a.62.62,0,0,0,.48-.17l-.53.11c-.49-.35.73-.12.73-.38a16.26,16.26,0,0,1-3.07.3c-.17-.34,1.87-.11.8-.41l1.25.13c-1-.54.75,0-.12-.54-1.64-.1-1.83.18-3.46.08-.37.18.12.28-.25.46-2.32.34-1.83-.85-3.53-.4a1.9,1.9,0,0,1-1.83.43l.41-.38c-1.58,0-.9.55-2.56.29.29-.15,1.24-.13,1-.17-1.07-.31-.76.22-1.58.22l-.17-.34c-1.69.05-3.55.29-5.42.36.11-.1.43-.21,0-.31a47.76,47.76,0,0,1-7.3-.25l-.87.3c-.2,0-.38-.14-.16-.19-.88-.12,0,.18-.47.3s-.67-.17-.35-.26l-.46.07c-.13,0-.12.05-.21.07l-.48.12a2.9,2.9,0,0,1-.07-.38l0-.23c0-.17,0-.34,0-.51A10.25,10.25,0,0,1,1687,447l.08.33c.12-1.29-.6-1.45-.32-2.64l0,.23c.13-2.79-.14-5.86.3-8-.42-.4.19-2.75-.4-2.93a18.22,18.22,0,0,0,.59-3.37c0-.6-.37-.89-.43-1.63l.31,0-.32-1,.37-.54-.08-.69c0,.27-.14.59-.23.54a5.2,5.2,0,0,1,.37-2.66l-.26-2.57c.13.06.17.49.25.83-.32-1.37.32-.25,0-1.5-.07.17-.18-.09-.24-.12a11.21,11.21,0,0,0,.11-3.1l.21.2c0-1.9-.1-4-.1-6.14-.1.77-.46.59-.5,0l.33-.25c-.21-.41-.13.65-.37-.18,0-.79.37-.53.47-.08l-.11-1c.1-.06.15.17.27.22-.2-.39.33-1.67,0-2.24l.09-.06c0-2.13-.1-3.09-.12-4.83-.28,0-.22-.71-.45-1.23.09-1.28.31-2.69.29-4.23-.14-1.08-.24-.32-.41-.8.26-.08.24-1.62.42-.82,0-1.85,0-2.36-.26-4.69-.1.25-.15.54-.24.39,0-.43.11-1,.23-.9l0,.11c-.38-2.62.75-6.05.21-8.14l0,.12-.28-2.16c0-1,.19.59.35-.14-.42-2.34.06-3.69-.22-5.61.76-1.49,0-5.28.43-7.29l-.18.12c-.17-.52.1-.63.14-1-.13.05-.16.56-.25.24l0-.58V367c0-.11,0-.23,0-.35l1.65.06,2.83.13c1.89.1,3.78.22,5.64.29,1.65.05.94-.92,3-.5l-.59.33c3.32-.39,6.8,0,10.06-.32-.2.08-.2.18-.52.17a4.41,4.41,0,0,0,2.55-.18c.51,0,.12.18.43.28.69.14,1.74-.31,2.1-.07.06,0-.19.08-.32.1.45-.12,2.1,0,1.67-.25,1.22.13,2.33-.13,3.31,0,.64-.31,2.09.15,2.29-.29-.08.45,2.15.36,2.92.15-.26.14.67.14.37.33.88,0,1.69-.09,1.53-.32,1.63.54,3.27-.44,4.19.26,2.62-.24,5-.41,7.4-.52-.09.46-2.61.05-2.51.52a38.63,38.63,0,0,1,5.75-.46c.57.06-.33.19-.52.27,2.23-.18,4.31,0,6.3-.2,0,0-.22.09-.42.12.39,0,.91.07.87-.14l-.39.06c-.31-.15.08-.31.56-.45a9,9,0,0,0,.94-.33c-.44.3-.06.33.14.39-.05.36-.13.51-.5.59a.22.22,0,0,0,.28,0c0,.21-.12.24-.28.17,0,.12.06.14.1.28a1.77,1.77,0,0,0,.11.38,3,3,0,0,1,.11,1c-.1,0-.13-.26-.25-.39a5.66,5.66,0,0,1,.3,2.36c-.06-.06-.13.06-.13-.26,0,1.85.51,3.15.33,5.17-.44-.6-.15.69-.52.8l.11,1.08.18-.43a20.27,20.27,0,0,1,.15,2.61l-.16-.71.07,1.79.14-1c.2,1,.48-.1.37,1.17a8.18,8.18,0,0,1-.22,1.45h0a4,4,0,0,1,.15,1.66c-.12.19-.41-.14-.49,0,.31.46.08,2.23.42,2.82-.08-.2-.28-.21-.32-.14l.25.39c-.08.44-.12.5-.27.43,0,1.33.47-.42.27,1.16,0-.13-.06-.07-.1-.33-.11,1.59.16,3.06,0,4.52-.38.43-.1-1.27-.41-.78.07,2.1.45,4.34.36,6.37l0-.38c.53.29-.26,1.52,0,2.54,0-.25-.3-.33-.24-.26a39.35,39.35,0,0,0,.3,4.95l-.14-.26c-.12.82-.07,2.16-.13,3,.14.26.12.77.31.46-.77,2.73.42,5.21-.23,7.63,0-.29-.11-.69-.11-.46l.12,2.06c.23-.16.14-.27.32-.7a3.44,3.44,0,0,1,.24,1.35c-.15-.93-.37,0-.5.41.07-.07.15.07.22,0-.41,1.07.47.18.19,1.65l-.12-.08a9.8,9.8,0,0,1,.19,1.65c-.27.25-.13-.58-.35-.62,0,.83.51,1.64.24,2.4-.07-.36-.07-.87-.15-1.22a3.69,3.69,0,0,0-.28,1.53V424l-.14,1.41.08-.36c.7,1,.13,2.13.58,3.53-.43-1.37-.25-.23-.55-.33-.08.36-.18.9-.26.75.24.66-.19,1.11.16,2-.09,0,0,.71-.25.56.07.86.17-.21.29-.13.33,1.33-.4,3.12,0,5,.19,1.65.52,2,.68,3.49-.15.52-.35-.42-.35-.42a6.74,6.74,0,0,0,0,2.24c-.08-.16-.15,0-.26.25,0,.63.35.42.21,1.25a2,2,0,0,1-.39-.63c.09.75.27,1.48.36,2.25-.17.2-.26-.46-.37-.74a7.1,7.1,0,0,0,.42,2.51l.1-.55c0,.31-.23.16-.28-.07-.21-.74.09-1.07.19-1.11l.06.54c.57-.56-.09-2.2-.06-3.3l.42.46-.35-1.13c.11-.24.34-.41.4.14.21-.79-.14-.7.09-1.38,0-.08,0,0,.07,0l-.13-.77c.09.15.3-.13.24.35.24-1.39-.31-2.24,0-2.76l0,.11c-.14-1.92-.31-.18-.67-1.63l.76-1-.31-.19c0-.2,0-.59.16-.52-.21-.73-.14.13-.33-.3.28-.95-.13-2.63.35-2.85-.23-.34-.18.91-.34-.11.53-.29-.09-1.18.15-2.05.27.27.13,1.1.37.22-.46-.52.1-1.7,0-2.43-.36,0-.15-1.61-.27-2.84.12.08.2-2.33.33-3.48l.06,0c-.36-.23-.29-1.41-.37-2.28.22,0,.31.19.4.66v-.81a2.1,2.1,0,0,1-.22-1l.28.2a19,19,0,0,1-.14-3.56c-.26-.08-.72,1.1-.89-.37.14-.05.38-.11.43.28a2.12,2.12,0,0,1,0-.71l.23.59c.1-.63-.19-.33-.17-.84.19,0,.14-.37.29-.3s-.08.44,0,.64a4.33,4.33,0,0,1,.3-1.49c-.11.05-.26,0-.29-.42,0-1.08.24-.37.34-1-.14-.26,0-.95-.29-1,0-.32.14-.37.22-.5-.13-.56,0-2.61-.35-2l0,.15,0-.1h0c-.29-1.83.17-3.8,0-5.62h.09a24.74,24.74,0,0,0-.28-3.19c0-.32.19-.76.3-.62a6.35,6.35,0,0,1,0-2.12c.17.83.15-.29.13.85a5.94,5.94,0,0,0,0-2.48c.25.4.32-.81.24-1.32l-.18.75c0-.57,0-1.08,0-1.59l.33.28c.41-2.21-.69-4,0-5.66-.23-.59-.16,1.2-.44.67a19,19,0,0,1,.53-2.39c.18-1.39-.49-1.29-.36-2.75-.12.19-.44.36-.55-.72s.5-1.25.59-.61c0,.24,0,.36-.06.35,0,.33.09.76.22.36l-.12-.14c.12-.5.11-1.9.3-1.57-.11-.77-.19-.33-.25.24.17-1.3,0-2,.12-3.38-.07.22-.21.41-.21.2.15-2-.22-.86-.27-2.2.18-.75.43.27.28-1.07.12-.82.31-.17.41.15a9.73,9.73,0,0,1,.19-3l.1.65a6.29,6.29,0,0,1-.06-1l-.24.37c0-.38,0-.7.15-.69-.16-.39-.4.3-.61-.47a4.47,4.47,0,0,0,0-1,2.23,2.23,0,0,1,0-.46.82.82,0,0,1,.14-.39c0,.25,0,.43,0,.57a.91.91,0,0,0,0,.21c0,.08.07.05.12,0s.22-.18.24.49a3.8,3.8,0,0,1,0-.95c0-.08.06.07.08.16a4.82,4.82,0,0,0,.06-.65c0-.22,0-.4,0-.55a1.63,1.63,0,0,0-.1-.58,2.37,2.37,0,0,1-.29-1.05c-.24,0-.51,0-.83,0,.48-.18-.42-.34-.92-.3,1.16,0,.33.3-.57.43l-.73,0a1.92,1.92,0,0,0-.38,0,2.45,2.45,0,0,1-.63.09l.6.06c-.21.18-.71.16-1.41.21-.06-.13.64-.09.39-.15-.79.31-1.77-.33-2.86-.12-.5-.12,0-.33-.49-.41-1.22.23-1.32-.24-2.6-.05.37.24.44.18-.47.41l2.11-.17-1.35.35c.63,0,1.34-.15,1.72-.11-.64.19-.58.13-.27.33-.87-.36-1.73.21-2.73,0l0-.59c-1.52-.26-2.69.3-4.65.15l.63.11c-.26.23-1.21,0-1.85.12.06-.19-.34-.27-.61-.39,0,.15-1.44,0-1.61.38l-.88-.26c-1.59-.1-1.81.57-3.33.5.46-.22-.24-.36.78-.51-.51,0-1,0-1,.1-.3-.12-1.41.26-1.88.08-.21.08-.28.29-.85.27-.07,0,0-.09,0-.09s-.9.13-.4.35c-1.56-.62-4.38,0-5.74-.49-1.11.07-2.45.13-3.46.15.07-.06,0-.1.2-.08-1.4-.18-.86.57-2.44.36-.81-.32.84-.17.33-.29-.21-.65-1.9.09-3-.29l.26,0c-.82-.22-2,.25-3.32.2,0,0,.07-.06,0-.1a18,18,0,0,1-3.91.53c.4-.25.58-.13.34-.39-.57,0,.17.42-1,.49-.37-.14-1.2-.26-1.31-.54h1.08c-.55-.36-1.39,0-2-.05l.07-.16c-1.65.05-1.68.44-3.46.42l.19.11c-1,.39-.82-.21-1.79.08l-.29-.4c-.64.1-2.25.38-3.4.46a17.13,17.13,0,0,1,2.83-.62,9.63,9.63,0,0,0-2.49.22,2.62,2.62,0,0,1,.83-.07,8.41,8.41,0,0,1-3.07.46c.08-.25-.25-.36-.76-.41l-.2,0h-.3l-.67,0-1.46,0a8.82,8.82,0,0,1-.3,2.43c.28,2.24-.12,4.44-.08,7.05.6-.92,0,.77.63.61a2.43,2.43,0,0,1,0,.89l-.36,1.84c-.18.44-.14-.58-.28-.52,0,1.33-.26.56-.42,1.44.22-.18.32.46.23,1.22l.28-1.07c.33,1.86-.51,1.61-.19,3.49l-.19-.6c.11,1,0,3.55.49,4.5-.07.17-.24.39-.28,0-.08,2.3.52,5.12.22,6.9l-.15-.17c0,.43.28.75.13,1.28-.06,0-.15-.17-.16,0a5.61,5.61,0,0,1,.17,1.71l-.16-.49c-.2,2.25.41,3.44.51,5.33-.44,0-.59,1.76-.66,2.64l-.06,0a67.2,67.2,0,0,0,.54,6.85c-.48,1.5-.2,5.09-.47,7.5.08-.37.34.06.39.49s.3,1.57-.1,1.48v-.2c-.4.42-.29,1.59-.3,2.49l.52.15c-.76,2.38.29,6.23-.4,7.53.13.57.13,1.28.26,1.85l-.28,0c-.07,1.59-.11,2.38,0,4.35l-.21-.4c0,1.11.82,1.4.84,2.42l-.42.31c0,1.93-.37,3.89,0,5.8-.06,0-.18-.09-.2-.4,0,.91-.28,3.52.3,3.19-.19,0-.2.51-.14,1.13,0,.31.07.66.12,1l.08.48,0,.23,0,.3a2.09,2.09,0,0,1-.28-.24,10.68,10.68,0,0,1,.49,2.23l.8-.06c.37,0,.24.22-.29.15a3.37,3.37,0,0,0,1.31-.06l.51-.08a3.24,3.24,0,0,1,.66,0l-.43.17a2.31,2.31,0,0,0,1.47-.28,3.23,3.23,0,0,1,2,.33,1.72,1.72,0,0,1,1.27-.29c.08.09-.13.15-.24.18,1.67.19,2.49-.32,3.64-.05a.24.24,0,0,0,.19.17c-1.33,0-2.4,0-2.3,0,0,.25,1.07.3.22.65a11.69,11.69,0,0,1,3.38-.49.42.42,0,0,1,.14.09l-.11,0a2.35,2.35,0,0,0,.66,0,6.64,6.64,0,0,0,.87.07c.12.21,1.23.12,1.76.13,0-.28.66-.24,0-.47.09,0-.1,0-.45,0l-.23,0,0,0-1.33,0a2.28,2.28,0,0,1,1.46-.11,8.62,8.62,0,0,1,.75-.45c.73.39,2.14.6,2.34.84,1.63-.15,3.84-.1,4.87-.63.47-.07.54.15.71.24a3.55,3.55,0,0,0-.73.12c.93-.14,2.75-.06,3-.43,1.17.17-.66.34,1,.28l-.22.12c3.17.59,5.15-.95,8.65-.19-.24,0-.36-.07-.41-.13,4,.34,8.24-.31,12.19.22a3.62,3.62,0,0,0,1.92-.31l.25.3,1.17-.35c1.66-.25,2.87.74,5,.26l-.27-.2c.75,0,2.39-.12,2.26.11a.59.59,0,0,1,.55-.1l0,.16,1.85-.28c1.44.12-.22.63,1.88.66.78-.06,2.22-.46,1.92-.56s-.8-.1-.82-.26l.71-.08c.13-.47.68-.94-1.07-1.27l-1.22.28-.4-.22,1,0a1.82,1.82,0,0,0-1.36.11.88.88,0,0,0-.52-.25l-1.19.45c-.15-.19.53-.37-.27-.47-.56.21.54.41-.39.55-.58-.21-.41-.39-1.1-.21-.09-.12.05-.19.32-.24-.61.14-1.61.06-1.93.3-.6-.26-2,.07-2-.37a5.22,5.22,0,0,1-1.64.36c1-.52-2.09,0-1.82-.59-.76.47-2.74.21-4.08.47a.64.64,0,0,1,.34-.09,7.52,7.52,0,0,1-1.46-.27c-.09.39-1.27.48-1.9.72-.93-.37.56-.46.27-.82,0,.32-1.61.32-1.29.58-.71-.23-.61-.11-1-.44-.12.49-.65.09-1.24.39-1-.24-.26-.46-1.39-.31C1723.05,449.58,1724.05,449.4,1724.05,449.4Zm-26.75.85h0l.55,0Zm-2.25,0h1c.08.09,0,.19-.24.19C1695.92,450.39,1695.39,450.34,1695.05,450.26Zm4.76,1.94c-.36,0-.48,0-.53-.07l.62,0,0,0A.38.38,0,0,1,1699.81,452.2Z" transform="translate(-1532 -81.26)"/><path class="cls-7" d="M1700.45,451.83l.14,0-.21-.06-.13.09Z" transform="translate(-1532 -81.26)"/><path class="cls-7" d="M1749.42,406.3v-.05a.23.23,0,0,1,0,.1Z" transform="translate(-1532 -81.26)"/><polygon class="cls-7" points="155.28 347.76 155.21 347.76 155.27 347.96 155.28 347.76"/><path class="cls-7" d="M1748.45,418.68a.34.34,0,0,0-.07.16S1748.43,418.77,1748.45,418.68Z" transform="translate(-1532 -81.26)"/><path class="cls-7" d="M1748.39,424l-.1.75C1748.35,424.46,1748.37,424.22,1748.39,424Z" transform="translate(-1532 -81.26)"/><path class="cls-7" d="M1748.25,428.14a.3.3,0,0,0,.12.08h0Z" transform="translate(-1532 -81.26)"/><path class="cls-7" d="M1746.27,366.58h-.16C1745.74,366.65,1746,366.63,1746.27,366.58Z" transform="translate(-1532 -81.26)"/><path class="cls-7" d="M1748.58,382.22c0-.2-.1-.41-.14-.62C1748.42,381.94,1748.42,382.21,1748.58,382.22Z" transform="translate(-1532 -81.26)"/><path class="cls-7" d="M1724.55,366.92h0Z" transform="translate(-1532 -81.26)"/><path class="cls-7" d="M1748.45,380.69a3.1,3.1,0,0,0,0,.91A4.61,4.61,0,0,0,1748.45,380.69Z" transform="translate(-1532 -81.26)"/><path class="cls-7" d="M1748.12,446v.2s0,0,.05,0Z" transform="translate(-1532 -81.26)"/><path class="cls-7" d="M1748.16,446.18l0,.22C1748.19,446.3,1748.19,446.21,1748.16,446.18Z" transform="translate(-1532 -81.26)"/><path class="cls-7" d="M1748.26,446.86l-.07-.46A.83.83,0,0,0,1748.26,446.86Z" transform="translate(-1532 -81.26)"/><path class="cls-7" d="M1748.25,440.52l-.1-.07A.14.14,0,0,0,1748.25,440.52Z" transform="translate(-1532 -81.26)"/><path class="cls-7" d="M1748.22,438.86a8.45,8.45,0,0,0-.15,1.54l.08.05C1748,440.2,1748.4,439.24,1748.22,438.86Z" transform="translate(-1532 -81.26)"/><path class="cls-7" d="M1749.48,432l-.08,1.39c.11-.25.26-.57.28.06C1750,431.67,1749.44,433.78,1749.48,432Z" transform="translate(-1532 -81.26)"/><path class="cls-7" d="M1749.64,427.66c0,.75.16,0,.22,0C1749.76,427.22,1749.74,427.11,1749.64,427.66Z" transform="translate(-1532 -81.26)"/><path class="cls-7" d="M1749.64,396.61l.26.07C1749.86,396.11,1749.8,396.68,1749.64,396.61Z" transform="translate(-1532 -81.26)"/><polygon class="cls-7" points="216.32 309.41 216.16 309.97 216.4 310.24 216.32 309.41"/><polygon class="cls-7" points="218.14 305.91 218.18 306.16 218.09 305.2 218.14 305.91"/><path class="cls-7" d="M1718.5,364.45l.18.31C1719.06,364.71,1719.15,364.35,1718.5,364.45Z" transform="translate(-1532 -81.26)"/><path class="cls-7" d="M1696,364.77a1.69,1.69,0,0,0-1.27-.1C1695.22,364.69,1695.73,364.81,1696,364.77Z" transform="translate(-1532 -81.26)"/><polygon class="cls-7" points="152.76 341.79 152.65 341.33 152.74 342.19 152.76 341.79"/><polygon class="cls-9" points="184.75 307.55 193.39 307.55 187.37 318.47 193.66 317.37 187.08 328.81 193.66 327.51 185.62 342.71 188.05 331.55 182.25 332.17 186.38 322.24 180.57 326.53 184.75 307.55"/><polygon class="cls-10" points="168.75 321.05 179.62 317.35 179.96 317.45 180.26 317.08 184.72 315.52 184.19 317.42 186.5 318.41 185.92 321.2 187.43 322.88 184.86 325.84 178.6 328.15 178.35 327.98 177.96 328.32 168.91 331.52 168.63 330.74 168.71 330.19 168.31 329.98 166.3 324.26 168.75 321.05"/><polygon class="cls-11" points="166.3 324.26 182.21 318.68 181.68 320.52 182.52 320.99 182.6 321.23 182.86 321.1 184.06 321.6 183.5 324.27 184.84 325.84 178.64 328.1 178.32 328.02 178.01 328.3 168.91 331.52 168.57 330.81 168.69 330.22 168.32 329.97 166.3 324.26"/><polygon class="cls-12" points="184.72 315.52 180.26 317.08 179.96 317.45 179.62 317.35 168.75 321.05 166.3 324.26 182.21 318.68 184.72 315.52"/><polygon class="cls-13" points="184.19 317.42 186.5 318.41 184.06 321.6 182.86 321.1 182.6 321.23 182.52 320.99 181.68 320.52 184.19 317.42"/><polygon class="cls-14" points="185.92 321.2 187.43 322.88 184.86 325.84 183.5 324.27 185.92 321.2"/><path class="cls-6" d="M1707.32,403.86l-1.5.51v5.35l-1.66-1.43a1.79,1.79,0,0,0-.93-2.69,2.39,2.39,0,0,0-1.11.12l-1.94.66,1.67,4.76,1.42-.45-.56-1.56.16-.06,1.36,1.23,3.06-1.06v-.93l1.41-.52.56.72,1.43-.52Zm-4.27,3.73c-.11.31-.75.44-.75.44l-.32-1,.47-.21a.55.55,0,0,1,.45.18A.58.58,0,0,1,1703.05,407.59Zm4.14-.41s-.09-1.57-.09-1.61l1,1.33Z" transform="translate(-1532 -81.26)"/><path class="cls-6" d="M1713.54,403.28a1.59,1.59,0,0,0-1.86-.9l-2.21.74,1.66,4.7,1.33-.49-.5-1.53a4,4,0,0,0,1.27-.64A1.51,1.51,0,0,0,1713.54,403.28Zm-1.44,1.29-.51.21-.34-1,.34-.14s.62-.2.73.33S1712.1,404.57,1712.1,404.57Z" transform="translate(-1532 -81.26)"/><polygon class="cls-15" points="190.84 319.87 194.09 320.05 194.6 320.33 195.41 320.18 206.15 320.86 205.68 328.5 202.15 330.43 201.13 330.43 200.79 330.07 200.17 330.32 186.84 329.41 186.1 327.46 187.81 325.15 186 323.36 187.35 321.81 190.84 319.87"/><polygon class="cls-12" points="206.15 320.86 195.41 320.18 194.6 320.33 194.09 320.05 190.84 319.87 187.35 321.81 188.45 321.81 188.73 322.23 189.29 321.88 202.62 322.76 204.6 321.72 204.35 321.51 205.17 321.44 206.15 320.86"/><polygon class="cls-10" points="202.15 330.43 202.62 322.76 204.6 321.72 204.35 321.51 205.17 321.44 206.15 320.86 205.68 328.5 202.15 330.43"/><path class="cls-6" d="M1722.12,404.46l1.43.1-.19,3.51a1.32,1.32,0,0,1-.87,1.31,2.6,2.6,0,0,1-.57.12h-1v-1.33h.81a.28.28,0,0,0,.26-.23C1722,407.73,1722.12,404.46,1722.12,404.46Z" transform="translate(-1532 -81.26)"/><polygon class="cls-6" points="195.68 323.58 192.57 323.41 192.26 328.4 195.44 328.57 195.5 327.44 193.76 327.31 193.76 326.54 195.44 326.58 195.48 325.47 193.87 325.39 193.9 324.68 195.59 324.73 195.68 323.58"/><path class="cls-6" d="M1728.51,404.91l1.42.1-.17,3.21a.59.59,0,0,0,.67.58.69.69,0,0,0,.73-.53l.2-3.16,1.39.08-.18,3.29a2,2,0,0,1-2,1.69,2.07,2.07,0,0,1-2.15-1.4,4.12,4.12,0,0,1-.06-.42C1728.34,408.24,1728.51,404.91,1728.51,404.91Z" transform="translate(-1532 -81.26)"/></g><polygon class="cls-16" points="217 272.74 227 363.74 233 357.74 217 272.74"/><path class="cls-16" d="M1602,301c0,2,4,92,0,97l4,3Z" transform="translate(-1532 -81.26)"/><path class="cls-16" d="M1648,348s-19,71-17,81l5,7Z" transform="translate(-1532 -81.26)"/><path class="cls-16" d="M1793,315c0,4-6,97-6,97l5.86-.3Z" transform="translate(-1532 -81.26)"/><path class="cls-17" d="M1651,555.57a162.6,162.6,0,0,0,59,7.43s20,1,25,2c0,0,56,1,60,0s4-2,4-2S1653.9,554.13,1651,555.57Z" transform="translate(-1532 -81.26)"/><path class="cls-18" d="M1662,606s24-1,28,12h0S1679,606,1662,606Z" transform="translate(-1532 -81.26)"/><path class="cls-19" d="M1801,410c-1.37.2,0,7,0,7l-22.57,17.8-13.76-16.64a3.38,3.38,0,0,0-2.14-1.19l-17.71-2.42a.52.52,0,0,0-.58.5v3.26l8.45,5.37-19.21-3.83-7.67,3.85L1720.07,441,1742,458l30,6.81a4.24,4.24,0,0,0,2.82-.35l15.54-7.78,54.29-19.85a3.32,3.32,0,0,0,2.16-3.58L1842,398S1808,409,1801,410Z" transform="translate(-1532 -81.26)"/><path class="cls-19" d="M1560,381s34,13,41,18l-1,5,58.46,30.81a5.27,5.27,0,0,0,5-.26l12.24-7.34a5,5,0,0,1,.73-.36l13.67-5.47a6.4,6.4,0,0,1,2-.44l15.81-.88a1.42,1.42,0,0,1,1.45,1.08l3.56,14.22a3.12,3.12,0,0,1,.06,1.29l-1.7,11a3.11,3.11,0,0,1-1.28,2.07c-2.61,1.83-9.12,6.44-9.92,7.24s-18.84,6.09-21.63,6.9a3.17,3.17,0,0,1-.75.12c-2.33.16-14.81,1-16.62,1s-84.08-29.77-99.49-36a4,4,0,0,1-2.51-3.72Z" transform="translate(-1532 -81.26)"/><path class="cls-20" d="M1733.13,582s-34.22,84.13-33.26,93.08C1700,676,1730.19,601.39,1733.13,582Z" transform="translate(-1532 -81.26)"/><path class="cls-20" d="M1661,591s23-4,31,7C1692,598,1686,592,1661,591Z" transform="translate(-1532 -81.26)"/><polygon class="cls-21" points="61 498.74 71 489.74 66 504.74 60 504.74 58 501.74 61 498.74"/><path class="cls-22" d="M1630,745l-40,3,3,10s2-7,13-8S1630,744,1630,745Z" transform="translate(-1532 -81.26)"/><path class="cls-22" d="M1622,737c2,0-27-11-28-10S1616,737,1622,737Z" transform="translate(-1532 -81.26)"/><path class="cls-23" d="M1597,737l-6-5-3-4s-3-1-3,0-1,2-1,3S1596,737,1597,737Z" transform="translate(-1532 -81.26)"/><path class="cls-20" d="M1703,789l17-15s21,6,22,7-19,1-20,1S1703,789,1703,789Z" transform="translate(-1532 -81.26)"/><path class="cls-18" d="M1595,887c3,3,27,28,29,33,0,0-25-24-30-25Z" transform="translate(-1532 -81.26)"/><path class="cls-18" d="M1651,889c-.28-1.39-5,21-9,25C1642,914,1654,904,1651,889Z" transform="translate(-1532 -81.26)"/><path class="cls-20" d="M1709,765s18-17,20-37,13-27,13-27-11,23-9,37S1709,765,1709,765Z" transform="translate(-1532 -81.26)"/><polygon class="cls-20" points="235 540.74 235 601.74 221 613.74 228 602.74 235 540.74"/><path class="cls-24" d="M1623,604l5,98s0-14-20-6-3-11-3-11S1626,667,1623,604Z" transform="translate(-1532 -81.26)"/><polygon class="cls-25" points="136 833.74 155 813.74 155 824.74 136 833.74"/><path class="cls-26" d="M1592,940l-18,23s-14,13-6,22,35,14,35,14,9-1,12-6c0,0-1-10,1-11s16-12,17-12,10-7,10-16l-2-4,4-8-2-16.11L1627,936l-6-6-11.4-6.71L1599,924l-2,13Z" transform="translate(-1532 -81.26)"/><path class="cls-26" d="M1677,935l1,7-2,2,3,32a91.76,91.76,0,0,1,22,11c12,8,18,12,19,12s28,4,39-3c0,0,4-17-1-21s-21-22-21-22l-4-13s-2-12-5-14-22-9-30-1c0,0-8,6-8,7S1688,941,1677,935Z" transform="translate(-1532 -81.26)"/><path class="cls-27" d="M1685,961l15-13s8,11,7,11S1685,961,1685,961Z" transform="translate(-1532 -81.26)"/><path class="cls-28" d="M1700,964c2,1,5,9,5,9l-5,2s-5-10-5-9S1700,964,1700,964Z" transform="translate(-1532 -81.26)"/><path class="cls-28" d="M1678,938c1,3,12,15,12,15s-4,3-5,2-7-13-7-13Z" transform="translate(-1532 -81.26)"/><path class="cls-27" d="M1637,952s-9-4-9-6l-7,10,2,2Z" transform="translate(-1532 -81.26)"/><path class="cls-28" d="M1641,933c-1,2-7,12-7,12v3h4l5-11Z" transform="translate(-1532 -81.26)"/><path class="cls-28" d="M1624,962a61.25,61.25,0,0,0-4,6l1,1,4-5Z" transform="translate(-1532 -81.26)"/><polygon class="cls-29" points="81 861.74 86 860.74 87 856.74 89 857.74 90 864.74 82 864.74 81 861.74"/><path class="cls-30" d="M1583,962s-8,11-1,16,18,4,18,4l15-16s-2-3-3-3-24,1-26-2S1583,962,1583,962Z" transform="translate(-1532 -81.26)"/><path class="cls-30" d="M1719,966s13,12,14,12,15,4,16-2-9-14-9-14Z" transform="translate(-1532 -81.26)"/><path d="M1703,937.69l19.25,6.51c1.83.62,2.62-2.28.79-2.9l-19.24-6.5c-1.83-.62-2.62,2.28-.8,2.89Z" transform="translate(-1532 -81.26)"/><path d="M1723.85,930.39A128.28,128.28,0,0,1,1712.74,945c-1.3,1.42.82,3.55,2.12,2.12a132.9,132.9,0,0,0,11.58-15.24c1.09-1.6-1.51-3.11-2.59-1.51Z" transform="translate(-1532 -81.26)"/><path d="M1714.18,948.75a30.37,30.37,0,0,1,14.81,3.94,1.5,1.5,0,0,0,1.52-2.59,33.63,33.63,0,0,0-16.33-4.35,1.5,1.5,0,0,0,0,3Z" transform="translate(-1532 -81.26)"/><path d="M1728,950.72l-8.79,8.78a1.5,1.5,0,1,0,2.12,2.13l8.79-8.79a1.5,1.5,0,1,0-2.12-2.12Z" transform="translate(-1532 -81.26)"/><path d="M1733.4,956.25a65.81,65.81,0,0,1-16.09-2.37,1.51,1.51,0,0,0-.8,2.9,68.87,68.87,0,0,0,16.89,2.47c1.93,0,1.93-3,0-3Z" transform="translate(-1532 -81.26)"/><path d="M1718,956.32l10.61-10.62a1.5,1.5,0,0,0-2.12-2.12l-10.61,10.62a1.5,1.5,0,0,0,2.12,2.12Z" transform="translate(-1532 -81.26)"/><path d="M1728.85,943.35l-4.39-2a1.62,1.62,0,0,0-1.16-.16,1.59,1.59,0,0,0-.9.69,1.56,1.56,0,0,0-.15,1.16,1.49,1.49,0,0,0,.69.9l4.39,2a1.67,1.67,0,0,0,1.16.15,1.5,1.5,0,0,0,1-1.85,1.47,1.47,0,0,0-.69-.89Z" transform="translate(-1532 -81.26)"/><path d="M1592.36,957.7l14.08-3.33c1.88-.45,1.08-3.34-.8-2.9l-14.08,3.34c-1.88.44-1.08,3.34.8,2.89Z" transform="translate(-1532 -81.26)"/><path d="M1596.36,945.67c.38.25.75.5,1.11.77l.49.36c.09.06.24.18.08.05l.26.21c.69.55,1.36,1.12,2,1.72a34.42,34.42,0,0,1,3.54,3.9,1.49,1.49,0,0,0,2.12,0,1.54,1.54,0,0,0,0-2.12,34.22,34.22,0,0,0-8.08-7.48,1.5,1.5,0,0,0-2.05.54,1.54,1.54,0,0,0,.53,2Z" transform="translate(-1532 -81.26)"/><path d="M1597,944.77l12.88-3.4a1.53,1.53,0,0,0,1.1-1.45v-.06a1.54,1.54,0,0,0-1.1-1.45,1.6,1.6,0,0,0-1.36.18,1.57,1.57,0,0,0-.69,1.7l0,.06c.55,1.84,3.45,1.06,2.89-.8l0-.06-.68,1.69-.22.1h-.8l.06,0-1.1-1.44v.06l1.1-1.44-12.88,3.4a1.5,1.5,0,0,0,.8,2.89Z" transform="translate(-1532 -81.26)"/><path d="M1600.76,959.11,1597,948.65a1.53,1.53,0,0,0-1.84-1,1.5,1.5,0,0,0-1.05,1.84l3.75,10.46a1.55,1.55,0,0,0,1.85,1.05,1.52,1.52,0,0,0,1-1.85Z" transform="translate(-1532 -81.26)"/><path d="M1594.82,951.31a27.83,27.83,0,0,1,12.33-4,1.54,1.54,0,0,0,1.5-1.5,1.51,1.51,0,0,0-1.5-1.5,31.33,31.33,0,0,0-13.85,4.39c-1.65,1-.14,3.6,1.52,2.6Z" transform="translate(-1532 -81.26)"/><path d="M1599.36,937.87l.55.37.26.19s.29.22.06,0c.35.28.68.56,1,.85a17.05,17.05,0,0,1,1.74,1.87s.22.29,0,.06l.16.21.38.54q.36.54.69,1.11c.21.38.41.77.6,1.16l.11.24.08.19.07.18c.05.12.1.25.14.37a1.54,1.54,0,0,0,1.85,1,1.52,1.52,0,0,0,1-1.85,18.62,18.62,0,0,0-7.26-9.17,1.51,1.51,0,0,0-2.05.54,1.53,1.53,0,0,0,.53,2Z" transform="translate(-1532 -81.26)"/><path class="cls-31" d="M1801,410l22.6-6.22S1809,411,1801,417C1801,417,1800,411,1801,410Z" transform="translate(-1532 -81.26)"/><path class="cls-31" d="M1601,399s-6.58-4.08-21.79-10c0,0,14.79,8,20.79,15A20.34,20.34,0,0,0,1601,399Z" transform="translate(-1532 -81.26)"/><path class="cls-32" d="M1713,436l-2,13-14.93,3.57s.75-3-.21-5A11.05,11.05,0,0,0,1695,443a4.74,4.74,0,0,0-1-6,2.77,2.77,0,0,0,0-4v-9l15-4,2,8Z" transform="translate(-1532 -81.26)"/><polygon class="cls-33" points="144 348.74 129.36 358.57 127 374.74 131.25 380.33 149.49 380.81 150 374.74 144 348.74"/><polygon class="cls-34" points="161.26 356.47 181.2 354.66 161.97 358.85 162.17 357.03 161.26 356.47"/><polygon class="cls-35" points="161.19 351.04 179.53 349.58 163.26 353 163.09 351.53 161.19 351.04"/><polygon class="cls-36" points="161.25 346.59 178.2 344.66 161.82 348.84 162.02 347.11 161.25 346.59"/><polygon class="cls-37" points="162.25 363.59 179.2 361.66 162.82 365.84 163.02 364.11 162.25 363.59"/><polygon class="cls-38" points="217 340.08 226 342.74 232 347.74 222 345.74 210.16 340.32 219.39 342.2 217 340.08"/><polygon class="cls-39" points="195.21 341.74 215 350.74 193.33 343.91 193 342.74 195.21 341.74"/><polygon class="cls-40" points="192.38 346.75 212 354.74 191.69 348.84 192.38 346.75"/><polygon class="cls-41" points="190.06 353.75 210 361.74 189.33 355.92 190.06 353.75"/><polygon class="cls-42" points="188.09 359.74 206 366.74 194 364.74 188.09 359.74"/><polygon class="cls-33" points="222 349.74 246 353.74 248.37 380.42 241 383.74 213 373.74 222 349.74"/><path d="M1664.69,231.44,1666,228s1-1-2,0Z" transform="translate(-1532 -81.26)"/></g><g id="neutre"><path class="cls-43" d="M1661.59,190s-6-3.51-8-9.39a39.6,39.6,0,0,1-2.18-9.92s.36-4.59,0-4.78.18-3.67-.18-5.14-.18-6.43.18-7,2.73-3.49,5.09-1.84a9.26,9.26,0,0,1,2.86,2.63,36.34,36.34,0,0,1,.78,5.82c0,2.21.73,18.37,2,27.38C1662.12,187.77,1663.61,190.74,1661.59,190Z" transform="translate(-1532 -81.26)"/><path class="cls-43" d="M1744,160.76s2-6.74,4.92-6.61c4.36.18,4.36,3.49,4.36,3.49s1.46,5.14.18,9a57.41,57.41,0,0,0-2,8.82c0,.18-2,6.61-2.91,7.71,0,0-2.55,5.7-5.28,7s-2.72.74-2.72.74S1742.36,178.58,1744,160.76Z" transform="translate(-1532 -81.26)"/><path class="cls-44" d="M1744,167.74l.37-6.25a4.25,4.25,0,0,1,1.27-3.85c1.82-2,3.09-9,3.28-9.56s1.09-9.73,1.09-9.73.18-11.94-2.37-18.74c-.06-.17-1.45-6.62-2.91-8.45,0,0-1.09-5.15-2.36-6.62a11,11,0,0,0-3.28-5.14,22.28,22.28,0,0,1-4.73-6.06c0-.37-4.55-4.78-5.64-5.15s-9.46-3.86-10.92-4.41-8.37-3.49-11.64-2.2c0,0-7.83-.55-10-.19s-6,1.11-8.37,2.39c0,0-7.64,1.47-11.64,5,0,0-6.74,5-9.1,7.17s-8.19,15.43-9.28,19.29-4,12.86-3.09,18.37,1.27,11.76,1.45,12.31,4.55,10.84,4,14.51.19,14.33.19,14.33l1.45,16.9.91.37-.73,5,.73-.55.55,5.33s1.09-1.84,1.09-1.47v3.67s1.09-.73,1.09-.36a12.1,12.1,0,0,0,.36,1.65,9.85,9.85,0,0,1,.91,2.57v3.12s.37-1.1.91-.36a33.74,33.74,0,0,1,1.82,4.77s1.1-1.47,1.1-.91a10.34,10.34,0,0,0,1.63,3.12c.37.37.37,2,.91,2.75s2.55,2.39,2.91,2.94l2.37,3.49.54-1.47s2.19,2.21,2.73,2.94a39.54,39.54,0,0,0,3.46,3.13l3.82,1.47a10.22,10.22,0,0,0,3.28,2c1.45.37,5.82,1.47,6.55,1.83s.91-.18,1.27-.18,2.73-.73,2.91,0,1.82,0,1.82,0,5.28-.92,6.19-1.1a59.29,59.29,0,0,0,5.64-2.57l4.91-1.47a6,6,0,0,1,1.09-1.47c.37-.19,4.55-2.57,4.55-2.57s2-3.5,2.37-4.05,2-3.85,2.36-4,2.55-2.2,2.55-2.2l1.09-4h.91a14.29,14.29,0,0,1-.18-2.58c.18.37.73,1.29.73,1.29l-.37-3.67s1.09-2.39,1.46-2.21.54,1.65.54,1.65l.55-3.85.36,1.47v-3.68l1.1.55-.73-2.75.91-3.68.54.92v-4l.55-3.31v-2.94l.91-2.75-.55-1.66h.91l-.54-2.57.18-2.57.18-2.76.36-3.12Z" transform="translate(-1532 -81.26)"/><path class="cls-1" d="M1660.85,158.75s.72,21.92,1.08,23.56,4.16,6.76,4.16,6.76l5.7,15.08,1.81-2.56-.36,4,1.63-.37v1.47l3.08.18-.37-4.39-.9-4.56,2.53-4s5.79-.19,6.15-.55-1.62,2.19-1.26,2.56,1.26.18,3.07-.37a6.44,6.44,0,0,0,3.26-2.74c.18-.37-.36-.91-.36-.91a9.62,9.62,0,0,1,2.35-1.83c.72-.18,3.26-1.28,3.26-1.28s3.07.91,3.07,1.46,1.45.18,1.81.18,1.45,1.83,1.63,1.65.73-1.83,1.09-2,2.89-1.1,3.07-1.28a17.11,17.11,0,0,1,3.62-.55c.73,0,1.81,0,1.81.55a31.31,31.31,0,0,0,1.27,3.84,14.25,14.25,0,0,1,2.53.91,1.18,1.18,0,0,0,1.45.91c1.08-.18,2.89-.36,3.07-.36s2,.91,2.18.91.9-.36,1.44-.18.55,1.1.55,1.28,1.81,3.65,1.81,4.57a28.55,28.55,0,0,1-.19,4c-.18.91-1.26,2.55-.36,4.38s2.17-2.19,2.17-2.19l2.9-9.69.9,1.65,2.18-5.48,6.15-9.5s3.43-12.24,3.43-13-.9-21.93-.9-21.93,1-7.28.84-8.37-1.38-8.07-1.38-8.62-.73-8.22-.73-8.22l-2.89-6.58-4.52-2.37-4.35-7.13s-3.25-3.1-3.25-3.65-2.36,1.46-2.36,1.46,1.09,3.47-.18,4.2-8.86,8-24.24,5.3-17.55-5.48-17.55-5.66-1.63-2.19-.37-2.93-6.87.19-8.14,1.28-5.79,4-5.79,4.39-1.63,3.65-2,4.57-3.62,11.32-3.44,12-1.08,5.85-1.08,6.22a20.06,20.06,0,0,1-.73,4.2,4.76,4.76,0,0,0-.18,2.74c.18.73,1.45,6.94,1.09,8S1661.66,157,1660.85,158.75Z" transform="translate(-1532 -81.26)"/><path class="cls-43" d="M1683.22,205.59l-2.55,1.28s-.54,1.47-.36,1.66,1.46,1.1,1.46,2-.91,1.83-.73,2a6.12,6.12,0,0,0,1.09.55s.91.55.73,1.1a2.53,2.53,0,0,0-.18,2,1.49,1.49,0,0,0,1.45.92c.55,0,1.09.55,1.46,1.1s2.73,0,3.27.37,2.37,0,2.73,0,.18,1.84.55,1.84,2.54,0,2.54-.37,1.28-1.65,1.46-1.65a10.26,10.26,0,0,0,1.82.36c.73,0,1.46-.91,1.27-.91s-1.27-.56-1.27-.74.91-2.94.36-3.12-1.09-1.29-1.09-1.29a1.36,1.36,0,0,0-1.09-.18c-.55.18-.73-1.66-1.27-1.66a19.52,19.52,0,0,1-5.28-2.93,13.25,13.25,0,0,1-1.82-2.76S1684.86,203.75,1683.22,205.59Z" transform="translate(-1532 -81.26)"/><path class="cls-43" d="M1718.34,206s2.91,2.39,2.73,3.68c0,0,.91,1.28.54,1.47s-1.63-.19-1.63-.19l-.19,1.66-.72.92.91,2-2.37.73,2.37.55s-1.64.55-1.82.37-1.82-.55-1.64-.37,1.64,1.29,1.82,1.47-.37,1.29-.55,1.29a3.23,3.23,0,0,1-1.27-.37c-.18-.18-1.28-2.2-1.28-1.84a19.39,19.39,0,0,1-.54,2.21s-.55-.55-.91-.18,0,.55-.55.91-1.63-.73-1.82-.91l-1.27-1.29-1.27,1.65a7.93,7.93,0,0,0-.19.92,1.42,1.42,0,0,1-1.09.92,1.92,1.92,0,0,1-1.09-.55l-.36-1.84,1.27-1.47-.36-1.84.36-1.46.73-2.39s2.91,0,5.28-3.31l2.18-3.12S1716.52,204.12,1718.34,206Z" transform="translate(-1532 -81.26)"/><path class="cls-43" d="M1688.39,202.13s5.66-3.29,8.68-2.58a47.57,47.57,0,0,0,4.9,1.17,22.93,22.93,0,0,0,3.4-.94c.94-.23,10.94,4.24,11.5,4.24.24,0-.92,5.66-6,7.45s-13.47-.19-17.65-.74c-2.17-.29-6.08-5.62-6.35-5.77C1685.18,204,1688.39,202.13,1688.39,202.13Z" transform="translate(-1532 -81.26)"/><path class="cls-45" d="M1694.32,151.76l-5.46-3.49s-13.1.55-13.83.92-5.64,4.77-5.64,4.77l1.82,6.62s8,3.85,8.19,3.85h10.37l6.14-4.57S1697.23,153.78,1694.32,151.76Z" transform="translate(-1532 -81.26)"/><path class="cls-46" d="M1706.51,161.31s6.19,5.15,6.74,5.27c3.22.74,7.21,2.13,12.73,1.34,14.19-2,10.55-15.24,10.55-15.24s-4.55-9-17.83-7.17c0,0-9.46,1.1-13.28,7.9A21.21,21.21,0,0,0,1706.51,161.31Z" transform="translate(-1532 -81.26)"/><path class="cls-47" d="M1709.6,157.27s2.37-7.17,7.1-8.08a30.67,30.67,0,0,1,9.83,0s-5.83,1.47-6.92,3.12-8.37,5.14-8.37,5.14S1708.88,159.29,1709.6,157.27Z" transform="translate(-1532 -81.26)"/><path class="cls-47" d="M1711.24,160.21a7.11,7.11,0,0,1,2.91,0,14.06,14.06,0,0,0,1.64,1.84c.36.18,5.1.55,5.64.73a16.63,16.63,0,0,1,2.18,1.29s-2.54.73-2.91.73-6.55-1.84-6.55-1.84Z" transform="translate(-1532 -81.26)"/><path class="cls-48" d="M1711.61,158.19a52.85,52.85,0,0,1,5.64-2.39c1.45-.37,5.27-.74,7.82.73a17.56,17.56,0,0,1,3.28,2.21,18.54,18.54,0,0,1-6.92,1.47,18.93,18.93,0,0,1-5.82-1.1,8.86,8.86,0,0,0-3.09-.37C1712.33,158.92,1710.7,159.29,1711.61,158.19Z" transform="translate(-1532 -81.26)"/><path class="cls-48" d="M1674.85,157.09a12.46,12.46,0,0,1,4.19-2.39c2.36-.74,4-1.29,6.55-.55a14.29,14.29,0,0,1,4.55,2.2c.18.18,1.82,0,2.18.74s-.18.91-.18.91a6.52,6.52,0,0,0-2.55.19c-.55.37-6.19,1.1-7.46,1.1A10.33,10.33,0,0,1,1674.85,157.09Z" transform="translate(-1532 -81.26)"/><path class="cls-49" d="M1709.42,148.82c.55,0,3.28-2,3.82-2.39s5.46-.37,6.92-.73,6.55-.92,6.91-.92,3.64.73,5.1,2.2,4.54,4.23,4.54,4.23a15.41,15.41,0,0,0-4.73-1.47c-2.18-.19-5.64-.37-5.82-.37a22.5,22.5,0,0,0-6.37,0C1717.06,149.92,1709.42,148.82,1709.42,148.82Z" transform="translate(-1532 -81.26)"/><path class="cls-49" d="M1693.59,147.35a12.32,12.32,0,0,0-5.27-2.21c-2.55-.18-7.46-2.38-7.46-2.38s-3.82-.19-5.1.36-4.55,1.47-5.09,2a22,22,0,0,0-2.73,3.13l-.73.92,1.27-.37-1.09,2.2s3.1-3.3,4.37-2.94c0,0,2.36-1.28,6.73-.36a38.61,38.61,0,0,1,6.91.36,35.87,35.87,0,0,0,7.65.19S1693.77,147.72,1693.59,147.35Z" transform="translate(-1532 -81.26)"/><path class="cls-50" d="M1715.61,148.63s8.73-1.65,9.1-1.65a12.33,12.33,0,0,1,2.73.55,5.26,5.26,0,0,0,.91.55l-3.28-.73Z" transform="translate(-1532 -81.26)"/><path class="cls-50" d="M1725.62,145.7c0,.18,3.63,2,3.63,2.2s.37.55.37.55l-.18-.92Z" transform="translate(-1532 -81.26)"/><polygon class="cls-50" points="194.53 63.89 198.71 66.28 198.71 66.64 198.53 66.28 194.53 63.89"/><path class="cls-50" d="M1733.62,149.37s1,.73,1,.92.44,1.65.44,1.65l-.15-1.84Z" transform="translate(-1532 -81.26)"/><polygon class="cls-50" points="155.59 66.09 152.31 65.72 154.68 66.64 155.59 66.09"/><polygon class="cls-50" points="185.61 65.91 182.34 65.54 184.7 66.46 185.61 65.91"/><polygon class="cls-50" points="149.77 64.07 147.4 62.79 145.03 63.34 147.22 63.34 149.77 64.07"/><path class="cls-50" d="M1678.67,145.51l-3.64.37A17.35,17.35,0,0,0,1678.67,145.51Z" transform="translate(-1532 -81.26)"/><polygon class="cls-50" points="137.94 66.09 141.58 62.79 142.12 62.97 141.58 63.15 137.94 66.09"/><path class="cls-51" d="M1652.47,167.92s.37-3.3,1.82-4.59,2-6.61,2-6.61-2.91-3.68-4-3.31-1.09,6.43-1.09,6.43a20.25,20.25,0,0,1,.54,4.59A9.08,9.08,0,0,0,1652.47,167.92Z" transform="translate(-1532 -81.26)"/><path class="cls-52" d="M1656.47,158.19s.37,4-1.45,6.06a8.8,8.8,0,0,0-2,4.78,7.75,7.75,0,0,1,.18-3.49c.55-1.66,1.46-2,1.82-2.94A10.43,10.43,0,0,0,1656.47,158.19Z" transform="translate(-1532 -81.26)"/><path class="cls-53" d="M1659.2,165.54l.73-.19s.37,3.13,0,4a31.27,31.27,0,0,1-1.82,3.31s-.36,1.29.55,1.84a2.33,2.33,0,0,1,1.09,1.28s.36.56-.55.56-3.45-1.84-3.82-4a7.21,7.21,0,0,0-1.09-3.12,3.21,3.21,0,0,1,1.82-1.29C1657.2,167.74,1658.84,165.54,1659.2,165.54Z" transform="translate(-1532 -81.26)"/><path class="cls-52" d="M1654.84,176a13.55,13.55,0,0,1,2.73,1.47,8.05,8.05,0,0,1,0,2.94c-.19.18-.55,1.1-.19,1.47s-.72.18-1.27-.55a5.36,5.36,0,0,1-.54-3.13A2.94,2.94,0,0,0,1654.84,176Z" transform="translate(-1532 -81.26)"/><path class="cls-52" d="M1653,153.41a2.1,2.1,0,0,0-1.09,0c-.37.19.72-1.1,2-1.47,0,0-1.46,1.1-.91.92S1653.56,153.6,1653,153.41Z" transform="translate(-1532 -81.26)"/><path class="cls-54" d="M1748,161.31s2.54-5.14,4.18-4,1.82,4.22,1.82,4.22-1.46,4.41-2,4.78-2.55.74-2.73,0S1748,161.31,1748,161.31Z" transform="translate(-1532 -81.26)"/><path class="cls-55" d="M1743.63,170.13s-.18-1.47.18-1.65,1.64-3.31,3.46-2.39.91,6.61.91,7-1.82,5.14-3.46,5.33-2.36-1.47-1.82-1.84a10.46,10.46,0,0,0,1.46-1.47A17,17,0,0,0,1743.63,170.13Z" transform="translate(-1532 -81.26)"/><path class="cls-56" d="M1749.56,172.52s-1.56-8.19-2.18-8.42,1.56.93,2.8,4.21S1749.56,172.52,1749.56,172.52Z" transform="translate(-1532 -81.26)"/><path class="cls-56" d="M1748,177.66s-2,1.47-1.46,2.21,1.09,2.75.55,3.49-1.82.36-2.37.18,1.27-.55.91-1.1-.91-1.47-.91-1.47l-1.64-1.29s.37-1.1,1.09-.92S1747.27,176.74,1748,177.66Z" transform="translate(-1532 -81.26)"/><path class="cls-57" d="M1743.08,184.46s1.46,1.1,1.28,2.2-2,.56-2,.56A1.67,1.67,0,0,1,1743.08,184.46Z" transform="translate(-1532 -81.26)"/><path class="cls-58" d="M1750.18,176.19s-3.16,4.68-2.85,5a1.67,1.67,0,0,1-.19-2.56C1748.54,177.11,1748,178.4,1750.18,176.19Z" transform="translate(-1532 -81.26)"/><path class="cls-56" d="M1750,157.45s1.45-1.28,2.54-1.1c0,0,.37,0,.19-.55a2.77,2.77,0,0,0-1.1-1.29,4.86,4.86,0,0,0-1.81-.36,4,4,0,0,0-1.1.18s-.36.18-.18.37,1.09-.37,1.46,0,.36.73,0,.73S1749.63,157.45,1750,157.45Z" transform="translate(-1532 -81.26)"/><path class="cls-59" d="M1688,203.71c-.07-.17,6.14-3.87,9.49-2.52a10,10,0,0,1,3.17,1.55h.93s2.79-2.13,4.65-1.74a28.21,28.21,0,0,1,5.21,1.74,18.65,18.65,0,0,0,3.91,1.17c.56,0,1.3.77,1.3.77a17.87,17.87,0,0,1-2.23,3.3c-.75.58-2.42,3.29-5.77,4.26a21.05,21.05,0,0,1-5.58.19,24.14,24.14,0,0,0-3.91-.38,11.8,11.8,0,0,1-4.84-1.17A14,14,0,0,1,1688,203.71Z" transform="translate(-1532 -81.26)"/><path class="cls-60" d="M1689.9,204.75a7.4,7.4,0,0,1,4.84.76c2,1.31,10.8,1.12,12.66.56a11.86,11.86,0,0,1,5-.56,5.94,5.94,0,0,0,2.61-.19s-9.68,5.07-16.94,2.82S1690.65,205.32,1689.9,204.75Z" transform="translate(-1532 -81.26)"/><path class="cls-61" d="M1694.37,205.88l.74-.37.38.75h.56l.74-.38,1.12.57s-.19.56.18.56-.56.37-.74.19a3.85,3.85,0,0,0-1.12-.38,1.87,1.87,0,0,0-.74-.19,5.76,5.76,0,0,1-1.31-.37Z" transform="translate(-1532 -81.26)"/><path class="cls-61" d="M1702.19,206.26V208S1702.74,206.45,1702.19,206.26Z" transform="translate(-1532 -81.26)"/><path class="cls-61" d="M1703.86,206.82l.19-.37a2.73,2.73,0,0,1,.37.75c0,.18-.56,0-.56,0Z" transform="translate(-1532 -81.26)"/><path class="cls-61" d="M1705.16,207c-.11-.15,0-.75,0-.75l.19.75v-.75s.37.94.37.75v-.56l.37.75S1705.72,207.76,1705.16,207Z" transform="translate(-1532 -81.26)"/><path class="cls-61" d="M1707.21,207.76c0-.19.19-.75.56-.75a1.28,1.28,0,0,0,.74-.38l.19-.37-.37-.19s-.19.38-.37.38h-.38l-.18-.19v.37H1707V207Z" transform="translate(-1532 -81.26)"/><path class="cls-62" d="M1684,204a3,3,0,0,1,3-.94c1.67.57,11.53,1.69,11.91,1.69s2.23-.75,3-.37,2.61,1.13,3.17.75,3.53-.56,3.91-.56,5-.38,5.39-.38a11.83,11.83,0,0,0,1.68-.38s.74-.56,1.3-.18,1.49.75.37.75H1716c-.19,0-8.38.75-9.49.94a28.68,28.68,0,0,1-4.1,0c-.18,0-2.79-.19-3.16-.19s-2.79-.19-3.16-.19-8-.37-8.94-.75S1685.25,204.38,1684,204Z" transform="translate(-1532 -81.26)"/><path class="cls-63" d="M1679.22,203.75l-.73-5.33,1.64-2.75,2.55,1.1s.18,2.75.72,2.57,2.37-.73,2.37-.73l3.64-1.29,2.73-1.84,2.73.74,2.18.55s3.82-.92,3.82-1.29-.18-2.75-.18-2.75l2.55.92V197l4.91-1.65s2.36-1.1,3.27-.37,1.82.74,2.19,1.84-1.09.92.54,1.47,4.19.18,4.73.55,2.37-1.1,2.55-.55,1.27,4.59.91,4.59-5.46-.92-5.46-.92l-5.09-3.49h-7.64l-3.28.92-3.09-.37s-4-1.1-5.28-.55a23,23,0,0,0-3.27,2l-1.82-.18-6.19,2.39-.36,2Z" transform="translate(-1532 -81.26)"/><path class="cls-63" d="M1667.39,205.59c.18.92,2.55,3.49,2.55,3.49l4.18-2.57L1671,211.1l2.18,2.75s1.46-2.38,2.37-2.2-.18,5.14-.18,5.14l4.36-.18s.37,3.49.73,3.31,3.1-.74,3.1-.74l-2.92,3.49s1.46,2.39,2,2.39,1.45-.37,1.82-.37.54.74.54.74l3.09,1.1s1.28,2.21,1.82,2.21a22.15,22.15,0,0,1,3.1.91l6.18,2.39,5.83-.73s4-1.29,4.36-1.29,6.19-2,6.19-2l.18-2.76s.55-2.57,1.82-1.65,3.82-1.65,3.82-1.65l-.54-2.21a20.35,20.35,0,0,1,.9-3.12,13.78,13.78,0,0,0,3.1-1.29c.36-.36,2.91-3.12,3.46-2.38s3.63-2.39,3.63-2.39l1.28-3.31s2.18-2.57,2.55-3.12,2.54-4.6,2.54-4.6l1.09-.91-2.54,8.81-3.28,6.8-2.36,4.59a38.61,38.61,0,0,1-3.46,4.41c-.91.74-6.55,5.33-7.46,6.25s-8.92,3.86-8.92,3.86l-8.37,2.2-8-.73-6.92-2.76-6.55-4.77-3.64-3.68-6-6.61-1.82-3.86-2.91-4.23Z" transform="translate(-1532 -81.26)"/><path class="cls-64" d="M1684.75,153.77a3.28,3.28,0,1,1-4.68.18" transform="translate(-1532 -81.26)"/><ellipse class="cls-65" cx="150.86" cy="74.91" rx="0.91" ry="0.92"/><path class="cls-66" d="M1680.86,154.88s0-.37-.19-.37,0,.19-.18.19a.18.18,0,0,0-.18.18Z" transform="translate(-1532 -81.26)"/><path class="cls-66" d="M1682,154.51a4,4,0,0,1,.73-.18c.18,0,.36.37.18.37S1682,154.7,1682,154.51Z" transform="translate(-1532 -81.26)"/><path class="cls-66" d="M1680.86,155.62s.54.91.91.73a.65.65,0,0,0,.36-.55l-1.09-.55Z" transform="translate(-1532 -81.26)"/><path class="cls-66" d="M1683.22,155.8a.85.85,0,0,1,.39,0c.16,0-.14-.62-.45-.38S1682.86,155.62,1683.22,155.8Z" transform="translate(-1532 -81.26)"/><path class="cls-64" d="M1718.13,159.89a1.07,1.07,0,0,1-.14-.16,3.33,3.33,0,0,1,.35-4.56l4.18-.16a3.33,3.33,0,0,1,.14,5.13" transform="translate(-1532 -81.26)"/><ellipse class="cls-65" cx="188.89" cy="76.38" rx="0.91" ry="0.92"/><path class="cls-66" d="M1719.79,157.27s0-.37-.18-.37,0,.19-.18.19a.18.18,0,0,0-.18.18Z" transform="translate(-1532 -81.26)"/><path class="cls-66" d="M1720,156a4.08,4.08,0,0,1,.72-.18c.19,0,.37.37.19.37S1720,156.17,1720,156Z" transform="translate(-1532 -81.26)"/><path class="cls-66" d="M1721.25,157.27a.85.85,0,0,1,.39,0c.15,0-.14-.62-.45-.38S1720.89,157.09,1721.25,157.27Z" transform="translate(-1532 -81.26)"/><path class="cls-67" d="M1684.68,152.94s-6.84-4.24-12.19,3.23C1672.49,156.17,1677.84,151.76,1684.68,152.94Z" transform="translate(-1532 -81.26)"/><path class="cls-68" d="M1692,156.72s-6.92-5.33-17.29,0c0,0-1.09.73-1.82.37a7.68,7.68,0,0,1,.91-.19c.18,0-.36-.37-.36-.37a.83.83,0,0,0,.72,0,10.08,10.08,0,0,0,1.1-.73l-.19-.55a.36.36,0,0,0,.37.37c.36,0,.73,0,.73-.37,0,0,.18.18.54,0s.18-.74.18-.74.19.55.37.37a6,6,0,0,1,.91-.55l.36-.73a.93.93,0,0,0,.18.55c.18.18,1.28-.37,1.28-.37v-.55s.25.29.4.51,1.05-.7,1.05-.7-.18.37,0,.37a11.74,11.74,0,0,0,1.28-.37l-.37.37S1688.32,153.41,1692,156.72Z" transform="translate(-1532 -81.26)"/><path class="cls-68" d="M1689.77,152.31s-12.19-4.23-17.28,4.22C1672.49,156.53,1676.49,149.19,1689.77,152.31Z" transform="translate(-1532 -81.26)"/><path class="cls-69" d="M1679.4,151.21s-8.55,1.83-7.46,4.41c0,0,.36.36.55,0S1673.94,152.49,1679.4,151.21Z" transform="translate(-1532 -81.26)"/><path class="cls-70" d="M1665.94,115.2s4.73-7.9,8-7.72,4.19,5.7,4.19,5.7-2,1.47-1.28,2a29.84,29.84,0,0,1,2.73,3.12l-.73,1.47a23.45,23.45,0,0,1-2,2.76c-.72.73-3.45,2.39-2.36,3.3s3.09,2.21,2.18,2.94-4,3.13-4.73,3.86-10.19,3.12-10.19,3.12v29l5.28,23,4.91,4.77-.55,11.58-2.91-7.9c-.72-1.29-2.91-7.35-2.91-7.35l-1.09-1.47-3.27-5.15-.55-26.63s-.91-14.7-.91-15.25S1662.66,118.87,1665.94,115.2Z" transform="translate(-1532 -81.26)"/><path class="cls-71" d="M1670.12,119.42l4.37-5.32,1.82-2.21-2.73,1.1.54-2.38.37-1.11-.55-2a11.84,11.84,0,0,0-8,7.72c-2.19,6.43-.91,8.63-.91,8.63l3.09-2Z" transform="translate(-1532 -81.26)"/><path class="cls-72" d="M1692.5,116.57l2.91,5.51H1692l.54,2.39h2.91l-.36,2a9.36,9.36,0,0,0,2.55-.55,5.71,5.71,0,0,1,2.91-.74c.54.18,7.46.37,7.46.37s2.36-2.57,2.73-2.39a37.8,37.8,0,0,1,2.73,2.94s-.55-3.68.54-3.49,4.19,2.39,4.19,2.39.91-3.31,0-3.86-4.73-3.12-4.92-3.68-1.82-1.83-1.82-1.83-5.27,3.49-10.37,2-6.73-3.31-6.73-3.31S1690.14,114.91,1692.5,116.57Z" transform="translate(-1532 -81.26)"/><path class="cls-71" d="M1727.62,118.87l-.73-2.57,1.64-1.29,1.82.56.91-2s0-1.28.36-1.1a18,18,0,0,1,1.82,1.84l2.18,2.76,2.55.73-1.27,1.84.91.92-1.46,4s3.64,3.86,4,4.77.37,6.25.37,6.25l-2.37-1.84-4-4.77s-2.55-1.66-2.18-2.39a6.83,6.83,0,0,0,.72-2.94,10.62,10.62,0,0,0-1.27-2.57C1730.89,120.16,1727.62,118.87,1727.62,118.87Z" transform="translate(-1532 -81.26)"/><path class="cls-19" d="M1714.88,115.57l-3.46-.92,2,10.47s-4.37-.37-2.92,3.12,2.37,5.15,2.37,5.15l14,1.28a9.48,9.48,0,0,1,6.73,4.6c2.55,4.22-1.09-5-3.46-7s2-5.69,2-5.69l.72-2.94-1.27-2.57-4-2.21-.73-2.57,1.64-1.29,1.82.56.91-2,.36-1.1s-.36-2.39-.73-2.57-3.09-3.49-3.09-3.49l-1.64-1.65-1.82,2,1.82,2.2-1.64,1.1-4.91,2.58S1716.7,115.93,1714.88,115.57Z" transform="translate(-1532 -81.26)"/><path class="cls-68" d="M1712.06,157.55s6.37-2.94,12.74-.92a16.38,16.38,0,0,1,4.09,2.29l-1.09-1.47-2.55-1.28v-.74l-.54.55-.73-.36v-.56l-.37.19-.36-.92-.18.73-1.09-.18.72-.55-1.81.55-.91-.73v.73l-1.82.18-1.64.56-2,.55Z" transform="translate(-1532 -81.26)"/><path class="cls-68" d="M1731.44,159.11s-.73-5.7-13.83-6.25c0,0-5.28.55-7.82,3.86,0,0,3.64-4.59,13.46-2.94A13.33,13.33,0,0,1,1731.44,159.11Z" transform="translate(-1532 -81.26)"/><path class="cls-73" d="M1693.93,188.18s-4.16-.71-5.07-3.51,2.19-3.15,2.19-3.15,3.82,0,6.18,1.75,8,.87,8,.87,4-3.49,6.73-1.92,2.36,3.15,2.36,3.15a3.76,3.76,0,0,1-2.72,2.1,48.69,48.69,0,0,1-6,.35l-2.18,1.05-3.82-.35-2.37-1.58-2.55-.52Z" transform="translate(-1532 -81.26)"/><path class="cls-74" d="M1705.6,187.77s3.46-2.58,5.46-1.66-2,1.84-2,1.84A12.73,12.73,0,0,1,1705.6,187.77Z" transform="translate(-1532 -81.26)"/><path class="cls-74" d="M1692,187.4s-1.86-2.51,1.34-2.08,3.93,1.53,3.93,1.53-3.09-.55-3.09.73S1692,187.4,1692,187.4Z" transform="translate(-1532 -81.26)"/><path class="cls-75" d="M1696.14,186.48s-3.28-2.57-3.82-.18c0,0,.18.55.91,0S1696.14,186.48,1696.14,186.48Z" transform="translate(-1532 -81.26)"/><path class="cls-75" d="M1706.15,187.4s3.64-1.84,4.55-1.29-.37.92-.37.92S1710.15,186.66,1706.15,187.4Z" transform="translate(-1532 -81.26)"/><path class="cls-76" d="M1700.69,157.27l-1.46-6.78s1.82-.2,2.19-.2a38.53,38.53,0,0,1,4,2.67l2.55,17.66,2.36,7.18L1712,179l-6.73,4.73-1.64,1.43-4.55-1.23-3.09-1.71,4.91-19.65Z" transform="translate(-1532 -81.26)"/><path class="cls-72" d="M1697.11,156.35c0,.25-.24,16-.24,16V178l-2.37.92-2.6-4.72-.31-1.74Z" transform="translate(-1532 -81.26)"/><path class="cls-77" d="M1697.41,157.45c0,.19.46,11.39.46,11.39l1.08,2.21,1.37-2.94-.91-10.84-.92-2Z" transform="translate(-1532 -81.26)"/><path class="cls-78" d="M1698.32,157.45c0,.19.46,11.39.46,11.39l1.08,2.21,1.37-2.94-.91-10.84-.92-2Z" transform="translate(-1532 -81.26)"/><path class="cls-79" d="M1699.05,157.45c0,.19.32,11.39.32,11.39l.73,2.21,1-2.94-.63-10.84-.63-2Z" transform="translate(-1532 -81.26)"/><polygon class="cls-80" points="133.94 90.33 138.84 88.69 144 94.16 145.03 100.45 139.1 97.44 133.94 97.99 133.94 90.33"/><polygon class="cls-81" points="135.39 90.13 139.65 88.69 144.14 93.47 145.03 98.98 139.88 96.35 135.39 96.83 135.39 90.13"/><polygon class="cls-70" points="136.67 90.34 140.12 89.24 143.76 92.92 144.49 97.14 140.31 95.12 136.67 95.49 136.67 90.34"/><polygon class="cls-68" points="196.34 77.48 191.95 78.81 185.9 78.55 183.25 77.67 180.51 77.48 183.11 77.91 185.97 78.95 191.8 79.14 196.34 77.48"/><path class="cls-82" d="M1714.33,156.9l-2.62,1.12s-1,.9,0,.9,1.19-.22,1.19-.22h.72Z" transform="translate(-1532 -81.26)"/><path class="cls-83" d="M1690.14,156.35l1.82.37s1.09.73.18,1.28h-1.57l-.87.13a5.57,5.57,0,0,1-.87.35c-.33.08.16-2.82.16-2.82A10.39,10.39,0,0,1,1690.14,156.35Z" transform="translate(-1532 -81.26)"/><path class="cls-68" d="M1674.67,157.27l3.46,1.84,4.18.55,6.19-.92a8.91,8.91,0,0,1,1.68-.64c.14.09-1.5.27-1.5.27l-6,.92-4.37-.37Z" transform="translate(-1532 -81.26)"/><path class="cls-70" d="M1693.05,146.06a56.81,56.81,0,0,1,4.55,4l-1.64,3.31,2.73-2.75,4.55-.56,3.45,4.41a48.6,48.6,0,0,1-1.82-4.59c.19,0,7.83-4,7.83-4s-6.37,1.65-6.73,2Z" transform="translate(-1532 -81.26)"/><path class="cls-84" d="M1674.49,160.58l6.91,1.83,7.64-.55,3.1-2.39a28.25,28.25,0,0,1-2.37,2.58c-.36.18-8.55.73-8.55.73Z" transform="translate(-1532 -81.26)"/><path class="cls-85" d="M1712.18,160c.24.33,4.17,2.82,4.17,2.82l7.15.81,5.94-3.08-5.93,2.61-7.22-.7Z" transform="translate(-1532 -81.26)"/><polygon class="cls-70" points="209.44 68.67 209.44 88.87 203.62 106.14 198.16 110.19 198.53 115.88 199.44 117.53 201.62 112.02 207.94 101.87 211.63 88.87 209.44 68.67"/><polygon class="cls-86" points="157.95 96.59 149.04 109.63 148.31 112.94 149.22 109.82 157.59 97.69 157.95 96.59"/><polygon class="cls-86" points="180.15 95.67 188.34 106.51 191.61 113.86 188.16 106.69 180.15 95.67"/><polygon class="cls-79" points="165.23 102.09 165.96 99.73 167.78 98.66 167.96 92 168.51 92.64 169.05 98.87 172.33 100.81 172.51 103.02 170.51 104.67 167.23 104.86 165.23 102.09"/><path class="cls-79" d="M1698.51,183.54s-5.65-1.47-6.92-1.65-2.71,1.16-2.71,1.16a2.39,2.39,0,0,1,1.8-1.71C1692.32,180.79,1698.51,183.54,1698.51,183.54Z" transform="translate(-1532 -81.26)"/><path class="cls-79" d="M1707.42,181.89s3.26-.63,3.45-.41a16.37,16.37,0,0,0,2.37,1s.19.55-1.63.55a22.57,22.57,0,0,0-4,.18c-.73.19-4,1.84-4,1.84Z" transform="translate(-1532 -81.26)"/></g></svg>