<?xml version="1.0" encoding="utf-8"?>
<!-- Generator: Adobe Illustrator 24.0.0, SVG Export Plug-In . SVG Version: 6.00 Build 0)  -->
<svg version="1.1" id="Calque_1" xmlns="http://www.w3.org/2000/svg" xmlns:xlink="http://www.w3.org/1999/xlink" x="0px" y="0px"
	 viewBox="0 0 528.2 179.2" style="enable-background:new 0 0 528.2 179.2;" xml:space="preserve">
<style type="text/css">
	.st0{fill:#C10000;}
	.st1{fill:#FF0000;}
	.st2{fill:#D30909;}
	.st3{fill:#F20000;}
	.st4{fill:#FFFFFF;}
</style>
<title>bloc passer</title>
<g id="Calque_1_1_">
	<g id="Calque_2_1_">
		<polygon class="st0" points="93.6,30.1 398.2,33.8 405.3,36.7 416.2,33.7 518.5,32.8 485.8,55.7 524,79.5 493.6,107.3 
			513.6,134.8 441.8,158.3 268.9,156.4 264.6,153.1 252.2,155.3 4.6,152.7 5.3,141.9 12.2,135.6 4.6,131.2 9.1,55.7 		"/>
		<polygon class="st1" points="9.1,55.7 446.2,59.1 416.2,78.9 431.8,88.6 431.3,91.8 438.9,91.5 462.7,103.2 424.2,132.9 
			441.5,158.2 268.9,156.4 264.6,153.1 252.2,155.3 4.6,152.7 3.2,142.5 11.6,135.9 5.1,131.1 		"/>
		<polygon class="st2" points="518.5,32.8 416.2,33.7 405.3,36.7 398.2,33.8 93.6,30.1 9.1,55.7 446.2,59.1 		"/>
		<polygon class="st3" points="485.8,55.7 524,79.5 462.7,103.2 438.9,91.5 431.3,91.8 431.8,88.6 416.2,78.9 		"/>
		<polygon class="st3" points="493.6,107.3 513.6,134.8 441.8,158.3 424.2,132.9 		"/>
	</g>
</g>
<g>
	<g>
		<path class="st4" d="M60.8,124.6V91.9h9v24.8h14.8v7.8H60.8z"/>
		<path class="st4" d="M95.3,91.9h10l10.4,32.7h-9.1l-1.7-6.4h-9.2l-1.7,6.4h-9.2L95.3,91.9z M103.3,112.2l-3-11.5l-3,11.5H103.3z"
			/>
		<path class="st4" d="M127.4,108.5v16.1h-9V91.9h7l13.1,16.6V91.9h9v32.7h-7.1L127.4,108.5z"/>
		<path class="st4" d="M151.3,107.9c0-2,0.4-3.9,1.1-5.9c0.8-1.9,1.8-3.7,3.3-5.2c1.4-1.6,3.2-2.8,5.3-3.7c2.1-0.9,4.4-1.4,7-1.4
			c3.1,0,5.9,0.7,8.2,2c2.3,1.3,4.1,3,5.2,5.2l-6.9,4.9c-0.4-1.1-1-1.9-1.7-2.5c-0.8-0.6-1.6-1-2.4-1.2c-0.9-0.2-1.7-0.3-2.6-0.3
			c-1.3,0-2.4,0.3-3.3,0.8c-0.9,0.5-1.7,1.2-2.3,2c-0.6,0.8-1,1.7-1.3,2.8c-0.3,1-0.4,2-0.4,3c0,1.1,0.2,2.2,0.5,3.3
			c0.3,1,0.8,2,1.5,2.8c0.6,0.8,1.4,1.4,2.4,1.9c0.9,0.5,2,0.7,3.2,0.7c0.8,0,1.7-0.1,2.5-0.4c0.9-0.3,1.6-0.7,2.3-1.3
			c0.7-0.6,1.2-1.4,1.6-2.3l7.3,4.4c-0.6,1.6-1.7,3-3.2,4.1c-1.5,1.1-3.2,2-5.1,2.6s-3.8,0.9-5.7,0.9c-2.4,0-4.6-0.5-6.6-1.4
			c-2-1-3.7-2.3-5.2-3.9s-2.6-3.4-3.4-5.4C151.7,112.1,151.3,110,151.3,107.9z"/>
		<path class="st4" d="M208.1,116.8v7.8h-23.3V91.9h22.9v7.8h-13.9v4.6h11.9v7.3h-11.9v5.2H208.1z"/>
		<path class="st4" d="M212.3,124.6V91.9h15c1.6,0,3.1,0.3,4.4,1c1.3,0.6,2.5,1.5,3.5,2.6s1.7,2.3,2.3,3.7c0.5,1.4,0.8,2.7,0.8,4.1
			c0,1.3-0.2,2.5-0.6,3.6c-0.4,1.2-0.9,2.2-1.6,3.2c-0.7,1-1.5,1.8-2.5,2.5l6.9,12h-9.8l-5.8-10h-3.6v10H212.3z M221.3,106.7h5.7
			c0.4,0,0.7-0.1,1.1-0.4c0.3-0.3,0.6-0.7,0.9-1.2c0.2-0.5,0.3-1.2,0.3-1.9c0-0.8-0.1-1.4-0.4-1.9s-0.6-0.9-1-1.2
			c-0.4-0.3-0.8-0.4-1.1-0.4h-5.4V106.7z"/>
		<path class="st4" d="M279.2,99.7h-9.4v24.8h-9V99.7h-9.4v-7.8h27.8V99.7z"/>
		<path class="st4" d="M282.4,124.6V91.9h9v32.7H282.4z"/>
		<path class="st4" d="M321.7,124.6v-17.2l-5.5,12.1h-4.8l-5.5-12.1v17.2h-9V91.9h9.8l7,15.4l7.1-15.4h9.8v32.7H321.7z"/>
		<path class="st4" d="M359.6,116.8v7.8h-23.3V91.9h22.9v7.8h-13.9v4.6h11.9v7.3h-11.9v5.2H359.6z"/>
		<path class="st4" d="M363.8,124.6V91.9h15c1.6,0,3.1,0.3,4.4,1c1.3,0.6,2.5,1.5,3.5,2.6s1.7,2.3,2.3,3.7c0.5,1.4,0.8,2.7,0.8,4.1
			c0,1.3-0.2,2.5-0.6,3.6c-0.4,1.2-0.9,2.2-1.6,3.2c-0.7,1-1.5,1.8-2.5,2.5l6.9,12h-9.8l-5.8-10h-3.6v10H363.8z M372.7,106.7h5.7
			c0.4,0,0.7-0.1,1.1-0.4c0.3-0.3,0.6-0.7,0.9-1.2c0.2-0.5,0.3-1.2,0.3-1.9c0-0.8-0.1-1.4-0.4-1.9s-0.6-0.9-1-1.2
			c-0.4-0.3-0.8-0.4-1.1-0.4h-5.4V106.7z"/>
	</g>
</g>
</svg>
