<?xml version="1.0" encoding="utf-8"?>
<!-- Generator: Adobe Illustrator 24.0.0, SVG Export Plug-In . SVG Version: 6.00 Build 0)  -->
<svg version="1.1" id="Calque_1" xmlns="http://www.w3.org/2000/svg" xmlns:xlink="http://www.w3.org/1999/xlink" x="0px" y="0px"
	 viewBox="0 0 528.2 179.2" style="enable-background:new 0 0 528.2 179.2;" xml:space="preserve">
<style type="text/css">
	.st0{fill:#C10000;}
	.st1{fill:#FF0000;}
	.st2{fill:#D30909;}
	.st3{fill:#F20000;}
	.st4{fill:#FFFFFF;}
	.st5{fill:#F7F7ED;}
</style>
<title>bloc passer</title>
<g id="Calque_1_1_">
	<g id="Calque_2_1_">
		<polygon class="st0" points="93.6,30.1 398.2,33.8 405.3,36.7 416.2,33.7 518.5,32.8 485.8,55.7 524,79.5 493.6,107.3 
			513.6,134.8 441.8,158.3 268.9,156.4 264.6,153.1 252.2,155.3 4.6,152.7 5.3,141.9 12.2,135.6 4.6,131.2 9.1,55.7 		"/>
		<polygon class="st1" points="9.1,55.7 446.2,59.1 416.2,78.9 431.8,88.6 431.3,91.8 438.9,91.5 462.7,103.2 424.2,132.9 
			441.5,158.2 268.9,156.4 264.6,153.1 252.2,155.3 4.6,152.7 3.2,142.5 11.6,135.9 5.1,131.1 		"/>
		<polygon class="st2" points="518.5,32.8 416.2,33.7 405.3,36.7 398.2,33.8 93.6,30.1 9.1,55.7 446.2,59.1 		"/>
		<polygon class="st3" points="485.8,55.7 524,79.5 462.7,103.2 438.9,91.5 431.3,91.8 431.8,88.6 416.2,78.9 		"/>
		<polygon class="st3" points="493.6,107.3 513.6,134.8 441.8,158.3 424.2,132.9 		"/>
	</g>
</g>
<g id="Calque_3">
	<polygon class="st4" points="55.2,77.3 96,109.8 52.7,141.1 60.9,125 84.1,109.1 61.3,92.6 	"/>
	<polygon class="st4" points="18.7,75.1 59.5,107.6 16.2,138.9 24.4,122.8 47.5,106.9 24.8,90.4 	"/>
	<polygon class="st5" points="57.2,82.4 91.6,109.2 55.6,135.4 52.7,141.1 96,109.8 55.2,77.3 	"/>
	<polygon class="st5" points="20.7,80.2 55,107 19.1,133.3 16.2,138.9 59.5,107.6 18.7,75.1 	"/>
</g>
<g>
	<g>
		<path class="st4" d="M115.8,119c-1.7,0-3.2-0.3-4.6-0.9c-1.4-0.6-2.5-1.5-3.5-2.5c-1-1.1-1.7-2.3-2.3-3.6
			c-0.5-1.3-0.8-2.7-0.8-4.1c0-1.5,0.3-2.9,0.8-4.2s1.3-2.5,2.3-3.5s2.2-1.9,3.6-2.5c1.4-0.6,2.9-0.9,4.5-0.9c1.7,0,3.2,0.3,4.6,1
			c1.4,0.6,2.5,1.5,3.5,2.6c1,1.1,1.7,2.3,2.2,3.6c0.5,1.3,0.8,2.7,0.8,4.1c0,1.4-0.3,2.8-0.8,4.2c-0.5,1.3-1.3,2.5-2.3,3.5
			c-1,1-2.2,1.9-3.5,2.5C119,118.7,117.5,119,115.8,119z M115.9,113.6c0.9,0,1.6-0.2,2.3-0.5c0.6-0.3,1.2-0.8,1.6-1.3
			c0.4-0.6,0.7-1.2,0.9-1.9c0.2-0.7,0.3-1.4,0.3-2.1c0-0.7-0.1-1.5-0.3-2.2c-0.2-0.7-0.5-1.3-0.9-1.8c-0.4-0.5-0.9-1-1.6-1.3
			c-0.6-0.3-1.4-0.5-2.2-0.5c-0.9,0-1.6,0.2-2.2,0.5c-0.6,0.3-1.2,0.8-1.6,1.3c-0.4,0.6-0.7,1.2-0.9,1.9s-0.3,1.4-0.3,2.1
			c0,0.7,0.1,1.5,0.3,2.1s0.5,1.3,0.9,1.8c0.4,0.5,0.9,1,1.6,1.3C114.3,113.5,115,113.6,115.9,113.6z M113.4,109.5h5.6l8.6,9.3h-5.6
			L113.4,109.5z"/>
		<path class="st4" d="M139.2,119c-1.8,0-3.3-0.3-4.5-0.9c-1.3-0.6-2.3-1.4-3.1-2.4c-0.8-1-1.4-2.2-1.8-3.5s-0.6-2.7-0.6-4.1V96.8h6
			v11.3c0,0.7,0.1,1.4,0.2,2.1s0.4,1.2,0.7,1.8s0.7,0.9,1.2,1.2c0.5,0.3,1.1,0.4,1.8,0.4c0.7,0,1.3-0.1,1.8-0.4
			c0.5-0.3,0.9-0.7,1.2-1.2c0.3-0.5,0.5-1.1,0.7-1.8c0.1-0.7,0.2-1.3,0.2-2V96.8h6v11.3c0,1.5-0.2,3-0.6,4.3c-0.4,1.3-1,2.5-1.8,3.5
			c-0.8,1-1.8,1.8-3.1,2.3C142.4,118.7,140.9,119,139.2,119z"/>
		<path class="st4" d="M168.3,113.6v5.3h-15.7v-22H168v5.3h-9.4v3.1h8v4.9h-8v3.5H168.3z"/>
		<path class="st4" d="M184.5,104c-0.7-0.4-1.3-0.7-1.9-1c-0.6-0.3-1.2-0.5-1.9-0.7c-0.7-0.2-1.4-0.3-2-0.3c-0.5,0-0.9,0.1-1.3,0.2
			c-0.3,0.2-0.5,0.4-0.5,0.8c0,0.4,0.2,0.7,0.5,0.9c0.3,0.2,0.8,0.4,1.4,0.6c0.6,0.2,1.3,0.4,2.2,0.7c1.4,0.4,2.5,0.9,3.5,1.4
			c1,0.5,1.8,1.2,2.3,2c0.5,0.8,0.8,1.9,0.8,3.3c0,1.3-0.2,2.4-0.7,3.3c-0.5,0.9-1.1,1.6-1.9,2.1c-0.8,0.5-1.7,0.9-2.7,1.2
			s-2,0.4-3,0.4c-1.1,0-2.2-0.1-3.3-0.3c-1.1-0.2-2.3-0.5-3.3-0.9c-1.1-0.4-2.1-0.8-2.9-1.3l2.6-5.3c0.8,0.5,1.6,0.9,2.3,1.2
			c0.7,0.3,1.4,0.6,2.3,0.8c0.8,0.2,1.7,0.4,2.5,0.4c0.7,0,1.1-0.1,1.4-0.3c0.3-0.2,0.4-0.4,0.4-0.7c0-0.4-0.2-0.8-0.7-1
			c-0.5-0.2-1-0.5-1.8-0.7c-0.7-0.2-1.5-0.5-2.4-0.8c-1.3-0.4-2.3-0.9-3.2-1.5c-0.8-0.5-1.4-1.2-1.8-1.9c-0.4-0.7-0.6-1.7-0.6-2.7
			c0-1.6,0.4-3,1.1-4.1c0.8-1.1,1.8-1.9,3-2.5c1.3-0.6,2.6-0.8,4-0.8c1.1,0,2.1,0.1,3.1,0.4c1,0.3,1.9,0.6,2.8,0.9
			c0.9,0.4,1.6,0.7,2.3,1.1L184.5,104z"/>
		<path class="st4" d="M207.4,102.1h-6.3v16.7h-6v-16.7h-6.4v-5.3h18.7V102.1z"/>
		<path class="st4" d="M209.6,118.8v-22h6v22H209.6z"/>
		<path class="st4" d="M229.4,119c-1.7,0-3.2-0.3-4.6-0.9c-1.4-0.6-2.5-1.5-3.5-2.5s-1.7-2.3-2.3-3.6c-0.5-1.3-0.8-2.7-0.8-4.1
			c0-1.5,0.3-2.9,0.8-4.2c0.6-1.3,1.3-2.5,2.3-3.5c1-1,2.2-1.9,3.6-2.5c1.4-0.6,2.9-0.9,4.5-0.9c1.7,0,3.2,0.3,4.6,0.9
			c1.4,0.6,2.5,1.5,3.5,2.6c1,1.1,1.7,2.3,2.2,3.6c0.5,1.3,0.8,2.7,0.8,4.1c0,1.4-0.3,2.8-0.8,4.2c-0.5,1.3-1.3,2.5-2.3,3.5
			c-1,1-2.2,1.9-3.5,2.5C232.5,118.7,231,119,229.4,119z M224.4,107.8c0,0.7,0.1,1.5,0.3,2.2s0.5,1.3,0.9,1.9c0.4,0.5,0.9,1,1.6,1.3
			c0.6,0.3,1.4,0.5,2.2,0.5s1.6-0.2,2.3-0.5c0.6-0.3,1.2-0.8,1.6-1.3c0.4-0.6,0.7-1.2,0.9-1.9s0.3-1.4,0.3-2.1
			c0-0.7-0.1-1.5-0.3-2.1c-0.2-0.7-0.5-1.3-0.9-1.8c-0.4-0.5-0.9-1-1.6-1.3c-0.6-0.3-1.4-0.5-2.2-0.5c-0.9,0-1.6,0.2-2.2,0.5
			c-0.6,0.3-1.2,0.8-1.6,1.3s-0.7,1.2-0.9,1.9C224.5,106.4,224.4,107.1,224.4,107.8z"/>
		<path class="st4" d="M249.2,108v10.8h-6v-22h4.7l8.8,11.2V96.8h6v22h-4.8L249.2,108z"/>
		<path class="st4" d="M286.8,104c-0.7-0.4-1.3-0.7-1.9-1c-0.6-0.3-1.2-0.5-1.9-0.7c-0.7-0.2-1.4-0.3-2-0.3c-0.5,0-0.9,0.1-1.3,0.2
			c-0.3,0.2-0.5,0.4-0.5,0.8c0,0.4,0.2,0.7,0.5,0.9c0.3,0.2,0.8,0.4,1.4,0.6c0.6,0.2,1.3,0.4,2.2,0.7c1.4,0.4,2.5,0.9,3.5,1.4
			c1,0.5,1.8,1.2,2.3,2s0.8,1.9,0.8,3.3c0,1.3-0.2,2.4-0.7,3.3s-1.1,1.6-1.9,2.1c-0.8,0.5-1.7,0.9-2.7,1.2c-1,0.2-2,0.4-3,0.4
			c-1.1,0-2.2-0.1-3.3-0.3c-1.1-0.2-2.3-0.5-3.3-0.9s-2.1-0.8-2.9-1.3l2.6-5.3c0.8,0.5,1.6,0.9,2.3,1.2c0.7,0.3,1.4,0.6,2.3,0.8
			s1.7,0.4,2.5,0.4c0.7,0,1.1-0.1,1.4-0.3c0.3-0.2,0.4-0.4,0.4-0.7c0-0.4-0.2-0.8-0.7-1c-0.5-0.2-1-0.5-1.8-0.7
			c-0.7-0.2-1.5-0.5-2.4-0.8c-1.3-0.4-2.3-0.9-3.2-1.5c-0.8-0.5-1.4-1.2-1.8-1.9s-0.6-1.7-0.6-2.7c0-1.6,0.4-3,1.1-4.1
			s1.8-1.9,3-2.5s2.6-0.8,4-0.8c1.1,0,2.1,0.1,3.1,0.4c1,0.3,1.9,0.6,2.8,0.9c0.9,0.4,1.6,0.7,2.3,1.1L286.8,104z"/>
		<path class="st4" d="M302.2,119c-1.8,0-3.3-0.3-4.5-0.9c-1.3-0.6-2.3-1.4-3.1-2.4c-0.8-1-1.4-2.2-1.8-3.5s-0.6-2.7-0.6-4.1V96.8h6
			v11.3c0,0.7,0.1,1.4,0.2,2.1s0.4,1.2,0.7,1.8c0.3,0.5,0.7,0.9,1.2,1.2c0.5,0.3,1.1,0.4,1.8,0.4c0.7,0,1.3-0.1,1.8-0.4
			c0.5-0.3,0.9-0.7,1.2-1.2s0.5-1.1,0.7-1.8c0.1-0.7,0.2-1.3,0.2-2V96.8h6v11.3c0,1.5-0.2,3-0.6,4.3s-1,2.5-1.8,3.5
			c-0.8,1-1.8,1.8-3.1,2.3S304,119,302.2,119z"/>
		<path class="st4" d="M315.7,118.8v-22h6v22H315.7z"/>
		<path class="st4" d="M329.7,96.8l4.3,15l4.2-15h6.4l-7.6,22h-6l-7.7-22H329.7z"/>
		<path class="st4" d="M351.4,96.8h6.8l7,22H359l-1.1-4.3h-6.2l-1.1,4.3h-6.2L351.4,96.8z M356.8,110.5l-2-7.8l-2,7.8H356.8z"/>
		<path class="st4" d="M373,108v10.8h-6v-22h4.7l8.8,11.2V96.8h6v22h-4.8L373,108z"/>
		<path class="st4" d="M407.5,102.1h-6.3v16.7h-6v-16.7h-6.4v-5.3h18.7V102.1z"/>
		<path class="st4" d="M425.4,113.6v5.3h-15.7v-22h15.4v5.3h-9.4v3.1h8v4.9h-8v3.5H425.4z"/>
	</g>
</g>
</svg>
