<?xml version="1.0" encoding="utf-8"?>
<!-- Generator: Adobe Illustrator 24.0.0, SVG Export Plug-In . SVG Version: 6.00 Build 0)  -->
<svg version="1.1" id="Calque_1" xmlns="http://www.w3.org/2000/svg" xmlns:xlink="http://www.w3.org/1999/xlink" x="0px" y="0px"
	 viewBox="0 0 528.2 179.2" style="enable-background:new 0 0 528.2 179.2;" xml:space="preserve">
<style type="text/css">
	.st0{fill:#C10000;}
	.st1{fill:#FF0000;}
	.st2{fill:#D30909;}
	.st3{fill:#F20000;}
	.st4{fill:#FFFFFF;}
	.st5{fill:#F7F7ED;}
</style>
<title>bloc passer</title>
<g id="Calque_1_1_">
	<g id="Calque_2_1_">
		<polygon class="st0" points="93.6,30.1 398.2,33.8 405.3,36.7 416.2,33.7 518.5,32.8 485.8,55.7 524,79.5 493.6,107.3 
			513.6,134.8 441.8,158.3 268.9,156.4 264.6,153.1 252.2,155.3 4.6,152.7 5.3,141.9 12.2,135.6 4.6,131.2 9.1,55.7 		"/>
		<polygon class="st1" points="9.1,55.7 446.2,59.1 416.2,78.9 431.8,88.6 431.3,91.8 438.9,91.5 462.7,103.2 424.2,132.9 
			441.5,158.2 268.9,156.4 264.6,153.1 252.2,155.3 4.6,152.7 3.2,142.5 11.6,135.9 5.1,131.1 		"/>
		<polygon class="st2" points="518.5,32.8 416.2,33.7 405.3,36.7 398.2,33.8 93.6,30.1 9.1,55.7 446.2,59.1 		"/>
		<polygon class="st3" points="485.8,55.7 524,79.5 462.7,103.2 438.9,91.5 431.3,91.8 431.8,88.6 416.2,78.9 		"/>
		<polygon class="st3" points="493.6,107.3 513.6,134.8 441.8,158.3 424.2,132.9 		"/>
	</g>
</g>
<g id="Calque_3">
	<polygon class="st4" points="57.3,79 97,110.7 54.8,141.1 62.8,125.5 85.4,110 63.2,93.9 	"/>
	<polygon class="st4" points="21.7,76.9 61.5,108.5 19.3,139 27.3,123.3 49.8,107.8 27.7,91.8 	"/>
	<polygon class="st5" points="59.2,84 92.7,110.1 57.7,135.6 54.8,141.1 97,110.7 57.3,79 	"/>
	<polygon class="st5" points="23.7,81.8 57.1,107.9 22.1,133.5 19.3,139 61.5,108.5 21.7,76.9 	"/>
</g>
<g>
	<g>
		<path class="st4" d="M113.2,118.9V95.5h10c1.1,0,2.1,0.2,3.1,0.7s1.7,1.1,2.4,1.8c0.7,0.7,1.2,1.6,1.6,2.5
			c0.4,0.9,0.6,1.9,0.6,2.9c0,1.3-0.3,2.6-0.9,3.8c-0.6,1.2-1.5,2.2-2.6,3s-2.4,1.1-3.9,1.1h-4.8v7.6H113.2z M118.7,106.6h4.4
			c0.4,0,0.8-0.1,1.1-0.3c0.3-0.2,0.6-0.6,0.8-1.1c0.2-0.5,0.3-1.1,0.3-1.7c0-0.7-0.1-1.4-0.4-1.8c-0.2-0.5-0.6-0.8-0.9-1
			c-0.4-0.2-0.8-0.3-1.2-0.3h-4.2L118.7,106.6L118.7,106.6z"/>
		<path class="st4" d="M139.7,95.5h5.8l8.1,23.4h-5.5l-1.6-5.2h-7.7l-1.6,5.2h-5.5L139.7,95.5z M145.4,110l-2.7-9l-2.8,9H145.4z"/>
		<path class="st4" d="M170,102.4c-0.1-0.1-0.3-0.2-0.7-0.5s-0.9-0.5-1.5-0.8s-1.2-0.5-1.9-0.7s-1.4-0.3-2.1-0.3
			c-0.9,0-1.6,0.2-2.1,0.5s-0.8,0.8-0.8,1.4c0,0.5,0.2,0.9,0.6,1.2c0.4,0.3,0.9,0.6,1.7,0.8c0.7,0.2,1.6,0.5,2.7,0.8
			c1.5,0.4,2.8,0.9,3.9,1.5c1.1,0.6,1.9,1.3,2.5,2.1c0.6,0.9,0.9,2,0.9,3.5c0,1.3-0.2,2.4-0.7,3.3s-1.1,1.7-2,2.2
			c-0.8,0.6-1.8,1-2.8,1.2c-1,0.3-2.1,0.4-3.3,0.4c-1.1,0-2.3-0.1-3.5-0.4c-1.2-0.2-2.3-0.6-3.4-1s-2.1-0.9-3-1.5l2.3-4.8
			c0.1,0.1,0.4,0.3,0.9,0.6c0.5,0.3,1.1,0.6,1.8,0.9s1.5,0.6,2.4,0.9s1.8,0.4,2.6,0.4c1,0,1.7-0.2,2.2-0.5s0.7-0.7,0.7-1.3
			c0-0.6-0.2-1-0.7-1.4c-0.5-0.3-1.2-0.6-2-0.9s-1.8-0.6-2.9-0.9c-1.4-0.5-2.6-1-3.5-1.5s-1.6-1.2-2.1-2s-0.7-1.8-0.7-2.9
			c0-1.7,0.4-3.1,1.2-4.2s1.8-2,3.2-2.6c1.3-0.6,2.8-0.9,4.3-0.9c1.1,0,2.2,0.1,3.2,0.4s2,0.6,2.9,1s1.7,0.8,2.3,1.2L170,102.4z"/>
		<path class="st4" d="M190.3,102.4c-0.1-0.1-0.3-0.2-0.7-0.5s-0.9-0.5-1.5-0.8s-1.2-0.5-1.9-0.7s-1.4-0.3-2.1-0.3
			c-0.9,0-1.6,0.2-2.1,0.5s-0.8,0.8-0.8,1.4c0,0.5,0.2,0.9,0.6,1.2c0.4,0.3,0.9,0.6,1.7,0.8c0.7,0.2,1.6,0.5,2.7,0.8
			c1.5,0.4,2.8,0.9,3.9,1.5c1.1,0.6,1.9,1.3,2.5,2.1c0.6,0.9,0.9,2,0.9,3.5c0,1.3-0.2,2.4-0.7,3.3s-1.1,1.7-2,2.2
			c-0.8,0.6-1.8,1-2.8,1.2c-1,0.3-2.1,0.4-3.3,0.4c-1.1,0-2.3-0.1-3.5-0.4c-1.2-0.2-2.3-0.6-3.4-1s-2.1-0.9-3-1.5l2.3-4.8
			c0.1,0.1,0.4,0.3,0.9,0.6c0.5,0.3,1.1,0.6,1.8,0.9s1.5,0.6,2.4,0.9s1.8,0.4,2.6,0.4c1,0,1.7-0.2,2.2-0.5s0.7-0.7,0.7-1.3
			c0-0.6-0.2-1-0.7-1.4c-0.5-0.3-1.2-0.6-2-0.9s-1.8-0.6-2.9-0.9c-1.4-0.5-2.6-1-3.5-1.5s-1.6-1.2-2.1-2s-0.7-1.8-0.7-2.9
			c0-1.7,0.4-3.1,1.2-4.2s1.8-2,3.2-2.6c1.3-0.6,2.8-0.9,4.3-0.9c1.1,0,2.2,0.1,3.2,0.4s2,0.6,2.9,1s1.7,0.8,2.3,1.2L190.3,102.4z"
			/>
		<path class="st4" d="M213,114.2v4.8h-16.5V95.5h16.2v4.8h-10.8v4.6h9.2v4.4h-9.2v5H213V114.2z"/>
		<path class="st4" d="M216.3,118.9V95.5h10.5c1.1,0,2.2,0.2,3.1,0.7c0.9,0.5,1.8,1.1,2.4,1.8c0.7,0.7,1.2,1.6,1.6,2.5
			c0.4,0.9,0.6,1.9,0.6,2.9c0,0.9-0.2,1.9-0.5,2.7c-0.3,0.9-0.8,1.7-1.3,2.3s-1.2,1.2-2,1.7l5.1,8.7h-6l-4.5-7.6h-3.7v7.6h-5.3
			V118.9z M221.7,106.6h5c0.4,0,0.8-0.1,1.1-0.4s0.6-0.6,0.8-1.1s0.3-1,0.3-1.6c0-0.7-0.1-1.2-0.4-1.7c-0.3-0.5-0.6-0.8-1-1.1
			c-0.4-0.3-0.8-0.4-1.2-0.4h-4.8v6.3H221.7z"/>
		<path class="st4" d="M256.3,119.1c-1.7,0-3.3-0.3-4.7-1s-2.6-1.6-3.7-2.7c-1-1.1-1.8-2.4-2.4-3.8s-0.8-2.9-0.8-4.4
			c0-1.6,0.3-3.1,0.9-4.5s1.4-2.7,2.4-3.8c1-1.1,2.3-2,3.7-2.6s3-1,4.7-1s3.3,0.3,4.7,1c1.4,0.7,2.6,1.6,3.7,2.7
			c1,1.1,1.8,2.4,2.4,3.8c0.5,1.4,0.8,2.9,0.8,4.3c0,1.6-0.3,3-0.9,4.5c-0.6,1.4-1.4,2.7-2.4,3.8c-1.1,1.1-2.3,2-3.7,2.6
			C259.6,118.8,258,119.1,256.3,119.1z M256.4,114.3c1,0,1.9-0.2,2.7-0.6c0.8-0.4,1.4-1,1.9-1.6c0.5-0.7,0.9-1.4,1.1-2.3
			c0.3-0.8,0.4-1.7,0.4-2.6s-0.1-1.8-0.4-2.6c-0.3-0.8-0.7-1.6-1.2-2.3s-1.2-1.2-1.9-1.6c-0.8-0.4-1.6-0.6-2.6-0.6s-1.9,0.2-2.7,0.6
			s-1.4,1-1.9,1.6c-0.5,0.7-0.9,1.4-1.2,2.3c-0.3,0.8-0.4,1.7-0.4,2.6s0.1,1.8,0.4,2.6c0.3,0.8,0.7,1.6,1.2,2.3
			c0.5,0.7,1.2,1.2,1.9,1.6C254.5,114.1,255.4,114.3,256.4,114.3z M254.9,109.7h5.1l8.4,9.2h-5.1L254.9,109.7z"/>
		<path class="st4" d="M281.2,119.1c-1.9,0-3.5-0.3-4.8-0.9s-2.4-1.5-3.2-2.6c-0.8-1.1-1.4-2.3-1.8-3.7c-0.4-1.4-0.6-2.8-0.6-4.4
			v-12h5.4v12c0,0.9,0.1,1.8,0.3,2.6s0.5,1.5,0.8,2.2c0.4,0.6,0.9,1.1,1.5,1.5s1.4,0.6,2.3,0.6s1.7-0.2,2.3-0.6
			c0.6-0.4,1.1-0.9,1.5-1.5s0.7-1.4,0.9-2.2c0.2-0.8,0.3-1.6,0.3-2.5v-12h5.4v12c0,1.6-0.2,3.1-0.6,4.5s-1,2.6-1.9,3.7
			c-0.8,1.1-1.9,1.9-3.2,2.5C284.6,118.8,283,119.1,281.2,119.1z"/>
		<path class="st4" d="M312.2,114.2v4.8h-16.5V95.5h16.2v4.8h-10.8v4.6h9.2v4.4h-9.2v5h11.1V114.2z"/>
		<path class="st4" d="M329.6,102.4c-0.1-0.1-0.3-0.2-0.7-0.5c-0.4-0.3-0.9-0.5-1.5-0.8s-1.2-0.5-1.9-0.7c-0.7-0.2-1.4-0.3-2.1-0.3
			c-0.9,0-1.6,0.2-2.1,0.5s-0.8,0.8-0.8,1.4c0,0.5,0.2,0.9,0.6,1.2c0.4,0.3,0.9,0.6,1.7,0.8c0.7,0.2,1.6,0.5,2.7,0.8
			c1.5,0.4,2.8,0.9,3.9,1.5s1.9,1.3,2.5,2.1c0.6,0.9,0.9,2,0.9,3.5c0,1.3-0.2,2.4-0.7,3.3s-1.1,1.7-2,2.2c-0.8,0.6-1.8,1-2.8,1.2
			c-1,0.3-2.1,0.4-3.3,0.4c-1.1,0-2.3-0.1-3.5-0.4c-1.2-0.2-2.3-0.6-3.4-1s-2.1-0.9-3-1.5l2.3-4.8c0.1,0.1,0.4,0.3,0.9,0.6
			c0.5,0.3,1.1,0.6,1.8,0.9c0.7,0.3,1.5,0.6,2.4,0.9s1.8,0.4,2.6,0.4c1,0,1.7-0.2,2.2-0.5s0.7-0.7,0.7-1.3c0-0.6-0.2-1-0.7-1.4
			s-1.2-0.6-2-0.9s-1.8-0.6-2.9-0.9c-1.4-0.5-2.6-1-3.5-1.5s-1.6-1.2-2.1-2s-0.7-1.8-0.7-2.9c0-1.7,0.4-3.1,1.2-4.2
			c0.8-1.1,1.8-2,3.2-2.6c1.3-0.6,2.8-0.9,4.3-0.9c1.1,0,2.2,0.1,3.2,0.4s2,0.6,2.9,1s1.7,0.8,2.3,1.2L329.6,102.4z"/>
		<path class="st4" d="M353.7,100.2h-7.1v18.7h-5.4v-18.7H334v-4.8h19.7V100.2z"/>
		<path class="st4" d="M356.3,118.9V95.5h5.4v23.4H356.3z"/>
		<path class="st4" d="M376.4,119.1c-1.7,0-3.3-0.3-4.7-1c-1.4-0.7-2.6-1.6-3.7-2.7c-1-1.1-1.8-2.4-2.4-3.8
			c-0.5-1.4-0.8-2.9-0.8-4.4c0-1.6,0.3-3,0.9-4.5c0.6-1.4,1.4-2.7,2.4-3.8c1-1.1,2.3-2,3.7-2.6c1.4-0.6,3-1,4.7-1s3.3,0.3,4.7,1
			c1.4,0.7,2.6,1.6,3.7,2.7c1,1.1,1.8,2.4,2.4,3.8c0.5,1.4,0.8,2.9,0.8,4.3c0,1.6-0.3,3-0.9,4.5c-0.6,1.4-1.4,2.7-2.4,3.8
			c-1.1,1.1-2.3,2-3.7,2.6C379.7,118.8,378.2,119.1,376.4,119.1z M370.3,107.2c0,0.9,0.1,1.8,0.4,2.6c0.3,0.8,0.7,1.6,1.2,2.3
			c0.5,0.7,1.2,1.2,1.9,1.6c0.8,0.4,1.7,0.6,2.7,0.6s1.9-0.2,2.7-0.6c0.8-0.4,1.4-1,1.9-1.6c0.5-0.7,0.9-1.5,1.1-2.3
			c0.3-0.8,0.4-1.7,0.4-2.6s-0.1-1.8-0.4-2.6c-0.3-0.8-0.7-1.6-1.2-2.3s-1.2-1.2-1.9-1.6c-0.8-0.4-1.6-0.6-2.6-0.6s-1.9,0.2-2.7,0.6
			c-0.8,0.4-1.4,0.9-1.9,1.6s-0.9,1.4-1.2,2.3C370.5,105.4,370.3,106.3,370.3,107.2z"/>
		<path class="st4" d="M396.7,105.5v13.4h-5.4V95.5h4.3l10.9,13.8V95.5h5.4v23.4h-4.4L396.7,105.5z"/>
	</g>
</g>
</svg>
