<?xml version="1.0" encoding="utf-8"?>
<!-- Generator: Adobe Illustrator 24.0.0, SVG Export Plug-In . SVG Version: 6.00 Build 0)  -->
<svg version="1.1" id="barre_smartphone_gauche" xmlns="http://www.w3.org/2000/svg" xmlns:xlink="http://www.w3.org/1999/xlink"
	 x="0px" y="0px" viewBox="0 0 435.4 99.8" style="enable-background:new 0 0 435.4 99.8;" xml:space="preserve">
<style type="text/css">
	.st0{fill:#7FE0FF;}
	.st1{clip-path:url(#SVGID_2_);}
	.st2{clip-path:url(#SVGID_4_);}
	.st3{fill:#15008D;}
	.st4{fill:#FFFF18;}
	.st5{fill:#F5DC2E;}
	.st6{fill:#5669EA;}
</style>
<title>barre gauche smartphone</title>
<polygon class="st0" points="319.4,16.5 53.4,16.5 37.4,29.3 3.4,29.5 3.4,87 227.4,87 234.4,75.7 347.4,76.4 355.4,68.9 
	376.4,68.9 392.4,52.2 411.4,52.2 435.4,29.5 347.4,30.1 "/>
<g>
	<defs>
		<polygon id="SVGID_1_" points="318.4,18 53.4,18.7 37.4,33.1 5.4,50.7 5.4,85.5 224.4,85.5 232.4,74.9 345.4,74.1 352.4,67.3 
			374.4,66.6 389.4,52.2 392.4,49.7 342.1,31.6 		"/>
	</defs>
	<clipPath id="SVGID_2_">
		<use xlink:href="#SVGID_1_"  style="overflow:visible;"/>
	</clipPath>
	<g class="st1">
		<g>
			<defs>
				<rect id="SVGID_3_" x="0.4" y="14.2" width="396.9" height="75.1"/>
			</defs>
			<clipPath id="SVGID_4_">
				<use xlink:href="#SVGID_3_"  style="overflow:visible;"/>
			</clipPath>
			<g class="st2">
				
					<image style="overflow:visible;enable-background:new    ;" width="828" height="208" xlink:href="58EC898D.png"  transform="matrix(0.48 0 0 0.3629 0 13.8469)">
				</image>
			</g>
		</g>
	</g>
</g>
<polygon class="st3" points="338.4,32.3 316.4,21.8 56.3,22.5 42.3,31.6 54.4,20.2 317.4,19.5 "/>
<polygon class="st4" points="431.4,31.1 411.4,50 5.4,50.7 5.4,31.8 "/>
<polygon class="st5" points="413.4,45.4 420.4,34.1 11.4,36.4 7.4,33.3 426.4,32.6 "/>
<polygon class="st3" points="372.4,65.1 379.4,53.7 10.4,55.3 9.4,81 8.4,53 385.4,52.2 "/>
<polygon class="st6" points="350.4,65.8 344.4,72.6 231.4,72.6 223.4,84 35.4,84.7 221.4,82.5 229.4,71.1 343.4,71.1 "/>
</svg>
