<?xml version="1.0" encoding="utf-8"?>
<!-- Generator: Adobe Illustrator 24.0.0, SVG Export Plug-In . SVG Version: 6.00 Build 0)  -->
<svg version="1.1" id="bare_du_bas" xmlns="http://www.w3.org/2000/svg" xmlns:xlink="http://www.w3.org/1999/xlink" x="0px"
	 y="0px" viewBox="0 0 1281 150" style="enable-background:new 0 0 1281 150;" xml:space="preserve">
<style type="text/css">
	.st0{fill:#F5DC2E;}
	.st1{fill:url(#SVGID_1_);stroke:#F5DC2E;stroke-width:5;stroke-miterlimit:10;}
</style>
<g>
	<title>barre du bas</title>
	<polygon class="st0" points="1230.5,150.8 51.5,150.8 27,97.1 198,97.1 214,59.7 303,59.7 309,51.4 966,51.4 971,58.9 1060,58.9 
		1080.8,97.1 1255,97.1 	"/>
	<linearGradient id="SVGID_1_" gradientUnits="userSpaceOnUse" x1="53.8585" y1="55.1" x2="1230.2585" y2="55.1">
		<stop  offset="0" style="stop-color:#2D5CCE"/>
		<stop  offset="4.914859e-03" style="stop-color:#2B58CB"/>
		<stop  offset="4.442269e-02" style="stop-color:#1E3DB3"/>
		<stop  offset="8.891672e-02" style="stop-color:#1426A0"/>
		<stop  offset="0.1409" style="stop-color:#0C1591"/>
		<stop  offset="0.2042" style="stop-color:#060987"/>
		<stop  offset="0.291" style="stop-color:#030281"/>
		<stop  offset="0.5101" style="stop-color:#02007F"/>
		<stop  offset="0.6699" style="stop-color:#030382"/>
		<stop  offset="0.7669" style="stop-color:#040B8A"/>
		<stop  offset="0.8473" style="stop-color:#081998"/>
		<stop  offset="0.9185" style="stop-color:#0C2DAD"/>
		<stop  offset="0.9831" style="stop-color:#1247C7"/>
		<stop  offset="1" style="stop-color:#144FCF"/>
	</linearGradient>
	<polygon class="st1" points="1202.1,9.1 1228.9,101.1 52.5,101.1 72.5,9.1 	"/>
	<polygon class="st0" points="1247,105.2 1226,151.7 54,150.1 34,105.2 	"/>
	
		<image style="overflow:visible;enable-background:new    ;" width="1281" height="80" xlink:href="A7468EFF.png"  transform="matrix(-1 0 0 -1.0346 1281 160.0083)">
	</image>
	
		<image style="overflow:visible;" width="1250" height="79" xlink:href="A7468EFD.png"  transform="matrix(-1 0 0 -1.0346 1265 200.3585)">
	</image>
</g>
</svg>
