<svg id="Calque_9" data-name="Calque 9" xmlns="http://www.w3.org/2000/svg" viewBox="0 0 872.4 303.7"><defs><style>.cls-1{fill:#0f0071;}.cls-2{fill:#0823d3;}.cls-3{fill:#4040d4;}.cls-4{fill:#413fd4;}.cls-5{fill:#fff;}.cls-6{fill:none;}.cls-7{fill:#0a22d3;}</style></defs><title>jouer entier</title><polygon class="cls-1" points="339 1.3 347.5 7.9 360.3 0.7 502.5 1.8 360.6 0 347.8 7.1 339.3 0.6 96.1 2.3 6.1 62.8 6.08 63.88 95.8 3.3 339 1.3"/><polygon class="cls-1" points="193.7 293.2 193.83 293.2 193.6 293.05 193.7 293.2"/><line class="cls-2" x1="382.8" y1="140.7" x2="383.13" y2="140.68"/><path class="cls-2" d="M241.7,192.3a17.74,17.74,0,0,0,13.9-5.9c3.5-3.9,5.3-9.1,5.3-15.7s-1.8-11.8-5.3-15.8-8.1-6-13.9-6a17.78,17.78,0,0,0-14,6c-3.6,4-5.3,9.3-5.3,15.8s1.8,11.7,5.3,15.7S235.9,192.3,241.7,192.3Z"/><polygon class="cls-3" points="397.7 64 433.2 64.7 435.87 68.32 442.4 77.2 458.9 65.5 485.38 65.73 485.47 65.73 768.5 68.2 826.8 32.9 818.8 27.1 843.8 23.4 872.4 4.2 642.1 3.3 617.7 9.1 601.5 1.5 502.5 1.8 360.3 0.7 347.5 7.9 339 1.3 95.8 3.3 6.08 63.88 5.6 64.2 6.07 64.2 397.7 64"/><polygon class="cls-4" points="364.5 111.74 366.34 109.09 363.6 110.7 364.5 111.74"/><path class="cls-5" d="M125.8,230.7a42,42,0,0,0,19.7-4.6,36.46,36.46,0,0,0,14-13,31.53,31.53,0,0,0,4.2-10.2,70.44,70.44,0,0,0,1.3-15.2V113.3H123.8v63.2c0,7.8-.6,12.8-1.5,15-1.1,2.3-3.1,3.4-6.1,3.4a10.54,10.54,0,0,1-5.4-1.8,34.16,34.16,0,0,1-6.4-5.6L91,218.2a52.19,52.19,0,0,0,16.1,9.5A56.34,56.34,0,0,0,125.8,230.7Z"/><path class="cls-5" d="M217.7,226.3a66,66,0,0,0,47.9,0,60.17,60.17,0,0,0,19.8-12.8,57.68,57.68,0,0,0,13-19.3,62.32,62.32,0,0,0,4.5-23.4,64.47,64.47,0,0,0-4.4-23.5,58.57,58.57,0,0,0-32.7-32.1,67.57,67.57,0,0,0-48.1,0A58.69,58.69,0,0,0,197.9,128,55.22,55.22,0,0,0,185,147.1a65.19,65.19,0,0,0,0,47.1,55.22,55.22,0,0,0,12.9,19.1A58.29,58.29,0,0,0,217.7,226.3Zm10-71.4a17.78,17.78,0,0,1,14-6c5.8,0,10.4,2,13.9,6s5.3,9.2,5.3,15.8-1.8,11.8-5.3,15.7a17.74,17.74,0,0,1-13.9,5.9c-5.8,0-10.5-1.9-14-5.9s-5.3-9.2-5.3-15.7S224.1,158.9,227.7,154.9Z"/><path class="cls-6" d="M265.8,115.2a67.57,67.57,0,0,0-48.1,0A58.69,58.69,0,0,0,197.9,128,55.22,55.22,0,0,0,185,147.1a65.19,65.19,0,0,0,0,47.1,55.22,55.22,0,0,0,12.9,19.1,58.29,58.29,0,0,0,19.8,13,66,66,0,0,0,47.9,0,60.17,60.17,0,0,0,19.8-12.8,57.68,57.68,0,0,0,13-19.3,62.32,62.32,0,0,0,4.5-23.4,64.47,64.47,0,0,0-4.4-23.5A58.57,58.57,0,0,0,265.8,115.2Z"/><path class="cls-6" d="M123.8,176.5c0,7.8-.6,12.8-1.5,15-1.1,2.3-3.1,3.4-6.1,3.4a10.54,10.54,0,0,1-5.4-1.8,34.16,34.16,0,0,1-6.4-5.6L91,218.2a52.19,52.19,0,0,0,16.1,9.5,56.34,56.34,0,0,0,18.7,3,42,42,0,0,0,19.7-4.6,36.46,36.46,0,0,0,14-13,31.53,31.53,0,0,0,4.2-10.2,70.44,70.44,0,0,0,1.3-15.2V113.3H123.8Z"/><path class="cls-6" d="M382.8,175.7c0,7.1-.9,12-2.7,14.8s-4.7,4.2-8.8,4.2-7.1-1.4-8.8-4.1-2.6-7.7-2.6-15V113.3H318.8v62a104.42,104.42,0,0,0,1.6,20.2,36.72,36.72,0,0,0,5,13.1A45.64,45.64,0,0,0,344.1,225c7.9,3.8,17,5.7,27.2,5.7q3.4,0,6.53-.29l-.13.19.44,0,.41-.05a59.05,59.05,0,0,0,19.05-5,44.31,44.31,0,0,0,17-13.49c.68-.88,1.32-1.78,1.93-2.71a37.18,37.18,0,0,0,5.3-13.2,96.87,96.87,0,0,0,1.8-20.1l.13-11.62L424.3,114l-41-.5-.36,19.61,0,2h0l-.1,5.62Z"/><polygon class="cls-6" points="364.5 111.74 366.34 109.09 363.6 110.7 364.5 111.74"/><path class="cls-6" d="M640.9,174.4c4-5.2,6.1-11.8,6.2-20,.1-12.4-3.7-22-11.6-28.7s-19.3-10.1-34.3-10.3l-51.7-.6-1.3,114.4,40.4.2.4-37.7,19.6,38,46.1.6-30-46.9A23.2,23.2,0,0,0,640.9,174.4Z"/><polygon class="cls-6" points="495.1 185.7 527.9 186.1 528.2 156.8 495.4 156.4 495.5 145.4 531.7 145.8 532 114.8 514.51 114.59 503.66 114.47 455.5 113.9 455.15 144.76 454.66 187.82 454.2 228.2 497.72 228.71 497.98 228.71 531.8 229.1 532.1 198.1 495 197.7 495.1 185.7"/><path class="cls-2" d="M371.6,240.5l6.54-9.94-.44,0,.13-.19q-3.12.28-6.53.29c-10.2,0-19.3-1.9-27.2-5.7a45.64,45.64,0,0,1-18.7-16.4,36.72,36.72,0,0,1-5-13.1,104.42,104.42,0,0,1-1.6-20.2v-62h41.1v62.3c0,7.3.9,12.3,2.6,15s4.7,4.1,8.8,4.1,7-1.4,8.8-4.2,2.7-7.7,2.7-14.8v-35l.1-5.62L361.4,116.2l3.1-4.46-.9-1,2.74-1.61L397.7,64,6.07,64.2H5.6L1.9,241.6l7.8,11.1L0,268.3l2.1,23.8,172.5.9,11.9-4.6,7.1,4.65.23.15,1.07.7,200.8,2.2-.66-1.51ZM165,187.7a70.44,70.44,0,0,1-1.3,15.2,31.53,31.53,0,0,1-4.2,10.2,36.46,36.46,0,0,1-14,13,42,42,0,0,1-19.7,4.6,56.34,56.34,0,0,1-18.7-3A52.19,52.19,0,0,1,91,218.2l13.4-30.7a34.16,34.16,0,0,0,6.4,5.6,10.54,10.54,0,0,0,5.4,1.8c3,0,5-1.1,6.1-3.4.9-2.2,1.5-7.2,1.5-15V113.3H165Zm133.4,6.5a57.68,57.68,0,0,1-13,19.3,60.17,60.17,0,0,1-19.8,12.8,66,66,0,0,1-47.9,0,58.29,58.29,0,0,1-19.8-13A55.22,55.22,0,0,1,185,194.2a65.19,65.19,0,0,1,0-47.1A55.22,55.22,0,0,1,197.9,128a58.69,58.69,0,0,1,19.8-12.8,67.57,67.57,0,0,1,48.1,0,58.57,58.57,0,0,1,32.7,32.1,64.47,64.47,0,0,1,4.4,23.5A62.32,62.32,0,0,1,298.4,194.2Z"/><path class="cls-7" d="M485.47,65.73h-.09L458.9,65.5,442.4,77.2l-6.53-8.88L433.2,64.7,397.7,64l-31.36,45.09-1.84,2.65-3.1,4.46,21.5,18.88h0l0-2,.36-19.61,41,.5-.57,50.38L423.6,176a96.87,96.87,0,0,1-1.8,20.1,37.18,37.18,0,0,1-5.3,13.2c-.61.93-1.25,1.83-1.93,2.71a44.31,44.31,0,0,1-17,13.49,59.05,59.05,0,0,1-19.05,5l-.41.05-6.54,9.94L395,294.59l.66,1.51,311.4,6,18.4-8.7,10.9,10.3,31.1-1.7,1-233.8ZM531.8,229.1,498,228.71h-.26l-43.52-.5.46-40.38.49-43.06.35-30.86,48.16.57,10.85.12,17.49.21-.3,31-36.2-.4-.1,11,32.8.4-.3,29.3-32.8-.4-.1,12,37.1.4Zm76.8.6-19.6-38-.4,37.7-40.4-.2,1.3-114.4,51.7.6c15,.2,26.4,3.6,34.3,10.3s11.7,16.3,11.6,28.7c-.1,8.2-2.2,14.8-6.2,20a23.2,23.2,0,0,1-16.2,9l30,46.9Z"/><path class="cls-7" d="M596,145l-6.5-.2-.2,22.3,6.4.1c3.9,0,6.9-.9,9.1-2.7s3.2-4.6,3.3-8.1c0-3.7-1-6.5-3.1-8.4S599.9,145,596,145Z"/><polygon class="cls-1" points="843.8 23.4 818.8 27.1 826.8 32.9 768.5 68.2 767.5 302 871.3 237.3 872.4 4.2 843.8 23.4"/><polygon class="cls-5" points="495.1 185.7 527.9 186.1 528.2 156.8 495.4 156.4 495.5 145.4 531.7 145.8 532 114.8 514.51 114.59 503.66 114.47 455.5 113.9 455.15 144.76 454.66 187.82 454.2 228.2 497.72 228.71 497.98 228.71 531.8 229.1 532.1 198.1 495 197.7 495.1 185.7"/><path class="cls-5" d="M640.9,174.4c4-5.2,6.1-11.8,6.2-20,.1-12.4-3.7-22-11.6-28.7s-19.3-10.1-34.3-10.3l-51.7-.6-1.3,114.4,40.4.2.4-37.7,19.6,38,46.1.6-30-46.9A23.2,23.2,0,0,0,640.9,174.4Zm-36.1-9.9c-2.2,1.8-5.2,2.7-9.1,2.7l-6.4-.1.2-22.3,6.5.2c3.9,0,6.9,1.1,9,3s3.1,4.7,3.1,8.4C608,159.9,607,162.7,604.8,164.5Z"/></svg>