<?xml version="1.0" encoding="utf-8"?>
<!-- Generator: Adobe Illustrator 24.0.0, SVG Export Plug-In . SVG Version: 6.00 Build 0)  -->
<svg version="1.1" id="Calque_9" xmlns="http://www.w3.org/2000/svg" xmlns:xlink="http://www.w3.org/1999/xlink" x="0px" y="0px"
	 viewBox="0 0 511 302.2" style="enable-background:new 0 0 511 302.2;" xml:space="preserve">
<style type="text/css">
	.st0{fill:#0F0071;}
	.st1{fill:#0823D3;}
	.st2{fill:#4040D4;}
	.st3{fill:#4340D7;}
	.st4{fill:#413FD4;}
	.st5{fill:#FFFFFF;}
</style>
<title>jouer fin</title>
<g>
	<polygon class="st0" points="104.6,25.5 315.9,21.8 323.4,27.4 334.5,21.1 457.8,21.3 428.1,62.5 476.4,107.9 436.9,171.7 
		459.2,227.1 368.7,276.9 192.1,277.6 187.5,270.9 174.9,275.8 26.2,276.5 26.2,254.6 33,241.7 25,233 26.8,79 	"/>
	<polygon class="st1" points="26.4,80.2 367.3,76.4 339.5,117.4 355.2,138.5 355.1,143.2 361.5,142.5 386.7,165.8 348.5,227.2 
		367.8,278.2 193.1,278.2 185.7,273.4 175.5,277.6 25.5,278.4 23.4,257.7 31.7,244.1 24.8,234.5 	"/>
	<polygon class="st2" points="457.8,21.3 334.2,21.7 323.2,28.1 315.7,22.4 104.2,26.4 26.4,80.2 367.3,76.4 	"/>
	<polygon class="st3" points="437.2,171.7 459.5,227.4 368.4,277.8 348.7,226.3 	"/>
	<polygon class="st4" points="428.6,63 476.9,108.5 387.4,165.7 362.2,142.3 355.1,143.2 355.2,136.8 338.1,117.3 	"/>
	<path class="st5" d="M130.2,176.8l-0.6-55l35.8-0.4l0.7,64.7c0.2,4.4-0.2,8.9-1,13.2c-0.7,3.2-1.9,6.2-3.5,9
		c-2.9,4.8-7.1,8.8-12.1,11.4c-5.3,2.8-11.1,4.2-17.1,4.2c-5.5,0.1-11.1-0.7-16.3-2.5c-5.1-1.8-9.9-4.6-14.1-8.1l11.4-26.8
		c1.7,1.8,3.6,3.4,5.6,4.8c1.4,0.9,3,1.4,4.7,1.5c2.6,0,4.3-1,5.2-3C129.9,187.9,130.3,183.5,130.2,176.8z"/>
	<path class="st5" d="M285.8,170.1c0.1,7-1.1,13.9-3.7,20.4c-2.5,6.3-6.3,12.1-11.1,16.9c-4.9,4.9-10.7,8.7-17.1,11.3
		c-13.3,5.3-28.2,5.5-41.6,0.4c-6.5-2.5-12.4-6.3-17.4-11.1c-4.9-4.6-8.8-10.2-11.4-16.5c-2.7-6.5-4-13.4-4.1-20.3
		c-0.1-7,1.1-14,3.6-20.5c2.5-6.3,6.2-12,11-16.8c4.9-4.9,10.7-8.8,17.1-11.4c13.4-5.3,28.3-5.4,41.8-0.4c6.5,2.5,12.4,6.2,17.4,11
		c4.9,4.7,8.7,10.3,11.4,16.6C284.4,156.2,285.8,163.1,285.8,170.1z M232.9,189.4c5-0.1,9-1.8,12.1-5.3c3-3.5,4.5-8,4.4-13.7
		c-0.1-5.7-1.6-10.3-4.7-13.7s-7.1-5.1-12.1-5.1c-4.6-0.1-9.1,1.8-12.1,5.3c-3.1,3.5-4.5,8.1-4.5,13.8c0.1,5.7,1.7,10.2,4.8,13.6
		C223.7,187.8,227.8,189.5,232.9,189.4L232.9,189.4z"/>
	<path class="st5" d="M355.1,143.2l0.3,30.4c0.1,6.2-0.7,10.5-2.2,12.9c-1.5,2.5-4.1,3.7-7.6,3.7c-3.6,0-6.2-1.1-7.7-3.5
		s-2.3-6.7-2.4-13l-0.6-54.2l-35.7,0.4l0.6,53.9c0,5.9,0.5,11.8,1.5,17.6c0.7,4,2.3,7.9,4.5,11.3c4,6.2,9.7,11,16.4,14.1
		c6.9,3.2,14.8,4.8,23.7,4.7c2,0,3.9-0.1,5.8-0.3c0.4,0,0.7-0.1,1.1-0.1l34.2-55l-25.2-23.3l-6.4,0.8"/>
</g>
</svg>
