<?xml version="1.0" encoding="utf-8"?>
<!-- Generator: Adobe Illustrator 24.0.0, SVG Export Plug-In . SVG Version: 6.00 Build 0)  -->
<svg version="1.1" id="carte_mystere_carte_puriste"
	 xmlns="http://www.w3.org/2000/svg" xmlns:xlink="http://www.w3.org/1999/xlink" x="0px" y="0px" viewBox="0 0 571 776"
	 style="enable-background:new 0 0 571 776;" xml:space="preserve">
<style type="text/css">
	.st0{fill:#FFFFFF;stroke:#FFCC33;stroke-width:40;stroke-miterlimit:10;}
	.st1{fill:#FFFFFF;}
	.st2{fill:#FFD24D;}
	.st3{fill:#FFD222;}
</style>
<title>carte mystère</title>
<path class="st0" d="M19,9.5h530.7c6.7,0,12.2,5.4,12.2,12.1v736.2c0,6.7-5.5,12.1-12.2,12.1H19c-6.7,0-12.2-5.4-12.2-12.1V21.6
	C6.9,14.9,12.4,9.5,19,9.5z"/>
<path class="st1" d="M26.9,18.2H545c6.7,0,12.2,5.4,12.2,12.1v719c0,6.7-5.5,12.1-12.2,12.1H26.9c-6.7,0-12.2-5.4-12.2-12.1v-719
	C14.7,23.6,20.2,18.2,26.9,18.2z"/>
<path class="st2" d="M31.3,762.1c0.7-0.4,0.8-1,0.3-1.5c-0.4-0.3-0.9-0.6-1.5-0.6l-1.3-0.3l-0.8-0.1l-0.8-0.2
	c-1.4,0.7-3,1.2-4.6,1.4C25.4,761.9,28.3,762.4,31.3,762.1z"/>
<path class="st2" d="M18.8,738.3c-1.4-4.3-4-9.3-6.7-6.5c2.9,4.3,1.7,5.3,5.1,9.9c0.1,0.9,0.1,1.7,0,2.6c0,0.5-0.1,0.9-0.1,1.3
	c0,0.4-0.1,0.7-0.1,1.1c-0.2,1.3-0.5,2.2-1.2,2c0.6,0.7,1.1,2.6,2.2,4.3s2.8,3.1,4.3,3.1c-1.7-2.6-2.9-5.5-3.7-8.5
	c-0.2-0.8-0.3-1.6-0.4-2.4c-0.1-0.8-0.2-1.6-0.3-2.3c-0.2-1.6-0.6-3.1-1-4.7C17.5,736.7,18.2,738,18.8,738.3z"/>
<path class="st2" d="M23.4,380.6l-0.3,2.3C23.3,382.2,23.4,381.4,23.4,380.6z"/>
<path class="st2" d="M25.1,159c0.1,1.7,0.4,2.4,0.6,2.5C25.5,159.9,25.3,158.6,25.1,159z"/>
<path class="st2" d="M28.3,121.1c-0.1,0.8-0.1,1.5-0.2,2.2C28.4,122.7,28.5,121.9,28.3,121.1z"/>
<path class="st2" d="M23.4,380.6l0.9-5.9C23.4,374.3,23.6,377.7,23.4,380.6z"/>
<path class="st2" d="M11.6,689c0.1,1.1,0.4,2.2,0.8,3.2c-0.1-1-0.2-2-0.3-3C11.9,689.2,11.7,689.1,11.6,689z"/>
<path class="st2" d="M25.8,478.3v1.8c0.3,0.5,0.8,1,1.2,1.5L25.8,478.3z"/>
<path class="st2" d="M26.3,553.3c0.1-1.7-2.4-2.3-3.5-2.9c1,1,1.6,2.3,1.7,3.7C25.2,554,25.8,553.8,26.3,553.3z"/>
<path class="st2" d="M21.8,672.2l0.3,2.1C22.1,673.8,22,672.8,21.8,672.2z"/>
<path class="st2" d="M26.4,424.6c0.4-0.1,0.7-0.4,0.9-0.7C27,424,26.7,424.2,26.4,424.6z"/>
<path class="st2" d="M118.2,768c0.1-0.2,0-0.3,0-0.5C117.8,767.8,117.6,768,118.2,768z"/>
<path class="st2" d="M31.3,755.5l1.2-0.1c0.2-0.5,0.2-0.9,0.3-1.4L31.3,755.5z"/>
<path class="st2" d="M21.9,38.9c0,0.1,0,0.2-0.1,0.3C22.1,41.1,22,40,21.9,38.9z"/>
<path class="st2" d="M544.4,98.9c2.3-7.2,2.9,11.7,5.4,0.9C548.8,100.8,545.9,89.9,544.4,98.9z"/>
<path class="st2" d="M11.9,687.1c0-1-0.1-2,0-3.1C11.8,685,11.8,686,11.9,687.1z"/>
<path class="st2" d="M549.8,99.8L549.8,99.8l0.2-1.1C550,99.1,549.9,99.4,549.8,99.8z"/>
<path class="st2" d="M152.3,31c-0.5-0.5-1-0.9-1.6-1.1C150.7,30.1,151.1,30.4,152.3,31z"/>
<path class="st2" d="M23.9,13.4h0.2c0.1,0,0.2,0,0.4,0l0.8,0.1l1.5,0.2c-0.6-0.1-1.2-0.2-1.7-0.3C24.6,13.3,24.1,13.4,23.9,13.4z"/>
<path class="st2" d="M214,27.4c1.4,0.3,2.9,0.4,4.3,0.2c-0.2-0.1-0.4-0.2-0.7-0.3C216.5,27.7,215.2,27.8,214,27.4z"/>
<path class="st2" d="M278.2,27.4c-0.3-0.2-0.8-0.3-1.2-0.5l-2,0.1L278.2,27.4z"/>
<path class="st2" d="M313.4,766.8c-1.1-0.5-2.2-1.3-3-2.3C311.4,766.3,302,766.9,313.4,766.8z"/>
<path class="st2" d="M13,689c-0.7-0.4-1.1-1.1-1.1-1.9c0,0.7,0.1,1.5,0.1,2.1C12.4,689.4,12.8,689.4,13,689z"/>
<path class="st2" d="M216.6,7.4l10.2,0.4C224,7.6,220.2,7.4,216.6,7.4z"/>
<path class="st2" d="M565.2,531.5l0.3,2.3C565.5,533.1,565.4,532.3,565.2,531.5z"/>
<path class="st2" d="M257.1,7.4c1.8,0.9,3.8,1.4,5.8,1.8c0.4-0.1,0.8-0.4,1.2-0.6L257.1,7.4z"/>
<path class="st2" d="M310.4,764.5L310.4,764.5z"/>
<path class="st2" d="M244,776c9.9,0.1,4.8-3.3,6.8-5.2c11.9-1,5.6,2.4,9.5,4.2c7.4-0.9,13-4,18.6-3.9c0.4,0.6,1.5,0.8,0.2,1.5
	c7.9-2.6,23.3-0.1,32.4-3.5c0.5,0.2,0.9,0.5,1.2,0.9c-1.2-1.3-1.8-2.9-1.4-4.6c4.4-0.1,8.3-2.1,9.9,0.1c-2.7-0.1-2.9,0.8-4.2,1.6
	l4.8-1c4.2,3.2-6.4,1.1-6.4,3.4c9.2-1,19.8-3.6,26.8-2.7c1.5,3.1-16.4,1-7,3.8l-10.8-1.2c8.3,4.9-6.6-0.4,1,4.9
	c14.3,0.9,16-1.6,30.1-0.7c3.1-1.7-1-2.5,2.1-4.3c20.2-3.1,15.9,7.8,30.7,3.7c3.8-2,5.4-5.9,16-3.9l-3.6,3.5
	c13.7,0.4,7.9-5,22.3-2.6c-2.5,1.4-10.8,1.2-8.8,1.6c9.3,2.7,6.6-2,13.7-2l1.5,3.1c14.7-0.5,30.8-2.7,47.1-3.3
	c-0.9,0.9-3.6,1.8,0.1,2.8c20.4-1.6,43.7,0.4,63.5,2.2l7.6-2.6h0.3h0.4c0.4,0,0.7,0.1,1,0.2c0.5,0.1,1,0.2,1.5,0.5
	c0.7,0.3,0.6,0.8-1.2,1c3.4,0.2,5.3-0.1,6-0.4c0.7-0.3,0.5-0.6,0.1-0.8c-0.9-0.5-2.4-1.2,0.2-2.2c3.3-1,5.5-1.8,6.5-1.9
	c0.5,0,0.8,0.2,0.7,0.6c-0.3,0.7-0.9,1.4-1.6,1.7c2.6-1.7,5.1-3.9,6.8-6.5c1.9-2.9,3.3-6.2,3.8-9.6c0.1-0.9,0.2-1.8,0.2-2.7
	c0-1,0-1.8-0.1-2.8l-0.1-1.5V747v-0.2v-0.4c-0.1-0.6-0.1-1.2-0.2-1.7c-0.2-2.3-0.4-4.8-0.6-7.2c-0.6-9.6-0.5-19.4,0.9-26.4l0.8,2.7
	c1.1-11-5.6-12.4-3-22.6l0.5,1.9c1.2-23.9-1.3-50.3,2.7-68.4c-3.9-3.5,1.8-23.6-3.7-25.1c2.6-13.6,3.6-9.7,5.6-28.9
	c0.2-5.1-3.4-7.7-3.9-14l2.8-0.2l-2.9-8.6l3.4-4.6l-0.7-5.9c-0.2,2.3-1.3,5-2,4.7c-1.3-9.3,1.9-22.6,3.4-22.9l-2.3-21.9
	c1.2,0.5,1.6,4.2,2.2,7.1c-2.8-11.7,2.9-2.1,0.3-12.9c-0.7,1.5-1.7-0.8-2.2-1c1.7-5.3,1.8-17.6,1-26.6l1.9,1.7
	c0.5-16.3-0.9-34.4-0.9-52.6c-0.9,6.6-4.3,5-4.6-0.3l2.9-2.1c-1.8-3.5-1.2,5.6-3.4-1.6c0.4-6.8,3.4-4.6,4.4-0.7l-1-8.3
	c0.9-0.5,1.4,1.5,2.5,2c-1.8-3.4,3-14.4-0.2-19.2l0.9-0.5c0-18.2-1-26.6-1.2-41.4c-2.5-0.3-2-6.1-4.1-10.6c0.8-11,2.8-23.1,2.6-36.3
	c-1.3-9.3-2.1-2.7-3.7-6.9c2.3-0.7,2.1-13.9,3.8-7.1c-0.4-15.8-0.5-20.2-2.3-40.2c-1,2.1-1.4,4.7-2.1,3.4c-0.4-3.6,1-8.3,2.1-7.8
	l0.2,1c-3.5-22.5,6.9-51.8,1.9-69.8l0.2,1l-2.5-18.5c0.4-8.5,1.8,5.1,3.2-1.2c-3.9-20,0.6-31.6-2-48.1c7-12.7-0.5-45.2,3.9-62.5
	l-1.7,1c-0.7-1.6-0.7-3.2-0.1-4.8V33v-0.2l0.1-0.4l0.2-0.8c0.2-0.6,0.3-1.2,0.4-1.7c0.1-0.6,0.2-1.2,0.3-1.8c0-0.7,0-1.5-0.1-2.1
	c-0.3,0.6-0.5,1.2-0.5,1.8c-0.1,0.8-0.3,1.7-0.4,2.5c-0.3,1.5-0.6,2.1-1-0.2c-0.5-8.1-5.3-15.3-12.5-19.1c-3.6-1.9-7.7-2.8-11.8-2.7
	h-4.4h-3.4c-9.8-0.2-19.7-0.6-29.6-1.1c-19.9-1-39.8-2.4-59.3-3.2c-14.4-0.4-8.2,8.3-26.2,4.5l5.2-3c-28.9,3.6-59.1-0.1-87.4,2.9
	c1.7-0.7,1.8-1.6,4.5-1.6c-6-2.1-22.1-0.1-22.2,1.7c-4.4-0.2-1-1.7-3.7-2.5c-6-1.3-15.1,2.8-18.2,0.6c-0.6-0.4,1.7-0.7,2.7-0.9
	c-3.9,1.1-18.2-0.3-14.5,2.2c-10.6-1.2-20.4,1.2-28.8-0.4c-5.6,2.8-18.2-1.4-20,2.6c0.8-4.1-18.6-3.3-25.4-1.4
	c2.2-1.3-5.8-1.3-3.2-3c-7.7,0.1-14.7,0.8-13.3,2.9c-14.2-5-28.4,4-36.3-2.3C143.2,8.5,122,10,101.5,11c0.7-4.1,22.6-0.4,21.7-4.8
	c-19.2,1.4-30.4,4.9-49.7,3.9c-5-0.6,2.8-1.7,4.5-2.5C68.4,8.5,59,8.4,49.9,8.3c-4.5,0-9.1,0-13.4,0.1c-2.2,0.1-4.4,0.2-6.7,0.4
	c-1.8,0-3.5,0.2-5.3,0.5s-3.3,0.9-4.9,1.6c-0.1-0.4,2.4-1.8,5.4-2.4c-2.8,0.3-5.6,1.1-8.1,2.3c-2,1.4-3.1,2.6-2.2,3.2
	c1.3-1.2,2.6-2.2,4.2-3c1.2-0.1,1.7,0.1,1.8,0.4c0.2,0.3-0.2,0.8-0.7,1.4c-1.7,1.6-3.2,3.4-4.6,5.2c-1.5,2.2-2.4,4.7-2.7,7.3
	c-0.2,2.2,0.2,3.8,0.5,4.1c-0.6-1-1-1.5-1.5-1.5s-0.8,0.3-1.1,1c-0.6,1.4-0.8,4.5-1,6c-0.5,3.8-1.2,7.2-4.6,2.6
	c0.4,2.2,1.3,5,2.5,4.5c-0.4,3.3-1.1,4.4-2.5,1c1,12,3,7.8,2.9,18.6c-0.9,0-1.3-2.2-2.3-3.4c1.7,5.6,3.4,11.3,2.6,20.4
	C7.5,78,6.8,79,6.8,76.3c0.3,15.8,4.8,27,3,44.4c-3.9-5.1-1.3,5.9-4.8,6.8l1,9.3l1.7-3.8c-0.1,8.2,2.4,15.4,1.3,22.4l-1.4-6
	l0.7,15.3l1.3-8.6c1.8,8.3,4.3-0.9,3.4,10c-0.4-2.2-0.1,8.2-2,12.4l0,0c1.1,4.1,2.2,8.3,1.4,14.3c-1.1,1.6-3.8-1.3-4.5-0.2
	c2.8,4,0.8,19.2,3.8,24.3c-0.7-1.7-2.5-1.7-2.8-1.2l2.3,3.3c-0.8,3.8-1.1,4.4-2.5,3.7c-0.4,11.4,4.3-3.6,2.4,9.9
	c-0.2-1.1-0.5-0.6-0.9-2.8c-1,13.6,1.5,26.2,0.3,38.7c-3.4,3.7-0.9-10.9-3.7-6.7c0.6,18,4.1,37.3,3.3,54.7l0.4-3.3
	c5,2.4-2.3,13-0.1,21.7c-0.4-2.1-2.7-2.8-2.1-2.2c-0.9,11.9,1.1,24.3,2.6,42.4l-1.3-2.2c-1,7.1-0.6,18.5-1.1,26.1
	c1.3,2.2,1,6.6,2.8,4c-7.2,23.4,3.8,44.7-2.1,65.4c0-2.5-1.1-5.9-1.1-4l1,17.6c2.1-1.4,1.3-2.3,2.9-6c1.3,2.2,2.2,7.2,2.2,11.6
	c-1.4-8-3.4,0.1-4.6,3.5c0.7-0.6,1.4,0.6,2,0.3c-3.7,9.2,4.2,1.6,1.8,14.2l-1.1-0.7c0.6,4.8,2,9.1,1.8,14.2c-2.4,2.1-1.2-5-3.1-5.3
	c0.1,7.2,4.6,14.2,2.1,20.6c-0.7-3-0.7-7.4-1.4-10.5C9,531,9.8,531.8,9.2,537l0.1-0.5L8,548.6l0.8-3.1c6.4,8.9,1.2,18.2,5.5,30.3
	c-3.9-11.7-2.2-1.9-5.2-2.8c-0.8,3-1.7,7.8-2.4,6.4c2.2,5.7-1.8,9.5,1.5,17.6c-0.9,0.4-0.1,6-2.3,4.9c0.7,7.4,1.6-1.7,2.6-1.2
	c3,11.5-3.7,26.9,0.5,43.3c1.8,14.2,4.8,16.8,6.3,29.9c-1.5,4.5-3.2-3.6-3.2-3.6c-1.3,6.3-1.3,12.9-0.2,19.3c-0.8-1.4-1.5,0-2.4,2.1
	c0.2,5.4,3.2,3.6,1.9,10.8c-1.5-1.7-2.7-3.5-3.5-5.5c0.8,6.4,2.4,12.7,3.3,19.3c-1.6,1.7-2.3-4-3.3-6.3c0.7,7.4,1.4,19.2,3.9,21.5
	l0.9-4.8c0.1,2.7-2.1,1.4-2.5-0.6c-1.9-6.4,0.9-9.1,1.8-9.5l0.6,4.7c5.4-4.9-0.9-18.9-0.6-28.3l3.8,4l-3.1-9.7c1-2,3.1-3.5,3.7,1.2
	c1.8-6.8-1.4-6,0.8-11.8c0.3-0.7,0.5-0.4,0.7,0.2l-1.1-6.6c0.8,1.3,2.6-1.1,2.1,3c2.1-11.9-2.8-19.2,0-23.7l0.2,1
	c-1.3-16.5-2.8-1.6-6.1-14l7-8.3l-2.8-1.7c0.1-1.7,0.3-5,1.5-4.5c-1.9-6.3-1.2,1.1-3-2.6c2.5-8.2-1.2-22.6,3.2-24.5
	c-2.1-2.9-1.7,7.9-3.1-0.9c4.9-2.5-0.8-10.1,1.4-17.6c2.4,2.3,1.2,9.4,3.3,1.9c-4.2-4.6,0.9-14.6,0.1-20.9
	c-3.3-0.3-1.4-13.8-2.4-24.4c1.1,0.7,1.8-19.9,3-29.8l0.6,0.3c-3.3-1.9-2.7-12.1-3.4-19.5c2,0.3,2.8,1.7,3.7,5.6v-7
	c-1.1-1.7-1.7-3.8-2-8.3l2.5,1.7c-0.1-9.2-2.9-18.6-1.3-30.6c-2.3-0.7-6.6,9.5-8.2-3.1c1.3-0.5,3.4-1,3.9,2.3c-0.2-1.1-1-3.9-0.5-6
	l2.1,5c1-5.4-1.8-2.8-1.6-7.2c1.8,0.1,1.3-3.2,2.7-2.6c0.2,1.1-0.8,3.8,0,5.4c0.3-4.9,1.4-10.8,2.7-12.8c-1,0.4-2.4,0-2.6-3.6
	c-0.1-9.3,2.1-3.2,3-8.5c-1.3-2.2,0.1-8.2-2.6-8.3c0-2.7,1.3-3.2,2-4.3c-1.2-4.8-0.4-22.4-3.2-17l-0.2,1.3c-0.1-0.2-0.1-0.5-0.1-0.8
	l0,0c-2.6-15.7,1.6-32.6,0.4-48.2h0.9c-1-9.3-0.6-20.7-2.5-27.4c0-2.7,1.7-6.5,2.7-5.3c-0.7-7.1-1.7-8-0.2-18.2
	c1.6,7.2,1.4-2.4,1.2,7.4c0.8-9.2,2.2-11.4-0.2-21.3c2.3,3.4,2.9-7,2.2-11.4l-1.7,6.5c-0.3-4.6-0.2-9.1,0.1-13.7l3,2.3
	c3.7-18.9-6.4-34.2-0.1-48.5c-2.1-5-1.5,10.3-4,5.8c0.4-8.7,4.9-17.8,4.9-20.5c1.7-11.9-4.4-11.1-3.3-23.6c-1.1,1.6-4,3.1-5.1-6.2
	c0.4-8.7,4.6-10.7,5.6-5.2c0.1,2.1-0.3,3.1-0.6,3c0.4,2.8,0.9,6.5,2,3l-1.1-1.2c1.1-4.4,1-16.3,2.7-13.5c-1-6.6-1.8-2.8-2.3,2
	c1.6-11.2,0.1-17.5,1.1-28.9c-0.6,1.8-1.8,3.5-1.8,1.7c1.4-16.9-2-7.5-2.5-18.8c1.7-6.5,3.9,2.3,2.5-9.2c1.1-7.1,2.8-1.5,3.7,1.3
	c-2.6-10.4,0.9-19.5,1.3-25.5l0.9,5.5c-0.4-2.9-0.6-5.8-0.5-8.7L26,71.6c0.4-3.2,0.4-6,1.3-5.9c-1.5-3.3-3.6,2.5-5.6-4.1
	c1.1-4.4-1.2-13.1,1.7-14.7c-1,13.6,2.9-1.6,3.3,10c-0.4-2.7-0.3-5.4,0.1-8.2c0.3-0.5,0.6,0.5,0.8,1.4c1.3-6.5,0.5-8-0.7-9.5
	c-0.8-0.9-1.3-1.9-1.7-3c-0.3-0.9-0.5-1.8-0.6-2.7c-0.1-0.6-0.1-1.2-0.2-1.8c0-0.1,0-0.2,0-0.3v-0.2c0-0.1,0-0.3,0-0.5
	c0.7,0.3,1.5,0.3,2.1,0c0.6-0.2,0.9-0.3,0.8-0.6c-0.2,0.4-0.9,0.4-1.7,0c-1-0.6-1.6-1.7-1.6-2.9c0.9-0.6,1.5-1,1.9-1.3
	s0.8-0.6,1.2-0.9c0.6-0.7,1.5-1.1,2.4-1c-1-0.4-1.9-0.5-2.9-0.5c0.1-1,1-1.5,2.3-1.6l0.5-0.1h0.3h0.4l1.8-0.1
	c1.3-0.1,2.7-0.2,4.2-0.3c0.5,1.3-5.6,0.9-3.3,1.5c6.8-2.8,15.4,2.9,24.8,1c4.4,1.1,0.4,3,4.2,3.8c10.6-2.1,11.5,2.2,22.6,0.5
	c-3.2-2.1-3.7-1.7,4.1-3.8l-18.3,1.6l11.7-3.1c-5.6,0-11.7,1.4-15,1c5.6-1.7,5.1-1.3,2.3-3c7.6,3.3,15-1.8,23.8,0.3L92.9,28
	c13.1,2.4,23.3-2.7,40.4-1.4l-5.6-1c2.2-2.1,10.5-0.3,16.1-1.2c-0.5,1.8,2.9,2.4,5.4,3.6c-0.3-1.4,12.5,0.1,14-3.5l7.6,2.3
	c13.7,1,15.8-5.1,29-4.5c-4,1.9,2,3.2-6.8,4.7c4.4,0,8.4,0.4,8.5-0.9c2.5,1.2,12.3-2.4,16.4-0.7c1.8-0.8,2.4-2.6,7.5-2.5
	c0.6,0.4,0,0.9,0,0.9c0-0.9,7.8-1.2,3.4-3.2c13.5,5.6,38.1-0.4,50,4.4c9.6-0.6,21.2-1.2,30-1.3c-0.6,0.6,0,0.9-1.7,0.7
	c12.1,1.7,7.5-5.1,21.1-3.3c7,2.9-7.3,1.6-2.9,2.6c1.8,5.9,16.7-0.8,25.9,2.6l-2.2,0.4c7.1,2,17.3-2.2,28.8-1.8c0,0-0.6,0.5-0.1,0.9
	c7.9-3,22.9-4.1,34.1-4.9c-3.4,2.3-5.1,1.3-2.9,3.6c5.1-0.3-1.5-3.8,8.5-4.5c3.2,1.3,10.4,2.3,11.3,4.9l-9.3,0.1
	c4.9,3.2,12.1-0.1,17.1,0.5l-0.6,1.5c14.4-0.5,14.6-4.1,30-3.8l-1.6-1.1c8.5-3.6,7.1,2,15.6-0.7l2.5,3.6c5.6-0.9,19.6-3.5,29.5-4.2
	c-5.7,2.6-17.4,4.1-24.6,5.6c5.6,0,18.8-0.3,21.6-2c-2.2,0.4-5.1,1.3-7.3,0.7c6.8-2.8,15.7-4.2,26.8-4.2c-1,3.5,6.2,3.9,14.7,4.2
	l3.2,0.1l1.6,0.1h0.7h0.4c1.1,0,2,0.3,2.9,0.9c0.8,0.5,1.3,1.3,1.5,2.1c0.2,0.8,0,1.6-0.6,2.1c0.3,0.3,0.6,0.6,0.7,1
	c0.2,0.4,0.3,0.8,0.3,1.3v0.2v0.5v0.9l0.1,1.8c0,1.2,0.1,2.4,0.1,3.6c0,4.9-0.2,9.7-0.5,14.7c-0.6,9.9-1.4,20.3-1.2,31.5
	c5.6-8,0.2,6.5,5.8,5.1c0.4,5.2,0.3,7.2-0.1,7.7l-3.3,15.8c-1.7,3.8-1.3-5-2.4-4.5c-0.4,11.5-2.3,4.8-3.8,12.3c2-1.6,2.8,4,2.1,10.5
	l2.5-9.1c2.9,15.9-4.8,13.8-1.8,29.9l-1.8-5c1,8.3,0,30.5,4.5,38.5c-0.7,1.5-2.1,3.4-2.5-0.2c-0.7,19.7,4.9,43.9,2,59.2l-1.4-1.5
	c0.4,3.7,2.5,6.4,1.2,11.1c-0.6-0.2-1.4-1.5-1.5,0.2c0.5,1.9,2.4,9.8,1.6,14.7l-1.6-4.2c-1.8,19.2,3.7,29.5,4.8,45.6
	c-4.1,0-5.5,15.1-6,22.6l-0.6-0.3c-0.5,22.4,3.3,38.1,5,58.8c-4.4,12.9-1.8,43.6-4.3,64.4c0.7-3.2,3.1,0.5,3.5,4.2
	c-0.8,4.9,2.8,13.4-0.9,12.6l0.1-1.7c-3.6,3.7-2.6,13.7-2.7,21.5l4.9,1.3c-7.1,20.4,2.5,53.4-3.7,64.6c1.2,5,1.2,11.1,2.4,15.9
	l-2.5-0.3c-0.8,12.4-0.9,24.8-0.4,37.3l-1.8-3.4c-0.2,9.5,7.5,12,7.7,20.8l-3.9,2.6c0.1,16.6-3.3,33.3,0.2,49.7
	c-0.6-0.3-1.7-0.8-1.8-3.4c-0.1,7.8-2.6,30.2,2.7,27.4c-3.4,0.2-0.3,17.1,1.2,26.1l-2.5-1.4c1.7,3.8,2.6,5.7,3.4,8.1
	c0.4,1.4,0.7,2.7,1,4.1c0.1,0.8,0.2,1.7,0.4,2.7c0,0.3,0.1,0.5,0.1,0.8c0,0.1,0,0.2,0,0.3v0.3c0,0.4,0.1,0.8,0.2,1.2
	c-0.2,0.8-0.8,1-1.2,0.7c-0.4-0.2-0.6-0.7-0.3-1.6c-0.3,0.8-0.4,1.6-0.5,2.4c-0.1,0.7,0,1.3,0,1.8c0,0.7-0.2,1.5-0.6,2
	c-0.8,1-1.9,1.6-3.1,1.6c0.5-0.7,0.9-1.6,1-2.4c-1.8,1.1-2.9,1.2-3.6,1.6c-0.4,0.3-0.8,0.5-1.2,0.9c-0.7,0.4-1.6,0.8-2.7,1.3
	c-5.6,1-16.6-0.7-17.8-2.9c-1.2,1.4-5.9,3.3-11,2.6c-0.7-0.9,1.2-1.4,2.1-1.7c-14.6-1.7-21.6,2.9-31.5,0.5c-0.2-0.8-0.9-1.4-1.7-1.6
	c11.5,0.1,20.8,0.2,20,0.4c0-2.3-9.3-2.7-1.8-5.9c-7.5,1.7-20.3,5.6-29.4,4.5c-0.5-0.2-0.9-0.5-1.2-0.8l1-0.3
	c-1.9-0.2-3.8-0.1-5.7,0.4c-2.4-0.4-5.1-0.7-7.6-0.7c-1-1.9-10.7-1-15.4-1.2c0.4,2.5-5.7,2.1,0,4.3c-0.7-0.2,0.9-0.3,3.9-0.4
	c0.7,0,1.4-0.1,1.9-0.3l-0.3,0.2c3-0.1,7-0.1,11.5-0.2c-3.6,1.3-7.5,2.4-12.7,1c-2.3,1.7-5.1,3.3-6.5,4.1
	c-6.4-3.6-18.6-5.4-20.4-7.7c-14.2,1.5-33.5,1-42.5,5.7c-4,0.6-4.6-1.4-6.1-2.1c2.3-0.5,5.2-0.4,6.4-1.1c-8.1,1.3-24,0.5-25.9,3.8
	c-10.1-1.6,5.7-3.1-8.3-2.5l1.8-1c-27.6-5.3-44.7,8.5-75.2,1.7c2.1,0.4,3.1,0.6,3.6,1.2c-34.9-3-71.7,2.8-105.9-1.9
	c-9.7-1-10.8,1.2-16.7,2.8l-2-2.7l-10.1,3.2c-14.5,2.3-25-6.7-43.3-2.3l2.3,1.8c-6.6-0.4-20.7,1.1-19.7-1c-0.7,0.4-2.1,1.9-4.8,1
	l-0.2-1.5l-16.1,2.3c-12.5-1,1.9-5.7-16.3-6c-6.8,0.6-19.3,4.2-16.7,5.1c2.7,0.1,7,0.9,7.2,2.3l-6.2,0.8c-1.1,4.3-5.9,8.5,9.3,11.6
	l10.6-2.6l3.4,2l-9,0.1c5.1,1.9,8.3,0.2,11.9-1c1.2,1.3,2.7,2,4.4,2.2l10.4-4.1c1.3,1.7-4.6,3.3,2.3,4.2c5-1.8-4.8-3.7,3.4-5
	c5.1,1.9,3.6,3.5,9.5,1.8c0.9,1.1-0.4,1.7-2.7,2.2c5.4-1.3,14-0.6,16.7-2.8c5.4,2.3,17.9-0.6,17.4,3.4c1.7-1,9.3-3.1,14.2-3.3
	c-8.9,4.8,18.2,0.3,15.9,5.4c6.6-4.3,23.9-1.9,35.4-4.3c-0.9,0.6-1.8,0.9-2.9,0.8c6.6,0.4,8.5,1.7,12.7,2.4c0.9-3.6,11-4.4,16.6-6.6
	c8.1,3.4-5,4.2-2.3,7.5c-0.4-2.9,13.9-2.9,11.2-5.2c6.1,2.1,5.4,1,8.5,4c1.1-4.5,5.7-0.8,10.8-3.5c9,2.2,2.2,4.2,12.1,2.8
	C252.8,774.4,244,776,244,776z M476.6,768.3L476.6,768.3l-4.9,0.2L476.6,768.3z M496.1,768.3c-2.3-0.1-5.4-0.1-8.5-0.1
	c-0.7-0.9,0.1-1.7,2-1.7C488.6,767.1,493.2,767.5,496.1,768.3L496.1,768.3z M454.8,750.6c3-0.4,4.1,0.1,4.5,0.7
	c-1.5,0-3.1,0.1-5.5,0.3c-0.1,0.1-0.3,0.2-0.4,0.3C453.9,751.3,454.4,750.9,454.8,750.6L454.8,750.6z"/>
<path class="st2" d="M443.6,738.6c-0.4,0.1-0.8,0.1-1.2,0.2c0.6,0.2,1.2,0.4,1.8,0.6c0.4-0.3,0.7-0.5,1.1-0.8H443.6z"/>
<path class="st2" d="M23,383.3l0.1-0.4c-0.1,0.3-0.2,0.6-0.4,0.8C22.8,383.5,22.9,383.5,23,383.3z"/>
<polygon class="st2" points="566.4,552.8 565.8,552.8 566.3,554.5 "/>
<path class="st2" d="M14.3,488.5c-0.3,0.4-0.6,0.9-0.7,1.4C13.8,489.8,14.1,489.2,14.3,488.5z"/>
<path class="st2" d="M13.8,533.9l-0.9,6.4C13.4,537.5,13.6,535.5,13.8,533.9z"/>
<path class="st2" d="M12.5,568.8c0.3,0.3,0.7,0.5,1.1,0.7c0,0,0,0,0-0.1L12.5,568.8z"/>
<path class="st2" d="M19.3-4.1c0.8-0.1,1.6-0.1,2.3-0.2l2.5-0.3c0.1,0,0.2,0,0.2,0H24C22.4-4.5,20.8-4.3,19.3-4.1z"/>
<path class="st2" d="M15.5,178.8c-0.5-1.7-0.9-3.5-1.2-5.3C14.1,176.4,14,178.7,15.5,178.8z"/>
<path class="st2" d="M215.5,7.4L215.5,7.4h1.1H215.5z"/>
<path class="st2" d="M14.3,165.8c-0.4,2.5-0.4,5.1,0,7.7C14.6,170.9,14.6,168.4,14.3,165.8z"/>
<path class="st2" d="M11.4,720.1l-0.1,1.7c0.2,0,0.3,0.1,0.4,0.2L11.4,720.1z"/>
<path class="st2" d="M11.7,722l0.3,1.9C12,723,11.9,722.3,11.7,722z"/>
<path class="st2" d="M12.6,727.8l-0.6-3.9C12,725.3,11.9,726.9,12.6,727.8z"/>
<path class="st2" d="M12.5,673.9l-0.9-0.5C11.8,673.7,12.2,673.9,12.5,673.9z"/>
<path class="st2" d="M12.3,659.9c-0.2,3.3-2,8.4-1.4,13.1l0.7,0.4C10.3,671.2,13.8,663,12.3,659.9z"/>
<path class="st2" d="M23.6,601.2L22.9,613c1-2.1,2.3-4.8,2.5,0.6C28.3,598.8,23.2,616.6,23.6,601.2z"/>
<path class="st2" d="M25,564.7c0.5,6.3,1.4-0.1,2,0.3C26.1,561,25.9,560,25,564.7z"/>
<path class="st2" d="M25,301l2.3,0.6C27,296.7,26.4,301.6,25,301z"/>
<polygon class="st2" points="13.1,250.5 11.7,255.3 13.8,257.5 "/>
<polygon class="st2" points="29.5,220.8 29.9,222.9 29,214.8 "/>
<path class="st2" d="M266.8,29.6l-1.5-2.8C262,27.3,261.3,30.5,266.8,29.6z"/>
<path class="st2" d="M458,26.7c2.1,1.4,7.5,2.3,10.8,0.9C464.5,27.5,460.2,26.4,458,26.7z"/>
<polygon class="st2" points="543.7,502 542.7,498.2 543.5,505.4 "/>
<polygon class="st3" points="225.4,0 418,0 283.8,243.4 424.1,218.9 277.4,473.9 424.1,444.9 244.8,783.4 299.1,534.7 169.8,548.5 
	261.8,327.5 132.3,423 "/>
</svg>
