<svg xmlns="http://www.w3.org/2000/svg" xmlns:xlink="http://www.w3.org/1999/xlink" viewBox="0 0 325 916.44"><defs><style>.cls-1{fill:#e29a7a;}.cls-2{fill:#727272;}.cls-3{fill:#32292f;}.cls-4{fill:#9a906b;}.cls-5,.cls-6,.cls-8{fill:#fff;}.cls-5,.cls-8{stroke:#fc3;}.cls-5{stroke-miterlimit:10;stroke-width:2px;}.cls-7{fill:#ffd24d;}.cls-8{stroke-linecap:round;stroke-linejoin:bevel;}.cls-9{fill:#ffd222;}.cls-10{fill:#0f0071;}.cls-11{fill:#0823d3;}.cls-12{fill:#4040d4;}.cls-13{fill:#413fd4;}.cls-14{fill:#4340d7;}.cls-15{fill:#0a22d3;}.cls-16{fill:#494147;opacity:0.47;}.cls-17{fill:#353126;}.cls-18{fill:#604e16;}.cls-19{fill:#db967b;}.cls-20{fill:#787049;}.cls-21{fill:#544314;}.cls-22{fill:#6d5b18;}.cls-23{fill:none;}.cls-24{fill:#837d5a;}.cls-25{fill:#a29873;}.cls-26{fill:#e5e0db;}.cls-27{fill:#9c371e;}.cls-28{fill:#42290a;}.cls-29{fill:#3b3432;}.cls-30{fill:#d8d6d0;}.cls-31{fill:#ce8b76;}.cls-32{fill:#d6907b;}.cls-33{fill:#d8937d;}.cls-34{fill:url(#Dégradé_sans_nom_7);}.cls-35{fill:url(#Dégradé_sans_nom_7-2);}.cls-36{fill:url(#Dégradé_sans_nom_7-3);}.cls-37{fill:url(#Dégradé_sans_nom_7-4);}.cls-38{fill:url(#Dégradé_sans_nom_9);}.cls-39{fill:url(#Dégradé_sans_nom_9-2);}.cls-40{fill:url(#Dégradé_sans_nom_9-3);}.cls-41{fill:url(#Dégradé_sans_nom_9-4);}.cls-42{fill:url(#Dégradé_sans_nom_9-5);}.cls-43{fill:#e4966d;}.cls-44{fill:#5e473a;}.cls-45{fill:url(#Dégradé_sans_nom_48);}.cls-46{fill:url(#Nouvelle_nuance_de_dégradé_1);}.cls-47{fill:#b27b67;}.cls-48{fill:#513b28;}.cls-49{fill:#765835;}.cls-50{fill:#be6457;}.cls-51{fill:#e8bbc2;}.cls-52{fill:#b64d3e;}.cls-53{fill:#a33521;}.cls-54{fill:#933427;}.cls-55{fill:#e8ae7d;}.cls-56{fill:#cd8960;}.cls-57{fill:#9f4e31;}.cls-58,.cls-90,.cls-91{fill:#443b36;}.cls-58{opacity:0.49;}.cls-59{fill:#d8a391;}.cls-60{fill:#1f1504;}.cls-61{fill:#e09777;}.cls-62{fill:#dda187;}.cls-63{fill:#d8aa9a;}.cls-64{fill:#dd9c83;}.cls-65{fill:#c98b75;}.cls-66,.cls-67{fill:#2d120a;}.cls-66{opacity:0.76;}.cls-68{fill:url(#Dégradé_sans_nom_82);}.cls-69{fill:#e09b80;}.cls-70{fill:#dd9985;}.cls-71{fill:#e09e85;}.cls-72{fill:#e29b7f;}.cls-73{fill:#e09c85;}.cls-74{fill:#d89479;}.cls-75{fill:#a05a64;}.cls-76{fill:#2d0e04;}.cls-77{fill:#f9f6f4;}.cls-78{fill:#e2e2e2;}.cls-79{fill:url(#Dégradé_sans_nom_2);}.cls-80{fill:url(#Dégradé_sans_nom_2-2);}.cls-81{fill:url(#Dégradé_sans_nom_2-3);}.cls-82{fill:url(#Dégradé_sans_nom_2-4);}.cls-83{fill:url(#Dégradé_sans_nom_2-5);}.cls-84{fill:url(#Dégradé_sans_nom_2-6);}.cls-85{fill:#dbc8cc;}.cls-86{fill:#c68771;}.cls-87{fill:#4a361c;}.cls-88{fill:#e2a086;}.cls-89{fill:#e2a38d;}.cls-90{opacity:0.94;}.cls-91{opacity:0.51;}</style><radialGradient id="Dégradé_sans_nom_7" cx="1704.43" cy="437.52" r="11.8" gradientTransform="matrix(1.15, -0.21, 0.03, 0.11, -1799.22, 659.85)" gradientUnits="userSpaceOnUse"><stop offset="0" stop-color="#b57969"/><stop offset="1" stop-color="#db967b"/></radialGradient><radialGradient id="Dégradé_sans_nom_7-2" cx="1702.59" cy="432.44" r="12.01" gradientTransform="matrix(1.04, -0.17, 0.03, 0.09, -1603.98, 593.23)" xlink:href="#Dégradé_sans_nom_7"/><radialGradient id="Dégradé_sans_nom_7-3" cx="1701.43" cy="427.52" r="11.8" gradientTransform="translate(-1503.86 655.34) rotate(-12.08) scale(1 0.11)" xlink:href="#Dégradé_sans_nom_7"/><radialGradient id="Dégradé_sans_nom_7-4" cx="1702.43" cy="444.52" r="11.8" gradientTransform="translate(-1504.21 670.78) rotate(-12.08) scale(1 0.11)" xlink:href="#Dégradé_sans_nom_7"/><radialGradient id="Dégradé_sans_nom_9" cx="1756.81" cy="425.58" r="14.87" gradientTransform="translate(-1421.14 -276.7) rotate(18.2) scale(1 0.17)" xlink:href="#Dégradé_sans_nom_7"/><radialGradient id="Dégradé_sans_nom_9-2" cx="1739.75" cy="427.99" r="15.47" gradientTransform="translate(-1421.86 -269.37) rotate(18.2) scale(1 0.17)" xlink:href="#Dégradé_sans_nom_7"/><radialGradient id="Dégradé_sans_nom_9-3" cx="1737.31" cy="432.44" r="14.16" gradientTransform="translate(-1421.74 -264.89) rotate(18.2) scale(1 0.17)" xlink:href="#Dégradé_sans_nom_7"/><radialGradient id="Dégradé_sans_nom_9-4" cx="1735.19" cy="439.44" r="14.35" gradientTransform="translate(-1421.47 -258.37) rotate(18.2) scale(1 0.17)" xlink:href="#Dégradé_sans_nom_7"/><radialGradient id="Dégradé_sans_nom_9-5" cx="1732.1" cy="444.88" r="12.46" gradientTransform="translate(-1421.33 -252.86) rotate(18.2) scale(1 0.17)" xlink:href="#Dégradé_sans_nom_7"/><linearGradient id="Dégradé_sans_nom_48" x1="1690.28" y1="148.22" x2="1677.01" y2="166.39" gradientUnits="userSpaceOnUse"><stop offset="0" stop-color="#d89479"/><stop offset="1" stop-color="#e29a7a"/></linearGradient><linearGradient id="Nouvelle_nuance_de_dégradé_1" x1="1712.07" y1="167.27" x2="1731.43" y2="147.91" xlink:href="#Dégradé_sans_nom_48"/><linearGradient id="Dégradé_sans_nom_82" x1="1696.46" y1="168.39" x2="1712.29" y2="168.39" gradientUnits="userSpaceOnUse"><stop offset="0" stop-color="#e29a7a"/><stop offset="0.37" stop-color="#dc9679"/><stop offset="1" stop-color="#d89479"/></linearGradient><linearGradient id="Dégradé_sans_nom_2" x1="1663.86" y1="155.82" x2="1672.38" y2="155.82" gradientUnits="userSpaceOnUse"><stop offset="0" stop-color="#e29a7a"/><stop offset="0.23" stop-color="#dca185"/><stop offset="0.6" stop-color="#d5a890"/><stop offset="1" stop-color="#d3aa94"/></linearGradient><linearGradient id="Dégradé_sans_nom_2-2" x1="1663.17" y1="157.84" x2="1671.59" y2="157.84" xlink:href="#Dégradé_sans_nom_2"/><linearGradient id="Dégradé_sans_nom_2-3" x1="1663.86" y1="160.33" x2="1671.59" y2="160.33" xlink:href="#Dégradé_sans_nom_2"/><linearGradient id="Dégradé_sans_nom_2-4" x1="1732.93" y1="155.79" x2="1739.21" y2="155.79" xlink:href="#Dégradé_sans_nom_2"/><linearGradient id="Dégradé_sans_nom_2-5" x1="1733.79" y1="157.89" x2="1740.6" y2="157.89" xlink:href="#Dégradé_sans_nom_2"/><linearGradient id="Dégradé_sans_nom_2-6" x1="1733.94" y1="160.88" x2="1740.6" y2="160.88" xlink:href="#Dégradé_sans_nom_2"/></defs><title>mehdi carte en main rigole</title><g id="cou"><path class="cls-1" d="M1730,203l7,24,7,10s-11.17,24.11-24.79,23.86-36.3,4.8-47.65-4.55S1662,235,1662,235l7-12,3-13Z" transform="translate(-1532 -83.69)"/></g><g id="Calque_5" data-name="Calque 5"><polygon class="cls-2" points="148.5 851.81 150.5 831.81 199.5 832.81 188.5 841.81 155.5 855.81 148.5 851.81"/><path class="cls-2" d="M1607,917l-3,13,29,9s7-6,8-6-3-14-3-14Z" transform="translate(-1532 -83.69)"/><path class="cls-3" d="M1664,228a350.58,350.58,0,0,1-74,32s-14,14-24,41-34,70-34,70,70,24,71,31-15,38-14,49,6,36,3,43-5,35-2,44,1,15,1,15,197,11,201,11,10-3,10-3,1-75-5-87-8-62-8-62,40-5,68-21c0,0-26-65-30-81s-15-38-22-41-61-34-61-34-18,42-60,15C1684,250,1665,241,1664,228Z" transform="translate(-1532 -83.69)"/><path class="cls-4" d="M1685,661c0,1-2,66-5,68s-12,32-13,34-8,27-8,29-4,92-4,96,3,22,0,25l-15,15s-12,6-13,6-13-9-14-10-8-2-8-2l-14-18,2-17-8-11,10-15s-6-103-3-107l-12-21-2-19,9-27,7-30-2-18,3-16,3-18-1-21-4,1-2-3-2-14,5.06-14.47S1642,551,1652,556c0,0,127,9,140,8l5.34-.06L1795,580l-4,9v17c0,1-3,4-3,4l4,74s-5,27-11,38l-1,11-13,19s-4,38-4,41-4,12-4,12-5,37-5,41-12,55-13,56,0,17,0,17l-11,6s-14-3-15-3h-17l-16,3-14-10,19-20,3-89,5-17V768l-1-36-4-18,1-32Z" transform="translate(-1532 -83.69)"/><g id="carte"><rect class="cls-5" x="155" y="284.03" width="62" height="85.19" rx="12"/><rect class="cls-6" x="155.88" y="285.01" width="60.6" height="83.27" rx="12"/><path class="cls-7" d="M1699.88,452.64c.14-.09.06-.28-.34-.26l-.3.31Z" transform="translate(-1532 -83.69)"/><path class="cls-7" d="M1697.28,451.73c-.47,0-1.09.18-.87.55.55-.2.62,0,1.19-.3.4,0,.67.21.58.32.15-.05.62.17.85,0a3.15,3.15,0,0,0-.83-.3,4.7,4.7,0,0,0-1,0C1697.08,451.83,1697.24,451.78,1697.28,451.73Z" transform="translate(-1532 -83.69)"/><path class="cls-7" d="M1688.34,418.32l0,.25A1.45,1.45,0,0,0,1688.34,418.32Z" transform="translate(-1532 -83.69)"/><path class="cls-7" d="M1688.52,394.86c0,.18,0,.25.07.26C1688.57,395,1688.55,394.82,1688.52,394.86Z" transform="translate(-1532 -83.69)"/><path class="cls-7" d="M1688.89,390.85l0,.24A.43.43,0,0,0,1688.89,390.85Z" transform="translate(-1532 -83.69)"/><path class="cls-7" d="M1688.34,418.32l.1-.62C1688.34,417.65,1688.36,418,1688.34,418.32Z" transform="translate(-1532 -83.69)"/><path class="cls-7" d="M1692.08,450.16a1.59,1.59,0,0,0,.35.14l-.3-.17Z" transform="translate(-1532 -83.69)"/><path class="cls-7" d="M1688.61,428.67v.19a1,1,0,0,0,.13.16Z" transform="translate(-1532 -83.69)"/><path class="cls-7" d="M1688.66,436.61c0-.18-.27-.24-.39-.31a.61.61,0,0,1,.19.39A.35.35,0,0,0,1688.66,436.61Z" transform="translate(-1532 -83.69)"/><path class="cls-7" d="M1691.48,448.1l.18.14A2.2,2.2,0,0,1,1691.48,448.1Z" transform="translate(-1532 -83.69)"/><path class="cls-7" d="M1688.67,423a.27.27,0,0,0,.1-.08S1688.7,422.94,1688.67,423Z" transform="translate(-1532 -83.69)"/><path class="cls-7" d="M1709.08,453.29v-.05S1709,453.29,1709.08,453.29Z" transform="translate(-1532 -83.69)"/><path class="cls-7" d="M1699.88,451.9l.12,0a.4.4,0,0,0,0-.15Z" transform="translate(-1532 -83.69)"/><path class="cls-7" d="M1689.25,383.52v0C1689.27,383.75,1689.27,383.64,1689.25,383.52Z" transform="translate(-1532 -83.69)"/><path class="cls-7" d="M1743.89,372.84c-.35-.67,1.06.55.48-.38C1744.36,372.6,1743.36,372.13,1743.89,372.84Z" transform="translate(-1532 -83.69)"/><path class="cls-7" d="M1691.93,450a1.86,1.86,0,0,1-.27-.22A1.36,1.36,0,0,0,1691.93,450Z" transform="translate(-1532 -83.69)"/><path class="cls-7" d="M1744.37,372.46h0l-.07-.1Z" transform="translate(-1532 -83.69)"/><path class="cls-7" d="M1695.71,370.75a.38.38,0,0,0-.19-.05S1695.58,370.74,1695.71,370.75Z" transform="translate(-1532 -83.69)"/><path class="cls-7" d="M1688.77,379.32l.09-.28A1.28,1.28,0,0,0,1688.77,379.32Z" transform="translate(-1532 -83.69)"/><path class="cls-7" d="M1701.66,369.51a1.07,1.07,0,0,0,.45,0l-.07,0A.57.57,0,0,1,1701.66,369.51Z" transform="translate(-1532 -83.69)"/><path class="cls-7" d="M1708.46,369.51l-.13-.06-.21,0Z" transform="translate(-1532 -83.69)"/><path class="cls-7" d="M1729.75,453.15a.81.81,0,0,1-.31-.25C1729.54,453.1,1728.54,453.17,1729.75,453.15Z" transform="translate(-1532 -83.69)"/><path class="cls-7" d="M1692.18,450a.29.29,0,0,1-.25,0l.2.13S1692.2,450.08,1692.18,450Z" transform="translate(-1532 -83.69)"/><path class="cls-7" d="M1701.93,367.29l1.08,0C1702.71,367.31,1702.32,367.29,1701.93,367.29Z" transform="translate(-1532 -83.69)"/><path class="cls-7" d="M1749.62,416.73l0,.25A.51.51,0,0,0,1749.62,416.73Z" transform="translate(-1532 -83.69)"/><path class="cls-7" d="M1706.22,367.29a2.18,2.18,0,0,0,.61.2s.09,0,.12-.08Z" transform="translate(-1532 -83.69)"/><path class="cls-7" d="M1729.43,452.9h0Z" transform="translate(-1532 -83.69)"/><path class="cls-7" d="M1722.31,453.57c1,0,.49-.36.71-.58,1.23-.1.57.28,1,.46.77-.09,1.36-.43,1.93-.42,0,.06.16.08,0,.16.81-.29,2.4,0,3.35-.38q.11,0,.12.09a.6.6,0,0,1-.14-.51c.46,0,.85-.23,1,0-.28,0-.31.09-.44.17l.48-.11c.44.35-.66.12-.66.38a14,14,0,0,1,2.77-.3c.15.34-1.69.11-.73.41l-1.12-.13c.86.54-.68,0,.11.54,1.47.1,1.65-.17,3.11-.08.33-.18-.11-.27.22-.46a2.31,2.31,0,0,1,1.8.24,1.42,1.42,0,0,0,1.46.12c.43-.24.53-.69,1.71-.65l-.33.44a1.79,1.79,0,0,0,1.16-.49A2.26,2.26,0,0,1,1741,452c-.21.25-1.1.52-.87.48,1.1-.05.64-.45,1.38-.73l.29.24a13.24,13.24,0,0,0,4.05-3.35c0,.14-.13.45.23.2a18.55,18.55,0,0,0,3.49-6.27l-.16-.9c0-.2.19-.35.21-.13.21-.87-.17-.07-.25-.5s.2-.64.28-.32c-.07-.82-.23-1.76-.29-2.78a11.14,11.14,0,0,1,.1-2.77l.09.28c.12-1.15-.6-1.3-.33-2.37l0,.21c.13-2.5-.14-5.27.3-7.18-.42-.36.19-2.48-.4-2.64a14.86,14.86,0,0,0,.6-3c0-.54-.37-.8-.43-1.47h.31l-.33-.91.37-.48-.08-.62c0,.25-.14.53-.23.49a4.3,4.3,0,0,1,.38-2.4l-.26-2.3c.12.05.16.44.24.74-.31-1.23.33-.22,0-1.35-.07.15-.18-.08-.25-.11a9,9,0,0,0,.11-2.78l.21.18c.06-1.71-.1-3.6-.09-5.52-.1.69-.47.53-.51,0l.33-.23c-.2-.36-.12.59-.37-.16,0-.71.37-.48.48-.07l-.12-.87c.1-.05.15.16.28.21-.21-.36.32-1.5,0-2l.1-.05c0-1.92-.11-2.78-.13-4.35-.28,0-.22-.64-.44-1.1a35.39,35.39,0,0,0,.28-3.81c-.14-1-.23-.28-.4-.72.25-.07.23-1.45.41-.73,0-1.66,0-2.12-.25-4.22-.11.23-.15.48-.24.35,0-.38.11-.87.23-.81l0,.1a14,14,0,0,1,.17-3.84c0-.33.08-.64.11-1s0-.68,0-1a4.32,4.32,0,0,0-.4-1.73l.06.11a12.78,12.78,0,0,0-.89-2c-.29-.93.39.48.28-.26-.31-.5-.6-.93-.82-1.35s-.47-.78-.7-1.14a6.84,6.84,0,0,0-1.72-1.94,5.18,5.18,0,0,0-2.54-2.29c-1.25-.64-2.62-1.05-3.56-1.49l.08.2c-.54,0-.59-.22-1-.33,0,.14.53.24.2.29a25.61,25.61,0,0,0-3.21-.17c-1,0-2-.06-3.06-.11-2-.11-4.12-.27-6.14-.35-1.49,0-.84.92-2.71.49l.53-.33c-3,.4-6.12,0-9.05.32.18-.07.18-.17.47-.17a3.69,3.69,0,0,0-2.3.18c-.46,0-.11-.17-.39-.27-.62-.14-1.55.3-1.88.07-.06,0,.17-.08.28-.1-.4.11-1.88,0-1.49.25-1.1-.14-2.11.12-3,0-.57.3-1.88-.15-2.06.28.07-.45-1.93-.36-2.63-.15.24-.13-.6-.14-.33-.33-.79,0-1.52.09-1.38.32a2.55,2.55,0,0,0-1.14-.14,4.37,4.37,0,0,0-1.12.2,7.06,7.06,0,0,1-1,.22,1.41,1.41,0,0,1-.84-.05,13.52,13.52,0,0,0-3.3,1.78,15.3,15.3,0,0,0-1.38,1.12c-.4.42-.83.8-1.18,1.25-.14-.19.28-.66.74-1.08s.93-.76.74-.94a8.31,8.31,0,0,0-1.06,1.1,10.89,10.89,0,0,0-.79,1.07c-.49.71-.92,1.43-1.51,2.33-.33.45,0-.37,0-.57a22.49,22.49,0,0,0-1.26,2.93,8.59,8.59,0,0,0-.41,2.95s-.08-.22-.1-.42c0,.38-.12.89.09.85l0-.37c.17-.3.3.1.42.55a3.09,3.09,0,0,0,.32,1c-.59-.59-.15,1.77-.89.82,0,.23.13.52.27.47,0,.34-.12.45-.27.1.11,1.27.33.82.32,2-.1,0-.14-.23-.25-.35a4.76,4.76,0,0,1,.3,2.12c-.06-.05-.14.06-.14-.23,0,1.66.52,2.83.33,4.65-.43-.54-.14.62-.51.71l.11,1,.18-.39a18,18,0,0,1,.14,2.35l-.15-.64.07,1.61.14-.91c.19.87.47-.09.37,1.05a8.14,8.14,0,0,1-.23,1.3h0a3.13,3.13,0,0,1,.15,1.49c-.11.17-.41-.13-.49,0,.31.42.09,2,.42,2.54-.08-.18-.27-.19-.31-.13l.25.35c-.08.4-.12.45-.28.39,0,1.19.48-.38.27,1,0-.11,0-.06-.09-.29-.11,1.42.16,2.75,0,4.06-.37.38-.09-1.15-.41-.7.07,1.88.45,3.9.37,5.73l0-.34c.53.25-.26,1.36,0,2.28,0-.23-.3-.3-.24-.24a31.91,31.91,0,0,0,.3,4.46l-.14-.24c-.12.74-.07,1.94-.13,2.74.14.23.11.69.31.41-.77,2.45.42,4.68-.23,6.86,0-.26-.12-.62-.12-.41l.13,1.85c.23-.15.14-.24.32-.63a3,3,0,0,1,.24,1.21c-.15-.83-.37,0-.5.37.07-.06.15.07.22,0-.41,1,.47.17.19,1.49l-.12-.07a7.14,7.14,0,0,1,.18,1.48c-.26.23-.12-.52-.34-.56,0,.75.51,1.48.24,2.16-.07-.32-.08-.77-.15-1.09a3,3,0,0,0-.28,1.37v-.05l-.14,1.27.09-.33c.69.94.12,1.91.58,3.18-.43-1.23-.25-.21-.55-.3-.09.32-.18.81-.27.67.25.59-.2,1,.21,1.9-.1,0,0,.67-.21.56.21.82.14-.22.28-.16a11.8,11.8,0,0,1,.4,2.15,4.8,4.8,0,0,0,1,2.39,11.51,11.51,0,0,0,2.4,2.22c.2.45-.52-.05-.52-.05a4,4,0,0,0,1.47,1.46c-.16,0-.1.13,0,.35.5.33.52,0,1.07.51a1.4,1.4,0,0,1-.7,0,5.42,5.42,0,0,0,1,.44c.33.13.67.24,1,.35.11.23-.51.06-.78,0a12.57,12.57,0,0,0,1.32.5,1.91,1.91,0,0,0,1,.07l-.45-.27c.28.09.06.27-.16.24-.74,0-.88-.5-.87-.59l.48.16c-.21-.72-1.85-.79-2.63-1.51l.58-.08a9.58,9.58,0,0,1-1-.37c-.09-.23,0-.5.36-.22-.38-.63-.58-.3-.84-.9,0-.07,0-.06.07,0l-.55-.42c.15,0,.15-.27.38.07-.62-1-1.45-1.36-1.42-1.93l.07.08c-.94-1.4-.35,0-1.26-1a10,10,0,0,1,.38-1.09l-.34-.05c-.06-.16-.14-.5,0-.48-.36-.57-.1.15-.39-.16,0-.87-.54-2.32,0-2.54-.25-.29-.14.82-.34-.08.49-.27-.13-1,.12-1.84.27.24.13,1,.37.2-.46-.47.1-1.53,0-2.19-.36,0-.15-1.44-.27-2.55a28.89,28.89,0,0,0,.33-3.13l.06,0c-.37-.2-.3-1.27-.37-2,.22,0,.3.17.4.59v-.73a1.72,1.72,0,0,1-.22-.87l.27.18a17,17,0,0,1-.14-3.21c-.25-.07-.71,1-.88-.33.14,0,.37-.09.43.25a1.46,1.46,0,0,1-.06-.63l.24.53c.1-.57-.2-.3-.18-.75.2,0,.14-.34.3-.28s-.08.4,0,.58a3.32,3.32,0,0,1,.3-1.34c-.11,0-.27,0-.29-.38,0-1,.24-.33.34-.9-.14-.23,0-.85-.29-.87,0-.28.14-.34.22-.45-.13-.5,0-2.35-.36-1.78l0,.13v-.08h0c-.29-1.65.17-3.43,0-5.06h.1a21.79,21.79,0,0,0-.28-2.87c0-.29.18-.68.3-.56a4.72,4.72,0,0,1,0-1.9c.17.75.15-.26.12.76a4.68,4.68,0,0,0,0-2.23c.25.36.32-.73.24-1.19l-.18.68a9.68,9.68,0,0,1,0-1.43l.33.25c.4-2-.69-3.58,0-5.09-.24-.52-.17,1.08-.44.61a16.08,16.08,0,0,1,.52-2.15c.19-1.25-.48-1.17-.36-2.48-.11.17-.43.33-.54-.65,0-.91.5-1.12.59-.54,0,.21,0,.32-.07.31.05.3.1.68.23.32l-.12-.12c.12-.45.1-1.71.3-1.41-.11-.69-.2-.3-.26.21.18-1.17,0-1.83.12-3-.06.19-.2.37-.2.18.15-1.77-.22-.78-.28-2,.18-.68.44.24.28-1,.13-.74.32-.16.42.13a7.89,7.89,0,0,1,.19-2.68l.09.58a6.06,6.06,0,0,1,0-.92l-.24.33c0-.34,0-.62.14-.62-.15-.35-.39.27-.61-.43.13-.45-.12-1.38.19-1.53-.11,1.42.32-.16.37,1.05a3.07,3.07,0,0,1,0-.86c0-.05.07.05.09.14.28-1.36-.36-.63-.35-2,.18.18.33-.33.3-.56,0,.57-.3.27-.43-.25.19-.82-.09-.91,0-1.35a2.88,2.88,0,0,0-.11.49c-.19-.19-.09-.61-.05-1.21.14,0,0,.55.1.35a1.36,1.36,0,0,1,.24-1.08,3.94,3.94,0,0,0,.49-1.21c.26-.34.32.08.53-.22.22-1,.68-.84,1.07-1.8-.36.11-.37.19-.11-.55a10.88,10.88,0,0,0-.79,1.56c.06-.38.18-.75.28-1.15a11.83,11.83,0,0,0-.62,1.33c.06-.58.09-.51-.2-.36.65-.49.57-1.41,1.31-2l.44.39c1-.76,1.28-1.87,2.77-2.64l-.51.19c.07-.3.84-.6,1.29-.88,0,.19.37.11.62.13-.09-.14,1.1-.41,1.13-.82l.78.07c1.29-.15,1.4-.82,2.76-.78-.4.22.17.33-.68.52.41,0,.84,0,.84-.11.27.12,1.27-.27,1.69-.08.2-.09.26-.3.77-.28.06,0,0,.1,0,.1s.8-.14.36-.35c1.41.61,3.93-.05,5.16.48,1-.07,2.2-.13,3.11-.14-.06.06,0,.09-.17.07,1.25.19.76-.56,2.19-.36.72.32-.76.17-.31.3.2.65,1.72-.09,2.68.29l-.23,0c.73.23,1.78-.24,3-.2,0,0-.06.06,0,.1a14.74,14.74,0,0,1,3.52-.53c-.36.25-.53.13-.31.39.52,0-.15-.41.88-.48.34.13,1.08.26,1.18.53l-1,0c.49.35,1.25,0,1.76,0l-.06.15c1.49-.05,1.51-.44,3.11-.41l-.17-.12c.87-.39.73.22,1.61-.07l.26.39c.58-.09,2-.38,3-.45a14.55,14.55,0,0,1-2.54.61,7.48,7.48,0,0,0,2.24-.22,1.92,1.92,0,0,1-.75.07,6.75,6.75,0,0,1,2.76-.45c-.21.77,3,.15,3.66.88,1.88,0,3.55,1,5.22,2.21-.26-.92.51.36.79-.18.41.32.55.47.56.53a13.65,13.65,0,0,1,.78,1.39c.07.39-.4-.3-.49-.16.64.87.08.52.37,1.16.11-.25.46.14.7.7l-.21-.89a1.74,1.74,0,0,1,.62,1.28,2.58,2.58,0,0,0,.46,1.33l-.35-.38c.09.17.2.42.32.71s.2.63.3,1a7,7,0,0,0,.27,1,2.8,2.8,0,0,0,.31.77c-.06.14-.22.32-.28,0,0,2,.53,4.57.24,6.16l-.15-.16c0,.39.28.67.13,1.16-.06,0-.15-.16-.16,0a4.49,4.49,0,0,1,.18,1.54l-.17-.44c-.2,2,.41,3.09.51,4.79-.44,0-.58,1.58-.65,2.37l-.06,0a52.48,52.48,0,0,0,.53,6.17c-.47,1.35-.2,4.57-.46,6.74.07-.33.34.06.38.44s.31,1.41-.1,1.33v-.18c-.39.38-.29,1.43-.3,2.24l.53.14c-.77,2.14.28,5.6-.41,6.77.13.51.13,1.15.26,1.66l-.28,0a35.43,35.43,0,0,0,0,3.91l-.2-.36c0,1,.82,1.26.83,2.18l-.42.28c0,1.73-.36,3.49,0,5.21-.06,0-.19-.08-.2-.36,0,.82-.29,3.17.29,2.87-.38,0,0,1.79.13,2.73l-.28-.15a3.93,3.93,0,0,1,.55,1.93c0,.26-.22.23-.15-.12-.14.87.28.7.07,1.69l-.15-.38a2.35,2.35,0,0,0,.15,1.27c.07.57-.43,1.58-.69,1.62a1.27,1.27,0,0,1-.1,1.1c-.12,0-.1-.16-.1-.26a11.47,11.47,0,0,0-.71,1.55,5.88,5.88,0,0,1-.29.62,2.14,2.14,0,0,1-.49.51.2.2,0,0,0-.22,0c.7-.86,1.1-1.67,1.1-1.57-.23-.12-.72.59-.67-.17a4.59,4.59,0,0,1-1.24,2.47.22.22,0,0,1-.14,0l0-.08a2.21,2.21,0,0,0-.36.4,5.26,5.26,0,0,0-.57.42c-.23-.12-.85.54-1.24.72.18.22-.34.49.24.4-.07,0,.06-.07.31-.23a.55.55,0,0,0,.13-.14v0c.23-.19.55-.41.87-.69a1.58,1.58,0,0,1-.9.83,5.22,5.22,0,0,1-.3.71c-.75,0-1.91.3-2.15.11a9.74,9.74,0,0,1-2,.74,7.15,7.15,0,0,0-1.82.61c-.42.07-.48-.15-.64-.23a3.65,3.65,0,0,0,.66-.13c-.84.14-2.48.06-2.67.43-1.06-.17.59-.34-.86-.28l.2-.12c-2.85-.59-4.63.95-7.78.19.22.05.32.07.37.13-3.6-.34-7.41.31-11-.22a3,3,0,0,0-1.73.31l-.22-.3-1,.35c-1.49.25-2.59-.74-4.48-.26l.25.2c-.68,0-2.15.12-2-.11a.48.48,0,0,1-.49.1l0-.15-1.66.27c-1.29-.12.2-.63-1.69-.66-.7.06-2,.46-1.73.56s.72.1.74.26l-.64.08c-.11.47-.61.95,1,1.27l1.09-.28.36.22-.92,0a1.48,1.48,0,0,0,1.22-.11.71.71,0,0,0,.46.25l1.08-.44c.13.18-.48.36.24.46.5-.21-.49-.41.35-.55.52.21.37.39,1,.21.08.12,0,.19-.29.25.55-.15,1.45-.07,1.73-.31.55.26,1.85-.07,1.8.37a4.23,4.23,0,0,1,1.47-.36c-.92.52,1.88,0,1.64.59.68-.47,2.46-.21,3.66-.47a.51.51,0,0,1-.3.09,6.18,6.18,0,0,1,1.31.27c.08-.39,1.14-.48,1.71-.72.83.38-.5.46-.24.82,0-.32,1.44-.32,1.16-.58.64.23.55.11.88.44.11-.49.59-.09,1.11-.39.93.24.24.46,1.25.31C1723.21,453.39,1722.31,453.57,1722.31,453.57Zm23.51-5h0l-.34.4Zm1.32-1.68c-.14.22-.35.46-.55.75-.12,0-.16-.13,0-.3C1746.54,447.5,1746.91,447.15,1747.14,446.92Zm-4.26,1.71c.2-.2.31-.22.38-.2-.1.09-.23.19-.38.34v0A.37.37,0,0,1,1742.88,448.63Z" transform="translate(-1532 -83.69)"/><path class="cls-7" d="M1742.67,449.25a.58.58,0,0,0-.1.08l.19,0,0-.14Z" transform="translate(-1532 -83.69)"/><path class="cls-7" d="M1688.29,418.61v0a.25.25,0,0,1,0,.09S1688.28,418.63,1688.29,418.61Z" transform="translate(-1532 -83.69)"/><polygon class="cls-7" points="217.76 335.29 217.69 335.29 217.75 335.47 217.76 335.29"/><path class="cls-7" d="M1687.33,429.74s0,.07-.07.15S1687.3,429.82,1687.33,429.74Z" transform="translate(-1532 -83.69)"/><path class="cls-7" d="M1687.27,434.55l-.1.68C1687.22,434.94,1687.25,434.72,1687.27,434.55Z" transform="translate(-1532 -83.69)"/><path class="cls-7" d="M1687.13,438.25a.31.31,0,0,0,.12.07h0Z" transform="translate(-1532 -83.69)"/><path class="cls-7" d="M1686.87,379.36c0-.06,0-.11,0-.16C1686.88,378.83,1686.86,379.08,1686.87,379.36Z" transform="translate(-1532 -83.69)"/><path class="cls-7" d="M1687.45,397a5.66,5.66,0,0,1-.13-.56C1687.3,396.71,1687.29,397,1687.45,397Z" transform="translate(-1532 -83.69)"/><polygon class="cls-7" points="169.81 283.59 169.81 283.6 169.93 283.6 169.81 283.59"/><path class="cls-7" d="M1687.33,395.58a2.27,2.27,0,0,0,0,.82A3.75,3.75,0,0,0,1687.33,395.58Z" transform="translate(-1532 -83.69)"/><path class="cls-7" d="M1695.13,451.92l.17.08s0,0,0,0Z" transform="translate(-1532 -83.69)"/><path class="cls-7" d="M1695.34,452l.21,0C1695.46,452,1695.38,452,1695.34,452Z" transform="translate(-1532 -83.69)"/><path class="cls-7" d="M1696,452.1l-.44-.09A.81.81,0,0,0,1696,452.1Z" transform="translate(-1532 -83.69)"/><path class="cls-7" d="M1690.87,449l-.12,0A.13.13,0,0,0,1690.87,449Z" transform="translate(-1532 -83.69)"/><path class="cls-7" d="M1689.81,447.79a4.59,4.59,0,0,0,.85,1.22l.09,0C1690.48,448.9,1690.13,448,1689.81,447.79Z" transform="translate(-1532 -83.69)"/><path class="cls-7" d="M1688.49,441.61a8.07,8.07,0,0,0,.15,1.19c.06-.23.13-.53.29,0C1688.91,441.28,1688.71,443.15,1688.49,441.61Z" transform="translate(-1532 -83.69)"/><path class="cls-7" d="M1688.52,437.82c0,.67.16,0,.22,0C1688.64,437.42,1688.61,437.32,1688.52,437.82Z" transform="translate(-1532 -83.69)"/><path class="cls-7" d="M1688.52,409.89l.25.07C1688.74,409.44,1688.68,410,1688.52,409.89Z" transform="translate(-1532 -83.69)"/><polygon class="cls-7" points="155.2 320.86 155.04 321.36 155.27 321.6 155.2 320.86"/><polygon class="cls-7" points="157.02 317.71 157.06 317.93 156.96 317.07 157.02 317.71"/><path class="cls-7" d="M1707.25,369.76l-.16-.32C1706.74,369.5,1706.67,369.85,1707.25,369.76Z" transform="translate(-1532 -83.69)"/><path class="cls-7" d="M1727.49,369.43a1.44,1.44,0,0,0,1.15.11A11.24,11.24,0,0,0,1727.49,369.43Z" transform="translate(-1532 -83.69)"/><polygon class="cls-7" points="215.23 329.92 215.13 329.51 215.21 330.28 215.23 329.92"/><rect class="cls-8" x="152.5" y="280.81" width="66" height="84"/><rect class="cls-6" x="154" y="281.81" width="63" height="85.5"/><path class="cls-7" d="M1748.33,451c.09.16.29.07.25-.36l-.33-.31Z" transform="translate(-1532 -83.69)"/><path class="cls-7" d="M1749,448.1c-.16-.5-.44-1.09-.75-.76.32.5.19.62.57,1.16,0,.43-.11.75-.23.68.08.15-.08.67.13.9a2.92,2.92,0,0,0,.06-2C1748.8,447.91,1748.89,448.07,1749,448.1Z" transform="translate(-1532 -83.69)"/><path class="cls-7" d="M1749.46,406l0,.27A.7.7,0,0,0,1749.46,406Z" transform="translate(-1532 -83.69)"/><path class="cls-7" d="M1749.65,379.89c0,.2,0,.28.07.29C1749.69,380,1749.67,379.84,1749.65,379.89Z" transform="translate(-1532 -83.69)"/><path class="cls-7" d="M1750,375.43l0,.26A.4.4,0,0,0,1750,375.43Z" transform="translate(-1532 -83.69)"/><path class="cls-7" d="M1749.46,406l.11-.69C1749.46,405.24,1749.49,405.64,1749.46,406Z" transform="translate(-1532 -83.69)"/><path class="cls-7" d="M1748.15,442.29a1.77,1.77,0,0,0,.09.38l0-.35Z" transform="translate(-1532 -83.69)"/><path class="cls-7" d="M1749.73,417.49v.21l.14.18Z" transform="translate(-1532 -83.69)"/><path class="cls-7" d="M1749.78,426.32c0-.2-.27-.27-.39-.35a.66.66,0,0,1,.19.44A.35.35,0,0,0,1749.78,426.32Z" transform="translate(-1532 -83.69)"/><path class="cls-7" d="M1749.29,440.31l0,.25Z" transform="translate(-1532 -83.69)"/><path class="cls-7" d="M1749.79,411.17a.27.27,0,0,0,.1-.08A.14.14,0,0,0,1749.79,411.17Z" transform="translate(-1532 -83.69)"/><path class="cls-7" d="M1738.77,449.68s0,0,0,.05S1738.83,449.68,1738.77,449.68Z" transform="translate(-1532 -83.69)"/><path class="cls-7" d="M1749,451.07l-.14,0a.41.41,0,0,0,0,.16Z" transform="translate(-1532 -83.69)"/><path class="cls-7" d="M1750.37,367.28v0C1750.4,367.53,1750.39,367.41,1750.37,367.28Z" transform="translate(-1532 -83.69)"/><path class="cls-7" d="M1684.84,375.58c.25-.85.32,1.38.6.1C1685.33,375.8,1685,374.52,1684.84,375.58Z" transform="translate(-1532 -83.69)"/><path class="cls-7" d="M1748.19,442.06v-.36A1.86,1.86,0,0,0,1748.19,442.06Z" transform="translate(-1532 -83.69)"/><path class="cls-7" d="M1685.44,375.68h0l0-.13Z" transform="translate(-1532 -83.69)"/><path class="cls-7" d="M1732,364.3a.44.44,0,0,0,.19.12S1732.13,364.36,1732,364.3Z" transform="translate(-1532 -83.69)"/><path class="cls-7" d="M1746,364.7l-.35,0A1.63,1.63,0,0,0,1746,364.7Z" transform="translate(-1532 -83.69)"/><path class="cls-7" d="M1724.72,364.7a1.36,1.36,0,0,0-.51,0l.08,0A.66.66,0,0,1,1724.72,364.7Z" transform="translate(-1532 -83.69)"/><path class="cls-7" d="M1717.16,364.7l.14.05h.24Z" transform="translate(-1532 -83.69)"/><path class="cls-7" d="M1715.78,449.82a1,1,0,0,1,.35.25C1716,449.87,1717.12,449.8,1715.78,449.82Z" transform="translate(-1532 -83.69)"/><path class="cls-7" d="M1748.31,442.29a.26.26,0,0,1-.12-.23v.26A.07.07,0,0,0,1748.31,442.29Z" transform="translate(-1532 -83.69)"/><path class="cls-7" d="M1724.41,366.91l-1.2,0C1723.55,366.9,1724,366.91,1724.41,366.91Z" transform="translate(-1532 -83.69)"/><path class="cls-7" d="M1687.14,426.51l0,.28A.59.59,0,0,0,1687.14,426.51Z" transform="translate(-1532 -83.69)"/><path class="cls-7" d="M1719.65,366.91a2.76,2.76,0,0,0-.68-.19.46.46,0,0,0-.14.07Z" transform="translate(-1532 -83.69)"/><path class="cls-7" d="M1716.13,450.07Z" transform="translate(-1532 -83.69)"/><path class="cls-7" d="M1724.05,449.4c-1.15,0-.54.37-.78.58-1.37.1-.64-.27-1.1-.46-.86.09-1.51.43-2.15.42,0-.06-.17-.08,0-.16-.91.29-2.68,0-3.73.38a.28.28,0,0,1-.14-.09.54.54,0,0,1,.16.51c-.51,0-1,.23-1.14,0a.62.62,0,0,0,.48-.17l-.53.11c-.49-.35.73-.12.73-.38a16.26,16.26,0,0,1-3.07.3c-.17-.34,1.87-.11.8-.41l1.25.13c-1-.54.75,0-.12-.54-1.64-.1-1.83.18-3.46.08-.37.18.12.28-.25.46-2.32.34-1.83-.85-3.53-.4a1.9,1.9,0,0,1-1.83.43l.41-.38c-1.58,0-.9.55-2.56.29.29-.15,1.24-.13,1-.17-1.07-.31-.76.22-1.58.22l-.17-.34c-1.69.05-3.55.29-5.42.36.11-.1.43-.21,0-.31a47.76,47.76,0,0,1-7.3-.25l-.87.3c-.2,0-.38-.14-.16-.19-.88-.12,0,.18-.47.3s-.67-.17-.35-.26l-.46.07c-.13,0-.12.05-.21.07l-.48.12a2.9,2.9,0,0,1-.07-.38l0-.23c0-.17,0-.34,0-.51A10.25,10.25,0,0,1,1687,447l.08.33c.12-1.29-.6-1.45-.32-2.64l0,.23c.13-2.79-.14-5.86.3-8-.42-.4.19-2.75-.4-2.93a18.22,18.22,0,0,0,.59-3.37c0-.6-.37-.89-.43-1.63l.31,0-.32-1,.37-.54-.08-.69c0,.27-.14.59-.23.54a5.2,5.2,0,0,1,.37-2.66l-.26-2.57c.13.06.17.49.25.83-.32-1.37.32-.25,0-1.5-.07.17-.18-.09-.24-.12a11.21,11.21,0,0,0,.11-3.1l.21.2c0-1.9-.1-4-.1-6.14-.1.77-.46.59-.5,0l.33-.25c-.21-.41-.13.65-.37-.18,0-.79.37-.53.47-.08l-.11-1c.1-.06.15.17.27.22-.2-.39.33-1.67,0-2.24l.09-.06c0-2.13-.1-3.09-.12-4.83-.28,0-.22-.71-.45-1.23.09-1.28.31-2.69.29-4.23-.14-1.08-.24-.32-.41-.8.26-.08.24-1.62.42-.82,0-1.85,0-2.36-.26-4.69-.1.25-.15.54-.24.39,0-.43.11-1,.23-.9l0,.11c-.38-2.62.75-6.05.21-8.14l0,.12-.28-2.16c0-1,.19.59.35-.14-.42-2.34.06-3.69-.22-5.61.76-1.49,0-5.28.43-7.29l-.18.12c-.17-.52.1-.63.14-1-.13.05-.16.56-.25.24l0-.58V367c0-.11,0-.23,0-.35l1.65.06,2.83.13c1.89.1,3.78.22,5.64.29,1.65.05.94-.92,3-.5l-.59.33c3.32-.39,6.8,0,10.06-.32-.2.08-.2.18-.52.17a4.41,4.41,0,0,0,2.55-.18c.51,0,.12.18.43.28.69.14,1.74-.31,2.1-.07.06,0-.19.08-.32.1.45-.12,2.1,0,1.67-.25,1.22.13,2.33-.13,3.31,0,.64-.31,2.09.15,2.29-.29-.08.45,2.15.36,2.92.15-.26.14.67.14.37.33.88,0,1.69-.09,1.53-.32,1.63.54,3.27-.44,4.19.26,2.62-.24,5-.41,7.4-.52-.09.46-2.61.05-2.51.52a38.63,38.63,0,0,1,5.75-.46c.57.06-.33.19-.52.27,2.23-.18,4.31,0,6.3-.2,0,0-.22.09-.42.12.39,0,.91.07.87-.14l-.39.06c-.31-.15.08-.31.56-.45a9,9,0,0,0,.94-.33c-.44.3-.06.33.14.39-.05.36-.13.51-.5.59a.22.22,0,0,0,.28,0c0,.21-.12.24-.28.17,0,.12.06.14.1.28a1.77,1.77,0,0,0,.11.38,3,3,0,0,1,.11,1c-.1,0-.13-.26-.25-.39a5.66,5.66,0,0,1,.3,2.36c-.06-.06-.13.06-.13-.26,0,1.85.51,3.15.33,5.17-.44-.6-.15.69-.52.8l.11,1.08.18-.43a20.27,20.27,0,0,1,.15,2.61l-.16-.71.07,1.79.14-1c.2,1,.48-.1.37,1.17a8.18,8.18,0,0,1-.22,1.45h0a4,4,0,0,1,.15,1.66c-.12.19-.41-.14-.49,0,.31.46.08,2.23.42,2.82-.08-.2-.28-.21-.32-.14l.25.39c-.08.44-.12.5-.27.43,0,1.33.47-.42.27,1.16,0-.13-.06-.07-.1-.33-.11,1.59.16,3.06,0,4.52-.38.43-.1-1.27-.41-.78.07,2.1.45,4.34.36,6.37l0-.38c.53.29-.26,1.52,0,2.54,0-.25-.3-.33-.24-.26a39.35,39.35,0,0,0,.3,4.95l-.14-.26c-.12.82-.07,2.16-.13,3,.14.26.12.77.31.46-.77,2.73.42,5.21-.23,7.63,0-.29-.11-.69-.11-.46l.12,2.06c.23-.16.14-.27.32-.7a3.44,3.44,0,0,1,.24,1.35c-.15-.93-.37,0-.5.41.07-.07.15.07.22,0-.41,1.07.47.18.19,1.65l-.12-.08a9.8,9.8,0,0,1,.19,1.65c-.27.25-.13-.58-.35-.62,0,.83.51,1.64.24,2.4-.07-.36-.07-.87-.15-1.22a3.69,3.69,0,0,0-.28,1.53V424l-.14,1.41.08-.36c.7,1,.13,2.13.58,3.53-.43-1.37-.25-.23-.55-.33-.08.36-.18.9-.26.75.24.66-.19,1.11.16,2-.09,0,0,.71-.25.56.07.86.17-.21.29-.13.33,1.33-.4,3.12,0,5,.19,1.65.52,2,.68,3.49-.15.52-.35-.42-.35-.42a6.74,6.74,0,0,0,0,2.24c-.08-.16-.15,0-.26.25,0,.63.35.42.21,1.25a2,2,0,0,1-.39-.63c.09.75.27,1.48.36,2.25-.17.2-.26-.46-.37-.74a7.1,7.1,0,0,0,.42,2.51l.1-.55c0,.31-.23.16-.28-.07-.21-.74.09-1.07.19-1.11l.06.54c.57-.56-.09-2.2-.06-3.3l.42.46-.35-1.13c.11-.24.34-.41.4.14.21-.79-.14-.7.09-1.38,0-.08,0,0,.07,0l-.13-.77c.09.15.3-.13.24.35.24-1.39-.31-2.24,0-2.76l0,.11c-.14-1.92-.31-.18-.67-1.63l.76-1-.31-.19c0-.2,0-.59.16-.52-.21-.73-.14.13-.33-.3.28-.95-.13-2.63.35-2.85-.23-.34-.18.91-.34-.11.53-.29-.09-1.18.15-2.05.27.27.13,1.1.37.22-.46-.52.1-1.7,0-2.43-.36,0-.15-1.61-.27-2.84.12.08.2-2.33.33-3.48l.06,0c-.36-.23-.29-1.41-.37-2.28.22,0,.31.19.4.66v-.81a2.1,2.1,0,0,1-.22-1l.28.2a19,19,0,0,1-.14-3.56c-.26-.08-.72,1.1-.89-.37.14-.05.38-.11.43.28a2.12,2.12,0,0,1,0-.71l.23.59c.1-.63-.19-.33-.17-.84.19,0,.14-.37.29-.3s-.08.44,0,.64a4.33,4.33,0,0,1,.3-1.49c-.11.05-.26,0-.29-.42,0-1.08.24-.37.34-1-.14-.26,0-.95-.29-1,0-.32.14-.37.22-.5-.13-.56,0-2.61-.35-2l0,.15,0-.1h0c-.29-1.83.17-3.8,0-5.62h.09a24.74,24.74,0,0,0-.28-3.19c0-.32.19-.76.3-.62a6.35,6.35,0,0,1,0-2.12c.17.83.15-.29.13.85a5.94,5.94,0,0,0,0-2.48c.25.4.32-.81.24-1.32l-.18.75c0-.57,0-1.08,0-1.59l.33.28c.41-2.21-.69-4,0-5.66-.23-.59-.16,1.2-.44.67a19,19,0,0,1,.53-2.39c.18-1.39-.49-1.29-.36-2.75-.12.19-.44.36-.55-.72s.5-1.25.59-.61c0,.24,0,.36-.06.35,0,.33.09.76.22.36l-.12-.14c.12-.5.11-1.9.3-1.57-.11-.77-.19-.33-.25.24.17-1.3,0-2,.12-3.38-.07.22-.21.41-.21.2.15-2-.22-.86-.27-2.2.18-.75.43.27.28-1.07.12-.82.31-.17.41.15a9.73,9.73,0,0,1,.19-3l.1.65a6.29,6.29,0,0,1-.06-1l-.24.37c0-.38,0-.7.15-.69-.16-.39-.4.3-.61-.47a4.47,4.47,0,0,0,0-1,2.23,2.23,0,0,1,0-.46.82.82,0,0,1,.14-.39c0,.25,0,.43,0,.57a.91.91,0,0,0,0,.21c0,.08.07.05.12,0s.22-.18.24.49a3.8,3.8,0,0,1,0-.95c0-.08.06.07.08.16a4.82,4.82,0,0,0,.06-.65c0-.22,0-.4,0-.55a1.63,1.63,0,0,0-.1-.58,2.37,2.37,0,0,1-.29-1.05c-.24,0-.51,0-.83,0,.48-.18-.42-.34-.92-.3,1.16,0,.33.3-.57.43l-.73,0a1.92,1.92,0,0,0-.38,0,2.45,2.45,0,0,1-.63.09l.6.06c-.21.18-.71.16-1.41.21-.06-.13.64-.09.39-.15-.79.31-1.77-.33-2.86-.12-.5-.12,0-.33-.49-.41-1.22.23-1.32-.24-2.6-.05.37.24.44.18-.47.41l2.11-.17-1.35.35c.63,0,1.34-.15,1.72-.11-.64.19-.58.13-.27.33-.87-.36-1.73.21-2.73,0l0-.59c-1.52-.26-2.69.3-4.65.15l.63.11c-.26.23-1.21,0-1.85.12.06-.19-.34-.27-.61-.39,0,.15-1.44,0-1.61.38l-.88-.26c-1.59-.1-1.81.57-3.33.5.46-.22-.24-.36.78-.51-.51,0-1,0-1,.1-.3-.12-1.41.26-1.88.08-.21.08-.28.29-.85.27-.07,0,0-.09,0-.09s-.9.13-.4.35c-1.56-.62-4.38,0-5.74-.49-1.11.07-2.45.13-3.46.15.07-.06,0-.1.2-.08-1.4-.18-.86.57-2.44.36-.81-.32.84-.17.33-.29-.21-.65-1.9.09-3-.29l.26,0c-.82-.22-2,.25-3.32.2,0,0,.07-.06,0-.1a18,18,0,0,1-3.91.53c.4-.25.58-.13.34-.39-.57,0,.17.42-1,.49-.37-.14-1.2-.26-1.31-.54h1.08c-.55-.36-1.39,0-2-.05l.07-.16c-1.65.05-1.68.44-3.46.42l.19.11c-1,.39-.82-.21-1.79.08l-.29-.4c-.64.1-2.25.38-3.4.46a17.13,17.13,0,0,1,2.83-.62,9.63,9.63,0,0,0-2.49.22,2.62,2.62,0,0,1,.83-.07,8.41,8.41,0,0,1-3.07.46c.08-.25-.25-.36-.76-.41l-.2,0h-.3l-.67,0-1.46,0a8.82,8.82,0,0,1-.3,2.43c.28,2.24-.12,4.44-.08,7.05.6-.92,0,.77.63.61a2.43,2.43,0,0,1,0,.89l-.36,1.84c-.18.44-.14-.58-.28-.52,0,1.33-.26.56-.42,1.44.22-.18.32.46.23,1.22l.28-1.07c.33,1.86-.51,1.61-.19,3.49l-.19-.6c.11,1,0,3.55.49,4.5-.07.17-.24.39-.28,0-.08,2.3.52,5.12.22,6.9l-.15-.17c0,.43.28.75.13,1.28-.06,0-.15-.17-.16,0a5.61,5.61,0,0,1,.17,1.71l-.16-.49c-.2,2.25.41,3.44.51,5.33-.44,0-.59,1.76-.66,2.64l-.06,0a67.2,67.2,0,0,0,.54,6.85c-.48,1.5-.2,5.09-.47,7.5.08-.37.34.06.39.49s.3,1.57-.1,1.48v-.2c-.4.42-.29,1.59-.3,2.49l.52.15c-.76,2.38.29,6.23-.4,7.53.13.57.13,1.28.26,1.85l-.28,0c-.07,1.59-.11,2.38,0,4.35l-.21-.4c0,1.11.82,1.4.84,2.42l-.42.31c0,1.93-.37,3.89,0,5.8-.06,0-.18-.09-.2-.4,0,.91-.28,3.52.3,3.19-.19,0-.2.51-.14,1.13,0,.31.07.66.12,1l.08.48,0,.23,0,.3a2.09,2.09,0,0,1-.28-.24,10.68,10.68,0,0,1,.49,2.23l.8-.06c.37,0,.24.22-.29.15a3.37,3.37,0,0,0,1.31-.06l.51-.08a3.24,3.24,0,0,1,.66,0l-.43.17a2.31,2.31,0,0,0,1.47-.28,3.23,3.23,0,0,1,2,.33,1.72,1.72,0,0,1,1.27-.29c.08.09-.13.15-.24.18,1.67.19,2.49-.32,3.64-.05a.24.24,0,0,0,.19.17c-1.33,0-2.4,0-2.3,0,0,.25,1.07.3.22.65a11.69,11.69,0,0,1,3.38-.49.42.42,0,0,1,.14.09l-.11,0a2.35,2.35,0,0,0,.66,0,6.64,6.64,0,0,0,.87.07c.12.21,1.23.12,1.76.13,0-.28.66-.24,0-.47.09,0-.1,0-.45,0l-.23,0,0,0-1.33,0a2.28,2.28,0,0,1,1.46-.11,8.62,8.62,0,0,1,.75-.45c.73.39,2.14.6,2.34.84,1.63-.15,3.84-.1,4.87-.63.47-.07.54.15.71.24a3.55,3.55,0,0,0-.73.12c.93-.14,2.75-.06,3-.43,1.17.17-.66.34,1,.28l-.22.12c3.17.59,5.15-.95,8.65-.19-.24,0-.36-.07-.41-.13,4,.34,8.24-.31,12.19.22a3.62,3.62,0,0,0,1.92-.31l.25.3,1.17-.35c1.66-.25,2.87.74,5,.26l-.27-.2c.75,0,2.39-.12,2.26.11a.59.59,0,0,1,.55-.1l0,.16,1.85-.28c1.44.12-.22.63,1.88.66.78-.06,2.22-.46,1.92-.56s-.8-.1-.82-.26l.71-.08c.13-.47.68-.94-1.07-1.27l-1.22.28-.4-.22,1,0a1.82,1.82,0,0,0-1.36.11.88.88,0,0,0-.52-.25l-1.19.45c-.15-.19.53-.37-.27-.47-.56.21.54.41-.39.55-.58-.21-.41-.39-1.1-.21-.09-.12.05-.19.32-.24-.61.14-1.61.06-1.93.3-.6-.26-2,.07-2-.37a5.22,5.22,0,0,1-1.64.36c1-.52-2.09,0-1.82-.59-.76.47-2.74.21-4.08.47a.64.64,0,0,1,.34-.09,7.52,7.52,0,0,1-1.46-.27c-.09.39-1.27.48-1.9.72-.93-.37.56-.46.27-.82,0,.32-1.61.32-1.29.58-.71-.23-.61-.11-1-.44-.12.49-.65.09-1.24.39-1-.24-.26-.46-1.39-.31C1723.05,449.58,1724.05,449.4,1724.05,449.4Zm-26.75.85h0l.55,0Zm-2.25,0h1c.08.09,0,.19-.24.19C1695.92,450.39,1695.39,450.34,1695.05,450.26Zm4.76,1.94c-.36,0-.48,0-.53-.07l.62,0,0,0A.38.38,0,0,1,1699.81,452.2Z" transform="translate(-1532 -83.69)"/><path class="cls-7" d="M1700.45,451.83l.14,0-.21-.06-.13.09Z" transform="translate(-1532 -83.69)"/><path class="cls-7" d="M1749.42,406.3v-.05a.23.23,0,0,1,0,.1Z" transform="translate(-1532 -83.69)"/><polygon class="cls-7" points="155.28 345.32 155.21 345.33 155.27 345.52 155.28 345.32"/><path class="cls-7" d="M1748.45,418.68a.34.34,0,0,0-.07.16S1748.43,418.77,1748.45,418.68Z" transform="translate(-1532 -83.69)"/><path class="cls-7" d="M1748.39,424l-.1.75C1748.35,424.46,1748.37,424.22,1748.39,424Z" transform="translate(-1532 -83.69)"/><path class="cls-7" d="M1748.25,428.14a.3.3,0,0,0,.12.08h0Z" transform="translate(-1532 -83.69)"/><path class="cls-7" d="M1746.27,366.58h-.16C1745.74,366.65,1746,366.63,1746.27,366.58Z" transform="translate(-1532 -83.69)"/><path class="cls-7" d="M1748.58,382.22c0-.2-.1-.41-.14-.62C1748.42,381.94,1748.42,382.21,1748.58,382.22Z" transform="translate(-1532 -83.69)"/><path class="cls-7" d="M1724.55,366.92h0Z" transform="translate(-1532 -83.69)"/><path class="cls-7" d="M1748.45,380.69a3.1,3.1,0,0,0,0,.91A4.61,4.61,0,0,0,1748.45,380.69Z" transform="translate(-1532 -83.69)"/><path class="cls-7" d="M1748.12,446v.2s0,0,.05,0Z" transform="translate(-1532 -83.69)"/><path class="cls-7" d="M1748.16,446.18l0,.22C1748.19,446.3,1748.19,446.21,1748.16,446.18Z" transform="translate(-1532 -83.69)"/><path class="cls-7" d="M1748.26,446.86l-.07-.46A.83.83,0,0,0,1748.26,446.86Z" transform="translate(-1532 -83.69)"/><path class="cls-7" d="M1748.25,440.52l-.1-.07A.14.14,0,0,0,1748.25,440.52Z" transform="translate(-1532 -83.69)"/><path class="cls-7" d="M1748.22,438.86a8.45,8.45,0,0,0-.15,1.54l.08.05C1748,440.2,1748.4,439.24,1748.22,438.86Z" transform="translate(-1532 -83.69)"/><path class="cls-7" d="M1749.48,432l-.08,1.39c.11-.25.26-.57.28.06C1750,431.67,1749.44,433.78,1749.48,432Z" transform="translate(-1532 -83.69)"/><path class="cls-7" d="M1749.64,427.66c0,.75.16,0,.22,0C1749.76,427.22,1749.74,427.11,1749.64,427.66Z" transform="translate(-1532 -83.69)"/><path class="cls-7" d="M1749.64,396.61l.26.07C1749.86,396.11,1749.8,396.68,1749.64,396.61Z" transform="translate(-1532 -83.69)"/><polygon class="cls-7" points="216.32 306.98 216.16 307.54 216.4 307.8 216.32 306.98"/><polygon class="cls-7" points="218.14 303.47 218.18 303.72 218.09 302.76 218.14 303.47"/><path class="cls-7" d="M1718.5,364.45l.18.31C1719.06,364.71,1719.15,364.35,1718.5,364.45Z" transform="translate(-1532 -83.69)"/><path class="cls-7" d="M1696,364.77a1.69,1.69,0,0,0-1.27-.1C1695.22,364.69,1695.73,364.81,1696,364.77Z" transform="translate(-1532 -83.69)"/><polygon class="cls-7" points="152.76 339.35 152.65 338.9 152.74 339.75 152.76 339.35"/><polygon class="cls-9" points="184.75 305.11 193.39 305.11 187.37 316.04 193.66 314.94 187.08 326.38 193.66 325.08 185.62 340.27 188.05 329.11 182.25 329.73 186.38 319.81 180.57 324.1 184.75 305.11"/><polygon class="cls-10" points="168.75 318.62 179.62 314.91 179.96 315.01 180.26 314.64 184.72 313.08 184.19 314.98 186.5 315.97 185.92 318.76 187.43 320.45 184.86 323.4 178.6 325.72 178.35 325.54 177.96 325.88 168.91 329.08 168.63 328.3 168.71 327.75 168.31 327.55 166.3 321.82 168.75 318.62"/><polygon class="cls-11" points="166.3 321.82 182.21 316.24 181.68 318.08 182.52 318.56 182.6 318.79 182.86 318.66 184.06 319.16 183.5 321.83 184.84 323.4 178.64 325.66 178.32 325.58 178.01 325.86 168.91 329.08 168.57 328.37 168.69 327.78 168.32 327.53 166.3 321.82"/><polygon class="cls-12" points="184.72 313.08 180.26 314.64 179.96 315.01 179.62 314.91 168.75 318.62 166.3 321.82 182.21 316.24 184.72 313.08"/><polygon class="cls-13" points="184.19 314.98 186.5 315.97 184.06 319.16 182.86 318.66 182.6 318.79 182.52 318.56 181.68 318.08 184.19 314.98"/><polygon class="cls-14" points="185.92 318.76 187.43 320.45 184.86 323.4 183.5 321.83 185.92 318.76"/><path class="cls-6" d="M1707.32,403.86l-1.5.51v5.35l-1.66-1.43a1.79,1.79,0,0,0-.93-2.69,2.39,2.39,0,0,0-1.11.12l-1.94.66,1.67,4.76,1.42-.45-.56-1.56.16-.06,1.36,1.23,3.06-1.06v-.93l1.41-.52.56.72,1.43-.52Zm-4.27,3.73c-.11.31-.75.44-.75.44l-.32-1,.47-.21a.55.55,0,0,1,.45.18A.58.58,0,0,1,1703.05,407.59Zm4.14-.41s-.09-1.57-.09-1.61l1,1.33Z" transform="translate(-1532 -83.69)"/><path class="cls-6" d="M1713.54,403.28a1.59,1.59,0,0,0-1.86-.9l-2.21.74,1.66,4.7,1.33-.49-.5-1.53a4,4,0,0,0,1.27-.64A1.51,1.51,0,0,0,1713.54,403.28Zm-1.44,1.29-.51.21-.34-1,.34-.14s.62-.2.73.33S1712.1,404.57,1712.1,404.57Z" transform="translate(-1532 -83.69)"/><polygon class="cls-15" points="190.84 317.44 194.09 317.61 194.6 317.89 195.41 317.75 206.15 318.42 205.68 326.07 202.15 328 201.13 328 200.79 327.64 200.17 327.89 186.84 326.97 186.1 325.02 187.81 322.71 186 320.93 187.35 319.37 190.84 317.44"/><polygon class="cls-12" points="206.15 318.42 195.41 317.75 194.6 317.89 194.09 317.61 190.84 317.44 187.35 319.37 188.45 319.37 188.73 319.8 189.29 319.44 202.62 320.33 204.6 319.28 204.35 319.07 205.17 319 206.15 318.42"/><polygon class="cls-10" points="202.15 328 202.62 320.33 204.6 319.28 204.35 319.07 205.17 319 206.15 318.42 205.68 326.07 202.15 328"/><path class="cls-6" d="M1722.12,404.46l1.43.1-.19,3.51a1.32,1.32,0,0,1-.87,1.31,2.6,2.6,0,0,1-.57.12h-1v-1.33h.81a.28.28,0,0,0,.26-.23C1722,407.73,1722.12,404.46,1722.12,404.46Z" transform="translate(-1532 -83.69)"/><polygon class="cls-6" points="195.68 321.14 192.57 320.97 192.26 325.96 195.44 326.13 195.5 325 193.76 324.88 193.76 324.1 195.44 324.14 195.48 323.03 193.87 322.96 193.9 322.24 195.59 322.29 195.68 321.14"/><path class="cls-6" d="M1728.51,404.91l1.42.1-.17,3.21a.59.59,0,0,0,.67.58.69.69,0,0,0,.73-.53l.2-3.16,1.39.08-.18,3.29a2,2,0,0,1-2,1.69,2.07,2.07,0,0,1-2.15-1.4,4.12,4.12,0,0,1-.06-.42C1728.34,408.24,1728.51,404.91,1728.51,404.91Z" transform="translate(-1532 -83.69)"/></g><polygon class="cls-16" points="217 270.31 227 361.31 233 355.31 217 270.31"/><path class="cls-16" d="M1602,301c0,2,4,92,0,97l4,3Z" transform="translate(-1532 -83.69)"/><path class="cls-16" d="M1648,348s-19,71-17,81l5,7Z" transform="translate(-1532 -83.69)"/><path class="cls-16" d="M1793,315c0,4-6,97-6,97l5.86-.3Z" transform="translate(-1532 -83.69)"/><path class="cls-17" d="M1651,555.57a162.6,162.6,0,0,0,59,7.43s20,1,25,2c0,0,56,1,60,0s4-2,4-2S1653.9,554.13,1651,555.57Z" transform="translate(-1532 -83.69)"/><path class="cls-18" d="M1662,606s24-1,28,12h0S1679,606,1662,606Z" transform="translate(-1532 -83.69)"/><path class="cls-19" d="M1801,410c-1.37.2,0,7,0,7l-22.57,17.8-13.76-16.64a3.38,3.38,0,0,0-2.14-1.19l-17.71-2.42a.52.52,0,0,0-.58.5v3.26l8.45,5.37-19.21-3.83-7.67,3.85L1720.07,441,1742,458l30,6.81a4.24,4.24,0,0,0,2.82-.35l15.54-7.78,54.29-19.85a3.32,3.32,0,0,0,2.16-3.58L1842,398S1808,409,1801,410Z" transform="translate(-1532 -83.69)"/><path class="cls-19" d="M1560,381s34,13,41,18l-1,5,58.46,30.81a5.27,5.27,0,0,0,5-.26l12.24-7.34a5,5,0,0,1,.73-.36l13.67-5.47a6.4,6.4,0,0,1,2-.44l15.81-.88a1.42,1.42,0,0,1,1.45,1.08l3.56,14.22a3.12,3.12,0,0,1,.06,1.29l-1.7,11a3.11,3.11,0,0,1-1.28,2.07c-2.61,1.83-9.12,6.44-9.92,7.24s-18.84,6.09-21.63,6.9a3.17,3.17,0,0,1-.75.12c-2.33.16-14.81,1-16.62,1s-84.08-29.77-99.49-36a4,4,0,0,1-2.51-3.72Z" transform="translate(-1532 -83.69)"/><path class="cls-20" d="M1733.13,582s-34.22,84.13-33.26,93.08C1700,676,1730.19,601.39,1733.13,582Z" transform="translate(-1532 -83.69)"/><path class="cls-20" d="M1661,591s23-4,31,7C1692,598,1686,592,1661,591Z" transform="translate(-1532 -83.69)"/><polygon class="cls-21" points="61 496.31 71 487.31 66 502.31 60 502.31 58 499.31 61 496.31"/><path class="cls-22" d="M1630,745l-40,3,3,10s2-7,13-8S1630,744,1630,745Z" transform="translate(-1532 -83.69)"/><path class="cls-22" d="M1622,737c2,0-27-11-28-10S1616,737,1622,737Z" transform="translate(-1532 -83.69)"/><path class="cls-23" d="M1597,737l-6-5-3-4s-3-1-3,0-1,2-1,3S1596,737,1597,737Z" transform="translate(-1532 -83.69)"/><path class="cls-20" d="M1703,789l17-15s21,6,22,7-19,1-20,1S1703,789,1703,789Z" transform="translate(-1532 -83.69)"/><path class="cls-18" d="M1595,887c3,3,27,28,29,33,0,0-25-24-30-25Z" transform="translate(-1532 -83.69)"/><path class="cls-18" d="M1651,889c-.28-1.39-5,21-9,25C1642,914,1654,904,1651,889Z" transform="translate(-1532 -83.69)"/><path class="cls-20" d="M1709,765s18-17,20-37,13-27,13-27-11,23-9,37S1709,765,1709,765Z" transform="translate(-1532 -83.69)"/><polygon class="cls-20" points="235 538.31 235 599.31 221 611.31 228 600.31 235 538.31"/><path class="cls-24" d="M1623,604l5,98s0-14-20-6-3-11-3-11S1626,667,1623,604Z" transform="translate(-1532 -83.69)"/><polygon class="cls-25" points="136 831.31 155 811.31 155 822.31 136 831.31"/><path class="cls-26" d="M1592,940l-18,23s-14,13-6,22,35,14,35,14,9-1,12-6c0,0-1-10,1-11s16-12,17-12,10-7,10-16l-2-4,4-8-2-16.11L1627,936l-6-6-11.4-6.71L1599,924l-2,13Z" transform="translate(-1532 -83.69)"/><path class="cls-26" d="M1677,935l1,7-2,2,3,32a91.76,91.76,0,0,1,22,11c12,8,18,12,19,12s28,4,39-3c0,0,4-17-1-21s-21-22-21-22l-4-13s-2-12-5-14-22-9-30-1c0,0-8,6-8,7S1688,941,1677,935Z" transform="translate(-1532 -83.69)"/><path class="cls-27" d="M1685,961l15-13s8,11,7,11S1685,961,1685,961Z" transform="translate(-1532 -83.69)"/><path class="cls-28" d="M1700,964c2,1,5,9,5,9l-5,2s-5-10-5-9S1700,964,1700,964Z" transform="translate(-1532 -83.69)"/><path class="cls-28" d="M1678,938c1,3,12,15,12,15s-4,3-5,2-7-13-7-13Z" transform="translate(-1532 -83.69)"/><path class="cls-27" d="M1637,952s-9-4-9-6l-7,10,2,2Z" transform="translate(-1532 -83.69)"/><path class="cls-28" d="M1641,933c-1,2-7,12-7,12v3h4l5-11Z" transform="translate(-1532 -83.69)"/><path class="cls-28" d="M1624,962a61.25,61.25,0,0,0-4,6l1,1,4-5Z" transform="translate(-1532 -83.69)"/><polygon class="cls-29" points="81 859.31 86 858.31 87 854.31 89 855.31 90 862.31 82 862.31 81 859.31"/><path class="cls-30" d="M1583,962s-8,11-1,16,18,4,18,4l15-16s-2-3-3-3-24,1-26-2S1583,962,1583,962Z" transform="translate(-1532 -83.69)"/><path class="cls-30" d="M1719,966s13,12,14,12,15,4,16-2-9-14-9-14Z" transform="translate(-1532 -83.69)"/><path d="M1703,937.69l19.25,6.51c1.83.62,2.62-2.28.79-2.9l-19.24-6.5c-1.83-.62-2.62,2.28-.8,2.89Z" transform="translate(-1532 -83.69)"/><path d="M1723.85,930.39A128.28,128.28,0,0,1,1712.74,945c-1.3,1.42.82,3.55,2.12,2.12a132.9,132.9,0,0,0,11.58-15.24c1.09-1.6-1.51-3.11-2.59-1.51Z" transform="translate(-1532 -83.69)"/><path d="M1714.18,948.75a30.37,30.37,0,0,1,14.81,3.94,1.5,1.5,0,0,0,1.52-2.59,33.63,33.63,0,0,0-16.33-4.35,1.5,1.5,0,0,0,0,3Z" transform="translate(-1532 -83.69)"/><path d="M1728,950.72l-8.79,8.78a1.5,1.5,0,1,0,2.12,2.13l8.79-8.79a1.5,1.5,0,1,0-2.12-2.12Z" transform="translate(-1532 -83.69)"/><path d="M1733.4,956.25a65.81,65.81,0,0,1-16.09-2.37,1.51,1.51,0,0,0-.8,2.9,68.87,68.87,0,0,0,16.89,2.47c1.93,0,1.93-3,0-3Z" transform="translate(-1532 -83.69)"/><path d="M1718,956.32l10.61-10.62a1.5,1.5,0,0,0-2.12-2.12l-10.61,10.62a1.5,1.5,0,0,0,2.12,2.12Z" transform="translate(-1532 -83.69)"/><path d="M1728.85,943.35l-4.39-2a1.62,1.62,0,0,0-1.16-.16,1.59,1.59,0,0,0-.9.69,1.56,1.56,0,0,0-.15,1.16,1.49,1.49,0,0,0,.69.9l4.39,2a1.67,1.67,0,0,0,1.16.15,1.5,1.5,0,0,0,1-1.85,1.47,1.47,0,0,0-.69-.89Z" transform="translate(-1532 -83.69)"/><path d="M1592.36,957.7l14.08-3.33c1.88-.45,1.08-3.34-.8-2.9l-14.08,3.34c-1.88.44-1.08,3.34.8,2.89Z" transform="translate(-1532 -83.69)"/><path d="M1596.36,945.67c.38.25.75.5,1.11.77l.49.36c.09.06.24.18.08.05l.26.21c.69.55,1.36,1.12,2,1.72a34.42,34.42,0,0,1,3.54,3.9,1.49,1.49,0,0,0,2.12,0,1.54,1.54,0,0,0,0-2.12,34.22,34.22,0,0,0-8.08-7.48,1.5,1.5,0,0,0-2.05.54,1.54,1.54,0,0,0,.53,2Z" transform="translate(-1532 -83.69)"/><path d="M1597,944.77l12.88-3.4a1.53,1.53,0,0,0,1.1-1.45v-.06a1.54,1.54,0,0,0-1.1-1.45,1.6,1.6,0,0,0-1.36.18,1.57,1.57,0,0,0-.69,1.7l0,.06c.55,1.84,3.45,1.06,2.89-.8l0-.06-.68,1.69-.22.1h-.8l.06,0-1.1-1.44v.06l1.1-1.44-12.88,3.4a1.5,1.5,0,0,0,.8,2.89Z" transform="translate(-1532 -83.69)"/><path d="M1600.76,959.11,1597,948.65a1.53,1.53,0,0,0-1.84-1,1.5,1.5,0,0,0-1.05,1.84l3.75,10.46a1.55,1.55,0,0,0,1.85,1.05,1.52,1.52,0,0,0,1-1.85Z" transform="translate(-1532 -83.69)"/><path d="M1594.82,951.31a27.83,27.83,0,0,1,12.33-4,1.54,1.54,0,0,0,1.5-1.5,1.51,1.51,0,0,0-1.5-1.5,31.33,31.33,0,0,0-13.85,4.39c-1.65,1-.14,3.6,1.52,2.6Z" transform="translate(-1532 -83.69)"/><path d="M1599.36,937.87l.55.37.26.19s.29.22.06,0c.35.28.68.56,1,.85a17.05,17.05,0,0,1,1.74,1.87s.22.29,0,.06l.16.21.38.54q.36.54.69,1.11c.21.38.41.77.6,1.16l.11.24.08.19.07.18c.05.12.1.25.14.37a1.54,1.54,0,0,0,1.85,1,1.52,1.52,0,0,0,1-1.85,18.62,18.62,0,0,0-7.26-9.17,1.51,1.51,0,0,0-2.05.54,1.53,1.53,0,0,0,.53,2Z" transform="translate(-1532 -83.69)"/><path class="cls-31" d="M1801,410l22.6-6.22S1809,411,1801,417C1801,417,1800,411,1801,410Z" transform="translate(-1532 -83.69)"/><path class="cls-31" d="M1601,399s-6.58-4.08-21.79-10c0,0,14.79,8,20.79,15A20.34,20.34,0,0,0,1601,399Z" transform="translate(-1532 -83.69)"/><path class="cls-32" d="M1713,436l-2,13-14.93,3.57s.75-3-.21-5A11.05,11.05,0,0,0,1695,443a4.74,4.74,0,0,0-1-6,2.77,2.77,0,0,0,0-4v-9l15-4,2,8Z" transform="translate(-1532 -83.69)"/><polygon class="cls-33" points="144 346.31 129.36 356.13 127 372.31 131.25 377.89 149.49 378.37 150 372.31 144 346.31"/><polygon class="cls-34" points="161.26 354.03 181.2 352.22 161.97 356.42 162.17 354.59 161.26 354.03"/><polygon class="cls-35" points="161.19 348.6 179.53 347.14 163.26 350.56 163.09 349.1 161.19 348.6"/><polygon class="cls-36" points="161.25 344.16 178.2 342.22 161.82 346.4 162.02 344.67 161.25 344.16"/><polygon class="cls-37" points="162.25 361.16 179.2 359.22 162.82 363.4 163.02 361.67 162.25 361.16"/><polygon class="cls-38" points="217 337.64 226 340.31 232 345.31 222 343.31 210.16 337.89 219.39 339.76 217 337.64"/><polygon class="cls-39" points="195.21 339.31 215 348.31 193.33 341.47 193 340.31 195.21 339.31"/><polygon class="cls-40" points="192.38 344.31 212 352.31 191.69 346.4 192.38 344.31"/><polygon class="cls-41" points="190.06 351.32 210 359.31 189.33 353.48 190.06 351.32"/><polygon class="cls-42" points="188.09 357.31 206 364.31 194 362.31 188.09 357.31"/><polygon class="cls-33" points="222 347.31 246 351.31 248.37 377.98 241 381.31 213 371.31 222 347.31"/><path d="M1664.69,231.44,1666,228s1-1-2,0Z" transform="translate(-1532 -83.69)"/></g><g id="rigole_2" data-name="rigole 2"><path class="cls-43" d="M1662.47,190.18s-6-3.44-7.93-9.2a38.4,38.4,0,0,1-2.16-9.71s.36-4.5,0-4.68.18-3.6-.18-5-.18-6.29.18-6.83,2.7-3.42,5-1.8a9.17,9.17,0,0,1,2.83,2.57,35.23,35.23,0,0,1,.77,5.7c0,2.16.72,18,2,26.81C1663,188,1664.47,190.92,1662.47,190.18Z" transform="translate(-1532 -83.69)"/><path class="cls-43" d="M1744,161.55s1.93-6.6,4.86-6.47c4.32.18,4.32,3.42,4.32,3.42s1.43,5,.18,8.81a55.51,55.51,0,0,0-2,8.64c0,.18-2,6.47-2.88,7.55,0,0-2.52,5.58-5.22,6.84s-2.7.72-2.7.72S1742.34,179,1744,161.55Z" transform="translate(-1532 -83.69)"/><path class="cls-44" d="M1744,168.39l.36-6.12a4.14,4.14,0,0,1,1.26-3.77c1.8-2,3.06-8.82,3.24-9.36s1.08-9.54,1.08-9.54.18-11.69-2.34-18.35c-.07-.17-1.44-6.48-2.88-8.27,0,0-1.08-5-2.34-6.48a10.78,10.78,0,0,0-3.24-5,21.78,21.78,0,0,1-4.68-5.94c0-.36-4.49-4.67-5.57-5s-9.36-3.78-10.8-4.32-8.27-3.42-11.51-2.16c0,0-7.74-.54-9.9-.18s-5.94,1.08-8.28,2.34c0,0-7.55,1.44-11.51,4.86,0,0-6.66,4.85-9,7s-8.09,15.12-9.17,18.89-4,12.6-3.06,18,1.26,11.51,1.44,12,4.5,10.62,4,14.21.18,14,.18,14l1.44,16.55.9.36-.72,4.86.72-.54.54,5.22s1.08-1.8,1.08-1.44v3.59s1.07-.72,1.07-.36a11.47,11.47,0,0,0,.36,1.62,9.55,9.55,0,0,1,.9,2.52v3.06s.36-1.08.9-.36a33.61,33.61,0,0,1,1.8,4.68s1.08-1.44,1.08-.9a10,10,0,0,0,1.62,3.06c.36.36.36,2,.9,2.7s2.52,2.34,2.88,2.88,2.34,3.41,2.34,3.41l.54-1.43s2.16,2.15,2.7,2.87a39,39,0,0,0,3.42,3.06l3.77,1.44a10.08,10.08,0,0,0,3.24,2c1.44.36,5.76,1.44,6.48,1.8s.9-.18,1.26-.18,2.7-.72,2.88,0,1.8,0,1.8,0,5.21-.9,6.11-1.08a59.86,59.86,0,0,0,5.58-2.52l4.86-1.44a5.9,5.9,0,0,1,1.08-1.44c.36-.18,4.5-2.52,4.5-2.52s2-3.41,2.34-4,2-3.78,2.34-4,2.51-2.16,2.51-2.16l1.08-4h.9a13.69,13.69,0,0,1-.18-2.52c.18.36.72,1.26.72,1.26l-.36-3.6s1.08-2.34,1.44-2.16.54,1.62.54,1.62l.54-3.78.36,1.44v-3.59l1.08.54-.72-2.7.9-3.6.54.9v-4l.54-3.24v-2.88l.9-2.7-.54-1.62h.9l-.54-2.51.18-2.52.18-2.7.36-3.06Z" transform="translate(-1532 -83.69)"/><path class="cls-1" d="M1661.29,159.3s.72,21.59,1.08,23.21,4.13,6.66,4.13,6.66l5.67,14.84,1.8-2.51-.36,3.95,1.62-.36v1.44l3.06.18-.36-4.31-.9-4.5,2.52-4s4-4.76,4.32-5.12,1.74,1.08,2.1,1.44.44,1.77,1.08,0,.75-.26.93-.62a1,1,0,0,0-.13-.82,24.73,24.73,0,0,0,4,0,14.42,14.42,0,0,1,4.09.08s3.06.9,3.06,1.44,1.44.18,1.8.18,1.44,1.8,1.62,1.62.72-1.8,1.08-2,2.88-1.08,3.06-1.26a17,17,0,0,1,3.59-.54c.72,0,1.8,0,1.8.54s1.26.79,1.26.79a14.11,14.11,0,0,1,2.52.9,1.18,1.18,0,0,0,1.44.9c1.08-.18,2.88-.36,3.06-.36s2.44.46,2.62.46,1.47,1.83,2,2a1.78,1.78,0,0,1,1,1c0,.18,1,1.12,1,2s-.7,7-.88,7.94-1.26,2.52-.36,4.32,2.16-2.16,2.16-2.16l2.88-9.53.9,1.62,2.15-5.4,6.12-9.36s3.42-12,3.42-12.77-.9-21.59-.9-21.59,1.22-6.83,1-7.91-1.58-8.28-1.58-8.82-.72-8.1-.72-8.1l-2.88-6.48-4.5-2.34-4.31-7s-3.24-3.06-3.24-3.6-2.34,1.44-2.34,1.44,1.08,3.42-.18,4.14-8.82,7.91-24.11,5.21-17.45-5.39-17.45-5.57-1.62-2.16-.36-2.88-6.84.18-8.1,1.26-5.76,4-5.76,4.32-1.62,3.59-2,4.49-3.59,11.16-3.41,11.88-1.08,5.76-1.08,6.12a20,20,0,0,1-.72,4.13,4.63,4.63,0,0,0-.18,2.7c.18.72,1.44,6.84,1.08,7.92S1662.1,157.6,1661.29,159.3Z" transform="translate(-1532 -83.69)"/><path class="cls-43" d="M1682,204.86l-.73,1.86a14.2,14.2,0,0,0,.7,2.09,2.06,2.06,0,0,1,.43,1.5c0,.9-.9,1.8-.72,2a5.92,5.92,0,0,0,1.08.54s.9.54.72,1.08a2.48,2.48,0,0,0-.18,2,1.48,1.48,0,0,0,1.44.9c.54,0,1.08.54,1.44,1.08s2.69,0,3.23.36,2.34,0,2.7,0,.18,1.8.54,1.8,2.52,0,2.52-.36,1.26-1.62,1.44-1.62a10.13,10.13,0,0,0,1.8.36c.72,0,1.44-.9,1.26-.9s-1.26-.54-1.26-.72.9-2.88.36-3.06-1.08-1.26-1.08-1.26a1.39,1.39,0,0,0-1.08-.18c-.54.18,7.36-13.62,6.82-13.62s-17.81-3.82-18.84-3.06c-2.86,2.11-3,2-3,2S1683.65,203.06,1682,204.86Z" transform="translate(-1532 -83.69)"/><path class="cls-43" d="M1720.36,206.37a3.93,3.93,0,0,1,0,1.75s-.34,1.21-.7,1.39.54,1,.54,1l-.18,1.62-.72.9.9,2-2.34.72,2.34.54s-1.62.54-1.8.36-1.8-.54-1.62-.36,1.62,1.26,1.8,1.44-.36,1.26-.54,1.26a3.34,3.34,0,0,1-1.26-.36c-.18-.18-1.26-2.16-1.26-1.8A18.68,18.68,0,0,1,1715,219s-.54-.54-.9-.18,0,.54-.54.9-1.62-.72-1.8-.9l-1.26-1.26-1.25,1.62a7.8,7.8,0,0,0-.18.9,1.42,1.42,0,0,1-1.08.9,1.89,1.89,0,0,1-1.08-.54l-.36-1.8,1.26-1.44-.36-1.8.36-1.44L1702,198.88a47.66,47.66,0,0,1,7.66-.66l8.45,4.38A8.82,8.82,0,0,0,1720.36,206.37Z" transform="translate(-1532 -83.69)"/><path class="cls-43" d="M1682.24,196s12.06-2.54,15.66-1.71,3.6.93,4.5.93a62.58,62.58,0,0,0,6.51-1.24c1.13-.28,15.26,3.64,15.93,3.64.29,0-3.09,9.14-9.13,11.25s-16.06-.21-21-.87c-2.59-.33-7.25-6.64-7.57-6.82C1685.06,200.07,1682.24,196,1682.24,196Z" transform="translate(-1532 -83.69)"/><path class="cls-45" d="M1694.84,152.74l-5.4-3.42s-13,.54-13.67.9-5.58,4.68-5.58,4.68l1.8,6.47s7.92,3.78,8.1,3.78h10.25l6.07-4.48S1697.72,154.72,1694.84,152.74Z" transform="translate(-1532 -83.69)"/><path class="cls-46" d="M1706.9,162.09s6.11,5,6.66,5.17c3.18.72,7.13,2.08,12.59,1.31,14-2,10.43-14.93,10.43-14.93s-4.49-8.82-17.63-7c0,0-9.35,1.08-13.13,7.74A20.43,20.43,0,0,0,1706.9,162.09Z" transform="translate(-1532 -83.69)"/><path class="cls-47" d="M1710,158.14s2.33-7,7-7.92a30.65,30.65,0,0,1,9.72,0s-5.76,1.44-6.84,3.06-8.28,5-8.28,5S1709.24,160.11,1710,158.14Z" transform="translate(-1532 -83.69)"/><path class="cls-47" d="M1711.57,163.87a7.15,7.15,0,0,1,2.88,0,13.13,13.13,0,0,0,1.62,1.8c.36.18,5,.54,5.58.72a17.4,17.4,0,0,1,2.16,1.26s-2.52.72-2.88.72-6.48-1.8-6.48-1.8Z" transform="translate(-1532 -83.69)"/><path class="cls-48" d="M1709.78,149.86c.53,0,3.23-2,3.77-2.34s5.4-.36,6.84-.72,6.48-.9,6.84-.9,3.6.72,5,2.16,4.5,4.14,4.5,4.14a15.55,15.55,0,0,0-4.67-1.44c-2.16-.18-5.58-.36-5.76-.36a22.42,22.42,0,0,0-6.3,0C1717.33,150.94,1709.78,149.86,1709.78,149.86Z" transform="translate(-1532 -83.69)"/><path class="cls-48" d="M1694.12,148.42a12.18,12.18,0,0,0-5.22-2.16c-2.51-.18-7.37-2.34-7.37-2.34s-3.78-.18-5,.36-4.5,1.44-5,2a21.9,21.9,0,0,0-2.7,3.06l-.72.9,1.26-.36-1.08,2.16s3.06-3.24,4.32-2.88c0,0,2.34-1.26,6.66-.36a39.08,39.08,0,0,1,6.84.36,35.27,35.27,0,0,0,7.55.18S1694.3,148.78,1694.12,148.42Z" transform="translate(-1532 -83.69)"/><path class="cls-49" d="M1715.89,149.68s8.64-1.62,9-1.62a12,12,0,0,1,2.7.54,5.77,5.77,0,0,0,.9.54l-3.24-.72Z" transform="translate(-1532 -83.69)"/><path class="cls-49" d="M1725.79,146.8c0,.18,3.6,2,3.6,2.16s.36.54.36.54l-.18-.9Z" transform="translate(-1532 -83.69)"/><polygon class="cls-49" points="194.69 62.57 198.83 64.91 198.83 65.27 198.65 64.91 194.69 62.57"/><path class="cls-49" d="M1733.7,150.4s1,.72,1,.9.43,1.62.43,1.62l-.14-1.8Z" transform="translate(-1532 -83.69)"/><polygon class="cls-49" points="156.19 64.73 152.95 64.37 155.28 65.27 156.19 64.73"/><polygon class="cls-49" points="185.87 64.55 182.63 64.19 184.97 65.09 185.87 64.55"/><polygon class="cls-49" points="150.43 62.75 148.09 61.49 145.75 62.03 147.91 62.03 150.43 62.75"/><path class="cls-49" d="M1679.37,146.62l-3.6.36A17.45,17.45,0,0,0,1679.37,146.62Z" transform="translate(-1532 -83.69)"/><polygon class="cls-49" points="138.73 64.73 142.33 61.49 142.87 61.67 142.33 61.85 138.73 64.73"/><path class="cls-50" d="M1653.48,169s.37-3.28,1.82-4.56,2-6.56,2-6.56-2.92-3.65-4-3.29-1.1,6.39-1.1,6.39a20.37,20.37,0,0,1,.55,4.56A9,9,0,0,0,1653.48,169Z" transform="translate(-1532 -83.69)"/><path class="cls-51" d="M1657.49,158s.37,4-1.46,6a8.7,8.7,0,0,0-2,4.74,7.61,7.61,0,0,1,.18-3.46c.55-1.65,1.46-2,1.82-2.92A10.11,10.11,0,0,0,1657.49,158Z" transform="translate(-1532 -83.69)"/><path class="cls-52" d="M1660.12,166.23l.72-.18s.36,3.06,0,4a32.45,32.45,0,0,1-1.8,3.24s-.36,1.26.54,1.8a2.3,2.3,0,0,1,1.08,1.26s.36.54-.54.54-3.42-1.8-3.78-4a7.07,7.07,0,0,0-1.08-3.06,3.13,3.13,0,0,1,1.8-1.26C1658.14,168.39,1659.76,166.23,1660.12,166.23Z" transform="translate(-1532 -83.69)"/><path class="cls-51" d="M1655.85,175.67a14,14,0,0,1,2.74,1.46,7.94,7.94,0,0,1,0,2.92c-.19.18-.55,1.09-.19,1.46s-.72.18-1.27-.55a5.29,5.29,0,0,1-.55-3.1A2.88,2.88,0,0,0,1655.85,175.67Z" transform="translate(-1532 -83.69)"/><path class="cls-51" d="M1654.45,154.39a2,2,0,0,0-1.1,0c-.36.18.74-1.1,2-1.47,0,0-1.47,1.1-.92.92S1655,154.57,1654.45,154.39Z" transform="translate(-1532 -83.69)"/><path class="cls-53" d="M1747.92,162.09s2.52-5,4.14-4,1.8,4.13,1.8,4.13-1.44,4.32-2,4.68-2.52.72-2.7,0S1747.92,162.09,1747.92,162.09Z" transform="translate(-1532 -83.69)"/><path class="cls-54" d="M1743.6,170.73s-.18-1.44.18-1.62,1.62-3.24,3.42-2.34.9,6.48.9,6.84-1.8,5-3.42,5.22-2.34-1.44-1.8-1.8a10.29,10.29,0,0,0,1.44-1.44A16.55,16.55,0,0,0,1743.6,170.73Z" transform="translate(-1532 -83.69)"/><path class="cls-55" d="M1749.46,173.07s-1.54-8-2.15-8.25,1.54.92,2.77,4.12S1749.46,173.07,1749.46,173.07Z" transform="translate(-1532 -83.69)"/><path class="cls-55" d="M1747.92,178.11s-2,1.44-1.44,2.16,1.08,2.69.54,3.41-1.8.36-2.34.18,1.26-.54.9-1.08-.9-1.44-.9-1.44l-1.62-1.25s.36-1.08,1.08-.9S1747.2,177.21,1747.92,178.11Z" transform="translate(-1532 -83.69)"/><path class="cls-56" d="M1743.06,184.76s1.44,1.08,1.26,2.16-2,.54-2,.54S1740.9,185.84,1743.06,184.76Z" transform="translate(-1532 -83.69)"/><path class="cls-57" d="M1750.08,176.67s-3.13,4.58-2.82,4.9a1.64,1.64,0,0,1-.19-2.51C1748.46,177.57,1747.92,178.83,1750.08,176.67Z" transform="translate(-1532 -83.69)"/><path class="cls-55" d="M1749.9,158.32s1.44-1.26,2.52-1.08c0,0,.36,0,.18-.54a2.68,2.68,0,0,0-1.08-1.26,4.82,4.82,0,0,0-1.8-.36,3.86,3.86,0,0,0-1.08.18s-.36.18-.18.36,1.08-.36,1.44,0,.36.72,0,.72S1749.54,158.32,1749.9,158.32Z" transform="translate(-1532 -83.69)"/><path class="cls-58" d="M1679.74,199.31l-.72-5.22,1.62-2.7,2.69-1.51s.46,2.19,1,2a7.1,7.1,0,0,1,2.23.21l1.26-1.08,4.69.19,2.7.72,2.16.54s3.78-.9,3.78-1.26-.18-2.7-.18-2.7l2.52.9v3.24l4.85-1.62s2.34-1.08,3.24-.36,1.8-2.27,2.16-1.19-1.08.9.54,1.44,4.14.18,4.68.54a10.9,10.9,0,0,1,2.52,2.45c.18.54,1.26,4.5.9,4.5s-3-5.32-3-5.32l-7.48-2-7.68,3-2.77-1-3,1s-4.88-1.73-6.14-1.19a2.11,2.11,0,0,1-2,0h-3l-7,1,1,6.31Z" transform="translate(-1532 -83.69)"/><path class="cls-58" d="M1668.21,205.45c.18.9,2.52,3.42,2.52,3.42l4.14-2.52-3.06,4.5,2.16,2.7s1.44-2.34,2.34-2.16-.18,5-.18,5l4.32-.18s.36,3.42.72,3.24,3.06-.72,3.06-.72l-2.88,3.42s1.44,2.34,2,2.34,1.44-.36,1.8-.36.54.72.54.72l3,1.07s1.26,2.16,1.8,2.16a22,22,0,0,1,3.06.9l6.12,2.34,5.76-.72s4-1.26,4.32-1.26,6.11-2,6.11-2l.18-2.69s.54-2.52,1.8-1.62,3.78-1.62,3.78-1.62l-.54-2.16a19.67,19.67,0,0,1,.9-3.06,13.79,13.79,0,0,0,3.06-1.26c.36-.36,2.88-3.06,3.42-2.34s3.6-2.34,3.6-2.34l1.25-3.24s2.16-2.52,2.52-3.06,2.52-4.49,2.52-4.49l1.08-.9-2.52,8.63-3.24,6.66-2.33,4.5a38.25,38.25,0,0,1-3.42,4.32c-.9.72-6.48,5.21-7.38,6.11s-8.82,3.78-8.82,3.78l-8.27,2.16-7.92-.72-6.84-2.7-6.47-4.68-3.6-3.59-5.94-6.48-1.8-3.78-2.88-4.14Z" transform="translate(-1532 -83.69)"/><path class="cls-59" d="M1685.31,153.9s-6.77-4.15-12.06,3.16C1673.25,157.06,1678.54,152.74,1685.31,153.9Z" transform="translate(-1532 -83.69)"/><path class="cls-60" d="M1690.34,153.28s-12-4.14-17.09,4.14C1673.25,157.42,1677.21,150.22,1690.34,153.28Z" transform="translate(-1532 -83.69)"/><path class="cls-61" d="M1680.09,152.2s-8.46,1.8-7.38,4.32c0,0,.36.36.54,0S1674.69,153.46,1680.09,152.2Z" transform="translate(-1532 -83.69)"/><path class="cls-62" d="M1666.77,116.93s4.68-7.73,7.92-7.55,4.14,5.57,4.14,5.57-2,1.44-1.26,2a29.64,29.64,0,0,1,2.7,3.06l-.72,1.44a22.94,22.94,0,0,1-2,2.7c-.72.72-3.42,2.34-2.34,3.24s3.06,2.16,2.16,2.88-4,3.06-4.68,3.78-10.07,3.05-10.07,3.05v28.43l5.21,22.49,4.86,4.68-.54,11.33-2.88-7.73c-.72-1.26-2.88-7.2-2.88-7.2l-1.07-1.44-3.24-5-.54-26.08s-.9-14.4-.9-14.94S1663.54,120.53,1666.77,116.93Z" transform="translate(-1532 -83.69)"/><path class="cls-63" d="M1670.91,121.07l4.32-5.22,1.8-2.15-2.7,1.07.54-2.33.36-1.08-.54-2a11.68,11.68,0,0,0-7.92,7.55c-2.15,6.3-.9,8.46-.9,8.46l3.06-2Z" transform="translate(-1532 -83.69)"/><path class="cls-64" d="M1693,117.29l2.88,5.4h-3.42L1693,125h2.88l-.36,2a9,9,0,0,0,2.52-.54,5.7,5.7,0,0,1,2.88-.72c.54.18,7.38.36,7.38.36s2.33-2.52,2.69-2.34a37.07,37.07,0,0,1,2.7,2.88s-.54-3.6.54-3.42,4.14,2.34,4.14,2.34.9-3.24,0-3.78-4.68-3.06-4.86-3.6-1.8-1.8-1.8-1.8-5.21,3.42-10.25,2-6.66-3.24-6.66-3.24S1690.7,115.67,1693,117.29Z" transform="translate(-1532 -83.69)"/><path class="cls-63" d="M1727.77,120.53l-.72-2.52,1.62-1.26,1.8.54.9-2s0-1.25.36-1.07a15.73,15.73,0,0,1,1.79,1.79l2.16,2.7,2.52.72-1.26,1.8.9.9-1.44,4s3.6,3.78,4,4.68.36,6.11.36,6.11l-2.34-1.79-4-4.68s-2.51-1.62-2.16-2.34a6.71,6.71,0,0,0,.72-2.88,10.87,10.87,0,0,0-1.25-2.52C1731,121.79,1727.77,120.53,1727.77,120.53Z" transform="translate(-1532 -83.69)"/><path class="cls-19" d="M1715.17,117.29l-3.42-.9,2,10.26s-4.31-.36-2.88,3.06,2.34,5,2.34,5l13.86,1.26a9.37,9.37,0,0,1,6.65,4.49c2.52,4.14-1.08-4.85-3.41-6.83s2-5.58,2-5.58l.72-2.88-1.25-2.52-4-2.16-.72-2.52,1.62-1.26,1.8.54.9-2,.36-1.07s-.36-2.34-.72-2.52-3.06-3.42-3.06-3.42l-1.62-1.62-1.8,2,1.8,2.16-1.62,1.08-4.86,2.51S1717,117.65,1715.17,117.29Z" transform="translate(-1532 -83.69)"/><path class="cls-60" d="M1731.72,157s-.7-4.18-13.33-4.58c0,0-5.09.4-7.55,2.83,0,0,3.51-3.37,13-2.16A14.09,14.09,0,0,1,1731.72,157Z" transform="translate(-1532 -83.69)"/><path class="cls-65" d="M1694.46,188.41s-4.12-.7-5-3.44,2.16-3.09,2.16-3.09,3.78,0,6.12,1.72,7.92.85,7.92.85,4-3.42,6.65-1.88,2.34,3.08,2.34,3.08a3.73,3.73,0,0,1-2.7,2.06,48.67,48.67,0,0,1-5.93.34l-2.16,1-3.78-.34-2.34-1.54-2.52-.52Z" transform="translate(-1532 -83.69)"/><path class="cls-66" d="M1706,188s3.42-2.52,5.39-1.62-2,1.8-2,1.8A12.44,12.44,0,0,1,1706,188Z" transform="translate(-1532 -83.69)"/><path class="cls-66" d="M1692.5,187.64s-1.83-2.46,1.33-2,3.89,1.5,3.89,1.5-3.06-.54-3.06.72S1692.5,187.64,1692.5,187.64Z" transform="translate(-1532 -83.69)"/><path class="cls-67" d="M1696.64,186.74s-3.24-2.52-3.78-.18c0,0,.18.54.9,0S1696.64,186.74,1696.64,186.74Z" transform="translate(-1532 -83.69)"/><path class="cls-67" d="M1706.54,187.64s3.59-1.8,4.49-1.26-.36.9-.36.9S1710.49,186.92,1706.54,187.64Z" transform="translate(-1532 -83.69)"/><path class="cls-68" d="M1701.14,158.14l-1.44-6.64s1.8-.2,2.16-.2a37.8,37.8,0,0,1,4,2.61l2.52,17.3,2.33,7,1.62,1.21-6.65,4.63-1.62,1.4-4.5-1.2-3.06-1.68,4.86-19.25Z" transform="translate(-1532 -83.69)"/><path class="cls-64" d="M1697.6,157.24c0,.24-.24,15.65-.24,15.65v5.58l-2.34.9-2.57-4.62-.31-1.71Z" transform="translate(-1532 -83.69)"/><path class="cls-69" d="M1697.9,158.32c0,.18.45,11.15.45,11.15l1.07,2.16,1.36-2.88-.91-10.61-.91-2Z" transform="translate(-1532 -83.69)"/><path class="cls-70" d="M1698.8,158.32c0,.18.45,11.15.45,11.15l1.07,2.16,1.36-2.88-.91-10.61-.91-2Z" transform="translate(-1532 -83.69)"/><path class="cls-71" d="M1699.52,158.32c0,.18.31,11.15.31,11.15l.73,2.16.94-2.88-.63-10.61-.62-2Z" transform="translate(-1532 -83.69)"/><polygon class="cls-72" points="134.78 88.46 139.62 86.86 144.73 92.21 145.75 98.37 139.88 95.43 134.78 95.96 134.78 88.46"/><polygon class="cls-73" points="136.21 88.26 140.43 86.86 144.86 91.54 145.75 96.93 140.65 94.36 136.21 94.82 136.21 88.26"/><polygon class="cls-62" points="137.47 88.48 140.89 87.4 144.49 91 145.21 95.13 141.07 93.15 137.47 93.51 137.47 88.48"/><path class="cls-62" d="M1693.58,147.16a53.86,53.86,0,0,1,4.5,4l-1.62,3.24,2.7-2.7,4.5-.54,3.42,4.32a46.88,46.88,0,0,1-1.8-4.5c.18,0,7.73-4,7.73-4s-6.29,1.62-6.65,2Z" transform="translate(-1532 -83.69)"/><path class="cls-74" d="M1676,161.83l6.83,1.8,7.56-.54,3.06-2.34a27.73,27.73,0,0,1-2.34,2.52c-.36.18-8.46.72-8.46.72Z" transform="translate(-1532 -83.69)"/><polygon class="cls-62" points="209.44 67.25 209.44 87.04 203.68 103.95 198.29 107.91 198.65 113.48 199.54 115.1 201.7 109.71 207.95 99.76 211.6 87.04 209.44 67.25"/><polygon class="cls-71" points="165.72 99.98 166.44 97.67 168.24 96.62 168.42 90.09 168.96 90.73 169.5 96.83 172.74 98.72 172.92 100.89 170.94 102.51 167.7 102.69 165.72 99.98"/><path class="cls-71" d="M1699,183.86s-5.58-1.44-6.84-1.62-2.68,1.14-2.68,1.14.16-1.14,1.78-1.68S1699,183.86,1699,183.86Z" transform="translate(-1532 -83.69)"/><path class="cls-71" d="M1707.8,182.24s3.22-.61,3.41-.39a16.2,16.2,0,0,0,2.34.92s.18.53-1.62.53a23.14,23.14,0,0,0-4,.17c-.72.18-4,1.77-4,1.77Z" transform="translate(-1532 -83.69)"/><path class="cls-75" d="M1681.87,196.33c.37,0,5.38,8.09,9.52,9.59,7.29,2.64,22.48,2.33,22.48,2.33s6.75-3.93,7.92-6.17c.9-1.76,4.89-4.79,4.89-4.79l-10.17-.62c-6.76-2.26-12.73-.34-13.73-.34,0,0-7.47-2.61-13.94-1Z" transform="translate(-1532 -83.69)"/><path class="cls-76" d="M1689.84,197.78l-7.91-1.32s6.07,6.33,7.37,6.72c1.9.57,1.63,1.7,2.47,1.33C1693.18,203.91,1689.84,197.78,1689.84,197.78Z" transform="translate(-1532 -83.69)"/><path class="cls-76" d="M1715.73,204.75l11-7.51s-7.88,2.23-9,1.53S1715.73,204.75,1715.73,204.75Z" transform="translate(-1532 -83.69)"/><path class="cls-77" d="M1688.84,197.78s1.24,5.08,1,6.43c-.41,2.36,19.92,2.61,24.3,2.64a1.23,1.23,0,0,0,1.13-.76c.8-2,2.86-7.26,2.45-7.32C1710.75,197.78,1692.82,197.28,1688.84,197.78Z" transform="translate(-1532 -83.69)"/><path class="cls-78" d="M1690.52,199.18v6.37l.18-2.79.73,2.24-.56-2.24c9.84,2.52,9.4,3,23.87.75a4.06,4.06,0,0,1,.35,1.38v-1.38h.35a16.83,16.83,0,0,1-.18,2.6,13.47,13.47,0,0,0,.38-3.88,7.25,7.25,0,0,0-.37-1.66,11,11,0,0,1,0,2.49s-13.31,2.61-23.84-1.11l-.56-.67s.38-.07.2.67l-.18-.28S1690.52,201.41,1690.52,199.18Z" transform="translate(-1532 -83.69)"/><path class="cls-79" d="M1663.86,154.42s5.45,0,8.52,2.81C1672.38,157.23,1665.23,154.14,1663.86,154.42Z" transform="translate(-1532 -83.69)"/><path class="cls-80" d="M1663.17,157.7l8.42.47A20.9,20.9,0,0,0,1663.17,157.7Z" transform="translate(-1532 -83.69)"/><path class="cls-81" d="M1671.59,159.28l-7.73,2.08S1669,161.7,1671.59,159.28Z" transform="translate(-1532 -83.69)"/><path class="cls-82" d="M1732.93,157.19a9.39,9.39,0,0,1,6.28-2.79S1734.07,157,1732.93,157.19Z" transform="translate(-1532 -83.69)"/><path class="cls-83" d="M1733.79,158.59l6.81-1.3S1738.23,156.65,1733.79,158.59Z" transform="translate(-1532 -83.69)"/><path class="cls-84" d="M1733.94,160.68h6.66S1740.07,161.61,1733.94,160.68Z" transform="translate(-1532 -83.69)"/><polygon class="cls-74" points="146.11 77.03 152.45 77.26 158.93 75.45 152.9 77.71 146.11 77.03"/><polygon class="cls-74" points="182.17 76.45 188.42 77.54 195.09 76.63 188.8 78.05 182.17 76.45"/><path class="cls-76" d="M1688.84,199.89c-.68,0,10,4.3,30.14.86l-.79,1.43s-12.91,3.74-29.35-.57Z" transform="translate(-1532 -83.69)"/><path class="cls-74" d="M1673.69,164.38l7.17,1.88,7.92-.56,3.21-2.46a30.25,30.25,0,0,1-2.45,2.65c-.38.18-8.87.75-8.87.75Z" transform="translate(-1532 -83.69)"/><path class="cls-74" d="M1713.18,161.91c.39.39,6.09,2.85,6.09,2.85l9.62-.39,7.24-5.24-7.32,4.62-9.7.55Z" transform="translate(-1532 -83.69)"/><path class="cls-85" d="M1673.49,158.73s8.41-4.93,15.71-1.13l1.91,1.45-1.39,0S1685.55,161.66,1673.49,158.73Z" transform="translate(-1532 -83.69)"/><path class="cls-86" d="M1672.36,161.67s12.77,2.79,21.94.6A28.93,28.93,0,0,1,1672.36,161.67Z" transform="translate(-1532 -83.69)"/><path class="cls-87" d="M1685.24,156.77a5,5,0,0,1,.27,1.57c0,.92-.11,1.9-.92,2a7.64,7.64,0,0,1-1.92,0,8.41,8.41,0,0,1-2.41-.32,2,2,0,0,1-.85-1.89,5.12,5.12,0,0,1,.49-1.88" transform="translate(-1532 -83.69)"/><circle cx="150.72" cy="74.79" r="0.8"/><polygon class="cls-6" points="149.35 73.75 149.75 73.77 150.26 74.18 149.54 74.16 149.35 73.75"/><path class="cls-6" d="M1682.56,157.28s.21-.39.79,0,0,.2,0,.2S1682.34,157.68,1682.56,157.28Z" transform="translate(-1532 -83.69)"/><path class="cls-6" d="M1683.71,158.91l-.59-.61.61-.38S1684.11,158.72,1683.71,158.91Z" transform="translate(-1532 -83.69)"/><path class="cls-61" d="M1721.85,154.75s8.92,1.57,7.89,4.25c0,0-.37.39-.57,0S1727.55,155.87,1721.85,154.75Z" transform="translate(-1532 -83.69)"/><path class="cls-85" d="M1730.92,158.5s-9-4.86-16.66-1l-1.82,1.57.93.31S1719.71,160.94,1730.92,158.5Z" transform="translate(-1532 -83.69)"/><path class="cls-86" d="M1732.82,160.88s-12.65,3.24-21.89,1.38A28.94,28.94,0,0,0,1732.82,160.88Z" transform="translate(-1532 -83.69)"/><path class="cls-87" d="M1718.3,156.61a4.68,4.68,0,0,0-.28,1.55c.06,2.53,1.86,2,3.58,1.89s2.41.32,2.66-2.11a2.62,2.62,0,0,0-.42-1.53" transform="translate(-1532 -83.69)"/><circle cx="1721.34" cy="158.32" r="0.8" transform="translate(-1536.57 -21.83) rotate(-2.06)"/><path class="cls-6" d="M1720.78,157.12s-.22-.39-.8,0,0,.19,0,.19S1721,157.51,1720.78,157.12Z" transform="translate(-1532 -83.69)"/><path class="cls-6" d="M1719.64,158.75l.57-.61-.61-.38S1719.23,158.57,1719.64,158.75Z" transform="translate(-1532 -83.69)"/><path class="cls-1" d="M1673,161.07s13.37,2.79,15.56,1.2-.2-1-.2-1-13.56.4-14.16-.6S1673,161.07,1673,161.07Z" transform="translate(-1532 -83.69)"/><path class="cls-1" d="M1712.87,161.4s13.51,2.45,15.45.25-.35-1.17-.35-1.17-13.16,1.6-13.91.47S1712.87,161.4,1712.87,161.4Z" transform="translate(-1532 -83.69)"/><path class="cls-60" d="M1712.3,158.87s6.6-3.82,13.75-1.71a18.74,18.74,0,0,1,4.59,2.41l-1.22-1.54-2.86-1.35v-.77l-.62.58-.81-.38v-.58l-.41.19-.41-1-.2.77-1.23-.19.82-.58-2,.58-1-.77v.77l-2,.19-1.84.58-2.25.57Z" transform="translate(-1532 -83.69)"/><path class="cls-60" d="M1691.4,159s-7.68-4-14.47-1.88a17.5,17.5,0,0,0-4.37,2.41l1.17-1.54,2.71-1.35v-.77l.58.58.78-.38v-.58l.39.19.39-1,.19.77,1.17-.19-.78-.58,1.94.58,1-.77v.77l1.94.19,1.75.58,2.21.72Z" transform="translate(-1532 -83.69)"/><path class="cls-88" d="M1676.75,161.67s-2.39-.2-3.19-1.6,1.39-.4,1.39-.4,6.55,1.84,7.24,1.73,1.34.87.54.87S1676.75,161.67,1676.75,161.67Z" transform="translate(-1532 -83.69)"/><path class="cls-88" d="M1726.63,161.78s2.26-.21,3-1.71-1.32-.43-1.32-.43-6.14,2-6.84,1.85-1.27.93-.52.93S1726.63,161.78,1726.63,161.78Z" transform="translate(-1532 -83.69)"/><path class="cls-89" d="M1682.54,161.87s-7,.4-8.38-2c0,0-.6-.4.4-.2a17.82,17.82,0,0,0,7.58,1.8S1683.53,161.47,1682.54,161.87Z" transform="translate(-1532 -83.69)"/><path class="cls-89" d="M1721.09,161.48s6.69,1,8.27-2.08c0,0,.62-.49-.36-.29,0,0-4,2.38-7.49,1.87C1721.51,161,1720.17,160.88,1721.09,161.48Z" transform="translate(-1532 -83.69)"/><path class="cls-60" d="M1729.7,158.92l-4,1-3.76.11-6.19-.11a16.16,16.16,0,0,0-2.41-.45s2.19-.4,2.19-.4c1.74.87,6.41.48,6.41.48l3.85-.16Z" transform="translate(-1532 -83.69)"/><path class="cls-60" d="M1673.74,158.93l4.12,1,6.89.64,3-.64a5.64,5.64,0,0,1,1.76-.64,5.15,5.15,0,0,0,1.6-.16c-.64-.32-1-1-2.4,0-1.65,1.13-5.61.8-5.61.8l-4.17-.32Z" transform="translate(-1532 -83.69)"/><path class="cls-75" d="M1689.3,203.18s13,7.58,27.55,1.13l.75,1.61-4.19,1.4-13.49.46c-7.75-.62-9.69-1.78-9.83-1.92l-2.42-2.42Z" transform="translate(-1532 -83.69)"/><path class="cls-78" d="M1702.43,202.21l.61-4.43h1.26c0,.42,1,5.45.47,4.43C1704.55,201.79,1702.43,202.21,1702.43,202.21Z" transform="translate(-1532 -83.69)"/><path class="cls-76" d="M1702.62,202.35l.48-4.57h1s.72,4.61.36,4.56A17,17,0,0,0,1702.62,202.35Z" transform="translate(-1532 -83.69)"/><path class="cls-78" d="M1699.29,198.62c.18-1.64-.34-.46-.53,3.24Z" transform="translate(-1532 -83.69)"/><path class="cls-78" d="M1707.88,202.45a9.9,9.9,0,0,0-.72-4.13Z" transform="translate(-1532 -83.69)"/><path class="cls-90" d="M1718.26,188s8.34,2.9,9.32,6.36-1,12.47-1,12.47,1.37-10.14-.12-12.3S1718.26,188,1718.26,188Z" transform="translate(-1532 -83.69)"/><path class="cls-91" d="M1726,207.68l.86-1.4s1.31-7.92-.14-11.29-8.68-7.23-8.68-7.23,7.13,9.91,7.13,11.77S1726,207.68,1726,207.68Z" transform="translate(-1532 -83.69)"/><path class="cls-90" d="M1676.54,207.16s-4.27-7.73-2.69-11,8.5-8.88,8.5-8.88-7.19,6.92-7.53,9.53S1676.54,207.16,1676.54,207.16Z" transform="translate(-1532 -83.69)"/><path class="cls-91" d="M1677.77,207.77l-1.12-1.09s-2.32-6.31-1.7-9.94,7.14-9.16,7.14-9.16-4.81,11.38-4.32,13.17S1677.77,207.77,1677.77,207.77Z" transform="translate(-1532 -83.69)"/><path class="cls-62" d="M1740.07,170.35s-2.66-6-8.77-2.26-14.65,1.67-16.4,2.94,0,11.06,2.67,11.65,13.42,2.95,15.44,2S1740.47,177.13,1740.07,170.35Z" transform="translate(-1532 -83.69)"/><path class="cls-73" d="M1740.28,171l-2.61,7.22s-19.44,1-21.85-.62-1.94-6.94-.92-7.3,9.83.69,11.55-.78,8-3.88,9.4-3.46C1737.65,166.6,1738.17,167.12,1740.28,171Z" transform="translate(-1532 -83.69)"/><path class="cls-62" d="M1666.23,170s2.37-6.15,8.71-2.69,14.8,1,16.62,2.14.57,11.05-2.1,11.77-13.33,3.6-15.41,2.78S1666.17,176.81,1666.23,170Z" transform="translate(-1532 -83.69)"/><path class="cls-73" d="M1666.05,170.7l3,7.09s19.59.07,21.93-1.68,1.6-7,.56-7.34-9.85,1.17-11.65-.22-8.2-3.49-9.62-3C1668.47,166.16,1668,166.71,1666.05,170.7Z" transform="translate(-1532 -83.69)"/></g></svg>