<svg xmlns="http://www.w3.org/2000/svg" xmlns:xlink="http://www.w3.org/1999/xlink" viewBox="0 0 325 920.14"><defs><style>.cls-1{fill:#e29a7a;}.cls-2{fill:#727272;}.cls-3{fill:url(#Dégradé_sans_nom_22);}.cls-4{fill:url(#Dégradé_sans_nom_11);}.cls-5{fill:#936148;}.cls-6{fill:#32292f;}.cls-7{fill:#9a906b;}.cls-8{fill:#494147;}.cls-9{fill:#353126;}.cls-10{fill:#604e16;}.cls-11{fill:#787049;}.cls-12{fill:#544314;}.cls-13{fill:#6d5b18;}.cls-14{fill:none;}.cls-15{fill:#837d5a;}.cls-16{fill:#a29873;}.cls-17{fill:#e5e0db;}.cls-18{fill:#9c371e;}.cls-19{fill:#42290a;}.cls-20{fill:#3b3432;}.cls-21{fill:#d8d6d0;}.cls-22{fill:#e4966d;}.cls-23{fill:#5e473a;}.cls-24{fill:url(#Dégradé_sans_nom_48);}.cls-25{fill:url(#Nouvelle_nuance_de_dégradé_1);}.cls-26{fill:#b27b67;}.cls-27{fill:#dbc8cc;}.cls-28{fill:#513b28;}.cls-29{fill:#765835;}.cls-30{fill:#be6457;}.cls-31{fill:#e8bbc2;}.cls-32{fill:#b64d3e;}.cls-33{fill:#a33521;}.cls-34{fill:#933427;}.cls-35{fill:#e8ae7d;}.cls-36{fill:#cd8960;}.cls-37{fill:#9f4e31;}.cls-38{fill:#a85650;}.cls-39{fill:#a35f5d;}.cls-40{fill:#af655e;}.cls-41{fill:#42210e;}.cls-42{fill:#443b36;opacity:0.49;}.cls-43{fill:#4a361c;}.cls-44{fill:#191805;}.cls-45{fill:#dddadb;}.cls-46{fill:#d8a391;}.cls-47{fill:#1f1504;}.cls-48{fill:#e09777;}.cls-49{fill:#dda187;}.cls-50{fill:#d8aa9a;}.cls-51{fill:#dd9c83;}.cls-52{fill:#db967b;}.cls-53{fill:#c98b75;}.cls-54,.cls-55{fill:#2d120a;}.cls-54{opacity:0.76;}.cls-56{fill:url(#Dégradé_sans_nom_82);}.cls-57{fill:#e09b80;}.cls-58{fill:#dd9985;}.cls-59{fill:#e09e85;}.cls-60{fill:#e29b7f;}.cls-61{fill:#e09c85;}.cls-62{fill:url(#Dégradé_sans_nom_30);}.cls-63{fill:url(#Dégradé_sans_nom_31);}.cls-64{fill:#d89479;}.cls-65{fill:#c68771;}.cls-66{fill:#ce9580;}</style><linearGradient id="Dégradé_sans_nom_22" x1="1539.29" y1="411.38" x2="1686.73" y2="453.15" gradientUnits="userSpaceOnUse"><stop offset="0" stop-color="#e29a7a"/><stop offset="0.56" stop-color="#d08d6d"/><stop offset="1" stop-color="#c88766"/></linearGradient><linearGradient id="Dégradé_sans_nom_11" x1="1720" y1="446.5" x2="1849" y2="446.5" gradientUnits="userSpaceOnUse"><stop offset="0" stop-color="#b27654"/><stop offset="0.27" stop-color="#b87a59"/><stop offset="0.63" stop-color="#c98766"/><stop offset="1" stop-color="#e29a7a"/></linearGradient><linearGradient id="Dégradé_sans_nom_48" x1="1687.65" y1="145.16" x2="1674.25" y2="163.49" gradientUnits="userSpaceOnUse"><stop offset="0" stop-color="#d89479"/><stop offset="1" stop-color="#e29a7a"/></linearGradient><linearGradient id="Nouvelle_nuance_de_dégradé_1" x1="1709.65" y1="164.38" x2="1729.2" y2="144.83" xlink:href="#Dégradé_sans_nom_48"/><linearGradient id="Dégradé_sans_nom_82" x1="1693.89" y1="165.52" x2="1709.87" y2="165.52" gradientUnits="userSpaceOnUse"><stop offset="0" stop-color="#e29a7a"/><stop offset="0.37" stop-color="#dc9679"/><stop offset="1" stop-color="#d89479"/></linearGradient><linearGradient id="Dégradé_sans_nom_30" x1="1709.18" y1="155.8" x2="1712.23" y2="155.8" gradientUnits="userSpaceOnUse"><stop offset="0" stop-color="#a8042f"/><stop offset="0.05" stop-color="#b22b4e"/><stop offset="0.1" stop-color="#bc4f6b"/><stop offset="0.16" stop-color="#c47086"/><stop offset="0.22" stop-color="#cb8c9c"/><stop offset="0.29" stop-color="#d1a2ae"/><stop offset="0.38" stop-color="#d6b3bb"/><stop offset="0.48" stop-color="#d9bfc5"/><stop offset="0.62" stop-color="#dbc6ca"/><stop offset="1" stop-color="#dbc8cc"/></linearGradient><linearGradient id="Dégradé_sans_nom_31" x1="1686.65" y1="154.96" x2="1690.43" y2="154.96" gradientUnits="userSpaceOnUse"><stop offset="0" stop-color="#dbc8cc"/><stop offset="0.39" stop-color="#dbc6cb"/><stop offset="0.53" stop-color="#dabfc5"/><stop offset="0.63" stop-color="#d9b4bc"/><stop offset="0.71" stop-color="#d7a3af"/><stop offset="0.78" stop-color="#d48d9d"/><stop offset="0.85" stop-color="#d17188"/><stop offset="0.9" stop-color="#cd516f"/><stop offset="0.95" stop-color="#c92d52"/><stop offset="1" stop-color="#c40432"/><stop offset="1" stop-color="#c4002f"/></linearGradient></defs><title>mehdi main dans le dos neutre</title><g id="Calque_6" data-name="Calque 6"><path class="cls-1" d="M1733,200.92l1.69,17.28,7.94,19.41s-10.81,24.46-24,24.19-35.13,5.05-46.1-4.78-8.45-21.27-8.45-21.27l6.93-18.88-1.19-10.1Z" transform="translate(-1532 -80)"/></g><g id="Calque_5" data-name="Calque 5"><polygon class="cls-2" points="148.5 855.5 150.5 835.5 199.5 836.5 188.5 845.5 155.5 859.5 148.5 855.5"/><path class="cls-2" d="M1607,917l-3,13,29,9s7-6,8-6-3-14-3-14Z" transform="translate(-1532 -80)"/><path class="cls-3" d="M1550,373.56s40.9,15.63,48.44,21.21l-2.15,8.93s16.1,40.95,24.71,44.3l42-3,16.14-19,28-8.93,7.53,1.12,4.31,17.86-1.08,10.05s-3.23,8.93-4.3,10-32.3,11.17-32.3,11.17-10.76,2.23-12.91,2.23S1603.08,472,1602,472s-47.69-48.21-47.69-48.21Z" transform="translate(-1532 -80)"/><path class="cls-4" d="M1792.54,411.39c-1.5,0,1.46,9.61,1.46,9.61l-16.08,29.69-21.06-14-21.06,4.19,1.31,4.19,10.53,2.8-21.06,2.79-6.58,7v20.95L1749,494l34.22-8.38,14.48-15.37L1849,426.94,1839.79,399S1799.27,411.2,1792.54,411.39Z" transform="translate(-1532 -80)"/><path class="cls-5" d="M1785.14,445.26S1797.61,418.59,1808,416l-13.41,5.25L1773,456S1783.57,442.62,1785.14,445.26Z" transform="translate(-1532 -80)"/><path class="cls-5" d="M1596,409s-17,0-20-4c0,0,4,7,18,6l10,3Z" transform="translate(-1532 -80)"/><path class="cls-6" d="M1664,226s-31,21-74,34c0,0-14,14-24,41s-34,70-34,70,70,24,71,31-15,38-14,49,6,36,3,43-5,35-2,44,1,15,1,15,197,11,201,11,10-3,10-3,1-75-5-87-8-62-8-62,40-5,68-21c0,0-26-65-30-81s-15-38-22-41-61-34-61-34-18,42-60,15C1684,250,1665,239,1664,226Z" transform="translate(-1532 -80)"/><path class="cls-7" d="M1685,661c0,1-2,66-5,68s-12,32-13,34-8,27-8,29-4,92-4,96,3,22,0,25l-15,15s-12,6-13,6-13-9-14-10-8-2-8-2l-14-18,2-17-8-11,10-15s-6-103-3-107l-12-21-2-19,9-27,7-30-2-18,3-16,3-18-1-21-4,1-2-3-2-14,5.06-14.47S1642,551,1652,556c0,0,127,9,140,8l5.34-.06L1795,580l-4,9v17c0,1-3,4-3,4l4,74s-5,27-11,38l-1,11-13,19s-4,38-4,41-4,12-4,12-5,37-5,41-12,55-13,56,0,17,0,17l-11,6s-14-3-15-3h-17l-16,3-14-10,19-20,3-89,5-17V768l-1-36-4-18,1-32Z" transform="translate(-1532 -80)"/><polygon class="cls-8" points="217 274 227 365 233 359 217 274"/><path class="cls-8" d="M1602,301c0,2,4,92,0,97l4,3Z" transform="translate(-1532 -80)"/><path class="cls-8" d="M1648,346s-19,71-17,81l5,7Z" transform="translate(-1532 -80)"/><path class="cls-8" d="M1790,315c0,4-6,97-6,97l5.86-.3Z" transform="translate(-1532 -80)"/><path class="cls-9" d="M1651,555.57a162.6,162.6,0,0,0,59,7.43s20,1,25,2c0,0,56,1,60,0s4-2,4-2S1653.9,554.13,1651,555.57Z" transform="translate(-1532 -80)"/><path class="cls-10" d="M1662,606s24-1,28,12h0S1679,606,1662,606Z" transform="translate(-1532 -80)"/><path class="cls-11" d="M1733.13,582s-34.22,84.13-33.26,93.08C1700,676,1730.19,601.39,1733.13,582Z" transform="translate(-1532 -80)"/><path class="cls-11" d="M1661,591s23-4,31,7C1692,598,1686,592,1661,591Z" transform="translate(-1532 -80)"/><polygon class="cls-12" points="61 500 71 491 66 506 60 506 58 503 61 500"/><path class="cls-13" d="M1630,745l-40,3,3,10s2-7,13-8S1630,744,1630,745Z" transform="translate(-1532 -80)"/><path class="cls-13" d="M1622,737c2,0-27-11-28-10S1616,737,1622,737Z" transform="translate(-1532 -80)"/><path class="cls-14" d="M1597,737l-6-5-3-4s-3-1-3,0-1,2-1,3S1596,737,1597,737Z" transform="translate(-1532 -80)"/><path class="cls-11" d="M1703,789l17-15s21,6,22,7-19,1-20,1S1703,789,1703,789Z" transform="translate(-1532 -80)"/><path class="cls-10" d="M1595,887c3,3,27,28,29,33,0,0-25-24-30-25Z" transform="translate(-1532 -80)"/><path class="cls-10" d="M1651,889c-.28-1.39-5,21-9,25C1642,914,1654,904,1651,889Z" transform="translate(-1532 -80)"/><path class="cls-11" d="M1709,765s18-17,20-37,13-27,13-27-11,23-9,37S1709,765,1709,765Z" transform="translate(-1532 -80)"/><polygon class="cls-11" points="235 542 235 603 221 615 228 604 235 542"/><path class="cls-15" d="M1623,604l5,98s0-14-20-6-3-11-3-11S1626,667,1623,604Z" transform="translate(-1532 -80)"/><polygon class="cls-16" points="136 835 155 815 155 826 136 835"/><path class="cls-17" d="M1592,940l-18,23s-14,13-6,22,35,14,35,14,9-1,12-6c0,0-1-10,1-11s16-12,17-12,10-7,10-16l-2-4,4-8-2-16.11L1627,936l-6-6-11.4-6.71L1599,924l-2,13Z" transform="translate(-1532 -80)"/><path class="cls-17" d="M1677,935l1,7-2,2,3,32a91.76,91.76,0,0,1,22,11c12,8,18,12,19,12s28,4,39-3c0,0,4-17-1-21s-21-22-21-22l-4-13s-2-12-5-14-22-9-30-1c0,0-8,6-8,7S1688,941,1677,935Z" transform="translate(-1532 -80)"/><path class="cls-18" d="M1685,961l15-13s8,11,7,11S1685,961,1685,961Z" transform="translate(-1532 -80)"/><path class="cls-19" d="M1700,964c2,1,5,9,5,9l-5,2s-5-10-5-9S1700,964,1700,964Z" transform="translate(-1532 -80)"/><path class="cls-19" d="M1678,938c1,3,12,15,12,15s-4,3-5,2-7-13-7-13Z" transform="translate(-1532 -80)"/><path class="cls-18" d="M1637,952s-9-4-9-6l-7,10,2,2Z" transform="translate(-1532 -80)"/><path class="cls-19" d="M1641,933c-1,2-7,12-7,12v3h4l5-11Z" transform="translate(-1532 -80)"/><path class="cls-19" d="M1624,962a61.25,61.25,0,0,0-4,6l1,1,4-5Z" transform="translate(-1532 -80)"/><polygon class="cls-20" points="81 863 86 862 87 858 89 859 90 866 82 866 81 863"/><path class="cls-21" d="M1583,962s-8,11-1,16,18,4,18,4l15-16s-2-3-3-3-24,1-26-2S1583,962,1583,962Z" transform="translate(-1532 -80)"/><path class="cls-21" d="M1719,966s13,12,14,12,15,4,16-2-9-14-9-14Z" transform="translate(-1532 -80)"/><path d="M1703,937.69l19.25,6.51c1.83.62,2.62-2.28.79-2.9l-19.24-6.5c-1.83-.62-2.62,2.28-.8,2.89Z" transform="translate(-1532 -80)"/><path d="M1723.85,930.39A128.28,128.28,0,0,1,1712.74,945c-1.3,1.42.82,3.55,2.12,2.12a132.9,132.9,0,0,0,11.58-15.24c1.09-1.6-1.51-3.11-2.59-1.51Z" transform="translate(-1532 -80)"/><path d="M1714.18,948.75a30.37,30.37,0,0,1,14.81,3.94,1.5,1.5,0,0,0,1.52-2.59,33.63,33.63,0,0,0-16.33-4.35,1.5,1.5,0,0,0,0,3Z" transform="translate(-1532 -80)"/><path d="M1728,950.72l-8.79,8.78a1.5,1.5,0,1,0,2.12,2.13l8.79-8.79a1.5,1.5,0,1,0-2.12-2.12Z" transform="translate(-1532 -80)"/><path d="M1733.4,956.25a65.81,65.81,0,0,1-16.09-2.37,1.51,1.51,0,0,0-.8,2.9,68.87,68.87,0,0,0,16.89,2.47c1.93,0,1.93-3,0-3Z" transform="translate(-1532 -80)"/><path d="M1718,956.32l10.61-10.62a1.5,1.5,0,0,0-2.12-2.12l-10.61,10.62a1.5,1.5,0,0,0,2.12,2.12Z" transform="translate(-1532 -80)"/><path d="M1728.85,943.35l-4.39-2a1.62,1.62,0,0,0-1.16-.16,1.59,1.59,0,0,0-.9.69,1.56,1.56,0,0,0-.15,1.16,1.49,1.49,0,0,0,.69.9l4.39,2a1.67,1.67,0,0,0,1.16.15,1.5,1.5,0,0,0,1-1.85,1.47,1.47,0,0,0-.69-.89Z" transform="translate(-1532 -80)"/><path d="M1592.36,957.7l14.08-3.33c1.88-.45,1.08-3.34-.8-2.9l-14.08,3.34c-1.88.44-1.08,3.34.8,2.89Z" transform="translate(-1532 -80)"/><path d="M1596.36,945.67c.38.25.75.5,1.11.77l.49.36c.09.06.24.18.08.05l.26.21c.69.55,1.36,1.12,2,1.72a34.42,34.42,0,0,1,3.54,3.9,1.49,1.49,0,0,0,2.12,0,1.54,1.54,0,0,0,0-2.12,34.22,34.22,0,0,0-8.08-7.48,1.5,1.5,0,0,0-2.05.54,1.54,1.54,0,0,0,.53,2Z" transform="translate(-1532 -80)"/><path d="M1597,944.77l12.88-3.4a1.53,1.53,0,0,0,1.1-1.45v-.06a1.54,1.54,0,0,0-1.1-1.45,1.6,1.6,0,0,0-1.36.18,1.57,1.57,0,0,0-.69,1.7l0,.06c.55,1.84,3.45,1.06,2.89-.8l0-.06-.68,1.69-.22.1h-.8l.06,0-1.1-1.44v.06l1.1-1.44-12.88,3.4a1.5,1.5,0,0,0,.8,2.89Z" transform="translate(-1532 -80)"/><path d="M1600.76,959.11,1597,948.65a1.53,1.53,0,0,0-1.84-1,1.5,1.5,0,0,0-1.05,1.84l3.75,10.46a1.55,1.55,0,0,0,1.85,1.05,1.52,1.52,0,0,0,1-1.85Z" transform="translate(-1532 -80)"/><path d="M1594.82,951.31a27.83,27.83,0,0,1,12.33-4,1.54,1.54,0,0,0,1.5-1.5,1.51,1.51,0,0,0-1.5-1.5,31.33,31.33,0,0,0-13.85,4.39c-1.65,1-.14,3.6,1.52,2.6Z" transform="translate(-1532 -80)"/><path d="M1599.36,937.87l.55.37.26.19s.29.22.06,0c.35.28.68.56,1,.85a17.05,17.05,0,0,1,1.74,1.87s.22.29,0,.06l.16.21.38.54q.36.54.69,1.11c.21.38.41.77.6,1.16l.11.24.08.19.07.18c.05.12.1.25.14.37a1.54,1.54,0,0,0,1.85,1,1.52,1.52,0,0,0,1-1.85,18.62,18.62,0,0,0-7.26-9.17,1.51,1.51,0,0,0-2.05.54,1.53,1.53,0,0,0,.53,2Z" transform="translate(-1532 -80)"/></g><g id="neutre"><path class="cls-22" d="M1659.57,187.51s-6-3.47-8-9.28a38.74,38.74,0,0,1-2.18-9.81s.36-4.54,0-4.72.18-3.63-.18-5.09-.18-6.36.18-6.9,2.72-3.45,5.09-1.82a9.21,9.21,0,0,1,2.85,2.6,35.57,35.57,0,0,1,.78,5.76c0,2.18.73,18.16,2,27.07C1660.1,185.32,1661.59,188.26,1659.57,187.51Z" transform="translate(-1532 -80)"/><path class="cls-22" d="M1741.84,158.61s2-6.66,4.91-6.54c4.36.18,4.36,3.45,4.36,3.45s1.45,5.09.18,8.91a56,56,0,0,0-2,8.72c0,.18-2,6.53-2.91,7.62,0,0-2.54,5.64-5.26,6.91s-2.73.72-2.73.72S1740.21,176.23,1741.84,158.61Z" transform="translate(-1532 -80)"/><path class="cls-23" d="M1741.84,165.52l.37-6.18a4.19,4.19,0,0,1,1.27-3.82c1.81-2,3.09-8.9,3.27-9.44s1.09-9.63,1.09-9.63.18-11.81-2.36-18.53c-.07-.17-1.46-6.54-2.91-8.35,0,0-1.09-5.09-2.36-6.54a10.92,10.92,0,0,0-3.27-5.09c-2.73-2.54-4.73-5.63-4.73-6s-4.54-4.72-5.63-5.08-9.44-3.82-10.9-4.36-8.35-3.45-11.62-2.18c0,0-7.81-.55-10-.18s-6,1.09-8.36,2.36c0,0-7.63,1.45-11.63,4.9,0,0-6.72,4.91-9.08,7.09s-8.17,15.26-9.26,19.07-4,12.72-3.09,18.17,1.27,11.62,1.45,12.17,4.54,10.72,4,14.35.18,14.17.18,14.17l1.45,16.71.91.36-.72,4.91.72-.55.55,5.27s1.09-1.81,1.09-1.45v3.63s1.09-.72,1.09-.36a11.68,11.68,0,0,0,.36,1.63,9.65,9.65,0,0,1,.91,2.55v3.08s.36-1.09.91-.36a34.54,34.54,0,0,1,1.81,4.72s1.09-1.45,1.09-.9a10.16,10.16,0,0,0,1.64,3.08c.36.37.36,2,.91,2.73s2.54,2.36,2.9,2.91l2.36,3.45.55-1.46s2.18,2.18,2.72,2.91a39.46,39.46,0,0,0,3.46,3.09l3.81,1.45a10.15,10.15,0,0,0,3.27,2c1.45.36,5.81,1.45,6.54,1.82s.91-.19,1.27-.19,2.73-.72,2.91,0,1.81,0,1.81,0,5.27-.9,6.18-1.09a59.82,59.82,0,0,0,5.63-2.54l4.91-1.45a5.75,5.75,0,0,1,1.09-1.45c.36-.19,4.54-2.55,4.54-2.55s2-3.45,2.36-4,2-3.82,2.36-4,2.54-2.18,2.54-2.18l1.09-4h.91a13.89,13.89,0,0,1-.18-2.54c.18.36.73,1.27.73,1.27l-.37-3.63s1.09-2.36,1.46-2.18.54,1.63.54,1.63l.55-3.81.36,1.45v-3.63l1.09.54-.73-2.72.91-3.63.55.9v-4l.54-3.27v-2.91l.91-2.72-.54-1.64h.9l-.54-2.54.18-2.55.18-2.72.37-3.09Z" transform="translate(-1532 -80)"/><path class="cls-1" d="M1658.37,156.34s.73,21.8,1.09,23.44,4.18,6.72,4.18,6.72l5.72,15,1.82-2.54-.36,4,1.63-.37V204l3.09.18-.37-4.36-.9-4.54,2.54-4s5.81-.18,6.18-.54-1.64,2.18-1.28,2.54,1.28.18,3.09-.36a6.48,6.48,0,0,0,3.27-2.73c.18-.36-.36-.91-.36-.91a9.55,9.55,0,0,1,2.36-1.81c.73-.19,3.27-1.28,3.27-1.28s3.09.91,3.09,1.46,1.45.18,1.82.18,1.45,1.82,1.63,1.63.73-1.81,1.09-2,2.91-1.09,3.09-1.28a17.19,17.19,0,0,1,3.63-.54c.73,0,1.82,0,1.82.54a30.87,30.87,0,0,0,1.27,3.82,14.35,14.35,0,0,1,2.54.91,1.2,1.2,0,0,0,1.46.91c1.09-.19,2.9-.37,3.08-.37s2,.91,2.18.91.91-.36,1.46-.18.54,1.09.54,1.27,1.82,3.63,1.82,4.54a29.75,29.75,0,0,1-.18,4c-.18.91-1.27,2.54-.37,4.36s2.18-2.18,2.18-2.18l2.91-9.63.91,1.64,2.18-5.45,6.17-9.45s3.46-12.17,3.46-12.9-.91-21.8-.91-21.8,1-7.24.84-8.32-1.39-8-1.39-8.57-.72-8.18-.72-8.18L1736,115l-4.54-2.37-4.36-7.08s-3.27-3.09-3.27-3.63-2.36,1.45-2.36,1.45,1.09,3.45-.18,4.18-8.91,8-24.35,5.27-17.62-5.45-17.62-5.64-1.63-2.18-.36-2.9-6.9.18-8.17,1.27-5.82,4-5.82,4.36-1.63,3.63-2,4.54-3.63,11.26-3.45,12-1.09,5.81-1.09,6.18a20.28,20.28,0,0,1-.72,4.17,4.65,4.65,0,0,0-.19,2.73c.19.73,1.46,6.9,1.09,8S1659.19,154.62,1658.37,156.34Z" transform="translate(-1532 -80)"/><path class="cls-22" d="M1681.17,202.94l-2.54,1.27s-.55,1.45-.37,1.63,1.46,1.09,1.46,2-.91,1.82-.73,2a5.94,5.94,0,0,0,1.09.54s.91.55.73,1.09a2.49,2.49,0,0,0-.19,2,1.5,1.5,0,0,0,1.46.91c.54,0,1.09.55,1.45,1.09s2.73,0,3.27.36,2.36,0,2.73,0,.18,1.82.54,1.82,2.54,0,2.54-.36,1.28-1.64,1.46-1.64a10.06,10.06,0,0,0,1.81.37c.73,0,1.46-.91,1.28-.91s-1.28-.55-1.28-.73.91-2.91.37-3.09-1.09-1.27-1.09-1.27a1.42,1.42,0,0,0-1.09-.18c-.55.18-.73-1.64-1.27-1.64a19.29,19.29,0,0,1-5.27-2.9,13.09,13.09,0,0,1-1.82-2.73S1682.8,201.12,1681.17,202.94Z" transform="translate(-1532 -80)"/><path class="cls-22" d="M1716.23,203.3s2.91,2.36,2.72,3.63c0,0,.91,1.27.55,1.46s-1.64-.19-1.64-.19l-.18,1.64-.72.91.9,2-2.36.72,2.36.55s-1.63.54-1.81.36-1.82-.54-1.64-.36,1.64,1.27,1.82,1.45-.36,1.27-.55,1.27a3.38,3.38,0,0,1-1.27-.36c-.18-.18-1.27-2.18-1.27-1.82a18.64,18.64,0,0,1-.54,2.18s-.55-.54-.91-.18,0,.55-.55.91-1.63-.73-1.81-.91l-1.28-1.27-1.27,1.63a8.05,8.05,0,0,0-.18.91,1.43,1.43,0,0,1-1.09.91,1.93,1.93,0,0,1-1.09-.54l-.36-1.82,1.27-1.45-.36-1.82.36-1.45.73-2.37s2.9,0,5.26-3.27l2.18-3.08S1714.41,201.48,1716.23,203.3Z" transform="translate(-1532 -80)"/><path class="cls-22" d="M1686.33,199.52s5.65-3.25,8.66-2.56a46.93,46.93,0,0,0,4.9,1.17,24,24,0,0,0,3.39-.93c.94-.24,10.92,4.18,11.49,4.18.23,0-.93,5.6-6,7.37s-13.44-.18-17.62-.73c-2.17-.28-6.07-5.56-6.34-5.71C1683.13,201.38,1686.33,199.52,1686.33,199.52Z" transform="translate(-1532 -80)"/><path class="cls-24" d="M1692.25,149.71l-5.45-3.45s-13.08.54-13.81.91-5.63,4.72-5.63,4.72l1.82,6.54s8,3.82,8.17,3.82h10.36l6.12-4.53S1695.16,151.71,1692.25,149.71Z" transform="translate(-1532 -80)"/><path class="cls-25" d="M1704.42,159.16s6.18,5.08,6.73,5.21c3.22.73,7.2,2.1,12.71,1.33,14.17-2,10.53-15.08,10.53-15.08s-4.54-8.9-17.8-7.08c0,0-9.44,1.09-13.26,7.81A20.75,20.75,0,0,0,1704.42,159.16Z" transform="translate(-1532 -80)"/><path class="cls-26" d="M1707.51,155.16s2.36-7.08,7.08-8a30.86,30.86,0,0,1,9.81,0s-5.81,1.45-6.9,3.09-8.36,5.08-8.36,5.08S1706.78,157.16,1707.51,155.16Z" transform="translate(-1532 -80)"/><path class="cls-26" d="M1709.14,158.07a7.11,7.11,0,0,1,2.91,0,12.82,12.82,0,0,0,1.64,1.81c.36.19,5.08.55,5.63.73a17.77,17.77,0,0,1,2.18,1.27s-2.55.73-2.91.73-6.54-1.82-6.54-1.82Z" transform="translate(-1532 -80)"/><path class="cls-27" d="M1709.51,156.07a52.61,52.61,0,0,1,5.63-2.36c1.45-.37,5.27-.73,7.81.72a18.33,18.33,0,0,1,3.27,2.18,18.46,18.46,0,0,1-6.9,1.46,19.17,19.17,0,0,1-5.82-1.09,9,9,0,0,0-3.08-.37C1710.23,156.8,1708.6,157.16,1709.51,156.07Z" transform="translate(-1532 -80)"/><path class="cls-27" d="M1672.81,155a12.49,12.49,0,0,1,4.18-2.36c2.36-.73,4-1.27,6.54-.55a14.21,14.21,0,0,1,4.54,2.18c.18.18,1.82,0,2.18.73s-.18.91-.18.91a6.61,6.61,0,0,0-2.54.18c-.55.36-6.18,1.09-7.45,1.09A10.36,10.36,0,0,1,1672.81,155Z" transform="translate(-1532 -80)"/><path class="cls-28" d="M1707.33,146.8c.54,0,3.27-2,3.81-2.36s5.45-.36,6.91-.72,6.54-.91,6.9-.91,3.63.73,5.08,2.18,4.55,4.18,4.55,4.18a15.64,15.64,0,0,0-4.73-1.46c-2.18-.18-5.63-.36-5.81-.36a22.42,22.42,0,0,0-6.36,0C1715,147.89,1707.33,146.8,1707.33,146.8Z" transform="translate(-1532 -80)"/><path class="cls-28" d="M1691.52,145.35a12.23,12.23,0,0,0-5.26-2.18c-2.55-.18-7.45-2.36-7.45-2.36s-3.82-.18-5.09.36-4.54,1.46-5.08,2a21.71,21.71,0,0,0-2.73,3.09l-.73.91,1.28-.37-1.09,2.18s3.08-3.27,4.36-2.9c0,0,2.36-1.27,6.72-.37a39.33,39.33,0,0,1,6.9.37,36,36,0,0,0,7.63.18S1691.71,145.71,1691.52,145.35Z" transform="translate(-1532 -80)"/><path class="cls-29" d="M1713.5,146.62s8.72-1.63,9.09-1.63a12.14,12.14,0,0,1,2.72.54,6,6,0,0,0,.91.55l-3.27-.73Z" transform="translate(-1532 -80)"/><path class="cls-29" d="M1723.5,143.72c0,.18,3.63,2,3.63,2.18s.36.54.36.54l-.18-.91Z" transform="translate(-1532 -80)"/><polygon class="cls-29" points="192.4 63.17 196.58 65.53 196.58 65.9 196.4 65.53 192.4 63.17"/><path class="cls-29" d="M1731.49,147.35s1,.73,1,.91.43,1.63.43,1.63l-.14-1.81Z" transform="translate(-1532 -80)"/><polygon class="cls-29" points="153.53 65.35 150.26 64.99 152.62 65.9 153.53 65.35"/><polygon class="cls-29" points="183.5 65.17 180.23 64.81 182.59 65.72 183.5 65.17"/><polygon class="cls-29" points="147.72 63.35 145.35 62.08 142.99 62.63 145.17 62.63 147.72 63.35"/><path class="cls-29" d="M1676.63,143.54l-3.64.36A17.81,17.81,0,0,0,1676.63,143.54Z" transform="translate(-1532 -80)"/><polygon class="cls-29" points="135.91 65.35 139.54 62.08 140.09 62.26 139.54 62.45 135.91 65.35"/><path class="cls-30" d="M1650.47,165.7s.36-3.27,1.82-4.54,2-6.54,2-6.54-2.9-3.64-4-3.27-1.09,6.35-1.09,6.35a20.41,20.41,0,0,1,.54,4.55A8.92,8.92,0,0,0,1650.47,165.7Z" transform="translate(-1532 -80)"/><path class="cls-31" d="M1654.47,156.07s.36,4-1.46,6a8.75,8.75,0,0,0-2,4.73,7.65,7.65,0,0,1,.19-3.45c.54-1.64,1.45-2,1.81-2.91A10.18,10.18,0,0,0,1654.47,156.07Z" transform="translate(-1532 -80)"/><path class="cls-32" d="M1657.19,163.34l.73-.19s.36,3.09,0,4a33.17,33.17,0,0,1-1.82,3.27s-.36,1.27.55,1.82a2.35,2.35,0,0,1,1.09,1.27s.36.54-.55.54-3.45-1.81-3.81-4a7.26,7.26,0,0,0-1.09-3.09,3.13,3.13,0,0,1,1.81-1.27C1655.19,165.52,1656.83,163.34,1657.19,163.34Z" transform="translate(-1532 -80)"/><path class="cls-31" d="M1652.83,173.69a13.87,13.87,0,0,1,2.73,1.45,7.89,7.89,0,0,1,0,2.91c-.19.18-.55,1.09-.19,1.45s-.72.18-1.27-.54a5.32,5.32,0,0,1-.54-3.09A2.85,2.85,0,0,0,1652.83,173.69Z" transform="translate(-1532 -80)"/><path class="cls-31" d="M1651,151.35a2,2,0,0,0-1.09,0c-.36.18.73-1.09,2-1.46,0,0-1.45,1.09-.91.91A.3.3,0,1,1,1651,151.35Z" transform="translate(-1532 -80)"/><path class="cls-33" d="M1745.84,159.16s2.54-5.09,4.18-4,1.81,4.18,1.81,4.18-1.45,4.36-2,4.72-2.55.73-2.73,0S1745.84,159.16,1745.84,159.16Z" transform="translate(-1532 -80)"/><path class="cls-34" d="M1741.48,167.88s-.18-1.46.18-1.64,1.64-3.27,3.45-2.36.91,6.54.91,6.9-1.82,5.09-3.45,5.27-2.36-1.45-1.82-1.82a10.12,10.12,0,0,0,1.46-1.45A16.58,16.58,0,0,0,1741.48,167.88Z" transform="translate(-1532 -80)"/><path class="cls-35" d="M1747.4,170.24s-1.55-8.1-2.18-8.33,1.56.93,2.8,4.16S1747.4,170.24,1747.4,170.24Z" transform="translate(-1532 -80)"/><path class="cls-35" d="M1745.84,175.32s-2,1.46-1.45,2.18,1.09,2.73.54,3.46-1.82.36-2.36.18,1.27-.55.91-1.09-.91-1.46-.91-1.46l-1.64-1.27s.37-1.09,1.09-.91S1745.11,174.42,1745.84,175.32Z" transform="translate(-1532 -80)"/><path class="cls-36" d="M1740.93,182.05s1.46,1.09,1.28,2.18-2,.54-2,.54S1738.75,183.14,1740.93,182.05Z" transform="translate(-1532 -80)"/><path class="cls-37" d="M1748,173.87s-3.15,4.63-2.85,4.95a1.66,1.66,0,0,1-.19-2.53C1746.38,174.78,1745.84,176.05,1748,173.87Z" transform="translate(-1532 -80)"/><path class="cls-35" d="M1747.84,155.34s1.45-1.27,2.54-1.09c0,0,.36,0,.18-.54a2.67,2.67,0,0,0-1.09-1.27,4.74,4.74,0,0,0-1.81-.37,3.9,3.9,0,0,0-1.09.18s-.37.19-.19.37,1.09-.37,1.46,0,.36.72,0,.72S1747.47,155.34,1747.84,155.34Z" transform="translate(-1532 -80)"/><path class="cls-38" d="M1686,201.08c-.07-.17,6.13-3.83,9.48-2.49a10.12,10.12,0,0,1,3.16,1.54h.93s2.78-2.11,4.64-1.73a26.5,26.5,0,0,1,5.2,1.73,19.4,19.4,0,0,0,3.9,1.15c.56,0,1.31.76,1.31.76a17.88,17.88,0,0,1-2.23,3.26c-.75.57-2.42,3.26-5.76,4.22a21.48,21.48,0,0,1-5.58.19,23.38,23.38,0,0,0-3.9-.39,12,12,0,0,1-4.83-1.15A13.86,13.86,0,0,1,1686,201.08Z" transform="translate(-1532 -80)"/><path class="cls-39" d="M1687.84,202.11a7.48,7.48,0,0,1,4.83.75c2,1.3,10.78,1.11,12.64.55a11.94,11.94,0,0,1,5-.55,5.91,5.91,0,0,0,2.6-.19s-9.66,5-16.9,2.79S1688.58,202.67,1687.84,202.11Z" transform="translate(-1532 -80)"/><path class="cls-40" d="M1692.3,203.23l.74-.37.38.74h.55l.75-.37,1.11.56s-.19.55.19.55-.56.37-.75.19a3.64,3.64,0,0,0-1.11-.37,1.87,1.87,0,0,0-.74-.19,5.76,5.76,0,0,1-1.31-.37Z" transform="translate(-1532 -80)"/><path class="cls-40" d="M1700.1,203.6v1.67S1700.66,203.79,1700.1,203.6Z" transform="translate(-1532 -80)"/><path class="cls-40" d="M1701.78,204.16l.18-.37a2.64,2.64,0,0,1,.37.74c0,.18-.55,0-.55,0Z" transform="translate(-1532 -80)"/><path class="cls-40" d="M1703.08,204.34c-.12-.15,0-.74,0-.74l.18.74v-.74s.37.93.37.74v-.55l.38.74S1703.63,205.09,1703.08,204.34Z" transform="translate(-1532 -80)"/><path class="cls-40" d="M1705.12,205.09c0-.19.19-.75.56-.75a1.29,1.29,0,0,0,.74-.37l.19-.37-.38-.19s-.18.38-.37.38h-.37l-.18-.19V204h-.38v.37Z" transform="translate(-1532 -80)"/><path class="cls-41" d="M1681.9,201.37a3,3,0,0,1,3-.93c1.67.56,11.52,1.67,11.89,1.67s2.23-.74,3-.37,2.6,1.12,3.16.74a15.25,15.25,0,0,1,3.9-.55c.37,0,5-.37,5.39-.37a11.63,11.63,0,0,0,1.67-.38s.75-.55,1.3-.18,1.49.74.37.74h-1.67c-.18,0-8.36.74-9.47.93a28.53,28.53,0,0,1-4.09,0c-.19,0-2.79-.19-3.16-.19s-2.79-.18-3.16-.18-8-.37-8.92-.74S1683.2,201.74,1681.9,201.37Z" transform="translate(-1532 -80)"/><path class="cls-42" d="M1677.17,201.12l-.72-5.27,1.63-2.72,2.54,1.09s.19,2.72.73,2.54l2.36-.73,3.64-1.27,2.72-1.81,2.73.72,2.18.55s3.81-.91,3.81-1.27-.18-2.73-.18-2.73l2.54.91v3.27l4.91-1.64s2.36-1.09,3.27-.36,1.81.73,2.18,1.82-1.09.91.54,1.45,4.18.18,4.72.55,2.37-1.09,2.55-.55,1.27,4.54.91,4.54-5.45-.91-5.45-.91l-5.09-3.45h-7.63l-3.27.91-3.09-.36s-4-1.09-5.27-.55a23.54,23.54,0,0,0-3.27,2l-1.81-.18-6.18,2.36-.36,2Z" transform="translate(-1532 -80)"/><path class="cls-42" d="M1665.37,202.94c.18.9,2.54,3.45,2.54,3.45l4.18-2.55-3.09,4.55,2.18,2.72s1.45-2.36,2.36-2.18-.18,5.09-.18,5.09l4.36-.18s.36,3.45.72,3.27,3.09-.73,3.09-.73l-2.9,3.45s1.45,2.36,2,2.36,1.46-.36,1.82-.36.55.73.55.73l3.08,1.09s1.28,2.18,1.82,2.18a22.14,22.14,0,0,1,3.09.9l6.18,2.37,5.81-.73s4-1.27,4.36-1.27,6.17-2,6.17-2l.19-2.73s.54-2.54,1.81-1.63,3.82-1.64,3.82-1.64l-.55-2.18a20,20,0,0,1,.91-3.08,13.65,13.65,0,0,0,3.09-1.28c.36-.36,2.91-3.08,3.45-2.36s3.63-2.36,3.63-2.36l1.27-3.27s2.18-2.54,2.55-3.09,2.54-4.54,2.54-4.54l1.09-.91-2.54,8.72-3.27,6.72-2.36,4.55a39.86,39.86,0,0,1-3.45,4.36c-.91.72-6.54,5.26-7.45,6.17s-8.9,3.82-8.9,3.82l-8.36,2.18-8-.73-6.91-2.72-6.54-4.73-3.63-3.63-6-6.54-1.82-3.82-2.91-4.17Z" transform="translate(-1532 -80)"/><path class="cls-43" d="M1682.69,151.7a3.27,3.27,0,1,1-5.52,2.37,3.28,3.28,0,0,1,.85-2.2" transform="translate(-1532 -80)"/><circle class="cls-44" cx="148.81" cy="74.07" r="0.91"/><path class="cls-45" d="M1678.81,152.8s0-.36-.18-.36,0,.18-.19.18a.18.18,0,0,0-.18.18Z" transform="translate(-1532 -80)"/><path class="cls-45" d="M1679.9,152.44a3.91,3.91,0,0,1,.72-.19c.19,0,.37.37.19.37S1679.9,152.62,1679.9,152.44Z" transform="translate(-1532 -80)"/><path class="cls-45" d="M1678.81,153.53s.54.9.91.72a.64.64,0,0,0,.36-.54l-1.09-.55Z" transform="translate(-1532 -80)"/><path class="cls-45" d="M1681.17,153.71a.85.85,0,0,1,.39,0c.15,0-.14-.61-.45-.38S1680.81,153.53,1681.17,153.71Z" transform="translate(-1532 -80)"/><path class="cls-43" d="M1716,157.75a1.07,1.07,0,0,1-.14-.16,3.26,3.26,0,0,1,.36-4.51l4.16-.15a3.26,3.26,0,0,1,.14,5.07" transform="translate(-1532 -80)"/><circle class="cls-44" cx="186.77" cy="75.52" r="0.91"/><path class="cls-45" d="M1717.68,155.16s0-.36-.18-.36,0,.18-.18.18a.18.18,0,0,0-.18.18Z" transform="translate(-1532 -80)"/><path class="cls-45" d="M1717.86,153.89a4.25,4.25,0,0,1,.73-.18c.18,0,.36.36.18.36S1717.86,154.07,1717.86,153.89Z" transform="translate(-1532 -80)"/><path class="cls-45" d="M1719.14,155.16a.79.79,0,0,1,.38,0c.16,0-.14-.61-.44-.37S1718.77,155,1719.14,155.16Z" transform="translate(-1532 -80)"/><path class="cls-46" d="M1682.62,150.88s-6.82-4.19-12.17,3.19C1670.45,154.07,1675.8,149.71,1682.62,150.88Z" transform="translate(-1532 -80)"/><path class="cls-47" d="M1689.89,154.62s-6.9-5.27-17.26,0c0,0-1.09.72-1.81.36a7.8,7.8,0,0,1,.9-.18c.19,0-.36-.37-.36-.37a.85.85,0,0,0,.73,0,11.18,11.18,0,0,0,1.09-.72l-.19-.55a.36.36,0,0,0,.37.37c.36,0,.72,0,.72-.37,0,0,.19.18.55,0s.18-.72.18-.72.18.54.36.36a6.55,6.55,0,0,1,.91-.55l.37-.72a.89.89,0,0,0,.18.54c.18.18,1.27-.36,1.27-.36v-.55s.25.3.4.51,1-.69,1-.69-.18.37,0,.37a11.48,11.48,0,0,0,1.27-.37l-.36.37S1686.26,151.35,1689.89,154.62Z" transform="translate(-1532 -80)"/><path class="cls-47" d="M1687.71,150.26s-12.17-4.18-17.26,4.17C1670.45,154.43,1674.45,147.17,1687.71,150.26Z" transform="translate(-1532 -80)"/><path class="cls-48" d="M1677.35,149.17s-8.53,1.81-7.44,4.36c0,0,.36.36.54,0S1671.91,150.44,1677.35,149.17Z" transform="translate(-1532 -80)"/><path class="cls-49" d="M1663.91,113.56s4.73-7.81,8-7.63,4.17,5.63,4.17,5.63-2,1.46-1.27,2a30.2,30.2,0,0,1,2.73,3.09l-.73,1.45a23,23,0,0,1-2,2.73c-.73.72-3.45,2.36-2.36,3.27s3.09,2.18,2.18,2.9-4,3.09-4.72,3.82-10.18,3.09-10.18,3.09v28.7l5.27,22.71,4.91,4.72-.55,11.44-2.9-7.81c-.73-1.27-2.91-7.26-2.91-7.26l-1.09-1.46-3.27-5.08-.55-26.34s-.9-14.54-.9-15.08S1660.64,117.19,1663.91,113.56Z" transform="translate(-1532 -80)"/><path class="cls-50" d="M1668.09,117.74l4.36-5.27,1.82-2.18-2.73,1.09.55-2.36.36-1.09-.54-2a11.79,11.79,0,0,0-8,7.63c-2.18,6.36-.91,8.54-.91,8.54l3.09-2Z" transform="translate(-1532 -80)"/><path class="cls-51" d="M1690.43,113.93l2.91,5.44h-3.45l.54,2.37h2.91l-.36,2a9.14,9.14,0,0,0,2.54-.54,5.82,5.82,0,0,1,2.91-.73c.54.18,7.44.37,7.44.37s2.37-2.55,2.73-2.37a39.51,39.51,0,0,1,2.72,2.91s-.54-3.63.55-3.45,4.18,2.36,4.18,2.36.91-3.27,0-3.81-4.73-3.09-4.91-3.64-1.81-1.81-1.81-1.81-5.27,3.45-10.36,2-6.72-3.27-6.72-3.27S1688.07,112.29,1690.43,113.93Z" transform="translate(-1532 -80)"/><path class="cls-50" d="M1725.49,117.19l-.72-2.54,1.63-1.27,1.82.55.91-2s0-1.27.36-1.09a17.21,17.21,0,0,1,1.82,1.81l2.18,2.73,2.54.73-1.27,1.81.91.91-1.46,4s3.64,3.81,4,4.72.36,6.18.36,6.18l-2.36-1.82-4-4.72s-2.54-1.64-2.18-2.37a6.68,6.68,0,0,0,.73-2.9,10.41,10.41,0,0,0-1.27-2.55C1728.76,118.47,1725.49,117.19,1725.49,117.19Z" transform="translate(-1532 -80)"/><path class="cls-52" d="M1712.78,113.93l-3.45-.91,2,10.35s-4.36-.36-2.9,3.09,2.36,5.09,2.36,5.09l14,1.27a9.45,9.45,0,0,1,6.72,4.54c2.54,4.18-1.09-4.91-3.45-6.9s2-5.64,2-5.64l.73-2.9-1.27-2.55-4-2.18-.72-2.54,1.63-1.27,1.82.55.91-2,.36-1.09s-.36-2.36-.73-2.55-3.08-3.45-3.08-3.45l-1.64-1.63-1.82,2,1.82,2.18-1.63,1.09L1717.5,111S1714.59,114.29,1712.78,113.93Z" transform="translate(-1532 -80)"/><path class="cls-47" d="M1710,155.43s6.36-2.9,12.72-.9a16.21,16.21,0,0,1,4.09,2.27l-1.09-1.46-2.55-1.27v-.73l-.54.55-.73-.36V153l-.36.18-.37-.91-.18.73-1.09-.18.73-.55-1.82.55-.91-.73v.73l-1.81.18-1.64.55-2,.54Z" transform="translate(-1532 -80)"/><path class="cls-47" d="M1729.31,157s-.73-5.63-13.81-6.18c0,0-5.27.55-7.81,3.82,0,0,3.63-4.55,13.44-2.91A13.31,13.31,0,0,1,1729.31,157Z" transform="translate(-1532 -80)"/><path class="cls-53" d="M1691.86,185.72s-4.15-.7-5.06-3.47,2.18-3.11,2.18-3.11,3.82,0,6.18,1.73,8,.86,8,.86,4-3.46,6.72-1.9,2.36,3.12,2.36,3.12a3.73,3.73,0,0,1-2.72,2.07,48.47,48.47,0,0,1-6,.35l-2.18,1-3.81-.35-2.36-1.56-2.55-.52Z" transform="translate(-1532 -80)"/><path class="cls-54" d="M1703.51,185.32s3.45-2.55,5.45-1.64-2,1.82-2,1.82A12.66,12.66,0,0,1,1703.51,185.32Z" transform="translate(-1532 -80)"/><path class="cls-54" d="M1689.89,185s-1.85-2.48,1.34-2.06,3.93,1.52,3.93,1.52-3.09-.55-3.09.72S1689.89,185,1689.89,185Z" transform="translate(-1532 -80)"/><path class="cls-55" d="M1694.07,184s-3.27-2.54-3.82-.18c0,0,.18.55.91,0S1694.07,184,1694.07,184Z" transform="translate(-1532 -80)"/><path class="cls-55" d="M1704.06,185s3.63-1.81,4.54-1.27-.36.91-.36.91S1708.05,184.23,1704.06,185Z" transform="translate(-1532 -80)"/><path class="cls-56" d="M1698.61,155.16l-1.45-6.7s1.81-.2,2.18-.2a38.36,38.36,0,0,1,4,2.64l2.54,17.46,2.37,7.1,1.63,1.22-6.72,4.67-1.64,1.42-4.54-1.22-3.08-1.68,4.9-19.44Z" transform="translate(-1532 -80)"/><path class="cls-51" d="M1695,154.25c0,.25-.24,15.81-.24,15.81v5.63l-2.36.91-2.6-4.67-.3-1.72Z" transform="translate(-1532 -80)"/><path class="cls-57" d="M1695.34,155.34c0,.18.46,11.27.46,11.27l1.07,2.18,1.38-2.91-.92-10.72-.92-2Z" transform="translate(-1532 -80)"/><path class="cls-58" d="M1696.25,155.34c0,.18.46,11.27.46,11.27l1.07,2.18,1.37-2.91-.91-10.72-.92-2Z" transform="translate(-1532 -80)"/><path class="cls-59" d="M1697,155.34c0,.18.32,11.27.32,11.27l.74,2.18.94-2.91-.63-10.72-.63-2Z" transform="translate(-1532 -80)"/><polygon class="cls-60" points="131.91 89.32 136.81 87.69 141.96 93.1 142.99 99.32 137.07 96.35 131.91 96.89 131.91 89.32"/><polygon class="cls-61" points="133.37 89.11 137.62 87.69 142.1 92.43 142.99 97.87 137.84 95.27 133.37 95.74 133.37 89.11"/><polygon class="cls-49" points="134.64 89.33 138.09 88.24 141.72 91.87 142.45 96.05 138.27 94.05 134.64 94.42 134.64 89.33"/><polygon class="cls-47" points="194.22 76.61 189.83 77.93 183.79 77.67 181.14 76.8 178.42 76.61 181 77.04 183.87 78.07 189.68 78.25 194.22 76.61"/><path class="cls-62" d="M1712.23,154.8l-2.62,1.11s-1,.89,0,.89,1.19-.23,1.19-.23h.72Z" transform="translate(-1532 -80)"/><path class="cls-63" d="M1688.07,154.25l1.82.37s1.09.72.18,1.27h-1.57l-.87.13a4.71,4.71,0,0,1-.86.34c-.33.08.16-2.78.16-2.78A9.24,9.24,0,0,1,1688.07,154.25Z" transform="translate(-1532 -80)"/><path class="cls-47" d="M1672.63,155.16l3.45,1.82,4.18.54,6.18-.91a8.27,8.27,0,0,1,1.68-.62,7.64,7.64,0,0,1-1.5.26l-6,.91-4.36-.36Z" transform="translate(-1532 -80)"/><path class="cls-49" d="M1691,144.08a54.8,54.8,0,0,1,4.54,4l-1.63,3.27,2.72-2.73,4.54-.54,3.45,4.36a45.3,45.3,0,0,1-1.81-4.55c.18,0,7.81-4,7.81-4s-6.36,1.63-6.72,2Z" transform="translate(-1532 -80)"/><path class="cls-64" d="M1672.45,158.43l6.9,1.82,7.63-.55,3.09-2.36a28.21,28.21,0,0,1-2.36,2.54c-.36.19-8.54.73-8.54.73Z" transform="translate(-1532 -80)"/><path class="cls-65" d="M1710.08,157.9c.24.33,4.16,2.79,4.16,2.79l7.14.8,5.93-3-5.92,2.58-7.21-.7Z" transform="translate(-1532 -80)"/><polygon class="cls-49" points="207.3 67.89 207.3 87.88 201.49 104.95 196.04 108.95 196.4 114.58 197.31 116.22 199.49 110.77 205.8 100.73 209.48 87.88 207.3 67.89"/><polygon class="cls-66" points="155.89 95.51 146.99 108.4 146.26 111.67 147.17 108.59 155.53 96.6 155.89 95.51"/><polygon class="cls-66" points="178.05 94.6 186.23 105.32 189.5 112.58 186.05 105.5 178.05 94.6"/><polygon class="cls-59" points="163.16 100.95 163.88 98.61 165.7 97.55 165.88 90.97 166.43 91.6 166.97 97.76 170.24 99.67 170.42 101.86 168.43 103.5 165.16 103.68 163.16 100.95"/><path class="cls-59" d="M1696.43,181.14s-5.63-1.46-6.9-1.64-2.71,1.15-2.71,1.15.16-1.15,1.8-1.69S1696.43,181.14,1696.43,181.14Z" transform="translate(-1532 -80)"/><path class="cls-59" d="M1705.33,179.5s3.25-.62,3.44-.4a16.21,16.21,0,0,0,2.37,1s.18.54-1.63.54a22.44,22.44,0,0,0-4,.18c-.73.19-4,1.82-4,1.82Z" transform="translate(-1532 -80)"/></g></svg>