<?xml version="1.0" encoding="utf-8"?>
<!-- Generator: Adobe Illustrator 24.0.0, SVG Export Plug-In . SVG Version: 6.00 Build 0)  -->
<svg version="1.1" id="Capa_1" xmlns="http://www.w3.org/2000/svg" xmlns:xlink="http://www.w3.org/1999/xlink" x="0px" y="0px"
	 viewBox="0 0 512 512" style="enable-background:new 0 0 512 512;" xml:space="preserve">
<style type="text/css">
	.st0{fill:#FFFF00;}
	.st1{fill:#1510C4;}
	.st2{fill:#0D075E;}
</style>
<path class="st0" d="M430.3,275.3L269.1,436.5c-2.5,2.5-5.9,3.9-9.4,3.9H87.1c-11.9,0-17.9-14.4-9.4-22.8
	C127,368.3,239.2,256,239.2,256S126.9,143.7,77.7,94.4c-8.4-8.4-2.5-22.8,9.4-22.8h172.6c3.5,0,6.9,1.4,9.4,3.9l73.1,73.1l88,88
	C440.9,247.3,440.9,264.6,430.3,275.3z"/>
<path class="st1" d="M329.3,275.3L168.2,436.5c-2.5,2.5-5.9,3.9-9.4,3.9H87.1c-11.9,0-17.9-14.4-9.4-22.8
	C127,368.3,239.2,256,239.2,256S126.9,143.7,77.7,94.4c-8.4-8.4-2.5-22.8,9.4-22.8h71.7c3.5,0,6.9,1.4,9.4,3.9l161.1,161.1
	C340,247.3,340,264.6,329.3,275.3z"/>
<path class="st2" d="M329.3,275.3L168.2,436.5c-2.5,2.5-5.9,3.9-9.4,3.9h-42c3.5,0,6.9-1.4,9.4-3.9L292,270.7
	c10.7-10.7,10.7-18.7,0-29.3L126.2,75.5c-2.5-2.5-5.9-3.9-9.4-3.9h42c3.5,0,6.9,1.4,9.4,3.9l161.1,161.1
	C340,247.3,340,264.6,329.3,275.3z"/>
</svg>
