<?xml version="1.0" encoding="utf-8"?>
<!-- Generator: Adobe Illustrator 24.0.0, SVG Export Plug-In . SVG Version: 6.00 Build 0)  -->
<svg version="1.1" id="Layer_1" xmlns="http://www.w3.org/2000/svg" xmlns:xlink="http://www.w3.org/1999/xlink" x="0px" y="0px"
	 viewBox="0 0 168.1 168.1" style="enable-background:new 0 0 168.1 168.1;" xml:space="preserve">
<style type="text/css">
	.st0{fill:#FFFF00;}
	.st1{fill:#10063A;}
</style>
<path class="st0" d="M151,91.1L49.1,32.8c-2-1.1-4.5-1.1-6.5,0c-2,1.1-3.3,3.2-3.3,5.5l-0.6,115.6c0,0,0,0,0,0
	c0,2.2,1.2,4.3,3.2,5.5c1,0.6,2.1,0.9,3.3,0.9c1.1,0,2.2-0.3,3.2-0.8l102.5-57.3c2-1.1,3.3-3.2,3.3-5.5c0,0,0,0,0,0
	C154.2,94.3,153,92.2,151,91.1z"/>
<g id="XMLID_15_">
	<g>
		<path class="st1" d="M83.1,48.6L83.1,48.6c3-3,2.3-7.9-1.3-10l-6.6-3.8c-2.5-1.4-5.6-1-7.7,1l0,0c-3,3-2.3,7.9,1.3,10l6.6,3.8
			C77.9,51,81,50.6,83.1,48.6z"/>
		<path class="st1" d="M131.5,67l-31.1-17.8c-2.5-1.4-5.6-1-7.7,1l0,0c-3,3-2.3,7.9,1.3,10l21.3,12.2l-83.1,46.4l0.5-93.7l17.4,9.9
			c2.5,1.4,5.6,1,7.6-1l0.1-0.1c2.9-2.9,2.3-7.9-1.3-9.9L29.7,8.8c-2-1.1-4.5-1.1-6.5,0c-2,1.1-3.3,3.2-3.3,5.5l-0.6,115.6
			c0,0,0,0,0,0c0,2.2,1.2,4.3,3.2,5.5c1,0.6,2.1,0.9,3.3,0.9c1.1,0,2.2-0.3,3.2-0.8L131.5,78c2-1.1,3.3-3.2,3.3-5.5c0,0,0,0,0,0
			C134.7,70.3,133.5,68.2,131.5,67z"/>
	</g>
</g>
</svg>
