<?xml version="1.0" encoding="utf-8"?>
<!-- Generator: Adobe Illustrator 24.0.0, SVG Export Plug-In . SVG Version: 6.00 Build 0)  -->
<svg version="1.1" id="Calque_1" xmlns="http://www.w3.org/2000/svg" xmlns:xlink="http://www.w3.org/1999/xlink" x="0px" y="0px"
	 viewBox="0 0 2500 1451" style="enable-background:new 0 0 2500 1451;" xml:space="preserve">
<style type="text/css">
	.st0{fill:#FFD300;}
	.st1{fill-rule:evenodd;clip-rule:evenodd;fill:#FFD300;}
	.st2{fill-rule:evenodd;clip-rule:evenodd;fill:#E21B4D;}
	.st3{fill:#220D63;}
</style>
<path class="st0" d="M799.5,685.5c0-252,203.7-455.7,455.7-455.7s455.7,203.7,455.7,455.7s-203.7,455.7-455.7,455.7
	S799.5,936.3,799.5,685.5"/>
<path class="st1" d="M889,414.7c7.1,3.5,14.1,7.1,22.4,11.8c34.1,23.5,56.5,43.6,108.3,87.1c15.3,15.3,33,40,45.9,55.3
	c28.3,35.3,48.3,60,51.8,89.5c8.2,58.9,16.5,91.8,38.9,151.9c2.4,5.9,11.8,14.1,17.7,21.2c14.1,17.7,20,45.9,45.9,61.2
	c14.1,8.2,16.5,9.4,21.2,13c7.1,5.9-4.7,27.1-41.2,22.4c18.8,9.4,16.5,30.6-10.6,31.8c-53,2.4-86-28.3-93-36.5
	c-3.5-3.5-14.1,10.6-33,17.7c-18.8,9.4-44.7,0-64.8,3.5c-18.8,3.5-43.6,15.3-63.6,16.5c-35.3,1.2-40-23.5-40-44.7v-9.4
	c-3.5,13-16.5,35.3-16.5,35.3c-4.7,10.6-11.8,23.5-24.7,28.3l-37.7,4.7c-29.4,13-58.9,22.4-89.5,33c-17.7,3.5-37.7,0-50.6-10.6
	c-10.6-8.2-16.5-18.8-22.4-29.4c-5.9-2.4-14.1,0-21.2-2.4c-5.9-1.2-9.4-5.9-13-9.4l-25.9-43.6c-2.4-5.9-2.4-14.1,0-20
	c4.7-9.4,15.3-14.1,25.9-14.1c18.8-1.2,40-7.1,58.9,0c8.2-9.4,21.2-8.2,33-10.6c-4.7-7.1-11.8-10.6-17.7-16.5
	c-34.1,8.2-71.8,2.4-104.8-3.5c-30.6-7.1-56.5,10.6-87.1,5.9l-9.4,20c-14.1,15.3-15.3,41.2-36.5,51.8c-15.3,3.5-27.1,14.1-40,21.2
	c-23.5,13-55.3,7.1-81.2,2.4c-10.6-1.2-17.7,0-27.1,3.5c-8.2,5.9-17.7,15.3-27.1,22.4c-15.3,5.9-28.3,18.8-44.7,20
	c-9.4,0-18.8-5.9-28.3-3.5c-11.8,13-17.7,34.1-36.5,40s-42.4,1.2-61.2-3.5c-5.9,2.4-9.4,7.1-16.5,5.9c-13-3.5-25.9-7.1-37.7-14.1
	c-4.7-4.7-5.9-10.6-7.1-15.3c0-8.2,7.1-15.3,10.6-22.4c1.2-8.2,1.2-20,4.7-28.3c5.9-13,18.8-21.2,31.8-27.1
	c1.2-9.4,7.1-17.7,15.3-22.4c15.3-8.2,31.8-27.1,51.8-16.5l21.2,17.7c18.8-8.2,14.1-27.1,23.5-42.4c4.7-10.6,10.6-22.4,22.4-22.4
	c8.2-1.2,17.7,1.2,25.9,0c11.8-3.5,24.7-8.2,33-17.7l-1.2-7.1c-11.8-22.4-15.3-49.5-16.5-76.5c-21.2,2.4-43.6,5.9-65.9,1.2
	c-33-4.7-64.8-30.6-77.7-63.6c-14.1-31.8-8.2-76.5,14.1-103.6c17.7-21.2,37.7-40,58.9-56.5c-7.1-2.4-15.3-1.2-22.4-3.5
	c-30.6-4.7-61.2-31.8-68.3-62.4c-4.7-20,0-38.9,9.4-55.3c3.5-3.5,7.1-7.1,13-4.7c15.3,5.9,20,14.1,34.1,21.2l8.2,4.7
	c38.9,13,90.7,13,106,61.2c9.4,37.7-14.1,65.9-41.2,87.1c-21.2,15.3-42.4,34.1-53,56.5c-4.7,16.5-2.4,33,11.8,44.7
	c14.1,14.1,38.9,14.1,56.5,7.1c33-14.1,63.6-35.3,93-57.7c28.3-21.2,62.4-29.4,98.9-30.6c16.5-3.5,30.6-10.6,43.6-21.2
	c22.4-21.2,45.9-38.9,74.2-45.9c13-2.4,25.9-3.5,38.9-4.7c10.6-4.7,17.7-17.7,25.9-23.5c38.9-34.1,90.7-33,131.9-60
	c23.5-17.7,49.5-29.4,80.1-28.3c14.1,1.2,27.1,3.5,38.9,8.2L889,414.7z M927.9,815c-25.9,1.2-42.4,7.1-60,9.4
	c1.2,16.5,10.6,30.6,23.5,48.3C898.4,845.6,920.8,835,927.9,815 M1590.8,820.9c11.8,17.7,18.8,35.3,29.4,54.2
	c10.6-20,20-38.9,29.4-50.6C1648.5,823.2,1617.8,826.8,1590.8,820.9 M1615.5,908c-1.2,3.5-3.5,4.7-8.2,4.7
	c3.5,16.5-8.2,47.1-37.7,48.3c-20,1.2-53-18.8-71.8-20c-20-1.2-56.5,14.1-77.7-17.7c-28.3,34.1-61.2,43.6-89.5,42.4
	c-16.5,0-34.1-9.4-9.4-30.6c-54.2,17.7-54.2-18.8-44.7-25.9c5.9-4.7,13-8.2,33-28.3c75.4-78.9,47.1-215.5,129.5-306.1
	c31.8-35.3,57.7-55.3,122.5-101.3c22.4-15.3,44.7-37.7,65.9-53l1.2,2.4v-1.2c13-9.4,24.7-18.8,38.9-22.4
	c29.4-3.5,56.5,5.9,78.9,21.2c11.8,8.2,21.2,17.7,30.6,29.4c7.1,7.1,17.7,7.1,27.1,10.6c27.1,4.7,50.6,15.3,73,29.4
	c15.3,9.4,28.3,25.9,47.1,28.3c22.4,3.5,42.4,10.6,62.4,22.4c23.5,15.3,44.7,34.1,73,38.9c56.5,5.9,103.6,37.7,148.4,69.5
	c25.9,15.3,56.5,33,88.3,22.4c9.4-3.5,16.5-11.8,18.8-20c2.4-21.2-10.6-37.7-23.5-53c-27.1-31.8-74.2-58.9-68.3-104.8
	c8.2-34.1,45.9-54.2,75.4-63.6c16.5-5.9,36.5-3.5,50.6-17.7c7.1-4.7,10.6-21.2,22.4-15.3c9.4,5.9,10.6,17.7,11.8,28.3
	c4.7,33-2.4,65.9-33,84.8c-14.1,9.4-29.4,13-45.9,16.5c24.7,20,49.5,44.7,63.6,73c8.2,16.5,13,30.6,14.1,49.5
	c-1.2,35.3-22.4,65.9-53,83.6c-17.7,9.4-37.7,13-58.9,13c-8.2,0-15.3-2.4-22.4-2.4c3.5,16.5,3.5,38.9,0,57.7
	c-1.2,9.4-7.1,20-7.1,31.8c4.7,5.9,11.8,5.9,17.7,5.9c15.3,0,34.1-1.2,42.4,15.3c7.1,15.3,10.6,33,16.5,48.3
	c2.4,2.4,3.5,8.2,7.1,7.1c10.6-9.4,21.2-22.4,36.5-18.8c14.1,9.4,28.3,20,42.4,30.6c3.5,3.5,4.7,8.2,5.9,14.1
	c11.8,4.7,27.1,13,30.6,27.1c2.4,9.4,1.2,18.8,3.5,27.1c3.5,9.4,13,21.2,5.9,33l-4.7,3.5l-44.7,14.1c-3.5,0-7.1-2.4-10.6-5.9
	c-23.5-1.2-51.8,5.9-70.6-10.6c-8.2-7.1-14.1-15.3-20-24.7c-14.1,7.1-34.1,11.8-48.3,2.4c-29.4-22.4-58.9-44.7-98.9-43.6
	c-17.7,3.5-38.9,8.2-56.5,1.2c-16.5-11.8-35.3-17.7-48.3-35.3c-18.8-20-18.8-43.6-25.9-68.3c-25.9,5.9-54.2,2.4-80.1,1.2
	c-21.2-1.2-41.2,2.4-61.2,7.1c-24.7,4.7-51.8,7.1-77.7,5.9l-13,9.4c5.9,1.2,11.8,1.2,16.5,5.9l4.7,4.7c21.2,2.4,45.9-1.2,65.9,3.5
	c4.7,1.2,9.4,5.9,11.8,10.6c2.4,5.9,2.4,13-1.2,17.7c-10.6,14.1-16.5,30.6-30.6,42.4c-3.5,4.7-14.1-1.2-15.3,7.1
	c-4.7,21.2-24.7,38.9-44.7,43.6c-8.2,1.2-17.7,0-24.7-2.4c-24.7-8.2-49.5-15.3-74.2-22.4c-8.2-2.4-15.3-10.6-22.4-15.3
	c-10.6,0-25.9,3.5-33-5.9c-3.5-2.4-7.1-10.6-8.2-14.1C1624.9,943.3,1619,924.5,1615.5,908"/>
<g>
	<path class="st2" d="M877.2,563c7.1,17.7,7.1,41.2,2.4,60c-1.2,1.2-2.4,1.2-3.5,0c-3.5-16.5-7.1-33-13-49.5
		c-3.5-9.4-15.3-17.7-10.6-28.3c2.4-2.4,7.1-2.4,10.6-1.2C869,550.1,872.5,556,877.2,563 M1065.6,727.9c13,15.3,22.4,31.8,17.7,51.8
		c-2.4,3.5-1.2,10.6-7.1,11.8c-2.4,1.2-4.7-1.2-4.7-3.5c-1.2-10.6-1.2-22.4-7.1-30.6c-7.1-7.1-15.3-21.2-27.1-21.2
		c-8.2,2.4-14.1,11.8-18.8,17.7c0,1.2-1.2,1.2-2.4,0c-4.7-11.8,4.7-21.2,8.2-30.6c7.1-7.1,5.9-27.1,21.2-21.2
		C1056.2,709,1058.6,720.8,1065.6,727.9 M1040.9,868c1.2,7.1,1.2,17.7-5.9,22.4c-7.1,2.4-16.5,3.5-24.7,2.4
		c-2.4-1.2-4.7-2.4-3.5-4.7c3.5-10.6,14.1-22.4,25.9-24.7C1035,863.3,1039.7,863.3,1040.9,868 M181.4,438.2
		c28.3,7.1,58.9,7.1,80.1,29.4c11.8,14.1,13,38.9,3.5,53c-16.5,28.3-49.5,42.4-69.5,67.1c-20,16.5-27.1,42.4-21.2,68.3
		c7.1,22.4,29.4,37.7,51.8,38.9c35.3,1.2,61.2-16.5,89.5-33c28.3-20,54.2-45.9,86-54.2c21.2-7.1,44.7-3.5,65.9-11.8
		c22.4-4.7,40-23.5,57.7-40c20-16.5,43.6-25.9,69.5-24.7c23.5,3.5,36.5-17.7,53-31.8c27.1-24.7,62.4-27.1,94.2-41.2
		c22.4-7.1,40-23.5,61.2-34.1c20-8.2,47.1-10.6,67.1-2.4c13,5.9,27.1,11.8,38.9,21.2l95.4,80.1c1.2,3.5,4.7,5.9,7.1,7.1
		c27.1,33,55.3,64.8,77.7,101.3c7.1,13,10.6,25.9,14.1,40c4.7,54.2,18.8,101.3,36.5,148.4c4.7,7.1,14.1,13,18.8,20
		c15.3,21.2,24.7,48.3,49.5,62.4l14.1,7.1c1.2,1.2,1.2,3.5,0,4.7l-2.4,2.4c-29.4,4.7-51.8-13-67.1-34.1
		c-9.4-18.8-22.4-38.9-43.6-47.1c-1.2,0-2.4,1.2-2.4,1.2c2.4,7.1,9.4,11.8,11.8,17.7c8.2,13,15.3,27.1,18.8,41.2
		c4.7,15.3,21.2,25.9,34.1,34.1l18.8,9.4c2.4,1.2,3.5,4.7,1.2,7.1l-2.4,1.2c-31.8,1.2-60-9.4-82.4-33c-4.7-5.9-11.8-10.6-20-10.6
		c-14.1,13-28.3,24.7-47.1,25.9c-20-3.5-41.2-3.5-58.9,3.5c-16.5,5.9-33,13-50.6,13c-8.2,0-17.7-3.5-21.2-11.8
		c0-10.6-7.1-22.4-1.2-33l11.8-17.7c0-2.4-1.2-4.7-3.5-4.7c-4.7-1.2-13,7.1-15.3-1.2c1.2-17.7,18.8-29.4,30.6-41.2
		c2.4-14.1,8.2-27.1,18.8-38.9c0-1.2-1.2-3.5-3.5-3.5c-15.3,2.4-30.6,5.9-47.1,5.9c-13,7.1-29.4,11.8-44.7,7.1
		c-3.5-2.4-2.4-5.9-1.2-8.2c16.5-22.4,22.4-50.6,17.7-77.7c-1.2-1.2-1.2-3.5-3.5-3.5s-2.4,2.4-3.5,3.5
		c-3.5,25.9-11.8,45.9-25.9,68.3c-10.6,10.6-27.1,10.6-41.2,14.1c-3.5,1.2-7.1,4.7-7.1,8.2c0,9.4,5.9,15.3,9.4,23.5l30.6,56.5
		c1.2,15.3-5.9,30.6-9.4,44.7c1.2,2.4,3.5,1.2,5.9,0c10.6-9.4,17.7-22.4,22.4-36.5c1.2-5.9-1.2-13-3.5-17.7l-31.8-63.6
		c2.4-3.5,7.1-3.5,10.6-4.7c7.1,0,14.1,3.5,21.2,5.9c7.1,18.8,15.3,38.9,28.3,55.3c2.4,10.6,5.9,24.7-1.2,33
		c-7.1,14.1-14.1,25.9-23.5,38.9c-8.2,8.2-20,7.1-31.8,8.2h-3.5c-28.3,15.3-57.7,24.7-88.3,34.1c-13,5.9-28.3,1.2-38.9-7.1
		c-10.6-8.2-15.3-20-22.4-30.6c-8.2-10.6-21.2-1.2-30.6-7.1c-8.2-13-16.5-25.9-23.5-40c0-3.5,0-7.1,3.5-9.4
		c10.6-3.5,22.4-3.5,34.1-4.7c10.6-1.2,22.4,1.2,29.4,8.2c14.1,16.5,20,38.9,41.2,49.5c16.5,1.2,30.6-3.5,44.7-10.6
		c8.2-4.7,17.7-11.8,17.7-22.4c-1.2-21.2-15.3-37.7-33-49.5c-17.7-9.4-36.5-22.4-49.5-38.9c-7.1-9.4-8.2-20-11.8-29.4
		c-1.2-2.4-5.9-2.4-7.1-1.2c-7.1,5.9-1.2,16.5-1.2,23.5c1.2,4.7,3.5,10.6,1.2,14.1c-10.6,8.2-24.7,3.5-37.7,4.7
		c-25.9-1.2-50.6-11.8-77.7-9.4c-25.9,1.2-61.2,18.8-80.1-7.1c-9.4-24.7-7.1-54.2-2.4-78.9c0-2.4-2.4-4.7-4.7-4.7
		c-2.4-1.2-4.7,0-5.9,2.4c-7.1,24.7-8.2,51.8-14.1,77.7c-9.4,22.4-25.9,45.9-48.3,57.7c-20,10.6-43.6,14.1-68.3,16.5
		c-44.7,1.2-86,9.4-114.2,48.3c-2.4,3.5-5.9,7.1-4.7,11.8c1.2,1.2,4.7,2.4,5.9,1.2c30.6-34.1,69.5-48.3,114.2-45.9
		c42.4,0,84.8-7.1,111.9-43.6c7.1-8.2,11.8-16.5,17.7-25.9c4.7,0,8.2,5.9,11.8,8.2c1.2,13-9.4,21.2-14.1,31.8
		c-5.9,11.8-11.8,25.9-23.5,33c-14.1,3.5-25.9,13-38.9,20c-13,5.9-29.4,8.2-44.7,4.7c-18.8-3.5-44.7-8.2-63.6,0
		c-9.4,5.9-17.7,16.5-27.1,22.4c-13,5.9-24.7,16.5-40,15.3c-10.6-2.4-23.5-9.4-33,0c-11.8,10.6-14.1,29.4-29.4,36.5
		c-17.7,9.4-36.5,0-54.2-1.2c2.4-17.7,4.7-34.1,16.5-47.1c7.1-1.2,13-2.4,18.8-7.1c7.1-5.9,11.8-14.1,16.5-22.4
		c15.3-9.4,33-16.5,42.4-33c7.1-15.3,7.1-29.4,18.8-43.6l5.9-2.4l31.8-2.4c13-5.9,24.7-11.8,36.5-21.2c3.5-3.5,4.7-9.4,3.5-15.3
		c-5.9-15.3-10.6-25.9-14.1-42.4c-3.5-16.5-1.2-33-3.5-51.8c-1.2-1.2-2.4-4.7-4.7-4.7c-21.2,4.7-41.2,10.6-64.8,7.1
		c-31.8-3.5-64.8-24.7-76.5-56.5c-10.6-27.1-8.2-65.9,11.8-88.3c18.8-23.5,42.4-41.2,65.9-61.2c3.5-2.4,3.5-7.1,4.7-10.6
		c0-4.7-4.7-8.2-8.2-10.6c-14.1-3.5-30.6,1.2-44.7-4.7c-24.7-8.2-43.6-31.8-47.1-57.7c-1.2-11.8,1.2-21.2,7.1-30.6
		C149.6,419.4,163.7,433.5,181.4,438.2 M110.7,964.5v3.5c-5.9,14.1-9.4,30.6-14.1,47.1c-10.6-1.2-20-4.7-28.3-8.2
		c-2.4-2.4,0-4.7,0-7.1c10.6-9.4,7.1-21.2,9.4-34.1c1.2-7.1,8.2-13,15.3-16.5C101.3,950.4,106,958.6,110.7,964.5 M162.5,915.1
		c-5.9,11.8-14.1,25.9-27.1,33c-4.7,1.2-10.6,1.2-15.3-1.2c-2.4-2.4-7.1-4.7-7.1-9.4c1.2-4.7-1.2-10.6,3.5-13
		c9.4-5.9,18.8-11.8,28.3-20c2.4-1.2,7.1-2.4,8.2,0C157.8,908,161.4,910.4,162.5,915.1 M752.4,910.4c1.2,4.7,8.2,10.6,3.5,15.3
		c-9.4,7.1-20,11.8-33,10.6c-9.4-7.1-8.2-20-16.5-29.4c-2.4-7.1-13-7.1-10.6-14.1l3.5-2.4c13,0,25.9,0,38.9-2.4
		C751.3,886.8,747.7,902.1,752.4,910.4 M1496.6,718.4c7.1,9.4,13,18.8,17.7,30.6c1.2,2.4,0,4.7-1.2,7.1c-1.2,2.4-3.5,4.7-7.1,2.4
		c-8.2-2.4-7.1-15.3-17.7-14.1c-7.1,0-11.8,5.9-17.7,9.4c-10.6,9.4-24.7,18.8-27.1,33c-2.4,4.7-1.2,13-5.9,15.3
		c-2.4,1.2-5.9-1.2-5.9-3.5c-1.2-18.8,4.7-36.5,17.7-49.5c13-10.6,22.4-25.9,33-38.9C1489.5,709,1494.2,713.7,1496.6,718.4
		 M1501.3,875c2.4,4.7,7.1,10.6,3.5,16.5c-4.7,3.5-13,1.2-18.8,1.2c-7.1-3.5-9.4-13-9.4-21.2c0-2.4,0-3.5,2.4-5.9
		C1487.1,865.6,1495.4,868,1501.3,875 M1677.9,514.8c3.5,4.7,0,9.4-2.4,13c-16.5,15.3-36.5,31.8-48.3,50.6c-4.7,5.9-8.2,13-10.6,20
		c0,1.2-1.2,1.2-2.4,1.2c-3.5-9.4,1.2-20,3.5-29.4c8.2-22.4,27.1-43.6,47.1-58.9C1667.3,510,1675.5,508.9,1677.9,514.8 M1745,439.4
		c13,8.2,17.7,25.9,33,29.4c25.9,5.9,51.8,11.8,75.4,23.5c16.5,8.2,31.8,20,47.1,33c14.1,7.1,31.8,7.1,47.1,11.8
		c22.4,5.9,40,22.4,60,35.3c25.9,20,62.4,17.7,91.8,30.6c47.1,15.3,84.8,51.8,128.3,73c22.4,11.8,56.5,16.5,78.9,3.5
		c15.3-10.6,24.7-24.7,21.2-44.7c-8.2-48.3-61.2-73-86-113c-4.7-9.4-8.2-22.4-5.9-33c9.4-23.5,34.1-36.5,55.3-44.7
		c16.5-8.2,37.7-5.9,53-15.3c5.9-3.5,10.6-8.2,14.1-11.8c3.5,0,3.5,3.5,4.7,5.9c4.7,28.3,0,57.7-24.7,74.2
		c-9.4,7.1-21.2,9.4-31.8,11.8c-9.4,3.5-28.3-3.5-27.1,13c2.4,8.2,9.4,13,15.3,18.8c33,27.1,63.6,62.4,67.1,104.8
		c1.2,33-21.2,61.2-49.5,75.4c-21.2,8.2-47.1,11.8-69.5,5.9c-5.9-1.2-15.3-7.1-20,1.2c-1.2,9.4,4.7,16.5,4.7,24.7
		c2.4,15.3,2.4,35.3-2.4,50.6c-2.4,11.8-14.1,25.9-3.5,37.7c10.6,16.5,31.8,11.8,49.5,14.1c9.4,1.2,13,11.8,15.3,18.8
		c3.5,9.4,3.5,20,7.1,27.1c0,17.7,20,24.7,29.4,36.5c11.8,13,22.4,35.3,42.4,34.1c7.1,14.1,10.6,27.1,13,43.6l-2.4,2.4
		c-16.5,0-38.9,4.7-50.6-7.1c-14.1-9.4-18.8-35.3-40-28.3c-9.4,7.1-22.4,9.4-33,4.7c-10.6-3.5-17.7-13-27.1-18.8
		c-28.3-21.2-65.9-31.8-102.4-23.5c-21.2,5.9-37.7-9.4-54.2-18.8c-22.4-9.4-28.3-33-33-53l-3.5-24.7c0-2.4,2.4-4.7,4.7-5.9h3.5
		c13,29.4,37.7,62.4,69.5,73c29.4,11.8,56.5-3.5,88.3,2.4c29.4,3.5,53,22.4,75.4,40c2.4,0,3.5-1.2,4.7-3.5v-2.4
		c-27.1-34.1-64.8-51.8-108.3-48.3c-36.5,7.1-71.8-4.7-93-35.3c-11.8-17.7-20-36.5-23.5-56.5c-3.5-23.5-8.2-49.5-16.5-70.6
		c-2.4-1.2-4.7-3.5-7.1-2.4l-2.4,3.5c3.5,22.4,10.6,49.5,2.4,73c-5.9,18.8-24.7,25.9-42.4,27.1c-17.7,1.2-34.1-2.4-53-2.4
		c-42.4-1.2-80.1,15.3-123.6,11.8c3.5-10.6,10.6-21.2,7.1-33c-1.2-2.4-4.7-2.4-7.1-2.4c-8.2,4.7-7.1,15.3-11.8,22.4
		c-9.4,15.3-27.1,29.4-44.7,33c-13,9.4-24.7,22.4-35.3,34.1c-3.5,3.5-3.5,10.6-2.4,15.3c8.2,21.2,33,23.5,51.8,29.4
		c9.4,1.2,17.7-2.4,22.4-10.6c8.2-13,9.4-34.1,28.3-36.5h41.2c3.5,1.2,5.9,3.5,8.2,7.1l-1.2,5.9c-9.4,10.6-13,25.9-24.7,33
		c-7.1,2.4-15.3,0-20,5.9c-2.4,14.1-5.9,29.4-20,36.5c-10.6,9.4-25.9,4.7-37.7,1.2c-22.4-8.2-44.7-13-67.1-20
		c-9.4-2.4-13-14.1-23.5-16.5c-9.4-2.4-20,4.7-28.3-3.5c-4.7-10.6-7.1-17.7-9.4-29.4c-3.5-7.1-5.9-15.3-7.1-23.5
		c-1.2-7.1,0-11.8,2.4-17.7l30.6-55.3c2.4-3.5,4.7-7.1,8.2-8.2c7.1,1.2,15.3,4.7,22.4,8.2l-1.2,3.5l-31.8,48.3
		c-7.1,15.3,0,33,7.1,45.9c1.2,1.2,2.4,3.5,3.5,2.4c-1.2-9.4-2.4-18.8,0-29.4c2.4-9.4,8.2-17.7,13-25.9l24.7-36.5
		c2.4-5.9,2.4-15.3-2.4-21.2c-10.6-10.6-25.9-14.1-35.3-28.3c-20-27.1-22.4-58.9-24.7-93c0-2.4-2.4-5.9-5.9-7.1
		c-2.4-1.2-4.7,2.4-5.9,3.5c-5.9,22.4-2.4,49.5,3.5,69.5c3.5,15.3,10.6,30.6,17.7,44.7c1.2,2.4-1.2,5.9-3.5,7.1
		c-16.5,1.2-33,0-48.3-2.4c-21.2-3.5-36.5-20-54.2-33c-2.4-1.2-3.5,1.2-4.7,2.4c4.7,23.5,30.6,37.7,38.9,58.9
		c4.7,17.7,22.4,30.6,25.9,49.5c0,2.4-2.4,5.9-4.7,7.1c-5.9,1.2-11.8-2.4-17.7,1.2c-1.2,10.6,5.9,21.2,1.2,30.6
		c-5.9,9.4-14.1,20-24.7,20c-21.2-7.1-42.4-16.5-63.6-22.4c-15.3-1.2-30.6,1.2-44.7,2.4c-14.1-2.4-23.5-15.3-34.1-22.4
		c-3.5-1.2-7.1-1.2-9.4,1.2c-23.5,23.5-49.5,49.5-84.8,48.3c-2.4,0-3.5-2.4-3.5-4.7v-2.4c15.3-14.1,34.1-28.3,41.2-48.3
		c4.7-16.5,18.8-28.3,24.7-43.6c1.2-2.4-1.2-3.5-3.5-4.7l-3.5,2.4c-17.7,17.7-30.6,37.7-43.6,56.5c-13,13-31.8,21.2-51.8,16.5
		c-2.4-1.2-2.4-4.7-1.2-7.1c73-44.7,81.2-124.8,101.3-197.8c14.1-48.3,24.7-97.7,62.4-136.6c56.5-62.4,127.2-98.9,189.6-153.1
		c9.4-8.2,18.8-16.5,30.6-16.5C1700.3,410,1723.8,421.7,1745,439.4 M2417.3,959.8c5.9,8.2,3.5,21.2,5.9,30.6c1.2,7.1,10.6,13,5.9,20
		l-25.9,8.2c-4.7,0-2.4-5.9-4.7-8.2c-2.4-15.3-5.9-25.9-10.6-40c-1.2-8.2,7.1-14.1,13-18.8C2406.7,949.2,2411.4,956.3,2417.3,959.8
		 M2357.3,906.8c9.4,8.2,22.4,14.1,29.4,24.7c1.2,4.7-2.4,9.4-4.7,13c-3.5,3.5-8.2,5.9-14.1,5.9s-10.6-3.5-14.1-8.2
		c-5.9-9.4-14.1-17.7-16.5-27.1C2340.8,909.2,2349,899.8,2357.3,906.8 M1789.8,897.4c-1.2,11.8-4.7,22.4-9.4,33
		c-3.5,7.1-14.1,4.7-21.2,3.5c-7.1-2.4-18.8-3.5-20-14.1c-1.2-9.4,3.5-18.8,8.2-25.9c10.6-1.2,23.5,1.2,34.1-1.2
		C1786.2,892.7,1789.8,893.9,1789.8,897.4"/>
</g>
<g>
	<g>
		<path class="st3" d="M1450,90c-3.2-2.8-7.5-4.2-11.8-3.8l-272.7,30.3c-7.7,0.8-13.5,7.3-13.5,15.1v269.9
			c-13.7-8.2-29.4-12.5-45.4-12.4c-41.8,0-75.7,27.2-75.7,60.6s34,60.6,75.7,60.6c41.8,0,75.7-27.2,75.7-60.6V220.9l242.4-27v177.2
			c-13.7-8.2-29.4-12.5-45.4-12.4c-41.8,0-75.7,27.2-75.7,60.6s34,60.6,75.7,60.6c41.8,0,75.7-27.2,75.7-60.6V101.3
			C1455.1,97,1453.2,92.9,1450,90z"/>
	</g>
</g>
</svg>
