<?xml version="1.0" encoding="utf-8"?>
<!-- Generator: Adobe Illustrator 24.0.0, SVG Export Plug-In . SVG Version: 6.00 Build 0)  -->
<svg version="1.1" id="barre_gauche" xmlns="http://www.w3.org/2000/svg" xmlns:xlink="http://www.w3.org/1999/xlink" x="0px"
	 y="0px" viewBox="0 0 604.5 99.4" style="enable-background:new 0 0 604.5 99.4;" xml:space="preserve">
<style type="text/css">
	.st0{fill:#F0FE36;}
	.st1{clip-path:url(#SVGID_2_);}
	.st2{clip-path:url(#SVGID_4_);}
	.st3{fill:#15008D;}
	.st4{fill:#FFFF18;}
	.st5{fill:#AA6C00;}
	.st6{fill:#5669EA;}
</style>
<title>barre de gauche</title>
<polygon class="st0" points="597.5,3.1 289.5,3.1 273.5,20.1 3.5,20.1 3.5,96.1 227.5,96.1 234.5,81.1 347.5,82.1 355.5,72.1 
	507.5,73.1 523.5,51.1 580.5,51.1 604.5,21.1 583.5,21.1 "/>
<g>
	<defs>
		<polygon id="SVGID_1_" points="593.5,5.1 289.5,6.1 257.2,48.1 5.5,48.1 5.5,94.1 224.5,94.1 232.5,80.1 345.5,79.1 352.5,70.1 
			505.5,70.1 520.5,51.1 578.1,23.1 		"/>
	</defs>
	<clipPath id="SVGID_2_">
		<use xlink:href="#SVGID_1_"  style="overflow:visible;"/>
	</clipPath>
	<g class="st1">
		<g>
			<defs>
				<rect id="SVGID_3_" x="0.5" y="0.1" width="598" height="99"/>
			</defs>
			<clipPath id="SVGID_4_">
				<use xlink:href="#SVGID_3_"  style="overflow:visible;"/>
			</clipPath>
			<g class="st2">
				
					<image style="overflow:visible;enable-background:new    ;" width="1247" height="207" xlink:href="9D95688A.png"  transform="matrix(0.48 0 0 0.48 0 0)">
				</image>
			</g>
		</g>
	</g>
</g>
<polygon class="st3" points="575.5,25.1 582.5,10.1 293.5,11.1 276.5,23.1 290.5,8.1 588.5,8.1 "/>
<polygon class="st4" points="600.5,23.1 580.5,48.1 5.5,48.1 5.5,23.1 "/>
<polygon class="st5" points="582.5,42.1 589.5,27.1 11.5,29.1 7.5,25.1 595.5,25.1 "/>
<polygon class="st3" points="503.5,68.1 510.5,53.1 10.5,54.1 9.5,88.1 8.5,51.1 516.5,51.1 "/>
<polygon class="st6" points="350.5,68.1 344.5,77.1 231.5,77.1 223.5,92.1 35.5,93.1 221.5,90.1 229.5,75.1 343.5,75.1 "/>
</svg>
