<?xml version="1.0" encoding="utf-8"?>
<!-- Generator: Adobe Illustrator 24.0.0, SVG Export Plug-In . SVG Version: 6.00 Build 0)  -->
<svg version="1.1" id="barre_droit" xmlns="http://www.w3.org/2000/svg" xmlns:xlink="http://www.w3.org/1999/xlink" x="0px"
	 y="0px" viewBox="0 0 604.1 99.4" style="enable-background:new 0 0 604.1 99.4;" xml:space="preserve">
<style type="text/css">
	.st0{fill:#F0FE36;}
	.st1{clip-path:url(#SVGID_2_);}
	.st2{clip-path:url(#SVGID_4_);}
	.st3{fill:#15008D;}
	.st4{fill:#FFFF18;}
	.st5{fill:#AA6C00;}
	.st6{fill:#5669EA;}
</style>
<title>barre de droite</title>
<polygon class="st0" points="7,3 315,3 331,20 601,20 601,96 377,96 370,81 257,82 249,72 97,73 81,51 24,51 0,21 21,21 "/>
<g>
	<defs>
		<polygon id="SVGID_1_" points="11,5 315,6 347.2,48 599,48 599,94 380,94 372,80 259,79 252,70 99,70 84,51 26.3,23 		"/>
	</defs>
	<clipPath id="SVGID_2_">
		<use xlink:href="#SVGID_1_"  style="overflow:visible;"/>
	</clipPath>
	<g class="st1">
		<g>
			<defs>
				<rect id="SVGID_3_" x="6" y="0" width="598" height="99"/>
			</defs>
			<clipPath id="SVGID_4_">
				<use xlink:href="#SVGID_3_"  style="overflow:visible;"/>
			</clipPath>
			<g class="st2">
				
					<image style="overflow:visible;enable-background:new    ;" width="1247" height="207" xlink:href="F0C568F6.png"  transform="matrix(0.48 0 0 0.48 5.58 0)">
				</image>
			</g>
		</g>
	</g>
</g>
<polygon class="st3" points="29,25 22,10 311,11 328,23 314,8 16,8 "/>
<polygon class="st4" points="4,23 24,48 599,48 599,23 "/>
<polygon class="st5" points="22,42 15,27 593,29 597,25 9,25 "/>
<polygon class="st3" points="101,68 94,53 594,54 595,88 596,51 88,51 "/>
<polygon class="st6" points="254,68 260,77 373,77 381,92 569,93 383,90 375,75 261,75 "/>
</svg>
