<?xml version="1.0" encoding="utf-8"?>
<!-- Generator: Adobe Illustrator 24.0.0, SVG Export Plug-In . SVG Version: 6.00 Build 0)  -->
<svg version="1.1" id="Capa_1" xmlns="http://www.w3.org/2000/svg" xmlns:xlink="http://www.w3.org/1999/xlink" x="0px" y="0px"
	 viewBox="0 0 512 512" style="enable-background:new 0 0 512 512;" xml:space="preserve">
<style type="text/css">
	.st0{fill:#FFD222;}
	.st1{fill:#EAF6FF;}
	.st2{fill:#D8ECFE;}
	.st3{fill:#EDED2F;}
	.st4{fill:#C4E2FF;}
	.st5{fill:#1829A0;}
	.st6{fill:#AA6A51;}
</style>
<g>
	<polygon class="st0" points="382.1,27.7 495.5,117.7 302.7,198.4 396.9,249.5 191.3,331.1 291.2,382.6 27.4,498.3 175.6,377.1 
		93,324.8 250.5,237.6 129.5,233.4 	"/>
	<g>
		<path class="st1" d="M386.7,82V14.9H128.2V82c0,65.3,32.6,121.4,79,145.3c10.4,5.4,17.1,16.2,17.1,28v1.4c0,11.9-6.6,22.7-17.1,28
			c-46.4,23.9-79,80-79,145.3v67.1h258.4V430c0-65.3-32.6-121.4-79-145.3c-10.4-5.4-17.1-16.2-17.1-28v-1.4c0-11.9,6.6-22.7,17.1-28
			C354.1,203.4,386.7,147.3,386.7,82z"/>
		<path class="st2" d="M307.7,227.3c46.4-23.9,79-80,79-145.3V14.9h-29.2V82c0,65.3-32.6,121.4-79,145.3
			c-10.4,5.4-17.1,16.2-17.1,28v1.4c0,11.9,6.6,22.7,17.1,28c46.4,23.9,79,80,79,145.3v67.1h29.2V430c0-65.3-32.6-121.4-79-145.3
			c-10.4-5.4-17.1-16.2-17.1-28v-1.4C290.7,243.4,297.3,232.7,307.7,227.3L307.7,227.3z"/>
		<path class="st3" d="M256,202.9c23.1-0.5,45.1-12.1,62.2-33c13.5-16.4,22.6-36.9,26.9-59.4H167c4.2,22.5,13.4,43,26.9,59.4
			C210.9,190.8,232.9,202.5,256,202.9L256,202.9z"/>
		<path class="st2" d="M372.1,60.8V20.9H128.2v51.6h229.2L372.1,60.8z"/>
		<path class="st4" d="M357.5,20.9h29.2v51.6h-29.2V20.9z"/>
		<path class="st5" d="M408,34.5V17.1C408,7.7,400.5,0,391.2,0H117.9c-9.3,0-16.8,7.7-16.8,17.1v17.4c0,9.5,7.5,17.1,16.8,17.1
			h273.3C400.5,51.6,408,44,408,34.5z"/>
		<path class="st5" d="M397,0h-29.2c9.3,0,16.8,7.7,16.8,17.1v17.4c0,9.5-7.5,17.1-16.8,17.1H397c9.3,0,16.8-7.7,16.8-17.1V17.1
			C413.9,7.7,406.3,0,397,0z"/>
		<g>
			<path class="st3" d="M265.2,260.9c0-4.3-3.5-7.9-7.7-7.9c-4.3,0-7.7,3.5-7.7,7.9v4.2c0,4.3,3.5,7.9,7.7,7.9
				c4.3,0,7.7-3.5,7.7-7.9V260.9z"/>
			<path class="st3" d="M265.2,229.2c0-4.3-3.5-7.9-7.7-7.9c-4.3,0-7.7,3.5-7.7,7.9v4.2c0,4.3,3.5,7.9,7.7,7.9
				c4.3,0,7.7-3.5,7.7-7.9V229.2z"/>
			<path class="st3" d="M265.2,324.3c0-4.3-3.5-7.9-7.7-7.9c-4.3,0-7.7,3.5-7.7,7.9v4.2c0,4.3,3.5,7.9,7.7,7.9
				c4.3,0,7.7-3.5,7.7-7.9V324.3z"/>
			<path class="st3" d="M265.2,292.6c0-4.3-3.5-7.9-7.7-7.9c-4.3,0-7.7,3.5-7.7,7.9v4.2c0,4.3,3.5,7.9,7.7,7.9
				c4.3,0,7.7-3.5,7.7-7.9V292.6z"/>
			<path class="st3" d="M321.1,379.3c-17.4-15.4-40-23.9-63.6-23.9s-46.2,8.5-63.6,23.9c-19,16.8-29.5,39.5-29.5,63.8v17.2v14.6
				h186.2v-14.6v-17.2C350.6,418.8,340.1,396.2,321.1,379.3z"/>
		</g>
		<path class="st6" d="M408,494.9v-17.4c0-9.5-7.5-17.1-16.8-17.1H115c-9.3,0-16.8,7.7-16.8,17.1v17.4c0,9.5,7.5,17.1,16.8,17.1
			h276.2C400.5,512,408,504.3,408,494.9z"/>
		<path class="st6" d="M410.9,494.9v-17.4c0-9.5-7.5-17.1-16.8-17.1H117.9c-9.3,0-16.8,7.7-16.8,17.1v17.4c0,9.5,7.5,17.1,16.8,17.1
			h276.2C403.4,512,410.9,504.3,410.9,494.9z"/>
		<path class="st6" d="M408,494.9v-17.4c0-9.5-7.5-17.1-16.8-17.1H115c-9.3,0-16.8,7.7-16.8,17.1v17.4c0,9.5,7.5,17.1,16.8,17.1
			h276.2C400.5,512,408,504.3,408,494.9z"/>
		<path class="st5" d="M408,494.9v-17.4c0-9.5-7.5-17.1-16.8-17.1H115c-9.3,0-16.8,7.7-16.8,17.1v17.4c0,9.5,7.5,17.1,16.8,17.1
			h276.2C400.5,512,408,504.3,408,494.9z"/>
		<path class="st5" d="M397,460.4h-29.2c9.3,0,16.8,7.7,16.8,17.1v17.4c0,9.5-7.5,17.1-16.8,17.1H397c9.3,0,16.8-7.7,16.8-17.1
			v-17.4C413.9,468,406.3,460.4,397,460.4L397,460.4z"/>
	</g>
</g>
</svg>
