<?xml version="1.0" encoding="utf-8"?>
<!-- Generator: Adobe Illustrator 24.0.0, SVG Export Plug-In . SVG Version: 6.00 Build 0)  -->
<svg version="1.1" id="Capa_1" xmlns="http://www.w3.org/2000/svg" xmlns:xlink="http://www.w3.org/1999/xlink" x="0px" y="0px"
	 viewBox="0 0 455.4 455.4" style="enable-background:new 0 0 455.4 455.4;" xml:space="preserve">
<style type="text/css">
	.st0{fill:#121F93;}
	.st1{fill:#04094C;}
	.st2{fill:#FFFF00;}
</style>
<path class="st0" d="M396.1,402.9c-66,53.9-272,53.9-336.7,0c-66-53.9-59.3-284.2,0-344.8s277.4-60.6,336.7,0
	S462.1,349.1,396.1,402.9z"/>
<path class="st1" d="M229.1,308.7c-59.3,47.1-125.3,71.4-187.2,72.7c-45.8-78.1-36.4-268,17.5-323.2C107.9,8.3,260-1.1,347.6,29.9
	C369.1,118.8,324.7,231.9,229.1,308.7z"/>
<path class="st2" d="M257.3,283.1h-57.9v-28.3c0-10.8,1.3-18.9,4-22.9c2.7-5.4,8.1-12.1,17.5-21.5l25.6-26.9c4-4,5.4-10.8,5.4-17.5
	c0-6.7-1.3-13.5-6.7-17.5c-4-5.4-9.4-6.7-16.2-6.7s-12.1,2.7-16.2,8.1c-4,5.4-6.7,13.5-8.1,22.9h-60.6c2.7-25.6,12.1-45.8,28.3-59.3
	s35-21.5,59.3-21.5s43.1,6.7,57.9,18.9c14.8,13.5,22.9,31,22.9,53.9c0,10.8-1.3,17.5-4,22.9c-2.7,5.4-4,8.1-5.4,10.8
	c-1.3,2.7-4,5.4-6.7,9.4c-4,4-6.7,6.7-8.1,8.1c-6.7,6.7-12.1,12.1-17.5,17.5c-5.4,5.4-9.4,9.4-10.8,13.5c-1.3,4-2.7,8.1-2.7,14.8
	L257.3,283.1L257.3,283.1z M195.4,331.6c0-18.9,14.8-33.7,33.7-33.7s33.7,14.8,33.7,33.7s-14.8,33.7-33.7,33.7
	S195.4,350.4,195.4,331.6z"/>
</svg>
