<svg xmlns="http://www.w3.org/2000/svg" xmlns:xlink="http://www.w3.org/1999/xlink" viewBox="0 0 325 917.14"><defs><style>.cls-1{fill:#e29a7a;}.cls-2{fill:#727272;}.cls-3{fill:#32292f;}.cls-4{fill:#9a906b;}.cls-5,.cls-6,.cls-8{fill:#fff;}.cls-5,.cls-8{stroke:#fc3;}.cls-5{stroke-miterlimit:10;stroke-width:2px;}.cls-7{fill:#ffd24d;}.cls-8{stroke-linecap:round;stroke-linejoin:bevel;}.cls-9{fill:#ffd222;}.cls-10{fill:#0f0071;}.cls-11{fill:#0823d3;}.cls-12{fill:#4040d4;}.cls-13{fill:#413fd4;}.cls-14{fill:#4340d7;}.cls-15{fill:#0a22d3;}.cls-16{fill:#494147;opacity:0.47;}.cls-17{fill:#353126;}.cls-18{fill:#604e16;}.cls-19{fill:#db967b;}.cls-20{fill:#787049;}.cls-21{fill:#544314;}.cls-22{fill:#6d5b18;}.cls-23{fill:none;}.cls-24{fill:#837d5a;}.cls-25{fill:#a29873;}.cls-26{fill:#e5e0db;}.cls-27{fill:#9c371e;}.cls-28{fill:#42290a;}.cls-29{fill:#3b3432;}.cls-30{fill:#d8d6d0;}.cls-31{fill:#ce8b76;}.cls-32{fill:#d6907b;}.cls-33{fill:#d8937d;}.cls-34{fill:url(#Dégradé_sans_nom_7);}.cls-35{fill:url(#Dégradé_sans_nom_7-2);}.cls-36{fill:url(#Dégradé_sans_nom_7-3);}.cls-37{fill:url(#Dégradé_sans_nom_7-4);}.cls-38{fill:url(#Dégradé_sans_nom_9);}.cls-39{fill:url(#Dégradé_sans_nom_9-2);}.cls-40{fill:url(#Dégradé_sans_nom_9-3);}.cls-41{fill:url(#Dégradé_sans_nom_9-4);}.cls-42{fill:url(#Dégradé_sans_nom_9-5);}.cls-43{fill:#e4966d;}.cls-44{fill:#5e473a;}.cls-45{fill:url(#Dégradé_sans_nom_48);}.cls-46{fill:url(#Nouvelle_nuance_de_dégradé_1);}.cls-47{fill:#b27b67;}.cls-48{fill:#dbc8cc;}.cls-49{fill:#513b28;}.cls-50{fill:#765835;}.cls-51{fill:#be6457;}.cls-52{fill:#e8bbc2;}.cls-53{fill:#b64d3e;}.cls-54{fill:#a33521;}.cls-55{fill:#933427;}.cls-56{fill:#e8ae7d;}.cls-57{fill:#cd8960;}.cls-58{fill:#9f4e31;}.cls-59{fill:#a85650;}.cls-60{fill:#a35f5d;}.cls-61{fill:#af655e;}.cls-62{fill:#4a361c;}.cls-63{fill:#443b36;opacity:0.49;}.cls-64{fill:#191805;}.cls-65{fill:#dddadb;}.cls-66{fill:#d8a391;}.cls-67{fill:#1f1504;}.cls-68{fill:#e09777;}.cls-69{fill:#dda187;}.cls-70{fill:#d8aa9a;}.cls-71{fill:#dd9c83;}.cls-72{fill:#c98b75;}.cls-73,.cls-74{fill:#2d120a;}.cls-73{opacity:0.76;}.cls-75{fill:url(#Dégradé_sans_nom_82);}.cls-76{fill:#e09b80;}.cls-77{fill:#dd9985;}.cls-78{fill:#e09e85;}.cls-79{fill:#e29b7f;}.cls-80{fill:#e09c85;}.cls-81{fill:url(#Dégradé_sans_nom_30);}.cls-82{fill:url(#Dégradé_sans_nom_31);}.cls-83{fill:#d89479;}.cls-84{fill:#c68771;}.cls-85{fill:#ce9580;}.cls-86{fill:#190804;}</style><radialGradient id="Dégradé_sans_nom_7" cx="1704.43" cy="437.52" r="11.8" gradientTransform="matrix(1.15, -0.21, 0.03, 0.11, -1799.22, 660.54)" gradientUnits="userSpaceOnUse"><stop offset="0" stop-color="#b57969"/><stop offset="1" stop-color="#db967b"/></radialGradient><radialGradient id="Dégradé_sans_nom_7-2" cx="1702.59" cy="432.44" r="12.01" gradientTransform="matrix(1.04, -0.17, 0.03, 0.09, -1603.98, 593.92)" xlink:href="#Dégradé_sans_nom_7"/><radialGradient id="Dégradé_sans_nom_7-3" cx="1701.43" cy="427.52" r="11.8" gradientTransform="translate(-1503.86 656.04) rotate(-12.08) scale(1 0.11)" xlink:href="#Dégradé_sans_nom_7"/><radialGradient id="Dégradé_sans_nom_7-4" cx="1702.43" cy="444.52" r="11.8" gradientTransform="translate(-1504.21 671.48) rotate(-12.08) scale(1 0.11)" xlink:href="#Dégradé_sans_nom_7"/><radialGradient id="Dégradé_sans_nom_9" cx="1756.81" cy="425.58" r="14.87" gradientTransform="translate(-1421.14 -276.01) rotate(18.2) scale(1 0.17)" xlink:href="#Dégradé_sans_nom_7"/><radialGradient id="Dégradé_sans_nom_9-2" cx="1739.75" cy="427.99" r="15.47" gradientTransform="translate(-1421.86 -268.67) rotate(18.2) scale(1 0.17)" xlink:href="#Dégradé_sans_nom_7"/><radialGradient id="Dégradé_sans_nom_9-3" cx="1737.31" cy="432.44" r="14.16" gradientTransform="translate(-1421.74 -264.19) rotate(18.2) scale(1 0.17)" xlink:href="#Dégradé_sans_nom_7"/><radialGradient id="Dégradé_sans_nom_9-4" cx="1735.19" cy="439.44" r="14.35" gradientTransform="translate(-1421.47 -257.68) rotate(18.2) scale(1 0.17)" xlink:href="#Dégradé_sans_nom_7"/><radialGradient id="Dégradé_sans_nom_9-5" cx="1732.1" cy="444.88" r="12.46" gradientTransform="translate(-1421.33 -252.17) rotate(18.2) scale(1 0.17)" xlink:href="#Dégradé_sans_nom_7"/><linearGradient id="Dégradé_sans_nom_48" x1="1689.98" y1="148.25" x2="1676.57" y2="166.61" gradientUnits="userSpaceOnUse"><stop offset="0" stop-color="#d89479"/><stop offset="1" stop-color="#e29a7a"/></linearGradient><linearGradient id="Nouvelle_nuance_de_dégradé_1" x1="1712.01" y1="167.5" x2="1731.59" y2="147.93" xlink:href="#Dégradé_sans_nom_48"/><linearGradient id="Dégradé_sans_nom_82" x1="1696.23" y1="168.64" x2="1712.24" y2="168.64" gradientUnits="userSpaceOnUse"><stop offset="0" stop-color="#e29a7a"/><stop offset="0.37" stop-color="#dc9679"/><stop offset="1" stop-color="#d89479"/></linearGradient><linearGradient id="Dégradé_sans_nom_30" x1="1711.55" y1="160.06" x2="1714.6" y2="160.06" gradientUnits="userSpaceOnUse"><stop offset="0" stop-color="#a8042f"/><stop offset="0.05" stop-color="#b22b4e"/><stop offset="0.1" stop-color="#bc4f6b"/><stop offset="0.16" stop-color="#c47086"/><stop offset="0.22" stop-color="#cb8c9c"/><stop offset="0.29" stop-color="#d1a2ae"/><stop offset="0.38" stop-color="#d6b3bb"/><stop offset="0.48" stop-color="#d9bfc5"/><stop offset="0.62" stop-color="#dbc6ca"/><stop offset="1" stop-color="#dbc8cc"/></linearGradient><linearGradient id="Dégradé_sans_nom_31" x1="1690.07" y1="160" x2="1692.77" y2="160" gradientUnits="userSpaceOnUse"><stop offset="0" stop-color="#dbc8cc"/><stop offset="0.39" stop-color="#dbc6cb"/><stop offset="0.53" stop-color="#dabfc5"/><stop offset="0.63" stop-color="#d9b4bc"/><stop offset="0.71" stop-color="#d7a3af"/><stop offset="0.78" stop-color="#d48d9d"/><stop offset="0.85" stop-color="#d17188"/><stop offset="0.9" stop-color="#cd516f"/><stop offset="0.95" stop-color="#c92d52"/><stop offset="1" stop-color="#c40432"/><stop offset="1" stop-color="#c4002f"/></linearGradient></defs><title>mehdi caret main étonner</title><g id="cou"><path class="cls-1" d="M1730,203l7,24,7,10s-11.17,24.11-24.79,23.86-36.3,4.8-47.65-4.55S1662,235,1662,235l7-12,3-13Z" transform="translate(-1532 -83)"/></g><g id="Calque_5" data-name="Calque 5"><polygon class="cls-2" points="148.5 852.5 150.5 832.5 199.5 833.5 188.5 842.5 155.5 856.5 148.5 852.5"/><path class="cls-2" d="M1607,917l-3,13,29,9s7-6,8-6-3-14-3-14Z" transform="translate(-1532 -83)"/><path class="cls-3" d="M1664,228a350.58,350.58,0,0,1-74,32s-14,14-24,41-34,70-34,70,70,24,71,31-15,38-14,49,6,36,3,43-5,35-2,44,1,15,1,15,197,11,201,11,10-3,10-3,1-75-5-87-8-62-8-62,40-5,68-21c0,0-26-65-30-81s-15-38-22-41-61-34-61-34-18,42-60,15C1684,250,1665,241,1664,228Z" transform="translate(-1532 -83)"/><path class="cls-4" d="M1685,661c0,1-2,66-5,68s-12,32-13,34-8,27-8,29-4,92-4,96,3,22,0,25l-15,15s-12,6-13,6-13-9-14-10-8-2-8-2l-14-18,2-17-8-11,10-15s-6-103-3-107l-12-21-2-19,9-27,7-30-2-18,3-16,3-18-1-21-4,1-2-3-2-14,5.06-14.47S1642,551,1652,556c0,0,127,9,140,8l5.34-.06L1795,580l-4,9v17c0,1-3,4-3,4l4,74s-5,27-11,38l-1,11-13,19s-4,38-4,41-4,12-4,12-5,37-5,41-12,55-13,56,0,17,0,17l-11,6s-14-3-15-3h-17l-16,3-14-10,19-20,3-89,5-17V768l-1-36-4-18,1-32Z" transform="translate(-1532 -83)"/><g id="carte"><rect class="cls-5" x="155" y="284.73" width="62" height="85.19" rx="12"/><rect class="cls-6" x="155.88" y="285.7" width="60.6" height="83.27" rx="12"/><path class="cls-7" d="M1699.88,452.64c.14-.09.06-.28-.34-.26l-.3.31Z" transform="translate(-1532 -83)"/><path class="cls-7" d="M1697.28,451.73c-.47,0-1.09.18-.87.55.55-.2.62,0,1.19-.3.4,0,.67.21.58.32.15-.05.62.17.85,0a3.15,3.15,0,0,0-.83-.3,4.7,4.7,0,0,0-1,0C1697.08,451.83,1697.24,451.78,1697.28,451.73Z" transform="translate(-1532 -83)"/><path class="cls-7" d="M1688.34,418.32l0,.25A1.45,1.45,0,0,0,1688.34,418.32Z" transform="translate(-1532 -83)"/><path class="cls-7" d="M1688.52,394.86c0,.18,0,.25.07.26C1688.57,395,1688.55,394.82,1688.52,394.86Z" transform="translate(-1532 -83)"/><path class="cls-7" d="M1688.89,390.85l0,.24A.43.43,0,0,0,1688.89,390.85Z" transform="translate(-1532 -83)"/><path class="cls-7" d="M1688.34,418.32l.1-.62C1688.34,417.65,1688.36,418,1688.34,418.32Z" transform="translate(-1532 -83)"/><path class="cls-7" d="M1692.08,450.16a1.59,1.59,0,0,0,.35.14l-.3-.17Z" transform="translate(-1532 -83)"/><path class="cls-7" d="M1688.61,428.67v.19a1,1,0,0,0,.13.16Z" transform="translate(-1532 -83)"/><path class="cls-7" d="M1688.66,436.61c0-.18-.27-.24-.39-.31a.61.61,0,0,1,.19.39A.35.35,0,0,0,1688.66,436.61Z" transform="translate(-1532 -83)"/><path class="cls-7" d="M1691.48,448.1l.18.14A2.2,2.2,0,0,1,1691.48,448.1Z" transform="translate(-1532 -83)"/><path class="cls-7" d="M1688.67,423a.27.27,0,0,0,.1-.08S1688.7,422.94,1688.67,423Z" transform="translate(-1532 -83)"/><path class="cls-7" d="M1709.08,453.29v-.05S1709,453.29,1709.08,453.29Z" transform="translate(-1532 -83)"/><path class="cls-7" d="M1699.88,451.9l.12,0a.4.4,0,0,0,0-.15Z" transform="translate(-1532 -83)"/><path class="cls-7" d="M1689.25,383.52v0C1689.27,383.75,1689.27,383.64,1689.25,383.52Z" transform="translate(-1532 -83)"/><path class="cls-7" d="M1743.89,372.84c-.35-.67,1.06.55.48-.38C1744.36,372.6,1743.36,372.13,1743.89,372.84Z" transform="translate(-1532 -83)"/><path class="cls-7" d="M1691.93,450a1.86,1.86,0,0,1-.27-.22A1.36,1.36,0,0,0,1691.93,450Z" transform="translate(-1532 -83)"/><path class="cls-7" d="M1744.37,372.46h0l-.07-.1Z" transform="translate(-1532 -83)"/><path class="cls-7" d="M1695.71,370.75a.38.38,0,0,0-.19-.05S1695.58,370.74,1695.71,370.75Z" transform="translate(-1532 -83)"/><path class="cls-7" d="M1688.77,379.32l.09-.28A1.28,1.28,0,0,0,1688.77,379.32Z" transform="translate(-1532 -83)"/><path class="cls-7" d="M1701.66,369.51a1.07,1.07,0,0,0,.45,0l-.07,0A.57.57,0,0,1,1701.66,369.51Z" transform="translate(-1532 -83)"/><path class="cls-7" d="M1708.46,369.51l-.13-.06-.21,0Z" transform="translate(-1532 -83)"/><path class="cls-7" d="M1729.75,453.15a.81.81,0,0,1-.31-.25C1729.54,453.1,1728.54,453.17,1729.75,453.15Z" transform="translate(-1532 -83)"/><path class="cls-7" d="M1692.18,450a.29.29,0,0,1-.25,0l.2.13S1692.2,450.08,1692.18,450Z" transform="translate(-1532 -83)"/><path class="cls-7" d="M1701.93,367.29l1.08,0C1702.71,367.31,1702.32,367.29,1701.93,367.29Z" transform="translate(-1532 -83)"/><path class="cls-7" d="M1749.62,416.73l0,.25A.51.51,0,0,0,1749.62,416.73Z" transform="translate(-1532 -83)"/><path class="cls-7" d="M1706.22,367.29a2.18,2.18,0,0,0,.61.2s.09,0,.12-.08Z" transform="translate(-1532 -83)"/><path class="cls-7" d="M1729.43,452.9h0Z" transform="translate(-1532 -83)"/><path class="cls-7" d="M1722.31,453.57c1,0,.49-.36.71-.58,1.23-.1.57.28,1,.46.77-.09,1.36-.43,1.93-.42,0,.06.16.08,0,.16.81-.29,2.4,0,3.35-.38q.11,0,.12.09a.6.6,0,0,1-.14-.51c.46,0,.85-.23,1,0-.28,0-.31.09-.44.17l.48-.11c.44.35-.66.12-.66.38a14,14,0,0,1,2.77-.3c.15.34-1.69.11-.73.41l-1.12-.13c.86.54-.68,0,.11.54,1.47.1,1.65-.17,3.11-.08.33-.18-.11-.27.22-.46a2.31,2.31,0,0,1,1.8.24,1.42,1.42,0,0,0,1.46.12c.43-.24.53-.69,1.71-.65l-.33.44a1.79,1.79,0,0,0,1.16-.49A2.26,2.26,0,0,1,1741,452c-.21.25-1.1.52-.87.48,1.1-.05.64-.45,1.38-.73l.29.24a13.24,13.24,0,0,0,4.05-3.35c0,.14-.13.45.23.2a18.55,18.55,0,0,0,3.49-6.27l-.16-.9c0-.2.19-.35.21-.13.21-.87-.17-.07-.25-.5s.2-.64.28-.32c-.07-.82-.23-1.76-.29-2.78a11.14,11.14,0,0,1,.1-2.77l.09.28c.12-1.15-.6-1.3-.33-2.37l0,.21c.13-2.5-.14-5.27.3-7.18-.42-.36.19-2.48-.4-2.64a14.86,14.86,0,0,0,.6-3c0-.54-.37-.8-.43-1.47h.31l-.33-.91.37-.48-.08-.62c0,.25-.14.53-.23.49a4.3,4.3,0,0,1,.38-2.4l-.26-2.3c.12.05.16.44.24.74-.31-1.23.33-.22,0-1.35-.07.15-.18-.08-.25-.11a9,9,0,0,0,.11-2.78l.21.18c.06-1.71-.1-3.6-.09-5.52-.1.69-.47.53-.51,0l.33-.23c-.2-.36-.12.59-.37-.16,0-.71.37-.48.48-.07l-.12-.87c.1-.05.15.16.28.21-.21-.36.32-1.5,0-2l.1-.05c0-1.92-.11-2.78-.13-4.35-.28,0-.22-.64-.44-1.1a35.39,35.39,0,0,0,.28-3.81c-.14-1-.23-.28-.4-.72.25-.07.23-1.45.41-.73,0-1.66,0-2.12-.25-4.22-.11.23-.15.48-.24.35,0-.38.11-.87.23-.81l0,.1a14,14,0,0,1,.17-3.84c0-.33.08-.64.11-1s0-.68,0-1a4.32,4.32,0,0,0-.4-1.73l.06.11a12.78,12.78,0,0,0-.89-2c-.29-.93.39.48.28-.26-.31-.5-.6-.93-.82-1.35s-.47-.78-.7-1.14a6.84,6.84,0,0,0-1.72-1.94,5.18,5.18,0,0,0-2.54-2.29c-1.25-.64-2.62-1.05-3.56-1.49l.08.2c-.54,0-.59-.22-1-.33,0,.14.53.24.2.29a25.61,25.61,0,0,0-3.21-.17c-1,0-2-.06-3.06-.11-2-.11-4.12-.27-6.14-.35-1.49,0-.84.92-2.71.49l.53-.33c-3,.4-6.12,0-9.05.32.18-.07.18-.17.47-.17a3.69,3.69,0,0,0-2.3.18c-.46,0-.11-.17-.39-.27-.62-.14-1.55.3-1.88.07-.06,0,.17-.08.28-.1-.4.11-1.88,0-1.49.25-1.1-.14-2.11.12-3,0-.57.3-1.88-.15-2.06.28.07-.45-1.93-.36-2.63-.15.24-.13-.6-.14-.33-.33-.79,0-1.52.09-1.38.32a2.55,2.55,0,0,0-1.14-.14,4.37,4.37,0,0,0-1.12.2,7.06,7.06,0,0,1-1,.22,1.41,1.41,0,0,1-.84-.05,13.52,13.52,0,0,0-3.3,1.78,15.3,15.3,0,0,0-1.38,1.12c-.4.42-.83.8-1.18,1.25-.14-.19.28-.66.74-1.08s.93-.76.74-.94a8.31,8.31,0,0,0-1.06,1.1,10.89,10.89,0,0,0-.79,1.07c-.49.71-.92,1.43-1.51,2.33-.33.45,0-.37,0-.57a22.49,22.49,0,0,0-1.26,2.93,8.59,8.59,0,0,0-.41,2.95s-.08-.22-.1-.42c0,.38-.12.89.09.85l0-.37c.17-.3.3.1.42.55a3.09,3.09,0,0,0,.32,1c-.59-.59-.15,1.77-.89.82,0,.23.13.52.27.47,0,.34-.12.45-.27.1.11,1.27.33.82.32,2-.1,0-.14-.23-.25-.35a4.76,4.76,0,0,1,.3,2.12c-.06-.05-.14.06-.14-.23,0,1.66.52,2.83.33,4.65-.43-.54-.14.62-.51.71l.11,1,.18-.39a18,18,0,0,1,.14,2.35l-.15-.64.07,1.61.14-.91c.19.87.47-.09.37,1.05a8.14,8.14,0,0,1-.23,1.3h0a3.13,3.13,0,0,1,.15,1.49c-.11.17-.41-.13-.49,0,.31.42.09,2,.42,2.54-.08-.18-.27-.19-.31-.13l.25.35c-.08.4-.12.45-.28.39,0,1.19.48-.38.27,1,0-.11,0-.06-.09-.29-.11,1.42.16,2.75,0,4.06-.37.38-.09-1.15-.41-.7.07,1.88.45,3.9.37,5.73l0-.34c.53.25-.26,1.36,0,2.28,0-.23-.3-.3-.24-.24a31.91,31.91,0,0,0,.3,4.46l-.14-.24c-.12.74-.07,1.94-.13,2.74.14.23.11.69.31.41-.77,2.45.42,4.68-.23,6.86,0-.26-.12-.62-.12-.41l.13,1.85c.23-.15.14-.24.32-.63a3,3,0,0,1,.24,1.21c-.15-.83-.37,0-.5.37.07-.06.15.07.22,0-.41,1,.47.17.19,1.49l-.12-.07a7.14,7.14,0,0,1,.18,1.48c-.26.23-.12-.52-.34-.56,0,.75.51,1.48.24,2.16-.07-.32-.08-.77-.15-1.09a3,3,0,0,0-.28,1.37v-.05l-.14,1.27.09-.33c.69.94.12,1.91.58,3.18-.43-1.23-.25-.21-.55-.3-.09.32-.18.81-.27.67.25.59-.2,1,.21,1.9-.1,0,0,.67-.21.56.21.82.14-.22.28-.16a11.8,11.8,0,0,1,.4,2.15,4.8,4.8,0,0,0,1,2.39,11.51,11.51,0,0,0,2.4,2.22c.2.45-.52-.05-.52-.05a4,4,0,0,0,1.47,1.46c-.16,0-.1.13,0,.35.5.33.52,0,1.07.51a1.4,1.4,0,0,1-.7,0,5.42,5.42,0,0,0,1,.44c.33.13.67.24,1,.35.11.23-.51.06-.78,0a12.57,12.57,0,0,0,1.32.5,1.91,1.91,0,0,0,1,.07l-.45-.27c.28.09.06.27-.16.24-.74,0-.88-.5-.87-.59l.48.16c-.21-.72-1.85-.79-2.63-1.51l.58-.08a9.58,9.58,0,0,1-1-.37c-.09-.23,0-.5.36-.22-.38-.63-.58-.3-.84-.9,0-.07,0-.06.07,0l-.55-.42c.15,0,.15-.27.38.07-.62-1-1.45-1.36-1.42-1.93l.07.08c-.94-1.4-.35,0-1.26-1a10,10,0,0,1,.38-1.09l-.34-.05c-.06-.16-.14-.5,0-.48-.36-.57-.1.15-.39-.16,0-.87-.54-2.32,0-2.54-.25-.29-.14.82-.34-.08.49-.27-.13-1,.12-1.84.27.24.13,1,.37.2-.46-.47.1-1.53,0-2.19-.36,0-.15-1.44-.27-2.55a28.89,28.89,0,0,0,.33-3.13l.06,0c-.37-.2-.3-1.27-.37-2,.22,0,.3.17.4.59v-.73a1.72,1.72,0,0,1-.22-.87l.27.18a17,17,0,0,1-.14-3.21c-.25-.07-.71,1-.88-.33.14,0,.37-.09.43.25a1.46,1.46,0,0,1-.06-.63l.24.53c.1-.57-.2-.3-.18-.75.2,0,.14-.34.3-.28s-.08.4,0,.58a3.32,3.32,0,0,1,.3-1.34c-.11,0-.27,0-.29-.38,0-1,.24-.33.34-.9-.14-.23,0-.85-.29-.87,0-.28.14-.34.22-.45-.13-.5,0-2.35-.36-1.78l0,.13v-.08h0c-.29-1.65.17-3.43,0-5.06h.1a21.79,21.79,0,0,0-.28-2.87c0-.29.18-.68.3-.56a4.72,4.72,0,0,1,0-1.9c.17.75.15-.26.12.76a4.68,4.68,0,0,0,0-2.23c.25.36.32-.73.24-1.19l-.18.68a9.68,9.68,0,0,1,0-1.43l.33.25c.4-2-.69-3.58,0-5.09-.24-.52-.17,1.08-.44.61a16.08,16.08,0,0,1,.52-2.15c.19-1.25-.48-1.17-.36-2.48-.11.17-.43.33-.54-.65,0-.91.5-1.12.59-.54,0,.21,0,.32-.07.31.05.3.1.68.23.32l-.12-.12c.12-.45.1-1.71.3-1.41-.11-.69-.2-.3-.26.21.18-1.17,0-1.83.12-3-.06.19-.2.37-.2.18.15-1.77-.22-.78-.28-2,.18-.68.44.24.28-1,.13-.74.32-.16.42.13a7.89,7.89,0,0,1,.19-2.68l.09.58a6.06,6.06,0,0,1,0-.92l-.24.33c0-.34,0-.62.14-.62-.15-.35-.39.27-.61-.43.13-.45-.12-1.38.19-1.53-.11,1.42.32-.16.37,1.05a3.07,3.07,0,0,1,0-.86c0-.05.07.05.09.14.28-1.36-.36-.63-.35-2,.18.18.33-.33.3-.56,0,.57-.3.27-.43-.25.19-.82-.09-.91,0-1.35a2.88,2.88,0,0,0-.11.49c-.19-.19-.09-.61-.05-1.21.14,0,0,.55.1.35a1.36,1.36,0,0,1,.24-1.08,3.94,3.94,0,0,0,.49-1.21c.26-.34.32.08.53-.22.22-1,.68-.84,1.07-1.8-.36.11-.37.19-.11-.55a10.88,10.88,0,0,0-.79,1.56c.06-.38.18-.75.28-1.15a11.83,11.83,0,0,0-.62,1.33c.06-.58.09-.51-.2-.36.65-.49.57-1.41,1.31-2l.44.39c1-.76,1.28-1.87,2.77-2.64l-.51.19c.07-.3.84-.6,1.29-.88,0,.19.37.11.62.13-.09-.14,1.1-.41,1.13-.82l.78.07c1.29-.15,1.4-.82,2.76-.78-.4.22.17.33-.68.52.41,0,.84,0,.84-.11.27.12,1.27-.27,1.69-.08.2-.09.26-.3.77-.28.06,0,0,.1,0,.1s.8-.14.36-.35c1.41.61,3.93-.05,5.16.48,1-.07,2.2-.13,3.11-.14-.06.06,0,.09-.17.07,1.25.19.76-.56,2.19-.36.72.32-.76.17-.31.3.2.65,1.72-.09,2.68.29l-.23,0c.73.23,1.78-.24,3-.2,0,0-.06.06,0,.1a14.74,14.74,0,0,1,3.52-.53c-.36.25-.53.13-.31.39.52,0-.15-.41.88-.48.34.13,1.08.26,1.18.53l-1,0c.49.35,1.25,0,1.76,0l-.06.15c1.49-.05,1.51-.44,3.11-.41l-.17-.12c.87-.39.73.22,1.61-.07l.26.39c.58-.09,2-.38,3-.45a14.55,14.55,0,0,1-2.54.61,7.48,7.48,0,0,0,2.24-.22,1.92,1.92,0,0,1-.75.07,6.75,6.75,0,0,1,2.76-.45c-.21.77,3,.15,3.66.88,1.88,0,3.55,1,5.22,2.21-.26-.92.51.36.79-.18.41.32.55.47.56.53a13.65,13.65,0,0,1,.78,1.39c.07.39-.4-.3-.49-.16.64.87.08.52.37,1.16.11-.25.46.14.7.7l-.21-.89a1.74,1.74,0,0,1,.62,1.28,2.58,2.58,0,0,0,.46,1.33l-.35-.38c.09.17.2.42.32.71s.2.63.3,1a7,7,0,0,0,.27,1,2.8,2.8,0,0,0,.31.77c-.06.14-.22.32-.28,0,0,2,.53,4.57.24,6.16l-.15-.16c0,.39.28.67.13,1.16-.06,0-.15-.16-.16,0a4.49,4.49,0,0,1,.18,1.54l-.17-.44c-.2,2,.41,3.09.51,4.79-.44,0-.58,1.58-.65,2.37l-.06,0a52.48,52.48,0,0,0,.53,6.17c-.47,1.35-.2,4.57-.46,6.74.07-.33.34.06.38.44s.31,1.41-.1,1.33v-.18c-.39.38-.29,1.43-.3,2.24l.53.14c-.77,2.14.28,5.6-.41,6.77.13.51.13,1.15.26,1.66l-.28,0a35.43,35.43,0,0,0,0,3.91l-.2-.36c0,1,.82,1.26.83,2.18l-.42.28c0,1.73-.36,3.49,0,5.21-.06,0-.19-.08-.2-.36,0,.82-.29,3.17.29,2.87-.38,0,0,1.79.13,2.73l-.28-.15a3.93,3.93,0,0,1,.55,1.93c0,.26-.22.23-.15-.12-.14.87.28.7.07,1.69l-.15-.38a2.35,2.35,0,0,0,.15,1.27c.07.57-.43,1.58-.69,1.62a1.27,1.27,0,0,1-.1,1.1c-.12,0-.1-.16-.1-.26a11.47,11.47,0,0,0-.71,1.55,5.88,5.88,0,0,1-.29.62,2.14,2.14,0,0,1-.49.51.2.2,0,0,0-.22,0c.7-.86,1.1-1.67,1.1-1.57-.23-.12-.72.59-.67-.17a4.59,4.59,0,0,1-1.24,2.47.22.22,0,0,1-.14,0l0-.08a2.21,2.21,0,0,0-.36.4,5.26,5.26,0,0,0-.57.42c-.23-.12-.85.54-1.24.72.18.22-.34.49.24.4-.07,0,.06-.07.31-.23a.55.55,0,0,0,.13-.14v0c.23-.19.55-.41.87-.69a1.58,1.58,0,0,1-.9.83,5.22,5.22,0,0,1-.3.71c-.75,0-1.91.3-2.15.11a9.74,9.74,0,0,1-2,.74,7.15,7.15,0,0,0-1.82.61c-.42.07-.48-.15-.64-.23a3.65,3.65,0,0,0,.66-.13c-.84.14-2.48.06-2.67.43-1.06-.17.59-.34-.86-.28l.2-.12c-2.85-.59-4.63.95-7.78.19.22.05.32.07.37.13-3.6-.34-7.41.31-11-.22a3,3,0,0,0-1.73.31l-.22-.3-1,.35c-1.49.25-2.59-.74-4.48-.26l.25.2c-.68,0-2.15.12-2-.11a.48.48,0,0,1-.49.1l0-.15-1.66.27c-1.29-.12.2-.63-1.69-.66-.7.06-2,.46-1.73.56s.72.1.74.26l-.64.08c-.11.47-.61.95,1,1.27l1.09-.28.36.22-.92,0a1.48,1.48,0,0,0,1.22-.11.71.71,0,0,0,.46.25l1.08-.44c.13.18-.48.36.24.46.5-.21-.49-.41.35-.55.52.21.37.39,1,.21.08.12,0,.19-.29.25.55-.15,1.45-.07,1.73-.31.55.26,1.85-.07,1.8.37a4.23,4.23,0,0,1,1.47-.36c-.92.52,1.88,0,1.64.59.68-.47,2.46-.21,3.66-.47a.51.51,0,0,1-.3.09,6.18,6.18,0,0,1,1.31.27c.08-.39,1.14-.48,1.71-.72.83.38-.5.46-.24.82,0-.32,1.44-.32,1.16-.58.64.23.55.11.88.44.11-.49.59-.09,1.11-.39.93.24.24.46,1.25.31C1723.21,453.39,1722.31,453.57,1722.31,453.57Zm23.51-5h0l-.34.4Zm1.32-1.68c-.14.22-.35.46-.55.75-.12,0-.16-.13,0-.3C1746.54,447.5,1746.91,447.15,1747.14,446.92Zm-4.26,1.71c.2-.2.31-.22.38-.2-.1.09-.23.19-.38.34v0A.37.37,0,0,1,1742.88,448.63Z" transform="translate(-1532 -83)"/><path class="cls-7" d="M1742.67,449.25a.58.58,0,0,0-.1.08l.19,0,0-.14Z" transform="translate(-1532 -83)"/><path class="cls-7" d="M1688.29,418.61v0a.25.25,0,0,1,0,.09S1688.28,418.63,1688.29,418.61Z" transform="translate(-1532 -83)"/><polygon class="cls-7" points="217.76 335.98 217.69 335.99 217.75 336.16 217.76 335.98"/><path class="cls-7" d="M1687.33,429.74s0,.07-.07.15S1687.3,429.82,1687.33,429.74Z" transform="translate(-1532 -83)"/><path class="cls-7" d="M1687.27,434.55l-.1.68C1687.22,434.94,1687.25,434.72,1687.27,434.55Z" transform="translate(-1532 -83)"/><path class="cls-7" d="M1687.13,438.25a.31.31,0,0,0,.12.07h0Z" transform="translate(-1532 -83)"/><path class="cls-7" d="M1686.87,379.36c0-.06,0-.11,0-.16C1686.88,378.83,1686.86,379.08,1686.87,379.36Z" transform="translate(-1532 -83)"/><path class="cls-7" d="M1687.45,397a5.66,5.66,0,0,1-.13-.56C1687.3,396.71,1687.29,397,1687.45,397Z" transform="translate(-1532 -83)"/><polygon class="cls-7" points="169.81 284.29 169.81 284.29 169.93 284.29 169.81 284.29"/><path class="cls-7" d="M1687.33,395.58a2.27,2.27,0,0,0,0,.82A3.75,3.75,0,0,0,1687.33,395.58Z" transform="translate(-1532 -83)"/><path class="cls-7" d="M1695.13,451.92l.17.08s0,0,0,0Z" transform="translate(-1532 -83)"/><path class="cls-7" d="M1695.34,452l.21,0C1695.46,452,1695.38,452,1695.34,452Z" transform="translate(-1532 -83)"/><path class="cls-7" d="M1696,452.1l-.44-.09A.81.81,0,0,0,1696,452.1Z" transform="translate(-1532 -83)"/><path class="cls-7" d="M1690.87,449l-.12,0A.13.13,0,0,0,1690.87,449Z" transform="translate(-1532 -83)"/><path class="cls-7" d="M1689.81,447.79a4.59,4.59,0,0,0,.85,1.22l.09,0C1690.48,448.9,1690.13,448,1689.81,447.79Z" transform="translate(-1532 -83)"/><path class="cls-7" d="M1688.49,441.61a8.07,8.07,0,0,0,.15,1.19c.06-.23.13-.53.29,0C1688.91,441.28,1688.71,443.15,1688.49,441.61Z" transform="translate(-1532 -83)"/><path class="cls-7" d="M1688.52,437.82c0,.67.16,0,.22,0C1688.64,437.42,1688.61,437.32,1688.52,437.82Z" transform="translate(-1532 -83)"/><path class="cls-7" d="M1688.52,409.89l.25.07C1688.74,409.44,1688.68,410,1688.52,409.89Z" transform="translate(-1532 -83)"/><polygon class="cls-7" points="155.2 321.55 155.04 322.06 155.27 322.3 155.2 321.55"/><polygon class="cls-7" points="157.02 318.4 157.06 318.63 156.96 317.76 157.02 318.4"/><path class="cls-7" d="M1707.25,369.76l-.16-.32C1706.74,369.5,1706.67,369.85,1707.25,369.76Z" transform="translate(-1532 -83)"/><path class="cls-7" d="M1727.49,369.43a1.44,1.44,0,0,0,1.15.11A11.24,11.24,0,0,0,1727.49,369.43Z" transform="translate(-1532 -83)"/><polygon class="cls-7" points="215.23 330.61 215.13 330.21 215.21 330.97 215.23 330.61"/><rect class="cls-8" x="152.5" y="281.5" width="66" height="84"/><rect class="cls-6" x="154" y="282.5" width="63" height="85.5"/><path class="cls-7" d="M1748.33,451c.09.16.29.07.25-.36l-.33-.31Z" transform="translate(-1532 -83)"/><path class="cls-7" d="M1749,448.1c-.16-.5-.44-1.09-.75-.76.32.5.19.62.57,1.16,0,.43-.11.75-.23.68.08.15-.08.67.13.9a2.92,2.92,0,0,0,.06-2C1748.8,447.91,1748.89,448.07,1749,448.1Z" transform="translate(-1532 -83)"/><path class="cls-7" d="M1749.46,406l0,.27A.7.7,0,0,0,1749.46,406Z" transform="translate(-1532 -83)"/><path class="cls-7" d="M1749.65,379.89c0,.2,0,.28.07.29C1749.69,380,1749.67,379.84,1749.65,379.89Z" transform="translate(-1532 -83)"/><path class="cls-7" d="M1750,375.43l0,.26A.4.4,0,0,0,1750,375.43Z" transform="translate(-1532 -83)"/><path class="cls-7" d="M1749.46,406l.11-.69C1749.46,405.24,1749.49,405.64,1749.46,406Z" transform="translate(-1532 -83)"/><path class="cls-7" d="M1748.15,442.29a1.77,1.77,0,0,0,.09.38l0-.35Z" transform="translate(-1532 -83)"/><path class="cls-7" d="M1749.73,417.49v.21l.14.18Z" transform="translate(-1532 -83)"/><path class="cls-7" d="M1749.78,426.32c0-.2-.27-.27-.39-.35a.66.66,0,0,1,.19.44A.35.35,0,0,0,1749.78,426.32Z" transform="translate(-1532 -83)"/><path class="cls-7" d="M1749.29,440.31l0,.25Z" transform="translate(-1532 -83)"/><path class="cls-7" d="M1749.79,411.17a.27.27,0,0,0,.1-.08A.14.14,0,0,0,1749.79,411.17Z" transform="translate(-1532 -83)"/><path class="cls-7" d="M1738.77,449.68s0,0,0,.05S1738.83,449.68,1738.77,449.68Z" transform="translate(-1532 -83)"/><path class="cls-7" d="M1749,451.07l-.14,0a.41.41,0,0,0,0,.16Z" transform="translate(-1532 -83)"/><path class="cls-7" d="M1750.37,367.28v0C1750.4,367.53,1750.39,367.41,1750.37,367.28Z" transform="translate(-1532 -83)"/><path class="cls-7" d="M1684.84,375.58c.25-.85.32,1.38.6.1C1685.33,375.8,1685,374.52,1684.84,375.58Z" transform="translate(-1532 -83)"/><path class="cls-7" d="M1748.19,442.06v-.36A1.86,1.86,0,0,0,1748.19,442.06Z" transform="translate(-1532 -83)"/><path class="cls-7" d="M1685.44,375.68h0l0-.13Z" transform="translate(-1532 -83)"/><path class="cls-7" d="M1732,364.3a.44.44,0,0,0,.19.12S1732.13,364.36,1732,364.3Z" transform="translate(-1532 -83)"/><path class="cls-7" d="M1746,364.7l-.35,0A1.63,1.63,0,0,0,1746,364.7Z" transform="translate(-1532 -83)"/><path class="cls-7" d="M1724.72,364.7a1.36,1.36,0,0,0-.51,0l.08,0A.66.66,0,0,1,1724.72,364.7Z" transform="translate(-1532 -83)"/><path class="cls-7" d="M1717.16,364.7l.14.05h.24Z" transform="translate(-1532 -83)"/><path class="cls-7" d="M1715.78,449.82a1,1,0,0,1,.35.25C1716,449.87,1717.12,449.8,1715.78,449.82Z" transform="translate(-1532 -83)"/><path class="cls-7" d="M1748.31,442.29a.26.26,0,0,1-.12-.23v.26A.07.07,0,0,0,1748.31,442.29Z" transform="translate(-1532 -83)"/><path class="cls-7" d="M1724.41,366.91l-1.2,0C1723.55,366.9,1724,366.91,1724.41,366.91Z" transform="translate(-1532 -83)"/><path class="cls-7" d="M1687.14,426.51l0,.28A.59.59,0,0,0,1687.14,426.51Z" transform="translate(-1532 -83)"/><path class="cls-7" d="M1719.65,366.91a2.76,2.76,0,0,0-.68-.19.46.46,0,0,0-.14.07Z" transform="translate(-1532 -83)"/><path class="cls-7" d="M1716.13,450.07Z" transform="translate(-1532 -83)"/><path class="cls-7" d="M1724.05,449.4c-1.15,0-.54.37-.78.58-1.37.1-.64-.27-1.1-.46-.86.09-1.51.43-2.15.42,0-.06-.17-.08,0-.16-.91.29-2.68,0-3.73.38a.28.28,0,0,1-.14-.09.54.54,0,0,1,.16.51c-.51,0-1,.23-1.14,0a.62.62,0,0,0,.48-.17l-.53.11c-.49-.35.73-.12.73-.38a16.26,16.26,0,0,1-3.07.3c-.17-.34,1.87-.11.8-.41l1.25.13c-1-.54.75,0-.12-.54-1.64-.1-1.83.18-3.46.08-.37.18.12.28-.25.46-2.32.34-1.83-.85-3.53-.4a1.9,1.9,0,0,1-1.83.43l.41-.38c-1.58,0-.9.55-2.56.29.29-.15,1.24-.13,1-.17-1.07-.31-.76.22-1.58.22l-.17-.34c-1.69.05-3.55.29-5.42.36.11-.1.43-.21,0-.31a47.76,47.76,0,0,1-7.3-.25l-.87.3c-.2,0-.38-.14-.16-.19-.88-.12,0,.18-.47.3s-.67-.17-.35-.26l-.46.07c-.13,0-.12.05-.21.07l-.48.12a2.9,2.9,0,0,1-.07-.38l0-.23c0-.17,0-.34,0-.51A10.25,10.25,0,0,1,1687,447l.08.33c.12-1.29-.6-1.45-.32-2.64l0,.23c.13-2.79-.14-5.86.3-8-.42-.4.19-2.75-.4-2.93a18.22,18.22,0,0,0,.59-3.37c0-.6-.37-.89-.43-1.63l.31,0-.32-1,.37-.54-.08-.69c0,.27-.14.59-.23.54a5.2,5.2,0,0,1,.37-2.66l-.26-2.57c.13.06.17.49.25.83-.32-1.37.32-.25,0-1.5-.07.17-.18-.09-.24-.12a11.21,11.21,0,0,0,.11-3.1l.21.2c0-1.9-.1-4-.1-6.14-.1.77-.46.59-.5,0l.33-.25c-.21-.41-.13.65-.37-.18,0-.79.37-.53.47-.08l-.11-1c.1-.06.15.17.27.22-.2-.39.33-1.67,0-2.24l.09-.06c0-2.13-.1-3.09-.12-4.83-.28,0-.22-.71-.45-1.23.09-1.28.31-2.69.29-4.23-.14-1.08-.24-.32-.41-.8.26-.08.24-1.62.42-.82,0-1.85,0-2.36-.26-4.69-.1.25-.15.54-.24.39,0-.43.11-1,.23-.9l0,.11c-.38-2.62.75-6.05.21-8.14l0,.12-.28-2.16c0-1,.19.59.35-.14-.42-2.34.06-3.69-.22-5.61.76-1.49,0-5.28.43-7.29l-.18.12c-.17-.52.1-.63.14-1-.13.05-.16.56-.25.24l0-.58V367c0-.11,0-.23,0-.35l1.65.06,2.83.13c1.89.1,3.78.22,5.64.29,1.65.05.94-.92,3-.5l-.59.33c3.32-.39,6.8,0,10.06-.32-.2.08-.2.18-.52.17a4.41,4.41,0,0,0,2.55-.18c.51,0,.12.18.43.28.69.14,1.74-.31,2.1-.07.06,0-.19.08-.32.1.45-.12,2.1,0,1.67-.25,1.22.13,2.33-.13,3.31,0,.64-.31,2.09.15,2.29-.29-.08.45,2.15.36,2.92.15-.26.14.67.14.37.33.88,0,1.69-.09,1.53-.32,1.63.54,3.27-.44,4.19.26,2.62-.24,5-.41,7.4-.52-.09.46-2.61.05-2.51.52a38.63,38.63,0,0,1,5.75-.46c.57.06-.33.19-.52.27,2.23-.18,4.31,0,6.3-.2,0,0-.22.09-.42.12.39,0,.91.07.87-.14l-.39.06c-.31-.15.08-.31.56-.45a9,9,0,0,0,.94-.33c-.44.3-.06.33.14.39-.05.36-.13.51-.5.59a.22.22,0,0,0,.28,0c0,.21-.12.24-.28.17,0,.12.06.14.1.28a1.77,1.77,0,0,0,.11.38,3,3,0,0,1,.11,1c-.1,0-.13-.26-.25-.39a5.66,5.66,0,0,1,.3,2.36c-.06-.06-.13.06-.13-.26,0,1.85.51,3.15.33,5.17-.44-.6-.15.69-.52.8l.11,1.08.18-.43a20.27,20.27,0,0,1,.15,2.61l-.16-.71.07,1.79.14-1c.2,1,.48-.1.37,1.17a8.18,8.18,0,0,1-.22,1.45h0a4,4,0,0,1,.15,1.66c-.12.19-.41-.14-.49,0,.31.46.08,2.23.42,2.82-.08-.2-.28-.21-.32-.14l.25.39c-.08.44-.12.5-.27.43,0,1.33.47-.42.27,1.16,0-.13-.06-.07-.1-.33-.11,1.59.16,3.06,0,4.52-.38.43-.1-1.27-.41-.78.07,2.1.45,4.34.36,6.37l0-.38c.53.29-.26,1.52,0,2.54,0-.25-.3-.33-.24-.26a39.35,39.35,0,0,0,.3,4.95l-.14-.26c-.12.82-.07,2.16-.13,3,.14.26.12.77.31.46-.77,2.73.42,5.21-.23,7.63,0-.29-.11-.69-.11-.46l.12,2.06c.23-.16.14-.27.32-.7a3.44,3.44,0,0,1,.24,1.35c-.15-.93-.37,0-.5.41.07-.07.15.07.22,0-.41,1.07.47.18.19,1.65l-.12-.08a9.8,9.8,0,0,1,.19,1.65c-.27.25-.13-.58-.35-.62,0,.83.51,1.64.24,2.4-.07-.36-.07-.87-.15-1.22a3.69,3.69,0,0,0-.28,1.53V424l-.14,1.41.08-.36c.7,1,.13,2.13.58,3.53-.43-1.37-.25-.23-.55-.33-.08.36-.18.9-.26.75.24.66-.19,1.11.16,2-.09,0,0,.71-.25.56.07.86.17-.21.29-.13.33,1.33-.4,3.12,0,5,.19,1.65.52,2,.68,3.49-.15.52-.35-.42-.35-.42a6.74,6.74,0,0,0,0,2.24c-.08-.16-.15,0-.26.25,0,.63.35.42.21,1.25a2,2,0,0,1-.39-.63c.09.75.27,1.48.36,2.25-.17.2-.26-.46-.37-.74a7.1,7.1,0,0,0,.42,2.51l.1-.55c0,.31-.23.16-.28-.07-.21-.74.09-1.07.19-1.11l.06.54c.57-.56-.09-2.2-.06-3.3l.42.46-.35-1.13c.11-.24.34-.41.4.14.21-.79-.14-.7.09-1.38,0-.08,0,0,.07,0l-.13-.77c.09.15.3-.13.24.35.24-1.39-.31-2.24,0-2.76l0,.11c-.14-1.92-.31-.18-.67-1.63l.76-1-.31-.19c0-.2,0-.59.16-.52-.21-.73-.14.13-.33-.3.28-.95-.13-2.63.35-2.85-.23-.34-.18.91-.34-.11.53-.29-.09-1.18.15-2.05.27.27.13,1.1.37.22-.46-.52.1-1.7,0-2.43-.36,0-.15-1.61-.27-2.84.12.08.2-2.33.33-3.48l.06,0c-.36-.23-.29-1.41-.37-2.28.22,0,.31.19.4.66v-.81a2.1,2.1,0,0,1-.22-1l.28.2a19,19,0,0,1-.14-3.56c-.26-.08-.72,1.1-.89-.37.14-.05.38-.11.43.28a2.12,2.12,0,0,1,0-.71l.23.59c.1-.63-.19-.33-.17-.84.19,0,.14-.37.29-.3s-.08.44,0,.64a4.33,4.33,0,0,1,.3-1.49c-.11.05-.26,0-.29-.42,0-1.08.24-.37.34-1-.14-.26,0-.95-.29-1,0-.32.14-.37.22-.5-.13-.56,0-2.61-.35-2l0,.15,0-.1h0c-.29-1.83.17-3.8,0-5.62h.09a24.74,24.74,0,0,0-.28-3.19c0-.32.19-.76.3-.62a6.35,6.35,0,0,1,0-2.12c.17.83.15-.29.13.85a5.94,5.94,0,0,0,0-2.48c.25.4.32-.81.24-1.32l-.18.75c0-.57,0-1.08,0-1.59l.33.28c.41-2.21-.69-4,0-5.66-.23-.59-.16,1.2-.44.67a19,19,0,0,1,.53-2.39c.18-1.39-.49-1.29-.36-2.75-.12.19-.44.36-.55-.72s.5-1.25.59-.61c0,.24,0,.36-.06.35,0,.33.09.76.22.36l-.12-.14c.12-.5.11-1.9.3-1.57-.11-.77-.19-.33-.25.24.17-1.3,0-2,.12-3.38-.07.22-.21.41-.21.2.15-2-.22-.86-.27-2.2.18-.75.43.27.28-1.07.12-.82.31-.17.41.15a9.73,9.73,0,0,1,.19-3l.1.65a6.29,6.29,0,0,1-.06-1l-.24.37c0-.38,0-.7.15-.69-.16-.39-.4.3-.61-.47a4.47,4.47,0,0,0,0-1,2.23,2.23,0,0,1,0-.46.82.82,0,0,1,.14-.39c0,.25,0,.43,0,.57a.91.91,0,0,0,0,.21c0,.08.07.05.12,0s.22-.18.24.49a3.8,3.8,0,0,1,0-.95c0-.08.06.07.08.16a4.82,4.82,0,0,0,.06-.65c0-.22,0-.4,0-.55a1.63,1.63,0,0,0-.1-.58,2.37,2.37,0,0,1-.29-1.05c-.24,0-.51,0-.83,0,.48-.18-.42-.34-.92-.3,1.16,0,.33.3-.57.43l-.73,0a1.92,1.92,0,0,0-.38,0,2.45,2.45,0,0,1-.63.09l.6.06c-.21.18-.71.16-1.41.21-.06-.13.64-.09.39-.15-.79.31-1.77-.33-2.86-.12-.5-.12,0-.33-.49-.41-1.22.23-1.32-.24-2.6-.05.37.24.44.18-.47.41l2.11-.17-1.35.35c.63,0,1.34-.15,1.72-.11-.64.19-.58.13-.27.33-.87-.36-1.73.21-2.73,0l0-.59c-1.52-.26-2.69.3-4.65.15l.63.11c-.26.23-1.21,0-1.85.12.06-.19-.34-.27-.61-.39,0,.15-1.44,0-1.61.38l-.88-.26c-1.59-.1-1.81.57-3.33.5.46-.22-.24-.36.78-.51-.51,0-1,0-1,.1-.3-.12-1.41.26-1.88.08-.21.08-.28.29-.85.27-.07,0,0-.09,0-.09s-.9.13-.4.35c-1.56-.62-4.38,0-5.74-.49-1.11.07-2.45.13-3.46.15.07-.06,0-.1.2-.08-1.4-.18-.86.57-2.44.36-.81-.32.84-.17.33-.29-.21-.65-1.9.09-3-.29l.26,0c-.82-.22-2,.25-3.32.2,0,0,.07-.06,0-.1a18,18,0,0,1-3.91.53c.4-.25.58-.13.34-.39-.57,0,.17.42-1,.49-.37-.14-1.2-.26-1.31-.54h1.08c-.55-.36-1.39,0-2-.05l.07-.16c-1.65.05-1.68.44-3.46.42l.19.11c-1,.39-.82-.21-1.79.08l-.29-.4c-.64.1-2.25.38-3.4.46a17.13,17.13,0,0,1,2.83-.62,9.63,9.63,0,0,0-2.49.22,2.62,2.62,0,0,1,.83-.07,8.41,8.41,0,0,1-3.07.46c.08-.25-.25-.36-.76-.41l-.2,0h-.3l-.67,0-1.46,0a8.82,8.82,0,0,1-.3,2.43c.28,2.24-.12,4.44-.08,7.05.6-.92,0,.77.63.61a2.43,2.43,0,0,1,0,.89l-.36,1.84c-.18.44-.14-.58-.28-.52,0,1.33-.26.56-.42,1.44.22-.18.32.46.23,1.22l.28-1.07c.33,1.86-.51,1.61-.19,3.49l-.19-.6c.11,1,0,3.55.49,4.5-.07.17-.24.39-.28,0-.08,2.3.52,5.12.22,6.9l-.15-.17c0,.43.28.75.13,1.28-.06,0-.15-.17-.16,0a5.61,5.61,0,0,1,.17,1.71l-.16-.49c-.2,2.25.41,3.44.51,5.33-.44,0-.59,1.76-.66,2.64l-.06,0a67.2,67.2,0,0,0,.54,6.85c-.48,1.5-.2,5.09-.47,7.5.08-.37.34.06.39.49s.3,1.57-.1,1.48v-.2c-.4.42-.29,1.59-.3,2.49l.52.15c-.76,2.38.29,6.23-.4,7.53.13.57.13,1.28.26,1.85l-.28,0c-.07,1.59-.11,2.38,0,4.35l-.21-.4c0,1.11.82,1.4.84,2.42l-.42.31c0,1.93-.37,3.89,0,5.8-.06,0-.18-.09-.2-.4,0,.91-.28,3.52.3,3.19-.19,0-.2.51-.14,1.13,0,.31.07.66.12,1l.08.48,0,.23,0,.3a2.09,2.09,0,0,1-.28-.24,10.68,10.68,0,0,1,.49,2.23l.8-.06c.37,0,.24.22-.29.15a3.37,3.37,0,0,0,1.31-.06l.51-.08a3.24,3.24,0,0,1,.66,0l-.43.17a2.31,2.31,0,0,0,1.47-.28,3.23,3.23,0,0,1,2,.33,1.72,1.72,0,0,1,1.27-.29c.08.09-.13.15-.24.18,1.67.19,2.49-.32,3.64-.05a.24.24,0,0,0,.19.17c-1.33,0-2.4,0-2.3,0,0,.25,1.07.3.22.65a11.69,11.69,0,0,1,3.38-.49.42.42,0,0,1,.14.09l-.11,0a2.35,2.35,0,0,0,.66,0,6.64,6.64,0,0,0,.87.07c.12.21,1.23.12,1.76.13,0-.28.66-.24,0-.47.09,0-.1,0-.45,0l-.23,0,0,0-1.33,0a2.28,2.28,0,0,1,1.46-.11,8.62,8.62,0,0,1,.75-.45c.73.39,2.14.6,2.34.84,1.63-.15,3.84-.1,4.87-.63.47-.07.54.15.71.24a3.55,3.55,0,0,0-.73.12c.93-.14,2.75-.06,3-.43,1.17.17-.66.34,1,.28l-.22.12c3.17.59,5.15-.95,8.65-.19-.24,0-.36-.07-.41-.13,4,.34,8.24-.31,12.19.22a3.62,3.62,0,0,0,1.92-.31l.25.3,1.17-.35c1.66-.25,2.87.74,5,.26l-.27-.2c.75,0,2.39-.12,2.26.11a.59.59,0,0,1,.55-.1l0,.16,1.85-.28c1.44.12-.22.63,1.88.66.78-.06,2.22-.46,1.92-.56s-.8-.1-.82-.26l.71-.08c.13-.47.68-.94-1.07-1.27l-1.22.28-.4-.22,1,0a1.82,1.82,0,0,0-1.36.11.88.88,0,0,0-.52-.25l-1.19.45c-.15-.19.53-.37-.27-.47-.56.21.54.41-.39.55-.58-.21-.41-.39-1.1-.21-.09-.12.05-.19.32-.24-.61.14-1.61.06-1.93.3-.6-.26-2,.07-2-.37a5.22,5.22,0,0,1-1.64.36c1-.52-2.09,0-1.82-.59-.76.47-2.74.21-4.08.47a.64.64,0,0,1,.34-.09,7.52,7.52,0,0,1-1.46-.27c-.09.39-1.27.48-1.9.72-.93-.37.56-.46.27-.82,0,.32-1.61.32-1.29.58-.71-.23-.61-.11-1-.44-.12.49-.65.09-1.24.39-1-.24-.26-.46-1.39-.31C1723.05,449.58,1724.05,449.4,1724.05,449.4Zm-26.75.85h0l.55,0Zm-2.25,0h1c.08.09,0,.19-.24.19C1695.92,450.39,1695.39,450.34,1695.05,450.26Zm4.76,1.94c-.36,0-.48,0-.53-.07l.62,0,0,0A.38.38,0,0,1,1699.81,452.2Z" transform="translate(-1532 -83)"/><path class="cls-7" d="M1700.45,451.83l.14,0-.21-.06-.13.09Z" transform="translate(-1532 -83)"/><path class="cls-7" d="M1749.42,406.3v-.05a.23.23,0,0,1,0,.1Z" transform="translate(-1532 -83)"/><polygon class="cls-7" points="155.28 346.02 155.21 346.02 155.27 346.21 155.28 346.02"/><path class="cls-7" d="M1748.45,418.68a.34.34,0,0,0-.07.16S1748.43,418.77,1748.45,418.68Z" transform="translate(-1532 -83)"/><path class="cls-7" d="M1748.39,424l-.1.75C1748.35,424.46,1748.37,424.22,1748.39,424Z" transform="translate(-1532 -83)"/><path class="cls-7" d="M1748.25,428.14a.3.3,0,0,0,.12.08h0Z" transform="translate(-1532 -83)"/><path class="cls-7" d="M1746.27,366.58h-.16C1745.74,366.65,1746,366.63,1746.27,366.58Z" transform="translate(-1532 -83)"/><path class="cls-7" d="M1748.58,382.22c0-.2-.1-.41-.14-.62C1748.42,381.94,1748.42,382.21,1748.58,382.22Z" transform="translate(-1532 -83)"/><path class="cls-7" d="M1724.55,366.92h0Z" transform="translate(-1532 -83)"/><path class="cls-7" d="M1748.45,380.69a3.1,3.1,0,0,0,0,.91A4.61,4.61,0,0,0,1748.45,380.69Z" transform="translate(-1532 -83)"/><path class="cls-7" d="M1748.12,446v.2s0,0,.05,0Z" transform="translate(-1532 -83)"/><path class="cls-7" d="M1748.16,446.18l0,.22C1748.19,446.3,1748.19,446.21,1748.16,446.18Z" transform="translate(-1532 -83)"/><path class="cls-7" d="M1748.26,446.86l-.07-.46A.83.83,0,0,0,1748.26,446.86Z" transform="translate(-1532 -83)"/><path class="cls-7" d="M1748.25,440.52l-.1-.07A.14.14,0,0,0,1748.25,440.52Z" transform="translate(-1532 -83)"/><path class="cls-7" d="M1748.22,438.86a8.45,8.45,0,0,0-.15,1.54l.08.05C1748,440.2,1748.4,439.24,1748.22,438.86Z" transform="translate(-1532 -83)"/><path class="cls-7" d="M1749.48,432l-.08,1.39c.11-.25.26-.57.28.06C1750,431.67,1749.44,433.78,1749.48,432Z" transform="translate(-1532 -83)"/><path class="cls-7" d="M1749.64,427.66c0,.75.16,0,.22,0C1749.76,427.22,1749.74,427.11,1749.64,427.66Z" transform="translate(-1532 -83)"/><path class="cls-7" d="M1749.64,396.61l.26.07C1749.86,396.11,1749.8,396.68,1749.64,396.61Z" transform="translate(-1532 -83)"/><polygon class="cls-7" points="216.32 307.67 216.16 308.23 216.4 308.49 216.32 307.67"/><polygon class="cls-7" points="218.14 304.16 218.18 304.41 218.09 303.45 218.14 304.16"/><path class="cls-7" d="M1718.5,364.45l.18.31C1719.06,364.71,1719.15,364.35,1718.5,364.45Z" transform="translate(-1532 -83)"/><path class="cls-7" d="M1696,364.77a1.69,1.69,0,0,0-1.27-.1C1695.22,364.69,1695.73,364.81,1696,364.77Z" transform="translate(-1532 -83)"/><polygon class="cls-7" points="152.76 340.04 152.65 339.59 152.74 340.44 152.76 340.04"/><polygon class="cls-9" points="184.75 305.81 193.39 305.81 187.37 316.73 193.66 315.63 187.08 327.07 193.66 325.77 185.62 340.96 188.05 329.8 182.25 330.42 186.38 320.5 180.57 324.79 184.75 305.81"/><polygon class="cls-10" points="168.75 319.31 179.62 315.6 179.96 315.71 180.26 315.34 184.72 313.77 184.19 315.68 186.5 316.67 185.92 319.46 187.43 321.14 184.86 324.09 178.6 326.41 178.35 326.23 177.96 326.57 168.91 329.77 168.63 328.99 168.71 328.45 168.31 328.24 166.3 322.51 168.75 319.31"/><polygon class="cls-11" points="166.3 322.51 182.21 316.93 181.68 318.78 182.52 319.25 182.6 319.49 182.86 319.35 184.06 319.85 183.5 322.53 184.84 324.09 178.64 326.35 178.32 326.28 178.01 326.56 168.91 329.77 168.57 329.07 168.69 328.48 168.32 328.23 166.3 322.51"/><polygon class="cls-12" points="184.72 313.77 180.26 315.34 179.96 315.71 179.62 315.6 168.75 319.31 166.3 322.51 182.21 316.93 184.72 313.77"/><polygon class="cls-13" points="184.19 315.68 186.5 316.67 184.06 319.85 182.86 319.35 182.6 319.49 182.52 319.25 181.68 318.78 184.19 315.68"/><polygon class="cls-14" points="185.92 319.46 187.43 321.14 184.86 324.09 183.5 322.53 185.92 319.46"/><path class="cls-6" d="M1707.32,403.86l-1.5.51v5.35l-1.66-1.43a1.79,1.79,0,0,0-.93-2.69,2.39,2.39,0,0,0-1.11.12l-1.94.66,1.67,4.76,1.42-.45-.56-1.56.16-.06,1.36,1.23,3.06-1.06v-.93l1.41-.52.56.72,1.43-.52Zm-4.27,3.73c-.11.31-.75.44-.75.44l-.32-1,.47-.21a.55.55,0,0,1,.45.18A.58.58,0,0,1,1703.05,407.59Zm4.14-.41s-.09-1.57-.09-1.61l1,1.33Z" transform="translate(-1532 -83)"/><path class="cls-6" d="M1713.54,403.28a1.59,1.59,0,0,0-1.86-.9l-2.21.74,1.66,4.7,1.33-.49-.5-1.53a4,4,0,0,0,1.27-.64A1.51,1.51,0,0,0,1713.54,403.28Zm-1.44,1.29-.51.21-.34-1,.34-.14s.62-.2.73.33S1712.1,404.57,1712.1,404.57Z" transform="translate(-1532 -83)"/><polygon class="cls-15" points="190.84 318.13 194.09 318.31 194.6 318.58 195.41 318.44 206.15 319.12 205.68 326.76 202.15 328.69 201.13 328.69 200.79 328.33 200.17 328.58 186.84 327.67 186.1 325.72 187.81 323.41 186 321.62 187.35 320.06 190.84 318.13"/><polygon class="cls-12" points="206.15 319.12 195.41 318.44 194.6 318.58 194.09 318.31 190.84 318.13 187.35 320.06 188.45 320.06 188.73 320.49 189.29 320.14 202.62 321.02 204.6 319.97 204.35 319.77 205.17 319.69 206.15 319.12"/><polygon class="cls-10" points="202.15 328.69 202.62 321.02 204.6 319.97 204.35 319.77 205.17 319.69 206.15 319.12 205.68 326.76 202.15 328.69"/><path class="cls-6" d="M1722.12,404.46l1.43.1-.19,3.51a1.32,1.32,0,0,1-.87,1.31,2.6,2.6,0,0,1-.57.12h-1v-1.33h.81a.28.28,0,0,0,.26-.23C1722,407.73,1722.12,404.46,1722.12,404.46Z" transform="translate(-1532 -83)"/><polygon class="cls-6" points="195.68 321.83 192.57 321.66 192.26 326.65 195.44 326.82 195.5 325.69 193.76 325.57 193.76 324.79 195.44 324.84 195.48 323.72 193.87 323.65 193.9 322.93 195.59 322.99 195.68 321.83"/><path class="cls-6" d="M1728.51,404.91l1.42.1-.17,3.21a.59.59,0,0,0,.67.58.69.69,0,0,0,.73-.53l.2-3.16,1.39.08-.18,3.29a2,2,0,0,1-2,1.69,2.07,2.07,0,0,1-2.15-1.4,4.12,4.12,0,0,1-.06-.42C1728.34,408.24,1728.51,404.91,1728.51,404.91Z" transform="translate(-1532 -83)"/></g><polygon class="cls-16" points="217 271 227 362 233 356 217 271"/><path class="cls-16" d="M1602,301c0,2,4,92,0,97l4,3Z" transform="translate(-1532 -83)"/><path class="cls-16" d="M1648,348s-19,71-17,81l5,7Z" transform="translate(-1532 -83)"/><path class="cls-16" d="M1793,315c0,4-6,97-6,97l5.86-.3Z" transform="translate(-1532 -83)"/><path class="cls-17" d="M1651,555.57a162.6,162.6,0,0,0,59,7.43s20,1,25,2c0,0,56,1,60,0s4-2,4-2S1653.9,554.13,1651,555.57Z" transform="translate(-1532 -83)"/><path class="cls-18" d="M1662,606s24-1,28,12h0S1679,606,1662,606Z" transform="translate(-1532 -83)"/><path class="cls-19" d="M1801,410c-1.37.2,0,7,0,7l-22.57,17.8-13.76-16.64a3.38,3.38,0,0,0-2.14-1.19l-17.71-2.42a.52.52,0,0,0-.58.5v3.26l8.45,5.37-19.21-3.83-7.67,3.85L1720.07,441,1742,458l30,6.81a4.24,4.24,0,0,0,2.82-.35l15.54-7.78,54.29-19.85a3.32,3.32,0,0,0,2.16-3.58L1842,398S1808,409,1801,410Z" transform="translate(-1532 -83)"/><path class="cls-19" d="M1560,381s34,13,41,18l-1,5,58.46,30.81a5.27,5.27,0,0,0,5-.26l12.24-7.34a5,5,0,0,1,.73-.36l13.67-5.47a6.4,6.4,0,0,1,2-.44l15.81-.88a1.42,1.42,0,0,1,1.45,1.08l3.56,14.22a3.12,3.12,0,0,1,.06,1.29l-1.7,11a3.11,3.11,0,0,1-1.28,2.07c-2.61,1.83-9.12,6.44-9.92,7.24s-18.84,6.09-21.63,6.9a3.17,3.17,0,0,1-.75.12c-2.33.16-14.81,1-16.62,1s-84.08-29.77-99.49-36a4,4,0,0,1-2.51-3.72Z" transform="translate(-1532 -83)"/><path class="cls-20" d="M1733.13,582s-34.22,84.13-33.26,93.08C1700,676,1730.19,601.39,1733.13,582Z" transform="translate(-1532 -83)"/><path class="cls-20" d="M1661,591s23-4,31,7C1692,598,1686,592,1661,591Z" transform="translate(-1532 -83)"/><polygon class="cls-21" points="61 497 71 488 66 503 60 503 58 500 61 497"/><path class="cls-22" d="M1630,745l-40,3,3,10s2-7,13-8S1630,744,1630,745Z" transform="translate(-1532 -83)"/><path class="cls-22" d="M1622,737c2,0-27-11-28-10S1616,737,1622,737Z" transform="translate(-1532 -83)"/><path class="cls-23" d="M1597,737l-6-5-3-4s-3-1-3,0-1,2-1,3S1596,737,1597,737Z" transform="translate(-1532 -83)"/><path class="cls-20" d="M1703,789l17-15s21,6,22,7-19,1-20,1S1703,789,1703,789Z" transform="translate(-1532 -83)"/><path class="cls-18" d="M1595,887c3,3,27,28,29,33,0,0-25-24-30-25Z" transform="translate(-1532 -83)"/><path class="cls-18" d="M1651,889c-.28-1.39-5,21-9,25C1642,914,1654,904,1651,889Z" transform="translate(-1532 -83)"/><path class="cls-20" d="M1709,765s18-17,20-37,13-27,13-27-11,23-9,37S1709,765,1709,765Z" transform="translate(-1532 -83)"/><polygon class="cls-20" points="235 539 235 600 221 612 228 601 235 539"/><path class="cls-24" d="M1623,604l5,98s0-14-20-6-3-11-3-11S1626,667,1623,604Z" transform="translate(-1532 -83)"/><polygon class="cls-25" points="136 832 155 812 155 823 136 832"/><path class="cls-26" d="M1592,940l-18,23s-14,13-6,22,35,14,35,14,9-1,12-6c0,0-1-10,1-11s16-12,17-12,10-7,10-16l-2-4,4-8-2-16.11L1627,936l-6-6-11.4-6.71L1599,924l-2,13Z" transform="translate(-1532 -83)"/><path class="cls-26" d="M1677,935l1,7-2,2,3,32a91.76,91.76,0,0,1,22,11c12,8,18,12,19,12s28,4,39-3c0,0,4-17-1-21s-21-22-21-22l-4-13s-2-12-5-14-22-9-30-1c0,0-8,6-8,7S1688,941,1677,935Z" transform="translate(-1532 -83)"/><path class="cls-27" d="M1685,961l15-13s8,11,7,11S1685,961,1685,961Z" transform="translate(-1532 -83)"/><path class="cls-28" d="M1700,964c2,1,5,9,5,9l-5,2s-5-10-5-9S1700,964,1700,964Z" transform="translate(-1532 -83)"/><path class="cls-28" d="M1678,938c1,3,12,15,12,15s-4,3-5,2-7-13-7-13Z" transform="translate(-1532 -83)"/><path class="cls-27" d="M1637,952s-9-4-9-6l-7,10,2,2Z" transform="translate(-1532 -83)"/><path class="cls-28" d="M1641,933c-1,2-7,12-7,12v3h4l5-11Z" transform="translate(-1532 -83)"/><path class="cls-28" d="M1624,962a61.25,61.25,0,0,0-4,6l1,1,4-5Z" transform="translate(-1532 -83)"/><polygon class="cls-29" points="81 860 86 859 87 855 89 856 90 863 82 863 81 860"/><path class="cls-30" d="M1583,962s-8,11-1,16,18,4,18,4l15-16s-2-3-3-3-24,1-26-2S1583,962,1583,962Z" transform="translate(-1532 -83)"/><path class="cls-30" d="M1719,966s13,12,14,12,15,4,16-2-9-14-9-14Z" transform="translate(-1532 -83)"/><path d="M1703,937.69l19.25,6.51c1.83.62,2.62-2.28.79-2.9l-19.24-6.5c-1.83-.62-2.62,2.28-.8,2.89Z" transform="translate(-1532 -83)"/><path d="M1723.85,930.39A128.28,128.28,0,0,1,1712.74,945c-1.3,1.42.82,3.55,2.12,2.12a132.9,132.9,0,0,0,11.58-15.24c1.09-1.6-1.51-3.11-2.59-1.51Z" transform="translate(-1532 -83)"/><path d="M1714.18,948.75a30.37,30.37,0,0,1,14.81,3.94,1.5,1.5,0,0,0,1.52-2.59,33.63,33.63,0,0,0-16.33-4.35,1.5,1.5,0,0,0,0,3Z" transform="translate(-1532 -83)"/><path d="M1728,950.72l-8.79,8.78a1.5,1.5,0,1,0,2.12,2.13l8.79-8.79a1.5,1.5,0,1,0-2.12-2.12Z" transform="translate(-1532 -83)"/><path d="M1733.4,956.25a65.81,65.81,0,0,1-16.09-2.37,1.51,1.51,0,0,0-.8,2.9,68.87,68.87,0,0,0,16.89,2.47c1.93,0,1.93-3,0-3Z" transform="translate(-1532 -83)"/><path d="M1718,956.32l10.61-10.62a1.5,1.5,0,0,0-2.12-2.12l-10.61,10.62a1.5,1.5,0,0,0,2.12,2.12Z" transform="translate(-1532 -83)"/><path d="M1728.85,943.35l-4.39-2a1.62,1.62,0,0,0-1.16-.16,1.59,1.59,0,0,0-.9.69,1.56,1.56,0,0,0-.15,1.16,1.49,1.49,0,0,0,.69.9l4.39,2a1.67,1.67,0,0,0,1.16.15,1.5,1.5,0,0,0,1-1.85,1.47,1.47,0,0,0-.69-.89Z" transform="translate(-1532 -83)"/><path d="M1592.36,957.7l14.08-3.33c1.88-.45,1.08-3.34-.8-2.9l-14.08,3.34c-1.88.44-1.08,3.34.8,2.89Z" transform="translate(-1532 -83)"/><path d="M1596.36,945.67c.38.25.75.5,1.11.77l.49.36c.09.06.24.18.08.05l.26.21c.69.55,1.36,1.12,2,1.72a34.42,34.42,0,0,1,3.54,3.9,1.49,1.49,0,0,0,2.12,0,1.54,1.54,0,0,0,0-2.12,34.22,34.22,0,0,0-8.08-7.48,1.5,1.5,0,0,0-2.05.54,1.54,1.54,0,0,0,.53,2Z" transform="translate(-1532 -83)"/><path d="M1597,944.77l12.88-3.4a1.53,1.53,0,0,0,1.1-1.45v-.06a1.54,1.54,0,0,0-1.1-1.45,1.6,1.6,0,0,0-1.36.18,1.57,1.57,0,0,0-.69,1.7l0,.06c.55,1.84,3.45,1.06,2.89-.8l0-.06-.68,1.69-.22.1h-.8l.06,0-1.1-1.44v.06l1.1-1.44-12.88,3.4a1.5,1.5,0,0,0,.8,2.89Z" transform="translate(-1532 -83)"/><path d="M1600.76,959.11,1597,948.65a1.53,1.53,0,0,0-1.84-1,1.5,1.5,0,0,0-1.05,1.84l3.75,10.46a1.55,1.55,0,0,0,1.85,1.05,1.52,1.52,0,0,0,1-1.85Z" transform="translate(-1532 -83)"/><path d="M1594.82,951.31a27.83,27.83,0,0,1,12.33-4,1.54,1.54,0,0,0,1.5-1.5,1.51,1.51,0,0,0-1.5-1.5,31.33,31.33,0,0,0-13.85,4.39c-1.65,1-.14,3.6,1.52,2.6Z" transform="translate(-1532 -83)"/><path d="M1599.36,937.87l.55.37.26.19s.29.22.06,0c.35.28.68.56,1,.85a17.05,17.05,0,0,1,1.74,1.87s.22.29,0,.06l.16.21.38.54q.36.54.69,1.11c.21.38.41.77.6,1.16l.11.24.08.19.07.18c.05.12.1.25.14.37a1.54,1.54,0,0,0,1.85,1,1.52,1.52,0,0,0,1-1.85,18.62,18.62,0,0,0-7.26-9.17,1.51,1.51,0,0,0-2.05.54,1.53,1.53,0,0,0,.53,2Z" transform="translate(-1532 -83)"/><path class="cls-31" d="M1801,410l22.6-6.22S1809,411,1801,417C1801,417,1800,411,1801,410Z" transform="translate(-1532 -83)"/><path class="cls-31" d="M1601,399s-6.58-4.08-21.79-10c0,0,14.79,8,20.79,15A20.34,20.34,0,0,0,1601,399Z" transform="translate(-1532 -83)"/><path class="cls-32" d="M1713,436l-2,13-14.93,3.57s.75-3-.21-5A11.05,11.05,0,0,0,1695,443a4.74,4.74,0,0,0-1-6,2.77,2.77,0,0,0,0-4v-9l15-4,2,8Z" transform="translate(-1532 -83)"/><polygon class="cls-33" points="144 347 129.36 356.82 127 373 131.25 378.58 149.49 379.07 150 373 144 347"/><polygon class="cls-34" points="161.26 354.73 181.2 352.92 161.97 357.11 162.17 355.28 161.26 354.73"/><polygon class="cls-35" points="161.19 349.29 179.53 347.83 163.26 351.26 163.09 349.79 161.19 349.29"/><polygon class="cls-36" points="161.25 344.85 178.2 342.92 161.82 347.09 162.02 345.37 161.25 344.85"/><polygon class="cls-37" points="162.25 361.85 179.2 359.92 162.82 364.09 163.02 362.37 162.25 361.85"/><polygon class="cls-38" points="217 338.33 226 341 232 346 222 344 210.16 338.58 219.39 340.45 217 338.33"/><polygon class="cls-39" points="195.21 340 215 349 193.33 342.17 193 341 195.21 340"/><polygon class="cls-40" points="192.38 345 212 353 191.69 347.09 192.38 345"/><polygon class="cls-41" points="190.06 352.01 210 360 189.33 354.18 190.06 352.01"/><polygon class="cls-42" points="188.09 358 206 365 194 363 188.09 358"/><polygon class="cls-33" points="222 348 246 352 248.37 378.68 241 382 213 372 222 348"/><path d="M1664.69,231.44,1666,228s1-1-2,0Z" transform="translate(-1532 -83)"/></g><g id="étonner"><path class="cls-43" d="M1661.86,190.67s-6-3.48-8-9.3a38.85,38.85,0,0,1-2.18-9.82s.36-4.55,0-4.73.18-3.64-.18-5.09-.18-6.37.18-6.92,2.73-3.45,5.09-1.82a9.11,9.11,0,0,1,2.86,2.61,35.57,35.57,0,0,1,.78,5.76c0,2.19.73,18.19,2,27.11C1662.39,188.47,1663.88,191.41,1661.86,190.67Z" transform="translate(-1532 -83)"/><path class="cls-43" d="M1744.26,161.73s2-6.68,4.91-6.55c4.36.18,4.36,3.45,4.36,3.45s1.46,5.1.19,8.92a55.81,55.81,0,0,0-2,8.73c0,.18-2,6.55-2.91,7.64,0,0-2.54,5.64-5.27,6.91s-2.73.73-2.73.73S1742.62,179.37,1744.26,161.73Z" transform="translate(-1532 -83)"/><path class="cls-44" d="M1744.26,168.64l.36-6.19a4.19,4.19,0,0,1,1.27-3.82c1.82-2,3.1-8.91,3.28-9.46s1.09-9.64,1.09-9.64.18-11.82-2.37-18.55c-.06-.17-1.45-6.55-2.91-8.37,0,0-1.09-5.1-2.36-6.55a10.89,10.89,0,0,0-3.28-5.09c-2.73-2.55-4.73-5.64-4.73-6s-4.54-4.73-5.64-5.09-9.46-3.82-10.91-4.37-8.37-3.45-11.64-2.18c0,0-7.83-.55-10-.18s-6,1.09-8.37,2.36c0,0-7.64,1.46-11.64,4.91,0,0-6.73,4.92-9.1,7.1s-8.18,15.28-9.27,19.1-4,12.73-3.1,18.19,1.28,11.64,1.46,12.19,4.55,10.73,4,14.37.18,14.19.18,14.19l1.46,16.74.91.36-.73,4.91.73-.54.54,5.27s1.1-1.82,1.1-1.45v3.64s1.09-.73,1.09-.37a11.55,11.55,0,0,0,.36,1.64,9.65,9.65,0,0,1,.91,2.55v3.09s.36-1.09.91-.36a33.1,33.1,0,0,1,1.82,4.73s1.09-1.46,1.09-.91a10,10,0,0,0,1.64,3.09c.36.36.36,2,.91,2.73s2.54,2.36,2.91,2.91,2.36,3.45,2.36,3.45l.55-1.45s2.18,2.18,2.73,2.91a38.19,38.19,0,0,0,3.45,3.09l3.82,1.46a10.11,10.11,0,0,0,3.28,2c1.45.36,5.82,1.45,6.55,1.82s.91-.18,1.27-.18,2.73-.73,2.91,0,1.82,0,1.82,0,5.28-.91,6.19-1.09,5.64-2.55,5.64-2.55l4.91-1.46a6,6,0,0,1,1.09-1.45c.36-.18,4.55-2.55,4.55-2.55s2-3.46,2.36-4,2-3.82,2.37-4,2.54-2.19,2.54-2.19l1.1-4h.9a14,14,0,0,1-.18-2.55c.18.37.73,1.28.73,1.28l-.36-3.64s1.09-2.37,1.45-2.18.55,1.63.55,1.63l.54-3.82.37,1.46v-3.64l1.09.55-.73-2.73.91-3.64.55.91v-4l.54-3.28v-2.91l.91-2.73-.54-1.64h.91l-.55-2.54.18-2.55.18-2.73.37-3.09Z" transform="translate(-1532 -83)"/><path class="cls-1" d="M1660.66,159.45s.73,21.83,1.1,23.47,4.18,6.73,4.18,6.73l5.73,15,1.82-2.55-.36,4,1.63-.36v1.46l3.1.18-.37-4.37-.91-4.55,2.55-4s5.82-.18,6.18-.54-1.63,2.18-1.27,2.54,1.27.18,3.09-.36a6.52,6.52,0,0,0,3.28-2.73c.18-.36-.37-.91-.37-.91a9.63,9.63,0,0,1,2.37-1.82c.73-.18,3.27-1.27,3.27-1.27s3.1.91,3.1,1.45,1.45.19,1.82.19,1.45,1.81,1.63,1.63.73-1.82,1.09-2,2.91-1.09,3.1-1.27a17.22,17.22,0,0,1,3.63-.55c.73,0,1.82,0,1.82.55a31.28,31.28,0,0,0,1.28,3.82,14.35,14.35,0,0,1,2.54.91,1.2,1.2,0,0,0,1.46.91c1.09-.18,2.91-.37,3.09-.37s2,.91,2.19.91.9-.36,1.45-.18.55,1.09.55,1.27,1.82,3.64,1.82,4.55a28.13,28.13,0,0,1-.19,4c-.18.91-1.27,2.55-.36,4.37s2.18-2.18,2.18-2.18l2.91-9.64.91,1.63,2.19-5.45,6.18-9.46s3.46-12.19,3.46-12.92-.91-21.83-.91-21.83,1.05-7.53.86-8.62-1.41-7.75-1.41-8.3-.73-8.19-.73-8.19l-2.91-6.54-4.54-2.37-4.37-7.09s-3.27-3.1-3.27-3.64-2.37,1.45-2.37,1.45,1.09,3.46-.18,4.19-8.92,8-24.38,5.27-17.64-5.45-17.64-5.64-1.64-2.18-.37-2.91-6.91.18-8.18,1.28-5.83,4-5.83,4.36-1.63,3.64-2,4.55-3.64,11.28-3.45,12-1.1,5.82-1.1,6.18a20.45,20.45,0,0,1-.72,4.19,4.54,4.54,0,0,0-.18,2.72c.18.73,1.45,6.92,1.09,8S1661.48,157.72,1660.66,159.45Z" transform="translate(-1532 -83)"/><path class="cls-43" d="M1687.27,203.47l-2.84.14s-1.08,1.11-1,1.35.89,1.59.53,2.42-1.57,1.3-1.48,1.54a6.38,6.38,0,0,0,.78.94s.62.87.23,1.29a2.5,2.5,0,0,0-1,1.76,1.51,1.51,0,0,0,1,1.42,2.14,2.14,0,0,1,.9,1.58c.11.65,2.5,1.1,2.85,1.65s2.16,1,2.5,1.1-.57,1.74-.24,1.89,2.34,1,2.48.69a4.29,4.29,0,0,1,2-.91,11,11,0,0,0,1.52,1.06c.67.29,1.7-.25,1.53-.32s-.94-1-.87-1.18,2-2.3,1.58-2.68-.49-1.61-.49-1.61a1.38,1.38,0,0,0-.92-.6c-.58-.06,0-1.79-.51-2a19.52,19.52,0,0,1-3.66-4.79,13,13,0,0,1-.57-3.23S1689.51,202.46,1687.27,203.47Z" transform="translate(-1532 -83)"/><path class="cls-43" d="M1716.19,204.79a17.54,17.54,0,0,1,.45,4.15s.22,1.9-.15,2.08,2.42.07,2.42.07l-2.72,1.71,1.81.84.91,2-2.37.73,2.37.54s-1.64.55-1.82.37-1.82-.55-1.64-.37,1.64,1.28,1.82,1.46-.36,1.27-.55,1.27a3.38,3.38,0,0,1-1.27-.36c-.18-.18-1.27-2.18-1.27-1.82a18.89,18.89,0,0,1-.55,2.18s-.55-.54-.91-.18,0,.55-.54.91-1.64-.73-1.82-.91l-1.28-1.27-1.27,1.64a7.8,7.8,0,0,0-.18.9,1.43,1.43,0,0,1-1.09.91,1.93,1.93,0,0,1-1.1-.54l-.36-1.82,1.27-1.46L1706,216l.36-1.45.73-2.37s2.91,0,5.28-3.27l2.18-3.09S1714.38,203,1716.19,204.79Z" transform="translate(-1532 -83)"/><path class="cls-43" d="M1688,201.29s5.66-3.26,8.68-2.56a47.57,47.57,0,0,0,4.9,1.17,24.46,24.46,0,0,0,3.4-.93c.94-.24,10.94,4.19,11.5,4.19.24,0-.93,5.61-6,7.38s-13.47-.19-17.65-.73c-2.17-.29-6.08-5.57-6.35-5.72C1684.75,203.16,1688,201.29,1688,201.29Z" transform="translate(-1532 -83)"/><path class="cls-45" d="M1694.59,152.81l-5.46-3.45s-13.09.54-13.82.91-5.64,4.73-5.64,4.73l1.82,6.54s8,3.82,8.18,3.82H1690l6.14-4.53S1697.5,154.81,1694.59,152.81Z" transform="translate(-1532 -83)"/><path class="cls-46" d="M1706.78,162.27s6.19,5.1,6.74,5.22c3.22.73,7.21,2.11,12.73,1.33,14.19-2,10.55-15.1,10.55-15.1s-4.55-8.91-17.83-7.09c0,0-9.46,1.09-13.28,7.82A20.56,20.56,0,0,0,1706.78,162.27Z" transform="translate(-1532 -83)"/><path class="cls-47" d="M1709.87,158.27s2.37-7.1,7.1-8a30.93,30.93,0,0,1,9.82,0s-5.82,1.45-6.91,3.09-8.37,5.09-8.37,5.09S1709.15,160.27,1709.87,158.27Z" transform="translate(-1532 -83)"/><path class="cls-47" d="M1711.51,161.18a7.3,7.3,0,0,1,2.91,0,12.81,12.81,0,0,0,1.64,1.82c.36.18,5.09.55,5.64.73a17.77,17.77,0,0,1,2.18,1.27s-2.55.73-2.91.73-6.55-1.82-6.55-1.82Z" transform="translate(-1532 -83)"/><path class="cls-48" d="M1711.87,160.23s4.19-3.45,5.64-4.07,5.28-1.25,7.83,1.25a22,22,0,0,1,3.27,3.76s-3.82,2.82-6.91,2.5a30.78,30.78,0,0,1-6-1.32c-.18-.31-2.68-1.49-2.87-1.18S1711,162.11,1711.87,160.23Z" transform="translate(-1532 -83)"/><path class="cls-48" d="M1675.13,159.85a13.11,13.11,0,0,1,4.18-3.65c2.37-1.12,4-2,6.55-.84a13.22,13.22,0,0,1,4.55,3.37c.18.28,1,.26,2.18,1.12,1,.7-1.15,1.16-1.15,1.16a2.39,2.39,0,0,0-1.58.52c-.54.56-6.18,1.68-7.46,1.68A8,8,0,0,1,1675.13,159.85Z" transform="translate(-1532 -83)"/><path class="cls-49" d="M1711.89,145.25c.55,0,3.91-2.55,4.45-2.82s4.19-.18,5.64-.44a49.19,49.19,0,0,1,6.46,0c.37,0,6.79,1,8.24,2s4.16,8.9,4.16,8.9-3.91-7-6.09-7.12-7-.51-7.22-.51a30.86,30.86,0,0,0-6.37,0A65.56,65.56,0,0,1,1711.89,145.25Z" transform="translate(-1532 -83)"/><path class="cls-49" d="M1691.85,143.32a8,8,0,0,0-3.71-.89c-2.55-.13-6.86-.55-6.86-.55a25.89,25.89,0,0,0-5.1.26c-1.27.39-4.54,1-5.09,1.43s-1.44.57-1.81,1.09l-3.41,4.45,3-3-3.78,6.07s5.78-6.85,7-6.59a14.43,14.43,0,0,1,6.73-.26,55.27,55.27,0,0,1,6.92.26,49.93,49.93,0,0,0,7.64.13S1692,143.58,1691.85,143.32Z" transform="translate(-1532 -83)"/><path class="cls-50" d="M1717,144.81s8.73-1.19,9.1-1.19a16.56,16.56,0,0,1,2.73.4,6.55,6.55,0,0,0,.9.39l-3.27-.52Z" transform="translate(-1532 -83)"/><path class="cls-50" d="M1727,142.7c0,.13,3.63,1.45,3.63,1.58s.37.4.37.4l-.18-.66Z" transform="translate(-1532 -83)"/><polygon class="cls-50" points="195.9 59.3 200.08 61.02 200.08 61.28 199.9 61.02 195.9 59.3"/><path class="cls-50" d="M1735,145.34s1,.53,1,.66a11.59,11.59,0,0,0,.44,1.18l-.15-1.31Z" transform="translate(-1532 -83)"/><polygon class="cls-50" points="156.01 62.12 152.74 61.86 155.1 62.51 156.01 62.12"/><polygon class="cls-50" points="186.98 60.75 183.71 60.49 186.07 61.15 186.98 60.75"/><polygon class="cls-50" points="150.19 60.7 147.82 59.79 145.46 60.18 147.64 60.18 150.19 60.7"/><path class="cls-50" d="M1679.1,143.82l-3.64.26A24.57,24.57,0,0,0,1679.1,143.82Z" transform="translate(-1532 -83)"/><polygon class="cls-50" points="138.36 62.12 142 59.79 142.55 59.92 142 60.05 138.36 62.12"/><path class="cls-51" d="M1652.75,168.82s.36-3.27,1.82-4.55,2-6.55,2-6.55-2.91-3.63-4-3.27-1.09,6.37-1.09,6.37a20.39,20.39,0,0,1,.54,4.54A8.93,8.93,0,0,0,1652.75,168.82Z" transform="translate(-1532 -83)"/><path class="cls-52" d="M1656.75,159.18s.37,4-1.45,6a8.66,8.66,0,0,0-2,4.73,7.57,7.57,0,0,1,.18-3.45c.54-1.64,1.45-2,1.82-2.91A10.29,10.29,0,0,0,1656.75,159.18Z" transform="translate(-1532 -83)"/><path class="cls-53" d="M1659.48,166.46l.73-.19s.36,3.1,0,4a31.22,31.22,0,0,1-1.82,3.27s-.36,1.27.55,1.82a2.33,2.33,0,0,1,1.09,1.27s.36.55-.55.55-3.45-1.82-3.82-4a7.11,7.11,0,0,0-1.09-3.1,3.17,3.17,0,0,1,1.82-1.27C1657.48,168.64,1659.12,166.46,1659.48,166.46Z" transform="translate(-1532 -83)"/><path class="cls-52" d="M1655.12,176.83a13.55,13.55,0,0,1,2.72,1.45,7.48,7.48,0,0,1,0,2.91c-.18.18-.54,1.09-.18,1.46s-.73.18-1.27-.55a5.26,5.26,0,0,1-.55-3.09A2.84,2.84,0,0,0,1655.12,176.83Z" transform="translate(-1532 -83)"/><path class="cls-52" d="M1653.3,154.45a2.14,2.14,0,0,0-1.1,0c-.36.18.73-1.09,2-1.46,0,0-1.46,1.1-.91.91S1653.84,154.63,1653.3,154.45Z" transform="translate(-1532 -83)"/><path class="cls-54" d="M1748.26,162.27s2.54-5.09,4.18-4,1.82,4.18,1.82,4.18-1.45,4.37-2,4.73-2.55.73-2.73,0S1748.26,162.27,1748.26,162.27Z" transform="translate(-1532 -83)"/><path class="cls-55" d="M1743.89,171s-.18-1.45.18-1.63,1.64-3.28,3.46-2.37.91,6.55.91,6.91-1.82,5.1-3.46,5.28-2.36-1.46-1.82-1.82a10.12,10.12,0,0,0,1.46-1.45A16.73,16.73,0,0,0,1743.89,171Z" transform="translate(-1532 -83)"/><path class="cls-56" d="M1749.82,173.37s-1.56-8.11-2.18-8.34,1.56.93,2.8,4.17S1749.82,173.37,1749.82,173.37Z" transform="translate(-1532 -83)"/><path class="cls-56" d="M1748.26,178.46s-2,1.46-1.46,2.19,1.09,2.72.55,3.45-1.82.37-2.37.18,1.28-.54.91-1.09-.91-1.45-.91-1.45l-1.63-1.28s.36-1.09,1.09-.91S1747.53,177.55,1748.26,178.46Z" transform="translate(-1532 -83)"/><path class="cls-57" d="M1743.35,185.19s1.45,1.1,1.27,2.19-2,.54-2,.54S1741.16,186.29,1743.35,185.19Z" transform="translate(-1532 -83)"/><path class="cls-58" d="M1750.44,177s-3.16,4.63-2.85,5a1.65,1.65,0,0,1-.19-2.53C1748.8,177.92,1748.26,179.19,1750.44,177Z" transform="translate(-1532 -83)"/><path class="cls-56" d="M1750.26,158.45s1.45-1.27,2.55-1.09c0,0,.36,0,.18-.55a2.74,2.74,0,0,0-1.09-1.27,4.93,4.93,0,0,0-1.82-.36,3.9,3.9,0,0,0-1.09.18s-.37.18-.19.36,1.09-.36,1.46,0,.36.73,0,.73S1749.89,158.45,1750.26,158.45Z" transform="translate(-1532 -83)"/><path class="cls-59" d="M1690.66,202.92c-.06-.23,4.78-5,7.39-3.25a7.1,7.1,0,0,1,2.46,2h.72s2.17-2.75,3.62-2.25a16.82,16.82,0,0,1,4.06,2.25,10.79,10.79,0,0,0,3,1.5c.43,0,1,1,1,1a27.23,27.23,0,0,1-1.74,4.24c-.58.75-1.88,4.25-4.49,5.5,0,0-2.75.75-4.34.25a11.34,11.34,0,0,0-3-.5,6.33,6.33,0,0,1-3.77-1.5C1693.85,210.66,1692,207.91,1690.66,202.92Z" transform="translate(-1532 -83)"/><path class="cls-60" d="M1695.52,209.36a2.09,2.09,0,0,1,2.41.76c1,1.33,5.37,1.14,6.3.57a3.17,3.17,0,0,1,2.5-.57,1.56,1.56,0,0,0,1.3-.19s-4.82,5.13-8.43,2.85S1695.89,209.93,1695.52,209.36Z" transform="translate(-1532 -83)"/><path class="cls-61" d="M1697.74,210.5l.38-.38.18.76h.28l.37-.38.56.57s-.1.57.09.57-.28.38-.37.19-.56-.38-.56-.38a.62.62,0,0,0-.37-.19c-.18,0-.65-.38-.65-.38Z" transform="translate(-1532 -83)"/><path class="cls-61" d="M1701.64,210.88v1.71S1701.91,211.07,1701.64,210.88Z" transform="translate(-1532 -83)"/><path class="cls-61" d="M1702.47,211.45l.09-.38a4.31,4.31,0,0,1,.19.76c0,.19-.28,0-.28,0Z" transform="translate(-1532 -83)"/><path class="cls-61" d="M1703.12,211.64a3.15,3.15,0,0,1,0-.76l.09.76v-.76s.19,1,.19.76v-.57l.18.76S1703.4,212.4,1703.12,211.64Z" transform="translate(-1532 -83)"/><path class="cls-61" d="M1704.14,212.4c0-.19.09-.76.28-.76s.37-.38.37-.38l.09-.38-.19-.19s-.09.38-.18.38h-.19l-.09-.19v.38h-.18v.38Z" transform="translate(-1532 -83)"/><circle class="cls-62" cx="151.24" cy="76.36" r="2.97"/><path class="cls-63" d="M1679.49,204.3l-.73-5.28,1.64-2.73,2.55,1.09s.18,2.73.73,2.55,2.36-.73,2.36-.73l3.64-1.27,2.73-1.82,2.73.73,2.18.54s3.82-.91,3.82-1.27-.18-2.73-.18-2.73l2.55.91v3.27l4.91-1.63s2.36-1.09,3.27-.37,1.82.73,2.19,1.82-1.1.91.54,1.46,4.18.18,4.73.54,2.37-1.09,2.55-.54,1.27,4.55.91,4.55-5.46-.91-5.46-.91l-5.09-3.46h-7.64l-3.28.91-3.09-.36s-4-1.1-5.28-.55a23.54,23.54,0,0,0-3.27,2l-1.82-.18-6.19,2.36-.36,2Z" transform="translate(-1532 -83)"/><path class="cls-63" d="M1667.67,206.11c.18.91,2.54,3.46,2.54,3.46l4.19-2.55-3.09,4.55,2.18,2.73s1.45-2.36,2.36-2.18-.18,5.09-.18,5.09L1680,217s.36,3.46.73,3.27,3.09-.72,3.09-.72L1681,223s1.45,2.37,2,2.37,1.45-.37,1.82-.37.54.73.54.73l3.1,1.09s1.27,2.19,1.82,2.19a22.37,22.37,0,0,1,3.09.91l6.18,2.36,5.82-.73s4-1.27,4.37-1.27,6.19-2,6.19-2l.18-2.73s.54-2.55,1.82-1.64,3.82-1.63,3.82-1.63l-.55-2.19a20.06,20.06,0,0,1,.91-3.09,14,14,0,0,0,3.09-1.27c.37-.37,2.91-3.1,3.46-2.37s3.64-2.36,3.64-2.36l1.27-3.28s2.19-2.55,2.55-3.09,2.55-4.55,2.55-4.55l1.09-.91-2.55,8.73-3.27,6.73-2.37,4.55a38.9,38.9,0,0,1-3.46,4.37c-.9.73-6.54,5.27-7.45,6.18s-8.92,3.82-8.92,3.82l-8.37,2.19-8-.73-6.91-2.73-6.55-4.73-3.64-3.64-6-6.55-1.82-3.82-2.91-4.18Z" transform="translate(-1532 -83)"/><circle class="cls-64" cx="151.28" cy="76.55" r="0.91"/><path class="cls-65" d="M1682.17,158.76s0-.36-.18-.36,0,.18-.18.18a.18.18,0,0,0-.19.18Z" transform="translate(-1532 -83)"/><path class="cls-65" d="M1682.52,157.92a3.84,3.84,0,0,1,.73-.19c.18,0,.36.37.18.37S1682.52,158.1,1682.52,157.92Z" transform="translate(-1532 -83)"/><path class="cls-65" d="M1681.58,159.9s.54.91.9.73a.66.66,0,0,0,.37-.55l-1.09-.55Z" transform="translate(-1532 -83)"/><path class="cls-65" d="M1683.79,158.89a.85.85,0,0,1,.39,0c.16,0-.14-.61-.45-.37S1683.43,158.71,1683.79,158.89Z" transform="translate(-1532 -83)"/><circle class="cls-62" cx="188.65" cy="76.88" r="2.97"/><circle class="cls-64" cx="188.56" cy="76.9" r="0.91"/><path class="cls-65" d="M1719.39,159.44s0-.6-.25-.6,0,.3-.25.3-.25.3-.25.3Z" transform="translate(-1532 -83)"/><path class="cls-65" d="M1720.05,158.35a3.5,3.5,0,0,1,.76-.25c.19,0,.38.49.19.49S1720.05,158.59,1720.05,158.35Z" transform="translate(-1532 -83)"/><path class="cls-65" d="M1721.37,159.4a.64.64,0,0,1,.38-.06c.16.06-.14-.81-.44-.5S1721,159.15,1721.37,159.4Z" transform="translate(-1532 -83)"/><path class="cls-66" d="M1685,154s-6.84-4.2-12.19,3.19C1672.76,157.18,1678.11,152.81,1685,154Z" transform="translate(-1532 -83)"/><path class="cls-67" d="M1690.51,158.76s-7.72-8.16-15.44,1a2,2,0,0,1-1.6.07,8.05,8.05,0,0,1,.91-.18c.18,0-.36-.37-.36-.37a.83.83,0,0,0,.72,0,5.7,5.7,0,0,0,1.1-1.32l-.19-.54a.36.36,0,0,0,.37.36c.36,0,.73-.89.73-1.25,0,0,.18.18.54,0s.18-.73.18-.73.18.54.37.36a5.76,5.76,0,0,1,.91-.54l.36-.73a.89.89,0,0,0,.18.54c.18.19,1.28-.36,1.28-.36v-.55s.25.3.39.51,1.06-.69,1.06-.69-.18.37,0,.37a11.48,11.48,0,0,0,1.27-.37l-.36.37S1686.8,154.31,1690.51,158.76Z" transform="translate(-1532 -83)"/><path class="cls-67" d="M1690,153.36s-12.18-4.19-17.28,4.18C1672.76,157.54,1676.76,150.27,1690,153.36Z" transform="translate(-1532 -83)"/><path class="cls-68" d="M1679.67,152.27s-8.55,1.82-7.45,4.36c0,0,.36.37.54,0S1674.22,153.54,1679.67,152.27Z" transform="translate(-1532 -83)"/><path class="cls-69" d="M1666.21,116.61s4.73-7.82,8-7.64,4.18,5.64,4.18,5.64-2,1.45-1.27,2a30.2,30.2,0,0,1,2.73,3.09l-.73,1.46a23,23,0,0,1-2,2.73c-.73.72-3.46,2.36-2.37,3.27s3.1,2.18,2.19,2.91-4,3.09-4.73,3.82S1662,137,1662,137v28.74l5.27,22.74,4.92,4.73-.55,11.46-2.91-7.82c-.73-1.28-2.91-7.28-2.91-7.28l-1.09-1.46-3.28-5.09-.54-26.38s-.91-14.55-.91-15.1S1662.94,120.25,1666.21,116.61Z" transform="translate(-1532 -83)"/><path class="cls-70" d="M1670.4,120.79l4.36-5.27,1.82-2.18-2.73,1.09.55-2.37.36-1.09-.54-2a11.81,11.81,0,0,0-8,7.64c-2.18,6.37-.91,8.55-.91,8.55l3.1-2Z" transform="translate(-1532 -83)"/><path class="cls-71" d="M1692.77,117l2.91,5.46h-3.45l.54,2.37h2.91l-.36,2a9,9,0,0,0,2.55-.55,5.8,5.8,0,0,1,2.91-.73c.54.19,7.46.37,7.46.37s2.36-2.55,2.72-2.37a37.77,37.77,0,0,1,2.73,2.91s-.54-3.63.55-3.45,4.18,2.36,4.18,2.36.91-3.27,0-3.82-4.73-3.09-4.91-3.64-1.82-1.82-1.82-1.82-5.27,3.46-10.37,2-6.73-3.28-6.73-3.28S1690.41,115.34,1692.77,117Z" transform="translate(-1532 -83)"/><path class="cls-70" d="M1727.88,120.25l-.72-2.55,1.63-1.27,1.82.54.91-2s0-1.27.37-1.09a16.93,16.93,0,0,1,1.81,1.82l2.19,2.73,2.54.73-1.27,1.82.91.91-1.46,4s3.64,3.82,4,4.73.36,6.18.36,6.18l-2.36-1.82-4-4.73s-2.54-1.63-2.18-2.36a6.9,6.9,0,0,0,.73-2.91,10.79,10.79,0,0,0-1.27-2.55C1731.16,121.52,1727.88,120.25,1727.88,120.25Z" transform="translate(-1532 -83)"/><path class="cls-19" d="M1715.15,117l-3.46-.91,2,10.37s-4.36-.36-2.91,3.1,2.37,5.09,2.37,5.09l14,1.27a9.51,9.51,0,0,1,6.73,4.55c2.54,4.19-1.1-4.91-3.46-6.91s2-5.64,2-5.64l.73-2.91-1.27-2.55-4-2.18-.72-2.55,1.63-1.27,1.82.54.91-2,.37-1.09s-.37-2.36-.73-2.55a46.14,46.14,0,0,1-3.1-3.45l-1.63-1.64-1.82,2,1.82,2.19-1.64,1.09-4.91,2.54S1717,117.34,1715.15,117Z" transform="translate(-1532 -83)"/><path class="cls-67" d="M1711.89,160.1s6.83-6.38,12.43-3.21a11.39,11.39,0,0,1,4.35,4.1l-1.79-3-2.1-1.58v-.73l-.55.54-.73-.36v-.55l-.36.19-.37-.91-.18.72-1.09-.18.73-.54-1.82.54-.91-.73v.73l-1.82.78-1.63,1-1.79.74Z" transform="translate(-1532 -83)"/><path class="cls-67" d="M1731.7,159.39s-.72-5.64-13.82-6.19c0,0-5.28.55-7.83,3.82,0,0,3.64-4.54,13.47-2.91A13.38,13.38,0,0,1,1731.7,159.39Z" transform="translate(-1532 -83)"/><path class="cls-72" d="M1694.2,188.88s-4.16-.71-5.07-3.48,2.19-3.12,2.19-3.12,3.82,0,6.18,1.74,8,.86,8,.86,4-3.46,6.73-1.9,2.36,3.11,2.36,3.11a3.74,3.74,0,0,1-2.73,2.08,48.47,48.47,0,0,1-6,.35l-2.18,1-3.82-.35-2.37-1.56-2.54-.52Z" transform="translate(-1532 -83)"/><path class="cls-73" d="M1705.87,188.47s3.46-2.55,5.46-1.64-2,1.82-2,1.82A12.73,12.73,0,0,1,1705.87,188.47Z" transform="translate(-1532 -83)"/><path class="cls-73" d="M1692.23,188.1s-1.86-2.48,1.34-2.06,3.93,1.52,3.93,1.52-3.09-.55-3.09.73S1692.23,188.1,1692.23,188.1Z" transform="translate(-1532 -83)"/><path class="cls-74" d="M1696.41,187.19s-3.27-2.54-3.82-.18c0,0,.18.55.91,0S1696.41,187.19,1696.41,187.19Z" transform="translate(-1532 -83)"/><path class="cls-74" d="M1706.42,188.1s3.63-1.81,4.54-1.27-.36.91-.36.91S1710.42,187.38,1706.42,188.1Z" transform="translate(-1532 -83)"/><path class="cls-75" d="M1701,158.27l-1.46-6.71s1.82-.2,2.19-.2a38.56,38.56,0,0,1,4,2.64l2.55,17.49,2.36,7.11,1.64,1.22-6.73,4.68-1.64,1.42-4.55-1.22-3.09-1.69,4.91-19.46Z" transform="translate(-1532 -83)"/><path class="cls-71" d="M1697.38,157.36c0,.25-.24,15.83-.24,15.83v5.64l-2.37.91-2.6-4.68-.31-1.72Z" transform="translate(-1532 -83)"/><path class="cls-76" d="M1697.68,158.45c0,.18.46,11.28.46,11.28l1.08,2.18,1.38-2.91-.92-10.73-.92-2Z" transform="translate(-1532 -83)"/><path class="cls-77" d="M1698.59,158.45c0,.18.46,11.28.46,11.28l1.08,2.18,1.37-2.91-.91-10.73-.92-2Z" transform="translate(-1532 -83)"/><path class="cls-78" d="M1699.32,158.45c0,.18.32,11.28.32,11.28l.73,2.18,1-2.91-.63-10.73-.63-2Z" transform="translate(-1532 -83)"/><polygon class="cls-79" points="134.21 89.45 139.12 87.82 144.28 93.24 145.31 99.47 139.37 96.49 134.21 97.03 134.21 89.45"/><polygon class="cls-80" points="135.67 89.24 139.93 87.82 144.41 92.56 145.31 98.01 140.15 95.4 135.67 95.88 135.67 89.24"/><polygon class="cls-69" points="136.94 89.46 140.4 88.37 144.04 92.01 144.76 96.19 140.58 94.19 136.94 94.55 136.94 89.46"/><polygon class="cls-67" points="196.61 78.58 192.21 80.44 186.16 80.07 183.51 78.84 180.78 78.58 183.38 79.18 186.24 80.63 192.06 80.89 196.61 78.58"/><path class="cls-81" d="M1714.6,159.06l-2.62,1.12s-1,.88,0,.88,1.19-.22,1.19-.22h.72Z" transform="translate(-1532 -83)"/><path class="cls-82" d="M1691.08,159.36l1.3.33s.78.66.13,1.15h-1.12l-.62.12a3.54,3.54,0,0,1-.62.3c-.24.08.11-2.52.11-2.52A7,7,0,0,1,1691.08,159.36Z" transform="translate(-1532 -83)"/><path class="cls-67" d="M1674.92,160l3.33,2.82,3.33.74,7.57-1.48s1.52-.89,1.21-.74l-1.36.59-6,1.06-4.45-.36Z" transform="translate(-1532 -83)"/><path class="cls-69" d="M1693.32,147.17a55.08,55.08,0,0,1,4.55,4l-1.64,3.28,2.73-2.73,4.55-.55,3.45,4.37a47.92,47.92,0,0,1-1.82-4.55c.18,0,7.83-4,7.83-4s-6.37,1.64-6.74,2Z" transform="translate(-1532 -83)"/><path class="cls-83" d="M1674.32,163.18l6.91,1.82,7.64-.55,3.09-2.36a28.21,28.21,0,0,1-2.36,2.54c-.37.18-8.55.73-8.55.73Z" transform="translate(-1532 -83)"/><path class="cls-84" d="M1712.59,161.9c.24.33,4.17,2.79,4.17,2.79l7.15.81,5.94-3.05-5.92,2.58-7.23-.69Z" transform="translate(-1532 -83)"/><polygon class="cls-69" points="209.71 67.99 209.71 88 203.89 105.1 198.43 109.11 198.79 114.75 199.7 116.38 201.89 110.93 208.21 100.87 211.89 88 209.71 67.99"/><polygon class="cls-85" points="158.23 95.64 149.31 108.56 148.58 111.83 149.49 108.74 157.86 96.74 158.23 95.64"/><polygon class="cls-85" points="180.42 94.73 188.61 105.47 191.88 112.75 188.42 105.65 180.42 94.73"/><polygon class="cls-78" points="165.5 101.1 166.23 98.76 168.05 97.69 168.23 91.1 168.78 91.73 169.32 97.91 172.6 99.82 172.78 102.01 170.78 103.65 167.5 103.83 165.5 101.1"/><path class="cls-78" d="M1698.78,184.28s-5.64-1.45-6.92-1.63-2.71,1.14-2.71,1.14.17-1.14,1.8-1.69S1698.78,184.28,1698.78,184.28Z" transform="translate(-1532 -83)"/><path class="cls-78" d="M1707.69,182.65s3.26-.62,3.45-.4a17.16,17.16,0,0,0,2.36.94s.19.55-1.63.55a22.44,22.44,0,0,0-4,.18c-.73.18-4,1.82-4,1.82Z" transform="translate(-1532 -83)"/><path class="cls-85" d="M1709.66,136.05l18.86-.45s6.38,1,7.27,1.34,3.86,5.05,3.86,5.05l-3.27-4-7.31-1.58Z" transform="translate(-1532 -83)"/><polygon class="cls-85" points="140.55 54.53 143.96 52.31 154.65 52.75 162.82 52.9 165.34 54.24 159.55 53.64 143.96 52.9 137.88 57.8 134.46 62.25 140.55 54.53"/><polygon class="cls-85" points="132.38 60.77 136.99 47.71 145.15 45.33 162.82 44.88 145.6 46.07 137.73 48 132.38 60.77"/><polygon class="cls-85" points="177.07 48 187.61 46.52 202.16 47.71 207.35 51.27 209.88 59.43 206.61 52.01 201.56 48.15 187.01 47.41 177.07 48"/><polygon class="cls-85" points="148.71 47.85 160.15 47.71 171.87 49.78 160.59 48.6 148.71 47.85"/><polygon class="cls-85" points="172.76 45.33 183.3 44.59 189.69 44.29 196.52 45.48 189.54 45.03 172.76 45.33"/><polygon class="cls-85" points="132.98 46.07 139.06 38.95 152.43 37.02 172.32 39.24 152.13 37.46 139.36 39.69 133.28 47.11 132.24 53.2 132.98 46.07"/><polygon class="cls-85" points="165.94 41.92 188.2 39.99 198.04 38.24 206.91 45.92 208.25 50.38 206.31 46.22 197.7 38.65 184.42 41.23 165.94 41.92"/><path class="cls-74" d="M1690.66,202.86s0-.15,1.93,0,11-1,16.63,1l2.22.15a8.56,8.56,0,0,1,1.49.15c.74.15-1.49.45-1.49.45l-2.52.15s.15,2.22-4.16,3.85c0,0-10.09,1.49-10.54-4.45l-1-.89-1.33-.15A.84.84,0,0,1,1690.66,202.86Z" transform="translate(-1532 -83)"/><path class="cls-60" d="M1693.48,201.52l2.23-.74h1.93l1.78.44-3,.15Z" transform="translate(-1532 -83)"/><path class="cls-60" d="M1703.72,200.93l1.49-.45a9.31,9.31,0,0,0,1.78,1c.3,0,1.34.89,1.34.89l-2.53-.74-1.63.15-2.52-.15Z" transform="translate(-1532 -83)"/><path class="cls-86" d="M1695.86,204.49s3.71,5,10.69,1.33C1706.55,205.82,1704.76,201.82,1695.86,204.49Z" transform="translate(-1532 -83)"/></g></svg>